G04 #@! TF.GenerationSoftware,KiCad,Pcbnew,(5.1.2)-1*
G04 #@! TF.CreationDate,2019-06-03T17:34:52+01:00*
G04 #@! TF.ProjectId,Lord Commander,4c6f7264-2043-46f6-9d6d-616e6465722e,rev?*
G04 #@! TF.SameCoordinates,Original*
G04 #@! TF.FileFunction,Soldermask,Top*
G04 #@! TF.FilePolarity,Negative*
%FSLAX46Y46*%
G04 Gerber Fmt 4.6, Leading zero omitted, Abs format (unit mm)*
G04 Created by KiCad (PCBNEW (5.1.2)-1) date 2019-06-03 17:34:52*
%MOMM*%
%LPD*%
G04 APERTURE LIST*
%ADD10C,0.010000*%
%ADD11C,2.100000*%
%ADD12O,2.100000X2.100000*%
G04 APERTURE END LIST*
D10*
G36*
X-10380478Y-7368933D02*
G01*
X-10310553Y-7373696D01*
X-10300177Y-7375087D01*
X-10235405Y-7391636D01*
X-10175998Y-7423832D01*
X-10117191Y-7476564D01*
X-10054220Y-7554722D01*
X-9982322Y-7663192D01*
X-9922420Y-7762690D01*
X-9848538Y-7889829D01*
X-9794745Y-7985914D01*
X-9758940Y-8055941D01*
X-9739018Y-8104906D01*
X-9732879Y-8137806D01*
X-9738419Y-8159636D01*
X-9749928Y-8172555D01*
X-9787610Y-8186494D01*
X-9855472Y-8197116D01*
X-9941450Y-8203869D01*
X-10033480Y-8206204D01*
X-10119500Y-8203566D01*
X-10187445Y-8195407D01*
X-10197908Y-8193037D01*
X-10243074Y-8178155D01*
X-10284842Y-8154514D01*
X-10330007Y-8116148D01*
X-10385362Y-8057090D01*
X-10457698Y-7971373D01*
X-10476780Y-7948083D01*
X-10559169Y-7844067D01*
X-10637682Y-7739257D01*
X-10708536Y-7639338D01*
X-10767944Y-7549993D01*
X-10812122Y-7476905D01*
X-10837285Y-7425757D01*
X-10840053Y-7402586D01*
X-10809731Y-7392169D01*
X-10747290Y-7382981D01*
X-10662936Y-7375544D01*
X-10566878Y-7370377D01*
X-10469323Y-7368000D01*
X-10380478Y-7368933D01*
X-10380478Y-7368933D01*
G37*
X-10380478Y-7368933D02*
X-10310553Y-7373696D01*
X-10300177Y-7375087D01*
X-10235405Y-7391636D01*
X-10175998Y-7423832D01*
X-10117191Y-7476564D01*
X-10054220Y-7554722D01*
X-9982322Y-7663192D01*
X-9922420Y-7762690D01*
X-9848538Y-7889829D01*
X-9794745Y-7985914D01*
X-9758940Y-8055941D01*
X-9739018Y-8104906D01*
X-9732879Y-8137806D01*
X-9738419Y-8159636D01*
X-9749928Y-8172555D01*
X-9787610Y-8186494D01*
X-9855472Y-8197116D01*
X-9941450Y-8203869D01*
X-10033480Y-8206204D01*
X-10119500Y-8203566D01*
X-10187445Y-8195407D01*
X-10197908Y-8193037D01*
X-10243074Y-8178155D01*
X-10284842Y-8154514D01*
X-10330007Y-8116148D01*
X-10385362Y-8057090D01*
X-10457698Y-7971373D01*
X-10476780Y-7948083D01*
X-10559169Y-7844067D01*
X-10637682Y-7739257D01*
X-10708536Y-7639338D01*
X-10767944Y-7549993D01*
X-10812122Y-7476905D01*
X-10837285Y-7425757D01*
X-10840053Y-7402586D01*
X-10809731Y-7392169D01*
X-10747290Y-7382981D01*
X-10662936Y-7375544D01*
X-10566878Y-7370377D01*
X-10469323Y-7368000D01*
X-10380478Y-7368933D01*
G36*
X-8708550Y-7079851D02*
G01*
X-8663652Y-7102057D01*
X-8619931Y-7138339D01*
X-8569732Y-7189630D01*
X-8487372Y-7283910D01*
X-8397992Y-7398532D01*
X-8307630Y-7524490D01*
X-8222323Y-7652778D01*
X-8148109Y-7774391D01*
X-8091025Y-7880322D01*
X-8062002Y-7947020D01*
X-8045552Y-7999857D01*
X-8049230Y-8032506D01*
X-8077404Y-8064069D01*
X-8091592Y-8076446D01*
X-8146642Y-8115820D01*
X-8213003Y-8146328D01*
X-8296603Y-8169110D01*
X-8403368Y-8185305D01*
X-8539225Y-8196051D01*
X-8710100Y-8202486D01*
X-8752416Y-8203426D01*
X-8880334Y-8204933D01*
X-8998132Y-8204361D01*
X-9097402Y-8201902D01*
X-9169739Y-8197748D01*
X-9203282Y-8193153D01*
X-9247842Y-8181456D01*
X-9274249Y-8168605D01*
X-9294147Y-8143715D01*
X-9319183Y-8095905D01*
X-9329635Y-8075069D01*
X-9358674Y-8026603D01*
X-9407755Y-7954255D01*
X-9470436Y-7867170D01*
X-9540276Y-7774492D01*
X-9552653Y-7758508D01*
X-9662870Y-7613288D01*
X-9749218Y-7491967D01*
X-9810623Y-7396255D01*
X-9846016Y-7327863D01*
X-9854325Y-7288501D01*
X-9850998Y-7282228D01*
X-9818692Y-7266956D01*
X-9751541Y-7246210D01*
X-9656445Y-7221555D01*
X-9540304Y-7194557D01*
X-9410016Y-7166779D01*
X-9272482Y-7139787D01*
X-9134600Y-7115145D01*
X-9062226Y-7103335D01*
X-8931462Y-7083461D01*
X-8834339Y-7071975D01*
X-8762740Y-7070297D01*
X-8708550Y-7079851D01*
X-8708550Y-7079851D01*
G37*
X-8708550Y-7079851D02*
X-8663652Y-7102057D01*
X-8619931Y-7138339D01*
X-8569732Y-7189630D01*
X-8487372Y-7283910D01*
X-8397992Y-7398532D01*
X-8307630Y-7524490D01*
X-8222323Y-7652778D01*
X-8148109Y-7774391D01*
X-8091025Y-7880322D01*
X-8062002Y-7947020D01*
X-8045552Y-7999857D01*
X-8049230Y-8032506D01*
X-8077404Y-8064069D01*
X-8091592Y-8076446D01*
X-8146642Y-8115820D01*
X-8213003Y-8146328D01*
X-8296603Y-8169110D01*
X-8403368Y-8185305D01*
X-8539225Y-8196051D01*
X-8710100Y-8202486D01*
X-8752416Y-8203426D01*
X-8880334Y-8204933D01*
X-8998132Y-8204361D01*
X-9097402Y-8201902D01*
X-9169739Y-8197748D01*
X-9203282Y-8193153D01*
X-9247842Y-8181456D01*
X-9274249Y-8168605D01*
X-9294147Y-8143715D01*
X-9319183Y-8095905D01*
X-9329635Y-8075069D01*
X-9358674Y-8026603D01*
X-9407755Y-7954255D01*
X-9470436Y-7867170D01*
X-9540276Y-7774492D01*
X-9552653Y-7758508D01*
X-9662870Y-7613288D01*
X-9749218Y-7491967D01*
X-9810623Y-7396255D01*
X-9846016Y-7327863D01*
X-9854325Y-7288501D01*
X-9850998Y-7282228D01*
X-9818692Y-7266956D01*
X-9751541Y-7246210D01*
X-9656445Y-7221555D01*
X-9540304Y-7194557D01*
X-9410016Y-7166779D01*
X-9272482Y-7139787D01*
X-9134600Y-7115145D01*
X-9062226Y-7103335D01*
X-8931462Y-7083461D01*
X-8834339Y-7071975D01*
X-8762740Y-7070297D01*
X-8708550Y-7079851D01*
G36*
X-39550094Y4819525D02*
G01*
X-39481654Y4801581D01*
X-39387201Y4774392D01*
X-39273754Y4740179D01*
X-39148337Y4701166D01*
X-39017971Y4659575D01*
X-38889677Y4617630D01*
X-38770479Y4577552D01*
X-38667396Y4541565D01*
X-38587452Y4511892D01*
X-38565666Y4503174D01*
X-38467392Y4461421D01*
X-38388033Y4423078D01*
X-38320687Y4382425D01*
X-38258449Y4333742D01*
X-38194415Y4271308D01*
X-38121679Y4189403D01*
X-38033339Y4082308D01*
X-37984483Y4021667D01*
X-37832557Y3836900D01*
X-37654678Y3628294D01*
X-37455640Y3401108D01*
X-37240238Y3160600D01*
X-37013267Y2912029D01*
X-36779521Y2660654D01*
X-36543796Y2411733D01*
X-36310885Y2170526D01*
X-36120916Y1977714D01*
X-35975528Y1832616D01*
X-35854388Y1714140D01*
X-35752765Y1618048D01*
X-35665931Y1540100D01*
X-35589157Y1476056D01*
X-35517712Y1421677D01*
X-35446868Y1372724D01*
X-35443583Y1370557D01*
X-35358822Y1312261D01*
X-35250783Y1234192D01*
X-35128938Y1143407D01*
X-35002756Y1046962D01*
X-34882666Y952675D01*
X-34503655Y656524D01*
X-34096659Y349963D01*
X-33671964Y40676D01*
X-33464500Y-106737D01*
X-33269797Y-247341D01*
X-33110368Y-370102D01*
X-32984048Y-476941D01*
X-32888673Y-569780D01*
X-32822080Y-650539D01*
X-32788585Y-706672D01*
X-32763550Y-776333D01*
X-32742543Y-865537D01*
X-32732852Y-931333D01*
X-32728830Y-1029258D01*
X-32732091Y-1159909D01*
X-32741919Y-1314439D01*
X-32757593Y-1484005D01*
X-32778396Y-1659760D01*
X-32803609Y-1832861D01*
X-32808496Y-1862666D01*
X-32828810Y-1986514D01*
X-32852123Y-2132045D01*
X-32875226Y-2279064D01*
X-32891018Y-2381685D01*
X-32954050Y-2684132D01*
X-33052359Y-3000885D01*
X-33183603Y-3326833D01*
X-33345440Y-3656868D01*
X-33535529Y-3985878D01*
X-33751528Y-4308753D01*
X-33811872Y-4391374D01*
X-33980676Y-4607908D01*
X-34169306Y-4831559D01*
X-34371173Y-5055528D01*
X-34579686Y-5273018D01*
X-34788257Y-5477231D01*
X-34990295Y-5661369D01*
X-35179210Y-5818636D01*
X-35242729Y-5867357D01*
X-35405937Y-5986681D01*
X-35577298Y-6107251D01*
X-35749526Y-6224265D01*
X-35915335Y-6332922D01*
X-36067441Y-6428420D01*
X-36198558Y-6505956D01*
X-36273397Y-6546688D01*
X-36573197Y-6686888D01*
X-36904165Y-6815462D01*
X-37256017Y-6929383D01*
X-37618471Y-7025623D01*
X-37981244Y-7101158D01*
X-38332833Y-7152821D01*
X-38552061Y-7173430D01*
X-38804824Y-7189924D01*
X-39082505Y-7202136D01*
X-39376491Y-7209898D01*
X-39678167Y-7213041D01*
X-39978917Y-7211397D01*
X-40270128Y-7204796D01*
X-40502416Y-7195230D01*
X-40635579Y-7187378D01*
X-40773994Y-7177419D01*
X-40902674Y-7166538D01*
X-41006631Y-7155922D01*
X-41021000Y-7154200D01*
X-41213354Y-7123455D01*
X-41421189Y-7078039D01*
X-41634792Y-7020981D01*
X-41844451Y-6955309D01*
X-42040453Y-6884051D01*
X-42213086Y-6810237D01*
X-42345271Y-6741288D01*
X-42442806Y-6674696D01*
X-42533111Y-6596877D01*
X-42608239Y-6516146D01*
X-42660243Y-6440818D01*
X-42679579Y-6391478D01*
X-42690952Y-6298254D01*
X-42692494Y-6192690D01*
X-42685350Y-6085888D01*
X-42670666Y-5988948D01*
X-42649587Y-5912971D01*
X-42625920Y-5871515D01*
X-42597771Y-5859521D01*
X-42533274Y-5840839D01*
X-42437661Y-5816727D01*
X-42316166Y-5788443D01*
X-42174021Y-5757244D01*
X-42016458Y-5724388D01*
X-41999519Y-5720951D01*
X-41814477Y-5683615D01*
X-41664552Y-5654587D01*
X-41543317Y-5634036D01*
X-41444347Y-5622129D01*
X-41361214Y-5619037D01*
X-41287492Y-5624928D01*
X-41216754Y-5639971D01*
X-41142575Y-5664334D01*
X-41058526Y-5698186D01*
X-40958183Y-5741696D01*
X-40942114Y-5748723D01*
X-40702661Y-5847667D01*
X-40483417Y-5925445D01*
X-40270935Y-5986575D01*
X-40146693Y-6015919D01*
X-40070829Y-6031520D01*
X-39999550Y-6043307D01*
X-39925082Y-6051793D01*
X-39839651Y-6057492D01*
X-39735481Y-6060918D01*
X-39604799Y-6062582D01*
X-39439830Y-6062999D01*
X-39433500Y-6062998D01*
X-39230907Y-6061587D01*
X-39054918Y-6056369D01*
X-38898706Y-6045650D01*
X-38755448Y-6027735D01*
X-38618318Y-6000933D01*
X-38480491Y-5963549D01*
X-38335142Y-5913890D01*
X-38175445Y-5850263D01*
X-37994575Y-5770974D01*
X-37785708Y-5674330D01*
X-37695777Y-5631849D01*
X-37444155Y-5510209D01*
X-37226791Y-5399057D01*
X-37038248Y-5294168D01*
X-36873089Y-5191318D01*
X-36725878Y-5086282D01*
X-36591177Y-4974837D01*
X-36463550Y-4852758D01*
X-36337559Y-4715821D01*
X-36207767Y-4559802D01*
X-36068739Y-4380478D01*
X-36045581Y-4349750D01*
X-35830659Y-4050075D01*
X-35649952Y-3767817D01*
X-35501301Y-3498734D01*
X-35382546Y-3238585D01*
X-35291530Y-2983128D01*
X-35230355Y-2748229D01*
X-35201333Y-2569218D01*
X-35185750Y-2371210D01*
X-35182975Y-2162846D01*
X-35192378Y-1952769D01*
X-35213327Y-1749622D01*
X-35245193Y-1562047D01*
X-35287344Y-1398686D01*
X-35338231Y-1270000D01*
X-35426094Y-1123514D01*
X-35543259Y-969620D01*
X-35680487Y-818417D01*
X-35828537Y-680005D01*
X-35978168Y-564485D01*
X-35992577Y-554771D01*
X-36110619Y-487054D01*
X-36250421Y-423759D01*
X-36345011Y-388958D01*
X-36475752Y-342752D01*
X-36590473Y-294688D01*
X-36697777Y-239715D01*
X-36806269Y-172786D01*
X-36924552Y-88850D01*
X-37061232Y17143D01*
X-37126333Y69565D01*
X-37374707Y258894D01*
X-37634885Y434572D01*
X-37898842Y591976D01*
X-38158554Y726482D01*
X-38405993Y833465D01*
X-38526999Y876636D01*
X-38717218Y934660D01*
X-38899271Y980315D01*
X-39081806Y1014753D01*
X-39273471Y1039125D01*
X-39482913Y1054583D01*
X-39718780Y1062279D01*
X-39930916Y1063624D01*
X-40098647Y1062576D01*
X-40248210Y1059746D01*
X-40385052Y1054289D01*
X-40514617Y1045362D01*
X-40642348Y1032123D01*
X-40773691Y1013728D01*
X-40914089Y989333D01*
X-41068988Y958095D01*
X-41243831Y919171D01*
X-41444064Y871717D01*
X-41675130Y814891D01*
X-41899416Y758696D01*
X-42202728Y682531D01*
X-42469955Y615955D01*
X-42705978Y557869D01*
X-42915673Y507173D01*
X-43103919Y462768D01*
X-43275594Y423554D01*
X-43435577Y388430D01*
X-43588745Y356298D01*
X-43739976Y326058D01*
X-43894148Y296609D01*
X-44056141Y266852D01*
X-44177405Y245143D01*
X-44666200Y164991D01*
X-45127460Y103519D01*
X-45571159Y59788D01*
X-46007276Y32859D01*
X-46445787Y21793D01*
X-46555023Y21394D01*
X-46777428Y23543D01*
X-46989360Y30281D01*
X-47197155Y42342D01*
X-47407147Y60457D01*
X-47625671Y85359D01*
X-47859061Y117781D01*
X-48113651Y158454D01*
X-48395777Y208111D01*
X-48711773Y267485D01*
X-48754155Y275663D01*
X-48898902Y308453D01*
X-49005643Y345408D01*
X-49078705Y390262D01*
X-49122415Y446749D01*
X-49141097Y518605D01*
X-49139234Y608105D01*
X-49120893Y709729D01*
X-49085238Y821031D01*
X-49030323Y945668D01*
X-48954207Y1087296D01*
X-48854944Y1249572D01*
X-48730593Y1436152D01*
X-48601806Y1619250D01*
X-48424259Y1860378D01*
X-48242933Y2094253D01*
X-48060275Y2318409D01*
X-47878735Y2530378D01*
X-47700761Y2727693D01*
X-47528803Y2907888D01*
X-47365309Y3068495D01*
X-47212727Y3207047D01*
X-47073506Y3321076D01*
X-46950096Y3408117D01*
X-46844944Y3465701D01*
X-46760500Y3491362D01*
X-46742523Y3492500D01*
X-46677844Y3483083D01*
X-46607080Y3452434D01*
X-46524256Y3396960D01*
X-46423397Y3313065D01*
X-46381925Y3275583D01*
X-46240120Y3155397D01*
X-46101043Y3060840D01*
X-45954705Y2987292D01*
X-45791114Y2930132D01*
X-45600280Y2884740D01*
X-45495664Y2865707D01*
X-45381687Y2851517D01*
X-45235242Y2840774D01*
X-45066058Y2833559D01*
X-44883866Y2829955D01*
X-44698397Y2830045D01*
X-44519380Y2833909D01*
X-44356547Y2841631D01*
X-44219627Y2853293D01*
X-44206583Y2854818D01*
X-43762944Y2924207D01*
X-43313246Y3026275D01*
X-42855570Y3161770D01*
X-42387998Y3331438D01*
X-41908611Y3536027D01*
X-41415491Y3776282D01*
X-40906718Y4052951D01*
X-40481250Y4304607D01*
X-40282147Y4426319D01*
X-40115951Y4527672D01*
X-39979514Y4610498D01*
X-39869692Y4676627D01*
X-39783338Y4727892D01*
X-39717306Y4766123D01*
X-39668451Y4793151D01*
X-39633626Y4810807D01*
X-39609686Y4820923D01*
X-39593485Y4825330D01*
X-39585496Y4826000D01*
X-39550094Y4819525D01*
X-39550094Y4819525D01*
G37*
X-39550094Y4819525D02*
X-39481654Y4801581D01*
X-39387201Y4774392D01*
X-39273754Y4740179D01*
X-39148337Y4701166D01*
X-39017971Y4659575D01*
X-38889677Y4617630D01*
X-38770479Y4577552D01*
X-38667396Y4541565D01*
X-38587452Y4511892D01*
X-38565666Y4503174D01*
X-38467392Y4461421D01*
X-38388033Y4423078D01*
X-38320687Y4382425D01*
X-38258449Y4333742D01*
X-38194415Y4271308D01*
X-38121679Y4189403D01*
X-38033339Y4082308D01*
X-37984483Y4021667D01*
X-37832557Y3836900D01*
X-37654678Y3628294D01*
X-37455640Y3401108D01*
X-37240238Y3160600D01*
X-37013267Y2912029D01*
X-36779521Y2660654D01*
X-36543796Y2411733D01*
X-36310885Y2170526D01*
X-36120916Y1977714D01*
X-35975528Y1832616D01*
X-35854388Y1714140D01*
X-35752765Y1618048D01*
X-35665931Y1540100D01*
X-35589157Y1476056D01*
X-35517712Y1421677D01*
X-35446868Y1372724D01*
X-35443583Y1370557D01*
X-35358822Y1312261D01*
X-35250783Y1234192D01*
X-35128938Y1143407D01*
X-35002756Y1046962D01*
X-34882666Y952675D01*
X-34503655Y656524D01*
X-34096659Y349963D01*
X-33671964Y40676D01*
X-33464500Y-106737D01*
X-33269797Y-247341D01*
X-33110368Y-370102D01*
X-32984048Y-476941D01*
X-32888673Y-569780D01*
X-32822080Y-650539D01*
X-32788585Y-706672D01*
X-32763550Y-776333D01*
X-32742543Y-865537D01*
X-32732852Y-931333D01*
X-32728830Y-1029258D01*
X-32732091Y-1159909D01*
X-32741919Y-1314439D01*
X-32757593Y-1484005D01*
X-32778396Y-1659760D01*
X-32803609Y-1832861D01*
X-32808496Y-1862666D01*
X-32828810Y-1986514D01*
X-32852123Y-2132045D01*
X-32875226Y-2279064D01*
X-32891018Y-2381685D01*
X-32954050Y-2684132D01*
X-33052359Y-3000885D01*
X-33183603Y-3326833D01*
X-33345440Y-3656868D01*
X-33535529Y-3985878D01*
X-33751528Y-4308753D01*
X-33811872Y-4391374D01*
X-33980676Y-4607908D01*
X-34169306Y-4831559D01*
X-34371173Y-5055528D01*
X-34579686Y-5273018D01*
X-34788257Y-5477231D01*
X-34990295Y-5661369D01*
X-35179210Y-5818636D01*
X-35242729Y-5867357D01*
X-35405937Y-5986681D01*
X-35577298Y-6107251D01*
X-35749526Y-6224265D01*
X-35915335Y-6332922D01*
X-36067441Y-6428420D01*
X-36198558Y-6505956D01*
X-36273397Y-6546688D01*
X-36573197Y-6686888D01*
X-36904165Y-6815462D01*
X-37256017Y-6929383D01*
X-37618471Y-7025623D01*
X-37981244Y-7101158D01*
X-38332833Y-7152821D01*
X-38552061Y-7173430D01*
X-38804824Y-7189924D01*
X-39082505Y-7202136D01*
X-39376491Y-7209898D01*
X-39678167Y-7213041D01*
X-39978917Y-7211397D01*
X-40270128Y-7204796D01*
X-40502416Y-7195230D01*
X-40635579Y-7187378D01*
X-40773994Y-7177419D01*
X-40902674Y-7166538D01*
X-41006631Y-7155922D01*
X-41021000Y-7154200D01*
X-41213354Y-7123455D01*
X-41421189Y-7078039D01*
X-41634792Y-7020981D01*
X-41844451Y-6955309D01*
X-42040453Y-6884051D01*
X-42213086Y-6810237D01*
X-42345271Y-6741288D01*
X-42442806Y-6674696D01*
X-42533111Y-6596877D01*
X-42608239Y-6516146D01*
X-42660243Y-6440818D01*
X-42679579Y-6391478D01*
X-42690952Y-6298254D01*
X-42692494Y-6192690D01*
X-42685350Y-6085888D01*
X-42670666Y-5988948D01*
X-42649587Y-5912971D01*
X-42625920Y-5871515D01*
X-42597771Y-5859521D01*
X-42533274Y-5840839D01*
X-42437661Y-5816727D01*
X-42316166Y-5788443D01*
X-42174021Y-5757244D01*
X-42016458Y-5724388D01*
X-41999519Y-5720951D01*
X-41814477Y-5683615D01*
X-41664552Y-5654587D01*
X-41543317Y-5634036D01*
X-41444347Y-5622129D01*
X-41361214Y-5619037D01*
X-41287492Y-5624928D01*
X-41216754Y-5639971D01*
X-41142575Y-5664334D01*
X-41058526Y-5698186D01*
X-40958183Y-5741696D01*
X-40942114Y-5748723D01*
X-40702661Y-5847667D01*
X-40483417Y-5925445D01*
X-40270935Y-5986575D01*
X-40146693Y-6015919D01*
X-40070829Y-6031520D01*
X-39999550Y-6043307D01*
X-39925082Y-6051793D01*
X-39839651Y-6057492D01*
X-39735481Y-6060918D01*
X-39604799Y-6062582D01*
X-39439830Y-6062999D01*
X-39433500Y-6062998D01*
X-39230907Y-6061587D01*
X-39054918Y-6056369D01*
X-38898706Y-6045650D01*
X-38755448Y-6027735D01*
X-38618318Y-6000933D01*
X-38480491Y-5963549D01*
X-38335142Y-5913890D01*
X-38175445Y-5850263D01*
X-37994575Y-5770974D01*
X-37785708Y-5674330D01*
X-37695777Y-5631849D01*
X-37444155Y-5510209D01*
X-37226791Y-5399057D01*
X-37038248Y-5294168D01*
X-36873089Y-5191318D01*
X-36725878Y-5086282D01*
X-36591177Y-4974837D01*
X-36463550Y-4852758D01*
X-36337559Y-4715821D01*
X-36207767Y-4559802D01*
X-36068739Y-4380478D01*
X-36045581Y-4349750D01*
X-35830659Y-4050075D01*
X-35649952Y-3767817D01*
X-35501301Y-3498734D01*
X-35382546Y-3238585D01*
X-35291530Y-2983128D01*
X-35230355Y-2748229D01*
X-35201333Y-2569218D01*
X-35185750Y-2371210D01*
X-35182975Y-2162846D01*
X-35192378Y-1952769D01*
X-35213327Y-1749622D01*
X-35245193Y-1562047D01*
X-35287344Y-1398686D01*
X-35338231Y-1270000D01*
X-35426094Y-1123514D01*
X-35543259Y-969620D01*
X-35680487Y-818417D01*
X-35828537Y-680005D01*
X-35978168Y-564485D01*
X-35992577Y-554771D01*
X-36110619Y-487054D01*
X-36250421Y-423759D01*
X-36345011Y-388958D01*
X-36475752Y-342752D01*
X-36590473Y-294688D01*
X-36697777Y-239715D01*
X-36806269Y-172786D01*
X-36924552Y-88850D01*
X-37061232Y17143D01*
X-37126333Y69565D01*
X-37374707Y258894D01*
X-37634885Y434572D01*
X-37898842Y591976D01*
X-38158554Y726482D01*
X-38405993Y833465D01*
X-38526999Y876636D01*
X-38717218Y934660D01*
X-38899271Y980315D01*
X-39081806Y1014753D01*
X-39273471Y1039125D01*
X-39482913Y1054583D01*
X-39718780Y1062279D01*
X-39930916Y1063624D01*
X-40098647Y1062576D01*
X-40248210Y1059746D01*
X-40385052Y1054289D01*
X-40514617Y1045362D01*
X-40642348Y1032123D01*
X-40773691Y1013728D01*
X-40914089Y989333D01*
X-41068988Y958095D01*
X-41243831Y919171D01*
X-41444064Y871717D01*
X-41675130Y814891D01*
X-41899416Y758696D01*
X-42202728Y682531D01*
X-42469955Y615955D01*
X-42705978Y557869D01*
X-42915673Y507173D01*
X-43103919Y462768D01*
X-43275594Y423554D01*
X-43435577Y388430D01*
X-43588745Y356298D01*
X-43739976Y326058D01*
X-43894148Y296609D01*
X-44056141Y266852D01*
X-44177405Y245143D01*
X-44666200Y164991D01*
X-45127460Y103519D01*
X-45571159Y59788D01*
X-46007276Y32859D01*
X-46445787Y21793D01*
X-46555023Y21394D01*
X-46777428Y23543D01*
X-46989360Y30281D01*
X-47197155Y42342D01*
X-47407147Y60457D01*
X-47625671Y85359D01*
X-47859061Y117781D01*
X-48113651Y158454D01*
X-48395777Y208111D01*
X-48711773Y267485D01*
X-48754155Y275663D01*
X-48898902Y308453D01*
X-49005643Y345408D01*
X-49078705Y390262D01*
X-49122415Y446749D01*
X-49141097Y518605D01*
X-49139234Y608105D01*
X-49120893Y709729D01*
X-49085238Y821031D01*
X-49030323Y945668D01*
X-48954207Y1087296D01*
X-48854944Y1249572D01*
X-48730593Y1436152D01*
X-48601806Y1619250D01*
X-48424259Y1860378D01*
X-48242933Y2094253D01*
X-48060275Y2318409D01*
X-47878735Y2530378D01*
X-47700761Y2727693D01*
X-47528803Y2907888D01*
X-47365309Y3068495D01*
X-47212727Y3207047D01*
X-47073506Y3321076D01*
X-46950096Y3408117D01*
X-46844944Y3465701D01*
X-46760500Y3491362D01*
X-46742523Y3492500D01*
X-46677844Y3483083D01*
X-46607080Y3452434D01*
X-46524256Y3396960D01*
X-46423397Y3313065D01*
X-46381925Y3275583D01*
X-46240120Y3155397D01*
X-46101043Y3060840D01*
X-45954705Y2987292D01*
X-45791114Y2930132D01*
X-45600280Y2884740D01*
X-45495664Y2865707D01*
X-45381687Y2851517D01*
X-45235242Y2840774D01*
X-45066058Y2833559D01*
X-44883866Y2829955D01*
X-44698397Y2830045D01*
X-44519380Y2833909D01*
X-44356547Y2841631D01*
X-44219627Y2853293D01*
X-44206583Y2854818D01*
X-43762944Y2924207D01*
X-43313246Y3026275D01*
X-42855570Y3161770D01*
X-42387998Y3331438D01*
X-41908611Y3536027D01*
X-41415491Y3776282D01*
X-40906718Y4052951D01*
X-40481250Y4304607D01*
X-40282147Y4426319D01*
X-40115951Y4527672D01*
X-39979514Y4610498D01*
X-39869692Y4676627D01*
X-39783338Y4727892D01*
X-39717306Y4766123D01*
X-39668451Y4793151D01*
X-39633626Y4810807D01*
X-39609686Y4820923D01*
X-39593485Y4825330D01*
X-39585496Y4826000D01*
X-39550094Y4819525D01*
G36*
X-39664837Y686581D02*
G01*
X-39527521Y684667D01*
X-39414910Y680704D01*
X-39318194Y674137D01*
X-39228564Y664410D01*
X-39137211Y650967D01*
X-39063083Y638258D01*
X-38705933Y557809D01*
X-38367177Y446205D01*
X-38041590Y300979D01*
X-37723945Y119665D01*
X-37409014Y-100205D01*
X-37275008Y-205688D01*
X-37149040Y-317937D01*
X-37059942Y-423902D01*
X-37004913Y-531878D01*
X-36981151Y-650161D01*
X-36985853Y-787046D01*
X-37016216Y-950826D01*
X-37019127Y-963083D01*
X-37082528Y-1191010D01*
X-37163019Y-1413840D01*
X-37263092Y-1635836D01*
X-37385238Y-1861257D01*
X-37531951Y-2094364D01*
X-37705723Y-2339419D01*
X-37909047Y-2600682D01*
X-38136375Y-2873055D01*
X-38269194Y-3030529D01*
X-38374162Y-3161353D01*
X-38453498Y-3268676D01*
X-38509423Y-3355643D01*
X-38544157Y-3425403D01*
X-38558193Y-3471005D01*
X-38556741Y-3537610D01*
X-38525667Y-3581085D01*
X-38471554Y-3600238D01*
X-38400985Y-3593875D01*
X-38320543Y-3560805D01*
X-38265565Y-3524021D01*
X-38218333Y-3482211D01*
X-38145548Y-3410886D01*
X-38049475Y-3312441D01*
X-37932379Y-3189269D01*
X-37796529Y-3043765D01*
X-37644188Y-2878324D01*
X-37477624Y-2695338D01*
X-37401500Y-2611089D01*
X-37263916Y-2458493D01*
X-37133431Y-2590316D01*
X-37071805Y-2656538D01*
X-37024786Y-2719346D01*
X-36988966Y-2787305D01*
X-36960935Y-2868978D01*
X-36937286Y-2972929D01*
X-36914610Y-3107722D01*
X-36906893Y-3159517D01*
X-36882041Y-3296632D01*
X-36852882Y-3392900D01*
X-36818270Y-3449690D01*
X-36777061Y-3468369D01*
X-36728107Y-3450306D01*
X-36690290Y-3418214D01*
X-36622579Y-3321757D01*
X-36582156Y-3199061D01*
X-36570006Y-3057053D01*
X-36587112Y-2902665D01*
X-36606134Y-2825750D01*
X-36643203Y-2717464D01*
X-36691428Y-2603090D01*
X-36745666Y-2492624D01*
X-36800775Y-2396061D01*
X-36851611Y-2323397D01*
X-36879837Y-2293792D01*
X-36925964Y-2246836D01*
X-36956113Y-2200968D01*
X-36959271Y-2192388D01*
X-36964780Y-2127422D01*
X-36956004Y-2030302D01*
X-36934259Y-1908231D01*
X-36900860Y-1768409D01*
X-36857122Y-1618037D01*
X-36850743Y-1598083D01*
X-36809992Y-1468573D01*
X-36765806Y-1322707D01*
X-36724529Y-1181659D01*
X-36701733Y-1100666D01*
X-36661237Y-959249D01*
X-36625723Y-854271D01*
X-36591080Y-780823D01*
X-36553201Y-733999D01*
X-36507976Y-708890D01*
X-36451297Y-700590D01*
X-36379055Y-704190D01*
X-36370502Y-705048D01*
X-36215503Y-741391D01*
X-36072774Y-817362D01*
X-35941918Y-933302D01*
X-35822535Y-1089555D01*
X-35728405Y-1257113D01*
X-35642133Y-1452139D01*
X-35582042Y-1639129D01*
X-35544150Y-1833794D01*
X-35524477Y-2051847D01*
X-35523859Y-2064512D01*
X-35519950Y-2271253D01*
X-35529972Y-2461751D01*
X-35555967Y-2642817D01*
X-35599981Y-2821261D01*
X-35664056Y-3003892D01*
X-35750234Y-3197520D01*
X-35860560Y-3408954D01*
X-35997077Y-3645004D01*
X-35999116Y-3648402D01*
X-36139421Y-3870118D01*
X-36280287Y-4065719D01*
X-36433225Y-4249985D01*
X-36609743Y-4437695D01*
X-36628558Y-4456646D01*
X-36911173Y-4720422D01*
X-37208708Y-4961077D01*
X-37516600Y-5175984D01*
X-37830281Y-5362516D01*
X-38145189Y-5518047D01*
X-38456756Y-5639948D01*
X-38760418Y-5725593D01*
X-38872583Y-5748049D01*
X-39030150Y-5770094D01*
X-39202210Y-5784448D01*
X-39376587Y-5790830D01*
X-39541103Y-5788957D01*
X-39683580Y-5778550D01*
X-39752105Y-5768344D01*
X-39871399Y-5741826D01*
X-40016970Y-5703583D01*
X-40175756Y-5657525D01*
X-40334696Y-5607563D01*
X-40480727Y-5557610D01*
X-40576500Y-5521475D01*
X-40845993Y-5392627D01*
X-41086709Y-5232909D01*
X-41298677Y-5042271D01*
X-41481925Y-4820665D01*
X-41636484Y-4568042D01*
X-41762382Y-4284354D01*
X-41859649Y-3969552D01*
X-41928313Y-3623588D01*
X-41968404Y-3246412D01*
X-41971447Y-3196373D01*
X-41979523Y-2995714D01*
X-41980798Y-2794816D01*
X-41974798Y-2588355D01*
X-41961047Y-2371007D01*
X-41939071Y-2137448D01*
X-41908395Y-1882355D01*
X-41868544Y-1600402D01*
X-41819044Y-1286267D01*
X-41780791Y-1058333D01*
X-41752746Y-890640D01*
X-41726647Y-727263D01*
X-41703562Y-575449D01*
X-41684557Y-442449D01*
X-41670696Y-335512D01*
X-41663048Y-261887D01*
X-41662492Y-254000D01*
X-41657923Y-163528D01*
X-41659181Y-103834D01*
X-41667865Y-63572D01*
X-41685574Y-31397D01*
X-41695750Y-17990D01*
X-41748131Y29509D01*
X-41805569Y60818D01*
X-41855734Y72480D01*
X-41892600Y58859D01*
X-41920429Y33829D01*
X-41951154Y-8243D01*
X-41981897Y-74317D01*
X-42013277Y-166946D01*
X-42045911Y-288684D01*
X-42080418Y-442085D01*
X-42117416Y-629704D01*
X-42157525Y-854094D01*
X-42201362Y-1117808D01*
X-42205421Y-1143000D01*
X-42241488Y-1376870D01*
X-42277997Y-1631043D01*
X-42313363Y-1893349D01*
X-42346000Y-2151617D01*
X-42374324Y-2393674D01*
X-42396748Y-2607350D01*
X-42398413Y-2624666D01*
X-42414455Y-3009014D01*
X-42390953Y-3402936D01*
X-42328634Y-3802949D01*
X-42228223Y-4205568D01*
X-42090446Y-4607312D01*
X-41916029Y-5004695D01*
X-41892795Y-5051675D01*
X-41842394Y-5153615D01*
X-41810190Y-5224840D01*
X-41795045Y-5272296D01*
X-41795819Y-5302929D01*
X-41811377Y-5323684D01*
X-41840578Y-5341507D01*
X-41844933Y-5343773D01*
X-41891833Y-5362642D01*
X-41968234Y-5387604D01*
X-42062440Y-5415012D01*
X-42137052Y-5434805D01*
X-42213128Y-5453563D01*
X-42279191Y-5467771D01*
X-42343009Y-5478058D01*
X-42412354Y-5485054D01*
X-42494994Y-5489388D01*
X-42598700Y-5491690D01*
X-42731243Y-5492590D01*
X-42851916Y-5492723D01*
X-43107271Y-5489575D01*
X-43327346Y-5478711D01*
X-43518818Y-5458045D01*
X-43688367Y-5425491D01*
X-43842669Y-5378964D01*
X-43988402Y-5316378D01*
X-44132243Y-5235648D01*
X-44280871Y-5134687D01*
X-44440963Y-5011410D01*
X-44471166Y-4986971D01*
X-44764393Y-4722533D01*
X-45029460Y-4430738D01*
X-45263641Y-4115649D01*
X-45464211Y-3781328D01*
X-45628443Y-3431835D01*
X-45751246Y-3079439D01*
X-45779511Y-2979171D01*
X-45803097Y-2887235D01*
X-45822515Y-2798348D01*
X-45838275Y-2707228D01*
X-45850887Y-2608594D01*
X-45860863Y-2497164D01*
X-45868711Y-2367655D01*
X-45874943Y-2214786D01*
X-45880068Y-2033275D01*
X-45884598Y-1817840D01*
X-45887206Y-1672166D01*
X-45891357Y-1444466D01*
X-45895530Y-1255595D01*
X-45900109Y-1102052D01*
X-45905478Y-980335D01*
X-45912019Y-886943D01*
X-45920117Y-818372D01*
X-45930156Y-771121D01*
X-45942519Y-741689D01*
X-45957589Y-726573D01*
X-45975752Y-722271D01*
X-45991100Y-723932D01*
X-46021526Y-748028D01*
X-46059829Y-805749D01*
X-46102666Y-889900D01*
X-46146693Y-993284D01*
X-46188566Y-1108708D01*
X-46223750Y-1224583D01*
X-46241977Y-1293729D01*
X-46255734Y-1354714D01*
X-46265647Y-1415173D01*
X-46272341Y-1482743D01*
X-46276442Y-1565062D01*
X-46278574Y-1669767D01*
X-46279363Y-1804495D01*
X-46279452Y-1905000D01*
X-46279107Y-2064132D01*
X-46277610Y-2189607D01*
X-46274278Y-2290101D01*
X-46268428Y-2374286D01*
X-46259375Y-2450838D01*
X-46246437Y-2528429D01*
X-46228931Y-2615735D01*
X-46220261Y-2656416D01*
X-46137533Y-2983766D01*
X-46030395Y-3316379D01*
X-45903003Y-3644171D01*
X-45759514Y-3957056D01*
X-45604082Y-4244949D01*
X-45491849Y-4424043D01*
X-45416297Y-4531024D01*
X-45324050Y-4653008D01*
X-45227393Y-4774139D01*
X-45147654Y-4868333D01*
X-45018654Y-5018000D01*
X-44915026Y-5144583D01*
X-44837936Y-5246525D01*
X-44788552Y-5322267D01*
X-44768037Y-5370254D01*
X-44767500Y-5376070D01*
X-44776671Y-5414639D01*
X-44806242Y-5446813D01*
X-44859294Y-5473191D01*
X-44938912Y-5494375D01*
X-45048178Y-5510964D01*
X-45190176Y-5523559D01*
X-45367988Y-5532759D01*
X-45584699Y-5539165D01*
X-45607815Y-5539658D01*
X-45935491Y-5541729D01*
X-46230203Y-5532856D01*
X-46500150Y-5511981D01*
X-46753531Y-5478044D01*
X-46998545Y-5429985D01*
X-47243391Y-5366744D01*
X-47455666Y-5300871D01*
X-47767069Y-5185562D01*
X-48042931Y-5056304D01*
X-48288911Y-4908882D01*
X-48510667Y-4739084D01*
X-48713859Y-4542694D01*
X-48904143Y-4315500D01*
X-49045426Y-4116916D01*
X-49179397Y-3895793D01*
X-49308215Y-3644229D01*
X-49426867Y-3374118D01*
X-49530337Y-3097352D01*
X-49613613Y-2825825D01*
X-49647832Y-2688166D01*
X-49660145Y-2610545D01*
X-49670935Y-2497701D01*
X-49680068Y-2356724D01*
X-49687407Y-2194702D01*
X-49692817Y-2018723D01*
X-49696162Y-1835877D01*
X-49697306Y-1653251D01*
X-49696113Y-1477935D01*
X-49692448Y-1317017D01*
X-49686173Y-1177585D01*
X-49678636Y-1080738D01*
X-49644675Y-818837D01*
X-49599617Y-594936D01*
X-49543707Y-409560D01*
X-49477193Y-263237D01*
X-49400321Y-156496D01*
X-49313337Y-89864D01*
X-49216490Y-63867D01*
X-49202821Y-63500D01*
X-49168245Y-67168D01*
X-49098013Y-77516D01*
X-48998105Y-93559D01*
X-48874497Y-114312D01*
X-48733168Y-138788D01*
X-48580097Y-166004D01*
X-48572062Y-167452D01*
X-48226462Y-226321D01*
X-47906803Y-272920D01*
X-47601108Y-308308D01*
X-47297402Y-333549D01*
X-46983708Y-349704D01*
X-46648051Y-357834D01*
X-46407916Y-359321D01*
X-46069474Y-355694D01*
X-45739980Y-344162D01*
X-45414624Y-324013D01*
X-45088596Y-294533D01*
X-44757085Y-255010D01*
X-44415282Y-204730D01*
X-44058377Y-142981D01*
X-43681558Y-69049D01*
X-43280017Y17778D01*
X-42848943Y118214D01*
X-42383525Y232970D01*
X-42343354Y243122D01*
X-42083456Y308789D01*
X-41859744Y364962D01*
X-41667418Y412744D01*
X-41501680Y453239D01*
X-41357729Y487549D01*
X-41230766Y516777D01*
X-41115991Y542027D01*
X-41008605Y564400D01*
X-40903808Y584999D01*
X-40796801Y604929D01*
X-40682783Y625290D01*
X-40671750Y627228D01*
X-40556168Y646862D01*
X-40457032Y661671D01*
X-40364911Y672330D01*
X-40270378Y679514D01*
X-40164002Y683897D01*
X-40036355Y686151D01*
X-39878007Y686953D01*
X-39835666Y687003D01*
X-39664837Y686581D01*
X-39664837Y686581D01*
G37*
X-39664837Y686581D02*
X-39527521Y684667D01*
X-39414910Y680704D01*
X-39318194Y674137D01*
X-39228564Y664410D01*
X-39137211Y650967D01*
X-39063083Y638258D01*
X-38705933Y557809D01*
X-38367177Y446205D01*
X-38041590Y300979D01*
X-37723945Y119665D01*
X-37409014Y-100205D01*
X-37275008Y-205688D01*
X-37149040Y-317937D01*
X-37059942Y-423902D01*
X-37004913Y-531878D01*
X-36981151Y-650161D01*
X-36985853Y-787046D01*
X-37016216Y-950826D01*
X-37019127Y-963083D01*
X-37082528Y-1191010D01*
X-37163019Y-1413840D01*
X-37263092Y-1635836D01*
X-37385238Y-1861257D01*
X-37531951Y-2094364D01*
X-37705723Y-2339419D01*
X-37909047Y-2600682D01*
X-38136375Y-2873055D01*
X-38269194Y-3030529D01*
X-38374162Y-3161353D01*
X-38453498Y-3268676D01*
X-38509423Y-3355643D01*
X-38544157Y-3425403D01*
X-38558193Y-3471005D01*
X-38556741Y-3537610D01*
X-38525667Y-3581085D01*
X-38471554Y-3600238D01*
X-38400985Y-3593875D01*
X-38320543Y-3560805D01*
X-38265565Y-3524021D01*
X-38218333Y-3482211D01*
X-38145548Y-3410886D01*
X-38049475Y-3312441D01*
X-37932379Y-3189269D01*
X-37796529Y-3043765D01*
X-37644188Y-2878324D01*
X-37477624Y-2695338D01*
X-37401500Y-2611089D01*
X-37263916Y-2458493D01*
X-37133431Y-2590316D01*
X-37071805Y-2656538D01*
X-37024786Y-2719346D01*
X-36988966Y-2787305D01*
X-36960935Y-2868978D01*
X-36937286Y-2972929D01*
X-36914610Y-3107722D01*
X-36906893Y-3159517D01*
X-36882041Y-3296632D01*
X-36852882Y-3392900D01*
X-36818270Y-3449690D01*
X-36777061Y-3468369D01*
X-36728107Y-3450306D01*
X-36690290Y-3418214D01*
X-36622579Y-3321757D01*
X-36582156Y-3199061D01*
X-36570006Y-3057053D01*
X-36587112Y-2902665D01*
X-36606134Y-2825750D01*
X-36643203Y-2717464D01*
X-36691428Y-2603090D01*
X-36745666Y-2492624D01*
X-36800775Y-2396061D01*
X-36851611Y-2323397D01*
X-36879837Y-2293792D01*
X-36925964Y-2246836D01*
X-36956113Y-2200968D01*
X-36959271Y-2192388D01*
X-36964780Y-2127422D01*
X-36956004Y-2030302D01*
X-36934259Y-1908231D01*
X-36900860Y-1768409D01*
X-36857122Y-1618037D01*
X-36850743Y-1598083D01*
X-36809992Y-1468573D01*
X-36765806Y-1322707D01*
X-36724529Y-1181659D01*
X-36701733Y-1100666D01*
X-36661237Y-959249D01*
X-36625723Y-854271D01*
X-36591080Y-780823D01*
X-36553201Y-733999D01*
X-36507976Y-708890D01*
X-36451297Y-700590D01*
X-36379055Y-704190D01*
X-36370502Y-705048D01*
X-36215503Y-741391D01*
X-36072774Y-817362D01*
X-35941918Y-933302D01*
X-35822535Y-1089555D01*
X-35728405Y-1257113D01*
X-35642133Y-1452139D01*
X-35582042Y-1639129D01*
X-35544150Y-1833794D01*
X-35524477Y-2051847D01*
X-35523859Y-2064512D01*
X-35519950Y-2271253D01*
X-35529972Y-2461751D01*
X-35555967Y-2642817D01*
X-35599981Y-2821261D01*
X-35664056Y-3003892D01*
X-35750234Y-3197520D01*
X-35860560Y-3408954D01*
X-35997077Y-3645004D01*
X-35999116Y-3648402D01*
X-36139421Y-3870118D01*
X-36280287Y-4065719D01*
X-36433225Y-4249985D01*
X-36609743Y-4437695D01*
X-36628558Y-4456646D01*
X-36911173Y-4720422D01*
X-37208708Y-4961077D01*
X-37516600Y-5175984D01*
X-37830281Y-5362516D01*
X-38145189Y-5518047D01*
X-38456756Y-5639948D01*
X-38760418Y-5725593D01*
X-38872583Y-5748049D01*
X-39030150Y-5770094D01*
X-39202210Y-5784448D01*
X-39376587Y-5790830D01*
X-39541103Y-5788957D01*
X-39683580Y-5778550D01*
X-39752105Y-5768344D01*
X-39871399Y-5741826D01*
X-40016970Y-5703583D01*
X-40175756Y-5657525D01*
X-40334696Y-5607563D01*
X-40480727Y-5557610D01*
X-40576500Y-5521475D01*
X-40845993Y-5392627D01*
X-41086709Y-5232909D01*
X-41298677Y-5042271D01*
X-41481925Y-4820665D01*
X-41636484Y-4568042D01*
X-41762382Y-4284354D01*
X-41859649Y-3969552D01*
X-41928313Y-3623588D01*
X-41968404Y-3246412D01*
X-41971447Y-3196373D01*
X-41979523Y-2995714D01*
X-41980798Y-2794816D01*
X-41974798Y-2588355D01*
X-41961047Y-2371007D01*
X-41939071Y-2137448D01*
X-41908395Y-1882355D01*
X-41868544Y-1600402D01*
X-41819044Y-1286267D01*
X-41780791Y-1058333D01*
X-41752746Y-890640D01*
X-41726647Y-727263D01*
X-41703562Y-575449D01*
X-41684557Y-442449D01*
X-41670696Y-335512D01*
X-41663048Y-261887D01*
X-41662492Y-254000D01*
X-41657923Y-163528D01*
X-41659181Y-103834D01*
X-41667865Y-63572D01*
X-41685574Y-31397D01*
X-41695750Y-17990D01*
X-41748131Y29509D01*
X-41805569Y60818D01*
X-41855734Y72480D01*
X-41892600Y58859D01*
X-41920429Y33829D01*
X-41951154Y-8243D01*
X-41981897Y-74317D01*
X-42013277Y-166946D01*
X-42045911Y-288684D01*
X-42080418Y-442085D01*
X-42117416Y-629704D01*
X-42157525Y-854094D01*
X-42201362Y-1117808D01*
X-42205421Y-1143000D01*
X-42241488Y-1376870D01*
X-42277997Y-1631043D01*
X-42313363Y-1893349D01*
X-42346000Y-2151617D01*
X-42374324Y-2393674D01*
X-42396748Y-2607350D01*
X-42398413Y-2624666D01*
X-42414455Y-3009014D01*
X-42390953Y-3402936D01*
X-42328634Y-3802949D01*
X-42228223Y-4205568D01*
X-42090446Y-4607312D01*
X-41916029Y-5004695D01*
X-41892795Y-5051675D01*
X-41842394Y-5153615D01*
X-41810190Y-5224840D01*
X-41795045Y-5272296D01*
X-41795819Y-5302929D01*
X-41811377Y-5323684D01*
X-41840578Y-5341507D01*
X-41844933Y-5343773D01*
X-41891833Y-5362642D01*
X-41968234Y-5387604D01*
X-42062440Y-5415012D01*
X-42137052Y-5434805D01*
X-42213128Y-5453563D01*
X-42279191Y-5467771D01*
X-42343009Y-5478058D01*
X-42412354Y-5485054D01*
X-42494994Y-5489388D01*
X-42598700Y-5491690D01*
X-42731243Y-5492590D01*
X-42851916Y-5492723D01*
X-43107271Y-5489575D01*
X-43327346Y-5478711D01*
X-43518818Y-5458045D01*
X-43688367Y-5425491D01*
X-43842669Y-5378964D01*
X-43988402Y-5316378D01*
X-44132243Y-5235648D01*
X-44280871Y-5134687D01*
X-44440963Y-5011410D01*
X-44471166Y-4986971D01*
X-44764393Y-4722533D01*
X-45029460Y-4430738D01*
X-45263641Y-4115649D01*
X-45464211Y-3781328D01*
X-45628443Y-3431835D01*
X-45751246Y-3079439D01*
X-45779511Y-2979171D01*
X-45803097Y-2887235D01*
X-45822515Y-2798348D01*
X-45838275Y-2707228D01*
X-45850887Y-2608594D01*
X-45860863Y-2497164D01*
X-45868711Y-2367655D01*
X-45874943Y-2214786D01*
X-45880068Y-2033275D01*
X-45884598Y-1817840D01*
X-45887206Y-1672166D01*
X-45891357Y-1444466D01*
X-45895530Y-1255595D01*
X-45900109Y-1102052D01*
X-45905478Y-980335D01*
X-45912019Y-886943D01*
X-45920117Y-818372D01*
X-45930156Y-771121D01*
X-45942519Y-741689D01*
X-45957589Y-726573D01*
X-45975752Y-722271D01*
X-45991100Y-723932D01*
X-46021526Y-748028D01*
X-46059829Y-805749D01*
X-46102666Y-889900D01*
X-46146693Y-993284D01*
X-46188566Y-1108708D01*
X-46223750Y-1224583D01*
X-46241977Y-1293729D01*
X-46255734Y-1354714D01*
X-46265647Y-1415173D01*
X-46272341Y-1482743D01*
X-46276442Y-1565062D01*
X-46278574Y-1669767D01*
X-46279363Y-1804495D01*
X-46279452Y-1905000D01*
X-46279107Y-2064132D01*
X-46277610Y-2189607D01*
X-46274278Y-2290101D01*
X-46268428Y-2374286D01*
X-46259375Y-2450838D01*
X-46246437Y-2528429D01*
X-46228931Y-2615735D01*
X-46220261Y-2656416D01*
X-46137533Y-2983766D01*
X-46030395Y-3316379D01*
X-45903003Y-3644171D01*
X-45759514Y-3957056D01*
X-45604082Y-4244949D01*
X-45491849Y-4424043D01*
X-45416297Y-4531024D01*
X-45324050Y-4653008D01*
X-45227393Y-4774139D01*
X-45147654Y-4868333D01*
X-45018654Y-5018000D01*
X-44915026Y-5144583D01*
X-44837936Y-5246525D01*
X-44788552Y-5322267D01*
X-44768037Y-5370254D01*
X-44767500Y-5376070D01*
X-44776671Y-5414639D01*
X-44806242Y-5446813D01*
X-44859294Y-5473191D01*
X-44938912Y-5494375D01*
X-45048178Y-5510964D01*
X-45190176Y-5523559D01*
X-45367988Y-5532759D01*
X-45584699Y-5539165D01*
X-45607815Y-5539658D01*
X-45935491Y-5541729D01*
X-46230203Y-5532856D01*
X-46500150Y-5511981D01*
X-46753531Y-5478044D01*
X-46998545Y-5429985D01*
X-47243391Y-5366744D01*
X-47455666Y-5300871D01*
X-47767069Y-5185562D01*
X-48042931Y-5056304D01*
X-48288911Y-4908882D01*
X-48510667Y-4739084D01*
X-48713859Y-4542694D01*
X-48904143Y-4315500D01*
X-49045426Y-4116916D01*
X-49179397Y-3895793D01*
X-49308215Y-3644229D01*
X-49426867Y-3374118D01*
X-49530337Y-3097352D01*
X-49613613Y-2825825D01*
X-49647832Y-2688166D01*
X-49660145Y-2610545D01*
X-49670935Y-2497701D01*
X-49680068Y-2356724D01*
X-49687407Y-2194702D01*
X-49692817Y-2018723D01*
X-49696162Y-1835877D01*
X-49697306Y-1653251D01*
X-49696113Y-1477935D01*
X-49692448Y-1317017D01*
X-49686173Y-1177585D01*
X-49678636Y-1080738D01*
X-49644675Y-818837D01*
X-49599617Y-594936D01*
X-49543707Y-409560D01*
X-49477193Y-263237D01*
X-49400321Y-156496D01*
X-49313337Y-89864D01*
X-49216490Y-63867D01*
X-49202821Y-63500D01*
X-49168245Y-67168D01*
X-49098013Y-77516D01*
X-48998105Y-93559D01*
X-48874497Y-114312D01*
X-48733168Y-138788D01*
X-48580097Y-166004D01*
X-48572062Y-167452D01*
X-48226462Y-226321D01*
X-47906803Y-272920D01*
X-47601108Y-308308D01*
X-47297402Y-333549D01*
X-46983708Y-349704D01*
X-46648051Y-357834D01*
X-46407916Y-359321D01*
X-46069474Y-355694D01*
X-45739980Y-344162D01*
X-45414624Y-324013D01*
X-45088596Y-294533D01*
X-44757085Y-255010D01*
X-44415282Y-204730D01*
X-44058377Y-142981D01*
X-43681558Y-69049D01*
X-43280017Y17778D01*
X-42848943Y118214D01*
X-42383525Y232970D01*
X-42343354Y243122D01*
X-42083456Y308789D01*
X-41859744Y364962D01*
X-41667418Y412744D01*
X-41501680Y453239D01*
X-41357729Y487549D01*
X-41230766Y516777D01*
X-41115991Y542027D01*
X-41008605Y564400D01*
X-40903808Y584999D01*
X-40796801Y604929D01*
X-40682783Y625290D01*
X-40671750Y627228D01*
X-40556168Y646862D01*
X-40457032Y661671D01*
X-40364911Y672330D01*
X-40270378Y679514D01*
X-40164002Y683897D01*
X-40036355Y686151D01*
X-39878007Y686953D01*
X-39835666Y687003D01*
X-39664837Y686581D01*
G36*
X-18997416Y-2500386D02*
G01*
X-18996775Y-2501052D01*
X-18960828Y-2542195D01*
X-18903918Y-2611037D01*
X-18830728Y-2701601D01*
X-18745944Y-2807908D01*
X-18654252Y-2923981D01*
X-18560336Y-3043841D01*
X-18468882Y-3161509D01*
X-18384574Y-3271007D01*
X-18312099Y-3366358D01*
X-18256140Y-3441583D01*
X-18222463Y-3489081D01*
X-18161013Y-3584629D01*
X-18123165Y-3655718D01*
X-18106407Y-3711209D01*
X-18108224Y-3759964D01*
X-18126106Y-3810843D01*
X-18129286Y-3817670D01*
X-18158910Y-3861479D01*
X-18215193Y-3928177D01*
X-18292954Y-4012756D01*
X-18387009Y-4110210D01*
X-18492177Y-4215531D01*
X-18603273Y-4323712D01*
X-18715116Y-4429745D01*
X-18822524Y-4528625D01*
X-18920312Y-4615343D01*
X-19003300Y-4684892D01*
X-19066304Y-4732266D01*
X-19092004Y-4747788D01*
X-19170827Y-4783862D01*
X-19232405Y-4799888D01*
X-19291464Y-4795639D01*
X-19362731Y-4770887D01*
X-19424805Y-4742642D01*
X-19563922Y-4668864D01*
X-19712460Y-4576610D01*
X-19857177Y-4475009D01*
X-19984826Y-4373193D01*
X-20056315Y-4307301D01*
X-20173226Y-4173503D01*
X-20250842Y-4043778D01*
X-20291355Y-3913771D01*
X-20298833Y-3825178D01*
X-20296987Y-3762912D01*
X-20288239Y-3713341D01*
X-20267775Y-3664064D01*
X-20230781Y-3602680D01*
X-20187708Y-3538935D01*
X-20037897Y-3344277D01*
X-19853453Y-3143540D01*
X-19640403Y-2942439D01*
X-19404771Y-2746684D01*
X-19169078Y-2573348D01*
X-19095053Y-2523969D01*
X-19046818Y-2497468D01*
X-19016797Y-2490666D01*
X-18997416Y-2500386D01*
X-18997416Y-2500386D01*
G37*
X-18997416Y-2500386D02*
X-18996775Y-2501052D01*
X-18960828Y-2542195D01*
X-18903918Y-2611037D01*
X-18830728Y-2701601D01*
X-18745944Y-2807908D01*
X-18654252Y-2923981D01*
X-18560336Y-3043841D01*
X-18468882Y-3161509D01*
X-18384574Y-3271007D01*
X-18312099Y-3366358D01*
X-18256140Y-3441583D01*
X-18222463Y-3489081D01*
X-18161013Y-3584629D01*
X-18123165Y-3655718D01*
X-18106407Y-3711209D01*
X-18108224Y-3759964D01*
X-18126106Y-3810843D01*
X-18129286Y-3817670D01*
X-18158910Y-3861479D01*
X-18215193Y-3928177D01*
X-18292954Y-4012756D01*
X-18387009Y-4110210D01*
X-18492177Y-4215531D01*
X-18603273Y-4323712D01*
X-18715116Y-4429745D01*
X-18822524Y-4528625D01*
X-18920312Y-4615343D01*
X-19003300Y-4684892D01*
X-19066304Y-4732266D01*
X-19092004Y-4747788D01*
X-19170827Y-4783862D01*
X-19232405Y-4799888D01*
X-19291464Y-4795639D01*
X-19362731Y-4770887D01*
X-19424805Y-4742642D01*
X-19563922Y-4668864D01*
X-19712460Y-4576610D01*
X-19857177Y-4475009D01*
X-19984826Y-4373193D01*
X-20056315Y-4307301D01*
X-20173226Y-4173503D01*
X-20250842Y-4043778D01*
X-20291355Y-3913771D01*
X-20298833Y-3825178D01*
X-20296987Y-3762912D01*
X-20288239Y-3713341D01*
X-20267775Y-3664064D01*
X-20230781Y-3602680D01*
X-20187708Y-3538935D01*
X-20037897Y-3344277D01*
X-19853453Y-3143540D01*
X-19640403Y-2942439D01*
X-19404771Y-2746684D01*
X-19169078Y-2573348D01*
X-19095053Y-2523969D01*
X-19046818Y-2497468D01*
X-19016797Y-2490666D01*
X-18997416Y-2500386D01*
G36*
X-17655980Y-2309316D02*
G01*
X-17577496Y-2324531D01*
X-17464344Y-2354365D01*
X-17314635Y-2399226D01*
X-17230215Y-2425903D01*
X-17050726Y-2484735D01*
X-16908819Y-2534787D01*
X-16801096Y-2577890D01*
X-16724156Y-2615872D01*
X-16674600Y-2650563D01*
X-16649028Y-2683791D01*
X-16644041Y-2717387D01*
X-16649473Y-2738375D01*
X-16677308Y-2772402D01*
X-16737372Y-2820799D01*
X-16823823Y-2879426D01*
X-16930815Y-2944146D01*
X-16976856Y-2970150D01*
X-17115629Y-3047055D01*
X-17221715Y-2936402D01*
X-17292508Y-2859911D01*
X-17370505Y-2771261D01*
X-17450815Y-2676534D01*
X-17528546Y-2581811D01*
X-17598809Y-2493173D01*
X-17656713Y-2416703D01*
X-17697368Y-2358481D01*
X-17715882Y-2324589D01*
X-17716500Y-2321118D01*
X-17701685Y-2308314D01*
X-17655980Y-2309316D01*
X-17655980Y-2309316D01*
G37*
X-17655980Y-2309316D02*
X-17577496Y-2324531D01*
X-17464344Y-2354365D01*
X-17314635Y-2399226D01*
X-17230215Y-2425903D01*
X-17050726Y-2484735D01*
X-16908819Y-2534787D01*
X-16801096Y-2577890D01*
X-16724156Y-2615872D01*
X-16674600Y-2650563D01*
X-16649028Y-2683791D01*
X-16644041Y-2717387D01*
X-16649473Y-2738375D01*
X-16677308Y-2772402D01*
X-16737372Y-2820799D01*
X-16823823Y-2879426D01*
X-16930815Y-2944146D01*
X-16976856Y-2970150D01*
X-17115629Y-3047055D01*
X-17221715Y-2936402D01*
X-17292508Y-2859911D01*
X-17370505Y-2771261D01*
X-17450815Y-2676534D01*
X-17528546Y-2581811D01*
X-17598809Y-2493173D01*
X-17656713Y-2416703D01*
X-17697368Y-2358481D01*
X-17715882Y-2324589D01*
X-17716500Y-2321118D01*
X-17701685Y-2308314D01*
X-17655980Y-2309316D01*
G36*
X1324940Y-1898745D02*
G01*
X1343275Y-1917734D01*
X1369430Y-1968978D01*
X1397665Y-2049448D01*
X1424267Y-2146437D01*
X1445524Y-2247234D01*
X1452540Y-2291774D01*
X1466254Y-2391833D01*
X1331086Y-2390491D01*
X1251517Y-2386733D01*
X1182795Y-2378350D01*
X1146822Y-2369463D01*
X1124482Y-2359392D01*
X1111722Y-2346050D01*
X1109584Y-2322523D01*
X1119109Y-2281897D01*
X1141338Y-2217260D01*
X1177311Y-2121696D01*
X1188582Y-2092142D01*
X1231156Y-1988947D01*
X1266432Y-1924167D01*
X1296872Y-1895026D01*
X1324940Y-1898745D01*
X1324940Y-1898745D01*
G37*
X1324940Y-1898745D02*
X1343275Y-1917734D01*
X1369430Y-1968978D01*
X1397665Y-2049448D01*
X1424267Y-2146437D01*
X1445524Y-2247234D01*
X1452540Y-2291774D01*
X1466254Y-2391833D01*
X1331086Y-2390491D01*
X1251517Y-2386733D01*
X1182795Y-2378350D01*
X1146822Y-2369463D01*
X1124482Y-2359392D01*
X1111722Y-2346050D01*
X1109584Y-2322523D01*
X1119109Y-2281897D01*
X1141338Y-2217260D01*
X1177311Y-2121696D01*
X1188582Y-2092142D01*
X1231156Y-1988947D01*
X1266432Y-1924167D01*
X1296872Y-1895026D01*
X1324940Y-1898745D01*
G36*
X-14748485Y-510415D02*
G01*
X-14709833Y-520097D01*
X-14676129Y-540691D01*
X-14651106Y-560990D01*
X-14598830Y-616705D01*
X-14548705Y-688418D01*
X-14532829Y-717132D01*
X-14494922Y-802068D01*
X-14454938Y-907200D01*
X-14415139Y-1024574D01*
X-14377785Y-1146234D01*
X-14345137Y-1264223D01*
X-14319456Y-1370586D01*
X-14303003Y-1457368D01*
X-14298039Y-1516612D01*
X-14300733Y-1533856D01*
X-14323279Y-1552083D01*
X-14380468Y-1585365D01*
X-14468188Y-1631725D01*
X-14582323Y-1689187D01*
X-14718762Y-1755774D01*
X-14873391Y-1829511D01*
X-15042097Y-1908420D01*
X-15220765Y-1990526D01*
X-15405284Y-2073852D01*
X-15591539Y-2156422D01*
X-15647125Y-2180744D01*
X-15832000Y-2261378D01*
X-15943458Y-2169167D01*
X-16013903Y-2106599D01*
X-16097886Y-2025165D01*
X-16190900Y-1929962D01*
X-16288439Y-1826086D01*
X-16385997Y-1718633D01*
X-16479065Y-1612698D01*
X-16563138Y-1513378D01*
X-16633710Y-1425770D01*
X-16686272Y-1354967D01*
X-16716319Y-1306068D01*
X-16721666Y-1289194D01*
X-16703816Y-1248909D01*
X-16654764Y-1195379D01*
X-16581262Y-1134116D01*
X-16490059Y-1070632D01*
X-16387905Y-1010438D01*
X-16366390Y-999091D01*
X-16216038Y-926866D01*
X-16043925Y-853326D01*
X-15857710Y-780988D01*
X-15665053Y-712369D01*
X-15473613Y-649986D01*
X-15291051Y-596356D01*
X-15125025Y-553996D01*
X-14983196Y-525423D01*
X-14890271Y-514043D01*
X-14804493Y-509209D01*
X-14748485Y-510415D01*
X-14748485Y-510415D01*
G37*
X-14748485Y-510415D02*
X-14709833Y-520097D01*
X-14676129Y-540691D01*
X-14651106Y-560990D01*
X-14598830Y-616705D01*
X-14548705Y-688418D01*
X-14532829Y-717132D01*
X-14494922Y-802068D01*
X-14454938Y-907200D01*
X-14415139Y-1024574D01*
X-14377785Y-1146234D01*
X-14345137Y-1264223D01*
X-14319456Y-1370586D01*
X-14303003Y-1457368D01*
X-14298039Y-1516612D01*
X-14300733Y-1533856D01*
X-14323279Y-1552083D01*
X-14380468Y-1585365D01*
X-14468188Y-1631725D01*
X-14582323Y-1689187D01*
X-14718762Y-1755774D01*
X-14873391Y-1829511D01*
X-15042097Y-1908420D01*
X-15220765Y-1990526D01*
X-15405284Y-2073852D01*
X-15591539Y-2156422D01*
X-15647125Y-2180744D01*
X-15832000Y-2261378D01*
X-15943458Y-2169167D01*
X-16013903Y-2106599D01*
X-16097886Y-2025165D01*
X-16190900Y-1929962D01*
X-16288439Y-1826086D01*
X-16385997Y-1718633D01*
X-16479065Y-1612698D01*
X-16563138Y-1513378D01*
X-16633710Y-1425770D01*
X-16686272Y-1354967D01*
X-16716319Y-1306068D01*
X-16721666Y-1289194D01*
X-16703816Y-1248909D01*
X-16654764Y-1195379D01*
X-16581262Y-1134116D01*
X-16490059Y-1070632D01*
X-16387905Y-1010438D01*
X-16366390Y-999091D01*
X-16216038Y-926866D01*
X-16043925Y-853326D01*
X-15857710Y-780988D01*
X-15665053Y-712369D01*
X-15473613Y-649986D01*
X-15291051Y-596356D01*
X-15125025Y-553996D01*
X-14983196Y-525423D01*
X-14890271Y-514043D01*
X-14804493Y-509209D01*
X-14748485Y-510415D01*
G36*
X-454189Y-204113D02*
G01*
X-347681Y-226897D01*
X-217202Y-263593D01*
X-55471Y-315769D01*
X-50546Y-317426D01*
X162768Y-395541D01*
X335806Y-472861D01*
X470585Y-550395D01*
X564250Y-624422D01*
X635329Y-705903D01*
X668241Y-780071D01*
X665142Y-852490D01*
X659398Y-869918D01*
X627147Y-930735D01*
X568952Y-1015812D01*
X489140Y-1119819D01*
X392043Y-1237426D01*
X281988Y-1363303D01*
X163306Y-1492120D01*
X102591Y-1555442D01*
X-8687Y-1668776D01*
X-96215Y-1754365D01*
X-164886Y-1815637D01*
X-219595Y-1856019D01*
X-265235Y-1878937D01*
X-306700Y-1887818D01*
X-348883Y-1886089D01*
X-365782Y-1883423D01*
X-464567Y-1856146D01*
X-535907Y-1810713D01*
X-585710Y-1740326D01*
X-619883Y-1638190D01*
X-632307Y-1576823D01*
X-639614Y-1521886D01*
X-648887Y-1432147D01*
X-659562Y-1315060D01*
X-671075Y-1178081D01*
X-682864Y-1028664D01*
X-694364Y-874265D01*
X-705014Y-722339D01*
X-714248Y-580341D01*
X-721505Y-455726D01*
X-726221Y-355950D01*
X-727455Y-317500D01*
X-730250Y-201083D01*
X-624416Y-194021D01*
X-544007Y-193676D01*
X-454189Y-204113D01*
X-454189Y-204113D01*
G37*
X-454189Y-204113D02*
X-347681Y-226897D01*
X-217202Y-263593D01*
X-55471Y-315769D01*
X-50546Y-317426D01*
X162768Y-395541D01*
X335806Y-472861D01*
X470585Y-550395D01*
X564250Y-624422D01*
X635329Y-705903D01*
X668241Y-780071D01*
X665142Y-852490D01*
X659398Y-869918D01*
X627147Y-930735D01*
X568952Y-1015812D01*
X489140Y-1119819D01*
X392043Y-1237426D01*
X281988Y-1363303D01*
X163306Y-1492120D01*
X102591Y-1555442D01*
X-8687Y-1668776D01*
X-96215Y-1754365D01*
X-164886Y-1815637D01*
X-219595Y-1856019D01*
X-265235Y-1878937D01*
X-306700Y-1887818D01*
X-348883Y-1886089D01*
X-365782Y-1883423D01*
X-464567Y-1856146D01*
X-535907Y-1810713D01*
X-585710Y-1740326D01*
X-619883Y-1638190D01*
X-632307Y-1576823D01*
X-639614Y-1521886D01*
X-648887Y-1432147D01*
X-659562Y-1315060D01*
X-671075Y-1178081D01*
X-682864Y-1028664D01*
X-694364Y-874265D01*
X-705014Y-722339D01*
X-714248Y-580341D01*
X-721505Y-455726D01*
X-726221Y-355950D01*
X-727455Y-317500D01*
X-730250Y-201083D01*
X-624416Y-194021D01*
X-544007Y-193676D01*
X-454189Y-204113D01*
G36*
X35502805Y11907545D02*
G01*
X35596617Y11886952D01*
X35704322Y11852989D01*
X35830144Y11804592D01*
X35978307Y11740693D01*
X36153034Y11660229D01*
X36358548Y11562133D01*
X36504240Y11491524D01*
X36934848Y11285145D01*
X37335678Y11099728D01*
X37712413Y10933120D01*
X38070740Y10783166D01*
X38416344Y10647714D01*
X38754910Y10524608D01*
X39092124Y10411696D01*
X39433670Y10306822D01*
X39785236Y10207835D01*
X40127871Y10118742D01*
X40448272Y10039694D01*
X40735303Y9972138D01*
X40996031Y9915038D01*
X41237525Y9867357D01*
X41466851Y9828059D01*
X41691078Y9796109D01*
X41917272Y9770470D01*
X42152501Y9750106D01*
X42403832Y9733980D01*
X42678333Y9721057D01*
X42894250Y9713155D01*
X43176613Y9705235D01*
X43449823Y9700415D01*
X43709685Y9698621D01*
X43952005Y9699781D01*
X44172587Y9703820D01*
X44367237Y9710666D01*
X44531760Y9720244D01*
X44661962Y9732481D01*
X44745729Y9745582D01*
X44998715Y9810034D01*
X45227698Y9894391D01*
X45441202Y10003259D01*
X45647755Y10141245D01*
X45855884Y10312952D01*
X45939982Y10390679D01*
X46076338Y10517986D01*
X46200033Y10629123D01*
X46307247Y10720863D01*
X46394163Y10789976D01*
X46456960Y10833235D01*
X46474599Y10842635D01*
X46504492Y10849573D01*
X46540063Y10842926D01*
X46584701Y10820022D01*
X46641795Y10778193D01*
X46714735Y10714770D01*
X46806910Y10627082D01*
X46921710Y10512462D01*
X47015662Y10416503D01*
X47208963Y10214119D01*
X47406040Y10000816D01*
X47602588Y9781673D01*
X47794301Y9561769D01*
X47976876Y9346183D01*
X48146007Y9139994D01*
X48297390Y8948281D01*
X48426718Y8776124D01*
X48524775Y8636000D01*
X48604138Y8510808D01*
X48686352Y8370285D01*
X48768728Y8220106D01*
X48848581Y8065947D01*
X48923224Y7913481D01*
X48989969Y7768385D01*
X49046130Y7636332D01*
X49089020Y7522997D01*
X49115952Y7434056D01*
X49124239Y7375182D01*
X49123882Y7370656D01*
X49114655Y7336844D01*
X49089953Y7311298D01*
X49040271Y7286780D01*
X48988191Y7267292D01*
X48850419Y7224523D01*
X48676467Y7180551D01*
X48472428Y7136394D01*
X48244398Y7093069D01*
X47998471Y7051595D01*
X47740742Y7012988D01*
X47477304Y6978267D01*
X47214252Y6948449D01*
X46957682Y6924553D01*
X46915917Y6921213D01*
X46517197Y6897629D01*
X46091131Y6886125D01*
X45650895Y6886525D01*
X45209664Y6898656D01*
X44780614Y6922346D01*
X44407667Y6954231D01*
X44154768Y6982561D01*
X43870234Y7018752D01*
X43563714Y7061310D01*
X43244861Y7108737D01*
X42923323Y7159539D01*
X42608753Y7212219D01*
X42310800Y7265281D01*
X42039116Y7317230D01*
X41952334Y7334808D01*
X41870033Y7351825D01*
X41792605Y7368029D01*
X41716274Y7384283D01*
X41637267Y7401452D01*
X41551812Y7420402D01*
X41456133Y7441998D01*
X41346458Y7467104D01*
X41219013Y7496585D01*
X41070025Y7531306D01*
X40895719Y7572131D01*
X40692323Y7619927D01*
X40456063Y7675557D01*
X40183165Y7739887D01*
X40121417Y7754449D01*
X39811934Y7827145D01*
X39539662Y7890374D01*
X39300731Y7944881D01*
X39091268Y7991412D01*
X38907403Y8030713D01*
X38745264Y8063529D01*
X38600979Y8090605D01*
X38470678Y8112687D01*
X38350488Y8130522D01*
X38236539Y8144853D01*
X38124959Y8156427D01*
X38011877Y8165989D01*
X37967309Y8169279D01*
X37753530Y8177598D01*
X37512318Y8175183D01*
X37254795Y8162970D01*
X36992083Y8141895D01*
X36735304Y8112895D01*
X36495580Y8076906D01*
X36284033Y8034865D01*
X36237334Y8023639D01*
X36051830Y7966827D01*
X35842908Y7884904D01*
X35617841Y7781913D01*
X35383904Y7661899D01*
X35148371Y7528904D01*
X34918517Y7386974D01*
X34701616Y7240150D01*
X34504943Y7092479D01*
X34389982Y6996716D01*
X34258840Y6877831D01*
X34159071Y6775854D01*
X34086775Y6684290D01*
X34038049Y6596641D01*
X34008991Y6506413D01*
X33995701Y6407108D01*
X33993667Y6336877D01*
X33993667Y6174227D01*
X33708541Y6188536D01*
X33559307Y6193139D01*
X33424113Y6191800D01*
X33314566Y6184743D01*
X33279916Y6180274D01*
X33097688Y6134093D01*
X32930323Y6054079D01*
X32774800Y5938048D01*
X32628097Y5783818D01*
X32510072Y5624043D01*
X32395333Y5443780D01*
X32308061Y5284534D01*
X32245258Y5137934D01*
X32203924Y4995606D01*
X32181058Y4849177D01*
X32173661Y4690274D01*
X32173646Y4684987D01*
X32182861Y4488315D01*
X32212343Y4290651D01*
X32263890Y4085913D01*
X32339300Y3868015D01*
X32440370Y3630873D01*
X32554100Y3397250D01*
X32822173Y2906533D01*
X33110619Y2446763D01*
X33425382Y2009092D01*
X33766835Y1591092D01*
X33964912Y1384578D01*
X34199004Y1178535D01*
X34462919Y976756D01*
X34750470Y783037D01*
X35055466Y601173D01*
X35371720Y434959D01*
X35693041Y288191D01*
X36013240Y164662D01*
X36184417Y108677D01*
X36323098Y67419D01*
X36442783Y35073D01*
X36551861Y10585D01*
X36658717Y-7096D01*
X36771741Y-19024D01*
X36899320Y-26249D01*
X37049843Y-29825D01*
X37231696Y-30804D01*
X37295667Y-30745D01*
X37556764Y-27288D01*
X37786135Y-16819D01*
X37994057Y2374D01*
X38190804Y32003D01*
X38386651Y73779D01*
X38591874Y129415D01*
X38816747Y200623D01*
X38942916Y243697D01*
X39121213Y304128D01*
X39268660Y349933D01*
X39393427Y382910D01*
X39503682Y404853D01*
X39607594Y417560D01*
X39713333Y422824D01*
X39759678Y423249D01*
X39902539Y419053D01*
X40052069Y405802D01*
X40215979Y382334D01*
X40401975Y347485D01*
X40617768Y300092D01*
X40692917Y282434D01*
X40869487Y238354D01*
X41006603Y199327D01*
X41106720Y164422D01*
X41172294Y132703D01*
X41205777Y103240D01*
X41211500Y85342D01*
X41200626Y50570D01*
X41171928Y-7523D01*
X41131293Y-77187D01*
X41125316Y-86676D01*
X41076922Y-152048D01*
X41002490Y-239200D01*
X40908000Y-342216D01*
X40799429Y-455182D01*
X40682758Y-572183D01*
X40563965Y-687304D01*
X40449031Y-794631D01*
X40343934Y-888248D01*
X40254654Y-962241D01*
X40198740Y-1003262D01*
X40045337Y-1092588D01*
X39869124Y-1170873D01*
X39666762Y-1239000D01*
X39434911Y-1297851D01*
X39170231Y-1348309D01*
X38869383Y-1391255D01*
X38629167Y-1417954D01*
X38543677Y-1424410D01*
X38423715Y-1430539D01*
X38277145Y-1436189D01*
X38111828Y-1441207D01*
X37935626Y-1445438D01*
X37756401Y-1448730D01*
X37582016Y-1450930D01*
X37420331Y-1451885D01*
X37279210Y-1451442D01*
X37166514Y-1449446D01*
X37115750Y-1447437D01*
X36658184Y-1416355D01*
X36214908Y-1373015D01*
X35789949Y-1318132D01*
X35387333Y-1252424D01*
X35011087Y-1176607D01*
X34665237Y-1091399D01*
X34353810Y-997515D01*
X34131250Y-916280D01*
X33882872Y-807871D01*
X33611502Y-672908D01*
X33323452Y-515389D01*
X33025030Y-339311D01*
X32722549Y-148675D01*
X32422319Y52523D01*
X32130651Y260284D01*
X31853854Y470609D01*
X31598240Y679500D01*
X31557585Y714375D01*
X31418540Y841463D01*
X31265619Y993315D01*
X31103603Y1164233D01*
X30937275Y1348518D01*
X30771417Y1540469D01*
X30610809Y1734388D01*
X30460233Y1924575D01*
X30324472Y2105331D01*
X30208307Y2270957D01*
X30116520Y2415752D01*
X30088052Y2465917D01*
X30002869Y2633666D01*
X29912084Y2831983D01*
X29819843Y3050243D01*
X29730289Y3277817D01*
X29647565Y3504079D01*
X29575817Y3718402D01*
X29519187Y3910157D01*
X29507516Y3954748D01*
X29459522Y4171568D01*
X29425243Y4393158D01*
X29403548Y4630021D01*
X29393308Y4892660D01*
X29392132Y5027084D01*
X29410630Y5506468D01*
X29467349Y5971303D01*
X29563181Y6425390D01*
X29699020Y6872531D01*
X29875757Y7316529D01*
X29983375Y7545917D01*
X30059062Y7694767D01*
X30129789Y7821642D01*
X30202081Y7935864D01*
X30282468Y8046753D01*
X30377475Y8163631D01*
X30493630Y8295819D01*
X30558180Y8366755D01*
X30635706Y8448900D01*
X30739503Y8555289D01*
X30864848Y8681332D01*
X31007014Y8822441D01*
X31161277Y8974026D01*
X31322911Y9131499D01*
X31487192Y9290272D01*
X31649394Y9445755D01*
X31804792Y9593359D01*
X31948661Y9728496D01*
X32076275Y9846577D01*
X32162750Y9925017D01*
X32566804Y10277000D01*
X32953938Y10593242D01*
X33326853Y10875513D01*
X33688251Y11125585D01*
X34040831Y11345228D01*
X34387295Y11536213D01*
X34730343Y11700311D01*
X35072676Y11839294D01*
X35094334Y11847269D01*
X35182028Y11877537D01*
X35262499Y11899765D01*
X35339969Y11912886D01*
X35418664Y11915835D01*
X35502805Y11907545D01*
X35502805Y11907545D01*
G37*
X35502805Y11907545D02*
X35596617Y11886952D01*
X35704322Y11852989D01*
X35830144Y11804592D01*
X35978307Y11740693D01*
X36153034Y11660229D01*
X36358548Y11562133D01*
X36504240Y11491524D01*
X36934848Y11285145D01*
X37335678Y11099728D01*
X37712413Y10933120D01*
X38070740Y10783166D01*
X38416344Y10647714D01*
X38754910Y10524608D01*
X39092124Y10411696D01*
X39433670Y10306822D01*
X39785236Y10207835D01*
X40127871Y10118742D01*
X40448272Y10039694D01*
X40735303Y9972138D01*
X40996031Y9915038D01*
X41237525Y9867357D01*
X41466851Y9828059D01*
X41691078Y9796109D01*
X41917272Y9770470D01*
X42152501Y9750106D01*
X42403832Y9733980D01*
X42678333Y9721057D01*
X42894250Y9713155D01*
X43176613Y9705235D01*
X43449823Y9700415D01*
X43709685Y9698621D01*
X43952005Y9699781D01*
X44172587Y9703820D01*
X44367237Y9710666D01*
X44531760Y9720244D01*
X44661962Y9732481D01*
X44745729Y9745582D01*
X44998715Y9810034D01*
X45227698Y9894391D01*
X45441202Y10003259D01*
X45647755Y10141245D01*
X45855884Y10312952D01*
X45939982Y10390679D01*
X46076338Y10517986D01*
X46200033Y10629123D01*
X46307247Y10720863D01*
X46394163Y10789976D01*
X46456960Y10833235D01*
X46474599Y10842635D01*
X46504492Y10849573D01*
X46540063Y10842926D01*
X46584701Y10820022D01*
X46641795Y10778193D01*
X46714735Y10714770D01*
X46806910Y10627082D01*
X46921710Y10512462D01*
X47015662Y10416503D01*
X47208963Y10214119D01*
X47406040Y10000816D01*
X47602588Y9781673D01*
X47794301Y9561769D01*
X47976876Y9346183D01*
X48146007Y9139994D01*
X48297390Y8948281D01*
X48426718Y8776124D01*
X48524775Y8636000D01*
X48604138Y8510808D01*
X48686352Y8370285D01*
X48768728Y8220106D01*
X48848581Y8065947D01*
X48923224Y7913481D01*
X48989969Y7768385D01*
X49046130Y7636332D01*
X49089020Y7522997D01*
X49115952Y7434056D01*
X49124239Y7375182D01*
X49123882Y7370656D01*
X49114655Y7336844D01*
X49089953Y7311298D01*
X49040271Y7286780D01*
X48988191Y7267292D01*
X48850419Y7224523D01*
X48676467Y7180551D01*
X48472428Y7136394D01*
X48244398Y7093069D01*
X47998471Y7051595D01*
X47740742Y7012988D01*
X47477304Y6978267D01*
X47214252Y6948449D01*
X46957682Y6924553D01*
X46915917Y6921213D01*
X46517197Y6897629D01*
X46091131Y6886125D01*
X45650895Y6886525D01*
X45209664Y6898656D01*
X44780614Y6922346D01*
X44407667Y6954231D01*
X44154768Y6982561D01*
X43870234Y7018752D01*
X43563714Y7061310D01*
X43244861Y7108737D01*
X42923323Y7159539D01*
X42608753Y7212219D01*
X42310800Y7265281D01*
X42039116Y7317230D01*
X41952334Y7334808D01*
X41870033Y7351825D01*
X41792605Y7368029D01*
X41716274Y7384283D01*
X41637267Y7401452D01*
X41551812Y7420402D01*
X41456133Y7441998D01*
X41346458Y7467104D01*
X41219013Y7496585D01*
X41070025Y7531306D01*
X40895719Y7572131D01*
X40692323Y7619927D01*
X40456063Y7675557D01*
X40183165Y7739887D01*
X40121417Y7754449D01*
X39811934Y7827145D01*
X39539662Y7890374D01*
X39300731Y7944881D01*
X39091268Y7991412D01*
X38907403Y8030713D01*
X38745264Y8063529D01*
X38600979Y8090605D01*
X38470678Y8112687D01*
X38350488Y8130522D01*
X38236539Y8144853D01*
X38124959Y8156427D01*
X38011877Y8165989D01*
X37967309Y8169279D01*
X37753530Y8177598D01*
X37512318Y8175183D01*
X37254795Y8162970D01*
X36992083Y8141895D01*
X36735304Y8112895D01*
X36495580Y8076906D01*
X36284033Y8034865D01*
X36237334Y8023639D01*
X36051830Y7966827D01*
X35842908Y7884904D01*
X35617841Y7781913D01*
X35383904Y7661899D01*
X35148371Y7528904D01*
X34918517Y7386974D01*
X34701616Y7240150D01*
X34504943Y7092479D01*
X34389982Y6996716D01*
X34258840Y6877831D01*
X34159071Y6775854D01*
X34086775Y6684290D01*
X34038049Y6596641D01*
X34008991Y6506413D01*
X33995701Y6407108D01*
X33993667Y6336877D01*
X33993667Y6174227D01*
X33708541Y6188536D01*
X33559307Y6193139D01*
X33424113Y6191800D01*
X33314566Y6184743D01*
X33279916Y6180274D01*
X33097688Y6134093D01*
X32930323Y6054079D01*
X32774800Y5938048D01*
X32628097Y5783818D01*
X32510072Y5624043D01*
X32395333Y5443780D01*
X32308061Y5284534D01*
X32245258Y5137934D01*
X32203924Y4995606D01*
X32181058Y4849177D01*
X32173661Y4690274D01*
X32173646Y4684987D01*
X32182861Y4488315D01*
X32212343Y4290651D01*
X32263890Y4085913D01*
X32339300Y3868015D01*
X32440370Y3630873D01*
X32554100Y3397250D01*
X32822173Y2906533D01*
X33110619Y2446763D01*
X33425382Y2009092D01*
X33766835Y1591092D01*
X33964912Y1384578D01*
X34199004Y1178535D01*
X34462919Y976756D01*
X34750470Y783037D01*
X35055466Y601173D01*
X35371720Y434959D01*
X35693041Y288191D01*
X36013240Y164662D01*
X36184417Y108677D01*
X36323098Y67419D01*
X36442783Y35073D01*
X36551861Y10585D01*
X36658717Y-7096D01*
X36771741Y-19024D01*
X36899320Y-26249D01*
X37049843Y-29825D01*
X37231696Y-30804D01*
X37295667Y-30745D01*
X37556764Y-27288D01*
X37786135Y-16819D01*
X37994057Y2374D01*
X38190804Y32003D01*
X38386651Y73779D01*
X38591874Y129415D01*
X38816747Y200623D01*
X38942916Y243697D01*
X39121213Y304128D01*
X39268660Y349933D01*
X39393427Y382910D01*
X39503682Y404853D01*
X39607594Y417560D01*
X39713333Y422824D01*
X39759678Y423249D01*
X39902539Y419053D01*
X40052069Y405802D01*
X40215979Y382334D01*
X40401975Y347485D01*
X40617768Y300092D01*
X40692917Y282434D01*
X40869487Y238354D01*
X41006603Y199327D01*
X41106720Y164422D01*
X41172294Y132703D01*
X41205777Y103240D01*
X41211500Y85342D01*
X41200626Y50570D01*
X41171928Y-7523D01*
X41131293Y-77187D01*
X41125316Y-86676D01*
X41076922Y-152048D01*
X41002490Y-239200D01*
X40908000Y-342216D01*
X40799429Y-455182D01*
X40682758Y-572183D01*
X40563965Y-687304D01*
X40449031Y-794631D01*
X40343934Y-888248D01*
X40254654Y-962241D01*
X40198740Y-1003262D01*
X40045337Y-1092588D01*
X39869124Y-1170873D01*
X39666762Y-1239000D01*
X39434911Y-1297851D01*
X39170231Y-1348309D01*
X38869383Y-1391255D01*
X38629167Y-1417954D01*
X38543677Y-1424410D01*
X38423715Y-1430539D01*
X38277145Y-1436189D01*
X38111828Y-1441207D01*
X37935626Y-1445438D01*
X37756401Y-1448730D01*
X37582016Y-1450930D01*
X37420331Y-1451885D01*
X37279210Y-1451442D01*
X37166514Y-1449446D01*
X37115750Y-1447437D01*
X36658184Y-1416355D01*
X36214908Y-1373015D01*
X35789949Y-1318132D01*
X35387333Y-1252424D01*
X35011087Y-1176607D01*
X34665237Y-1091399D01*
X34353810Y-997515D01*
X34131250Y-916280D01*
X33882872Y-807871D01*
X33611502Y-672908D01*
X33323452Y-515389D01*
X33025030Y-339311D01*
X32722549Y-148675D01*
X32422319Y52523D01*
X32130651Y260284D01*
X31853854Y470609D01*
X31598240Y679500D01*
X31557585Y714375D01*
X31418540Y841463D01*
X31265619Y993315D01*
X31103603Y1164233D01*
X30937275Y1348518D01*
X30771417Y1540469D01*
X30610809Y1734388D01*
X30460233Y1924575D01*
X30324472Y2105331D01*
X30208307Y2270957D01*
X30116520Y2415752D01*
X30088052Y2465917D01*
X30002869Y2633666D01*
X29912084Y2831983D01*
X29819843Y3050243D01*
X29730289Y3277817D01*
X29647565Y3504079D01*
X29575817Y3718402D01*
X29519187Y3910157D01*
X29507516Y3954748D01*
X29459522Y4171568D01*
X29425243Y4393158D01*
X29403548Y4630021D01*
X29393308Y4892660D01*
X29392132Y5027084D01*
X29410630Y5506468D01*
X29467349Y5971303D01*
X29563181Y6425390D01*
X29699020Y6872531D01*
X29875757Y7316529D01*
X29983375Y7545917D01*
X30059062Y7694767D01*
X30129789Y7821642D01*
X30202081Y7935864D01*
X30282468Y8046753D01*
X30377475Y8163631D01*
X30493630Y8295819D01*
X30558180Y8366755D01*
X30635706Y8448900D01*
X30739503Y8555289D01*
X30864848Y8681332D01*
X31007014Y8822441D01*
X31161277Y8974026D01*
X31322911Y9131499D01*
X31487192Y9290272D01*
X31649394Y9445755D01*
X31804792Y9593359D01*
X31948661Y9728496D01*
X32076275Y9846577D01*
X32162750Y9925017D01*
X32566804Y10277000D01*
X32953938Y10593242D01*
X33326853Y10875513D01*
X33688251Y11125585D01*
X34040831Y11345228D01*
X34387295Y11536213D01*
X34730343Y11700311D01*
X35072676Y11839294D01*
X35094334Y11847269D01*
X35182028Y11877537D01*
X35262499Y11899765D01*
X35339969Y11912886D01*
X35418664Y11915835D01*
X35502805Y11907545D01*
G36*
X-1407234Y40829D02*
G01*
X-1391653Y-2526D01*
X-1385294Y-73046D01*
X-1387077Y-174235D01*
X-1395924Y-309599D01*
X-1410758Y-482643D01*
X-1415374Y-533273D01*
X-1429098Y-683476D01*
X-1442270Y-828748D01*
X-1454135Y-960688D01*
X-1463940Y-1070896D01*
X-1470930Y-1150971D01*
X-1472888Y-1174099D01*
X-1481893Y-1254041D01*
X-1493629Y-1320797D01*
X-1505317Y-1359307D01*
X-1537577Y-1385949D01*
X-1598243Y-1395083D01*
X-1689861Y-1386507D01*
X-1814979Y-1360016D01*
X-1947333Y-1323915D01*
X-2113885Y-1273656D01*
X-2241660Y-1231360D01*
X-2333263Y-1196064D01*
X-2391298Y-1166809D01*
X-2409245Y-1153509D01*
X-2424564Y-1129649D01*
X-2420882Y-1093925D01*
X-2402833Y-1045457D01*
X-2359177Y-956757D01*
X-2293712Y-843958D01*
X-2212054Y-715213D01*
X-2119815Y-578675D01*
X-2022610Y-442497D01*
X-1926051Y-314830D01*
X-1835754Y-203829D01*
X-1780667Y-141893D01*
X-1711818Y-77375D01*
X-1634797Y-18520D01*
X-1583331Y12696D01*
X-1520084Y42953D01*
X-1470371Y60063D01*
X-1433114Y60524D01*
X-1407234Y40829D01*
X-1407234Y40829D01*
G37*
X-1407234Y40829D02*
X-1391653Y-2526D01*
X-1385294Y-73046D01*
X-1387077Y-174235D01*
X-1395924Y-309599D01*
X-1410758Y-482643D01*
X-1415374Y-533273D01*
X-1429098Y-683476D01*
X-1442270Y-828748D01*
X-1454135Y-960688D01*
X-1463940Y-1070896D01*
X-1470930Y-1150971D01*
X-1472888Y-1174099D01*
X-1481893Y-1254041D01*
X-1493629Y-1320797D01*
X-1505317Y-1359307D01*
X-1537577Y-1385949D01*
X-1598243Y-1395083D01*
X-1689861Y-1386507D01*
X-1814979Y-1360016D01*
X-1947333Y-1323915D01*
X-2113885Y-1273656D01*
X-2241660Y-1231360D01*
X-2333263Y-1196064D01*
X-2391298Y-1166809D01*
X-2409245Y-1153509D01*
X-2424564Y-1129649D01*
X-2420882Y-1093925D01*
X-2402833Y-1045457D01*
X-2359177Y-956757D01*
X-2293712Y-843958D01*
X-2212054Y-715213D01*
X-2119815Y-578675D01*
X-2022610Y-442497D01*
X-1926051Y-314830D01*
X-1835754Y-203829D01*
X-1780667Y-141893D01*
X-1711818Y-77375D01*
X-1634797Y-18520D01*
X-1583331Y12696D01*
X-1520084Y42953D01*
X-1470371Y60063D01*
X-1433114Y60524D01*
X-1407234Y40829D01*
G36*
X-13777815Y-588927D02*
G01*
X-13726234Y-623002D01*
X-13680424Y-657841D01*
X-13614989Y-710920D01*
X-13535926Y-777016D01*
X-13449236Y-850910D01*
X-13360915Y-927381D01*
X-13276964Y-1001207D01*
X-13203381Y-1067167D01*
X-13146164Y-1120041D01*
X-13111312Y-1154608D01*
X-13103441Y-1165051D01*
X-13121652Y-1177251D01*
X-13172158Y-1197907D01*
X-13246413Y-1224345D01*
X-13335867Y-1253893D01*
X-13431973Y-1283878D01*
X-13526181Y-1311628D01*
X-13609944Y-1334471D01*
X-13674713Y-1349732D01*
X-13710278Y-1354780D01*
X-13755671Y-1349225D01*
X-13787965Y-1325927D01*
X-13820245Y-1274657D01*
X-13825486Y-1264708D01*
X-13845766Y-1219823D01*
X-13859998Y-1170218D01*
X-13869601Y-1106479D01*
X-13875995Y-1019192D01*
X-13880583Y-899583D01*
X-13883356Y-763917D01*
X-13880931Y-666757D01*
X-13871236Y-604390D01*
X-13852200Y-573105D01*
X-13821750Y-569188D01*
X-13777815Y-588927D01*
X-13777815Y-588927D01*
G37*
X-13777815Y-588927D02*
X-13726234Y-623002D01*
X-13680424Y-657841D01*
X-13614989Y-710920D01*
X-13535926Y-777016D01*
X-13449236Y-850910D01*
X-13360915Y-927381D01*
X-13276964Y-1001207D01*
X-13203381Y-1067167D01*
X-13146164Y-1120041D01*
X-13111312Y-1154608D01*
X-13103441Y-1165051D01*
X-13121652Y-1177251D01*
X-13172158Y-1197907D01*
X-13246413Y-1224345D01*
X-13335867Y-1253893D01*
X-13431973Y-1283878D01*
X-13526181Y-1311628D01*
X-13609944Y-1334471D01*
X-13674713Y-1349732D01*
X-13710278Y-1354780D01*
X-13755671Y-1349225D01*
X-13787965Y-1325927D01*
X-13820245Y-1274657D01*
X-13825486Y-1264708D01*
X-13845766Y-1219823D01*
X-13859998Y-1170218D01*
X-13869601Y-1106479D01*
X-13875995Y-1019192D01*
X-13880583Y-899583D01*
X-13883356Y-763917D01*
X-13880931Y-666757D01*
X-13871236Y-604390D01*
X-13852200Y-573105D01*
X-13821750Y-569188D01*
X-13777815Y-588927D01*
G36*
X-3641695Y451113D02*
G01*
X-3483965Y446307D01*
X-3329798Y439099D01*
X-3185734Y429597D01*
X-3058312Y417910D01*
X-2954072Y404145D01*
X-2934968Y400862D01*
X-2835914Y379177D01*
X-2752954Y353989D01*
X-2694186Y328306D01*
X-2667711Y305136D01*
X-2667000Y301357D01*
X-2672827Y272162D01*
X-2689019Y209090D01*
X-2713641Y118774D01*
X-2744760Y7842D01*
X-2780441Y-117073D01*
X-2818749Y-249341D01*
X-2857750Y-382331D01*
X-2895510Y-509411D01*
X-2930095Y-623952D01*
X-2959570Y-719322D01*
X-2982001Y-788890D01*
X-2995453Y-826025D01*
X-2996539Y-828315D01*
X-3040985Y-898651D01*
X-3091359Y-936521D01*
X-3161891Y-950385D01*
X-3202970Y-951061D01*
X-3279393Y-943908D01*
X-3375290Y-926510D01*
X-3470177Y-902597D01*
X-3472058Y-902038D01*
X-3568473Y-871807D01*
X-3646093Y-841706D01*
X-3709875Y-806431D01*
X-3764777Y-760679D01*
X-3815756Y-699144D01*
X-3867768Y-616523D01*
X-3925771Y-507512D01*
X-3994721Y-366806D01*
X-4018340Y-317500D01*
X-4095734Y-151377D01*
X-4163128Y1546D01*
X-4218975Y137145D01*
X-4261724Y251298D01*
X-4289826Y339881D01*
X-4301734Y398771D01*
X-4296672Y423433D01*
X-4254899Y435317D01*
X-4177450Y444147D01*
X-4070866Y450034D01*
X-3941685Y453085D01*
X-3796449Y453408D01*
X-3641695Y451113D01*
X-3641695Y451113D01*
G37*
X-3641695Y451113D02*
X-3483965Y446307D01*
X-3329798Y439099D01*
X-3185734Y429597D01*
X-3058312Y417910D01*
X-2954072Y404145D01*
X-2934968Y400862D01*
X-2835914Y379177D01*
X-2752954Y353989D01*
X-2694186Y328306D01*
X-2667711Y305136D01*
X-2667000Y301357D01*
X-2672827Y272162D01*
X-2689019Y209090D01*
X-2713641Y118774D01*
X-2744760Y7842D01*
X-2780441Y-117073D01*
X-2818749Y-249341D01*
X-2857750Y-382331D01*
X-2895510Y-509411D01*
X-2930095Y-623952D01*
X-2959570Y-719322D01*
X-2982001Y-788890D01*
X-2995453Y-826025D01*
X-2996539Y-828315D01*
X-3040985Y-898651D01*
X-3091359Y-936521D01*
X-3161891Y-950385D01*
X-3202970Y-951061D01*
X-3279393Y-943908D01*
X-3375290Y-926510D01*
X-3470177Y-902597D01*
X-3472058Y-902038D01*
X-3568473Y-871807D01*
X-3646093Y-841706D01*
X-3709875Y-806431D01*
X-3764777Y-760679D01*
X-3815756Y-699144D01*
X-3867768Y-616523D01*
X-3925771Y-507512D01*
X-3994721Y-366806D01*
X-4018340Y-317500D01*
X-4095734Y-151377D01*
X-4163128Y1546D01*
X-4218975Y137145D01*
X-4261724Y251298D01*
X-4289826Y339881D01*
X-4301734Y398771D01*
X-4296672Y423433D01*
X-4254899Y435317D01*
X-4177450Y444147D01*
X-4070866Y450034D01*
X-3941685Y453085D01*
X-3796449Y453408D01*
X-3641695Y451113D01*
G36*
X-10821415Y296549D02*
G01*
X-10783154Y274146D01*
X-10759532Y237436D01*
X-10751516Y214607D01*
X-10742854Y167068D01*
X-10734077Y86540D01*
X-10725964Y-17645D01*
X-10719295Y-136150D01*
X-10716527Y-204030D01*
X-10712335Y-331588D01*
X-10710446Y-423128D01*
X-10711357Y-484924D01*
X-10715563Y-523252D01*
X-10723561Y-544389D01*
X-10735846Y-554609D01*
X-10744481Y-557811D01*
X-10778476Y-567212D01*
X-10846345Y-585242D01*
X-10940945Y-610055D01*
X-11055135Y-639808D01*
X-11181771Y-672655D01*
X-11313711Y-706753D01*
X-11443811Y-740255D01*
X-11564929Y-771319D01*
X-11669922Y-798099D01*
X-11751647Y-818751D01*
X-11802962Y-831429D01*
X-11813519Y-833888D01*
X-11865646Y-832590D01*
X-11926381Y-802979D01*
X-11951103Y-785753D01*
X-12013064Y-733826D01*
X-12094698Y-656179D01*
X-12189229Y-560151D01*
X-12289885Y-453079D01*
X-12389890Y-342300D01*
X-12482471Y-235152D01*
X-12560855Y-138971D01*
X-12612999Y-68810D01*
X-12660522Y-37D01*
X-12607746Y20028D01*
X-12553477Y36086D01*
X-12463788Y57320D01*
X-12345113Y82568D01*
X-12203889Y110669D01*
X-12046549Y140463D01*
X-11879531Y170790D01*
X-11709269Y200487D01*
X-11542200Y228395D01*
X-11384757Y253352D01*
X-11243378Y274198D01*
X-11124497Y289772D01*
X-11091333Y293553D01*
X-10968774Y304690D01*
X-10881045Y306209D01*
X-10821415Y296549D01*
X-10821415Y296549D01*
G37*
X-10821415Y296549D02*
X-10783154Y274146D01*
X-10759532Y237436D01*
X-10751516Y214607D01*
X-10742854Y167068D01*
X-10734077Y86540D01*
X-10725964Y-17645D01*
X-10719295Y-136150D01*
X-10716527Y-204030D01*
X-10712335Y-331588D01*
X-10710446Y-423128D01*
X-10711357Y-484924D01*
X-10715563Y-523252D01*
X-10723561Y-544389D01*
X-10735846Y-554609D01*
X-10744481Y-557811D01*
X-10778476Y-567212D01*
X-10846345Y-585242D01*
X-10940945Y-610055D01*
X-11055135Y-639808D01*
X-11181771Y-672655D01*
X-11313711Y-706753D01*
X-11443811Y-740255D01*
X-11564929Y-771319D01*
X-11669922Y-798099D01*
X-11751647Y-818751D01*
X-11802962Y-831429D01*
X-11813519Y-833888D01*
X-11865646Y-832590D01*
X-11926381Y-802979D01*
X-11951103Y-785753D01*
X-12013064Y-733826D01*
X-12094698Y-656179D01*
X-12189229Y-560151D01*
X-12289885Y-453079D01*
X-12389890Y-342300D01*
X-12482471Y-235152D01*
X-12560855Y-138971D01*
X-12612999Y-68810D01*
X-12660522Y-37D01*
X-12607746Y20028D01*
X-12553477Y36086D01*
X-12463788Y57320D01*
X-12345113Y82568D01*
X-12203889Y110669D01*
X-12046549Y140463D01*
X-11879531Y170790D01*
X-11709269Y200487D01*
X-11542200Y228395D01*
X-11384757Y253352D01*
X-11243378Y274198D01*
X-11124497Y289772D01*
X-11091333Y293553D01*
X-10968774Y304690D01*
X-10881045Y306209D01*
X-10821415Y296549D01*
G36*
X-5245305Y524909D02*
G01*
X-5130319Y505138D01*
X-5081247Y491535D01*
X-5043242Y475045D01*
X-5015024Y450577D01*
X-4995316Y413040D01*
X-4982840Y357342D01*
X-4976318Y278391D01*
X-4974471Y171097D01*
X-4976022Y30369D01*
X-4978624Y-99157D01*
X-4982217Y-254789D01*
X-4985824Y-373489D01*
X-4989969Y-460659D01*
X-4995175Y-521696D01*
X-5001968Y-562000D01*
X-5010872Y-586971D01*
X-5022410Y-602008D01*
X-5027894Y-606460D01*
X-5063609Y-616846D01*
X-5133671Y-624714D01*
X-5230163Y-630013D01*
X-5345169Y-632695D01*
X-5470775Y-632709D01*
X-5599066Y-630006D01*
X-5722125Y-624537D01*
X-5832037Y-616252D01*
X-5873750Y-611755D01*
X-6056156Y-586870D01*
X-6200191Y-560986D01*
X-6304876Y-534352D01*
X-6369233Y-507222D01*
X-6392283Y-479846D01*
X-6392333Y-478504D01*
X-6388471Y-463355D01*
X-6375115Y-439665D01*
X-6349613Y-404225D01*
X-6309313Y-353830D01*
X-6251564Y-285270D01*
X-6173711Y-195338D01*
X-6073105Y-80827D01*
X-5947091Y61472D01*
X-5929275Y81537D01*
X-5832602Y188947D01*
X-5741467Y287523D01*
X-5660809Y372133D01*
X-5595564Y437644D01*
X-5550672Y478925D01*
X-5537332Y488916D01*
X-5462313Y516404D01*
X-5360636Y528575D01*
X-5245305Y524909D01*
X-5245305Y524909D01*
G37*
X-5245305Y524909D02*
X-5130319Y505138D01*
X-5081247Y491535D01*
X-5043242Y475045D01*
X-5015024Y450577D01*
X-4995316Y413040D01*
X-4982840Y357342D01*
X-4976318Y278391D01*
X-4974471Y171097D01*
X-4976022Y30369D01*
X-4978624Y-99157D01*
X-4982217Y-254789D01*
X-4985824Y-373489D01*
X-4989969Y-460659D01*
X-4995175Y-521696D01*
X-5001968Y-562000D01*
X-5010872Y-586971D01*
X-5022410Y-602008D01*
X-5027894Y-606460D01*
X-5063609Y-616846D01*
X-5133671Y-624714D01*
X-5230163Y-630013D01*
X-5345169Y-632695D01*
X-5470775Y-632709D01*
X-5599066Y-630006D01*
X-5722125Y-624537D01*
X-5832037Y-616252D01*
X-5873750Y-611755D01*
X-6056156Y-586870D01*
X-6200191Y-560986D01*
X-6304876Y-534352D01*
X-6369233Y-507222D01*
X-6392283Y-479846D01*
X-6392333Y-478504D01*
X-6388471Y-463355D01*
X-6375115Y-439665D01*
X-6349613Y-404225D01*
X-6309313Y-353830D01*
X-6251564Y-285270D01*
X-6173711Y-195338D01*
X-6073105Y-80827D01*
X-5947091Y61472D01*
X-5929275Y81537D01*
X-5832602Y188947D01*
X-5741467Y287523D01*
X-5660809Y372133D01*
X-5595564Y437644D01*
X-5550672Y478925D01*
X-5537332Y488916D01*
X-5462313Y516404D01*
X-5360636Y528575D01*
X-5245305Y524909D01*
G36*
X-9679238Y495471D02*
G01*
X-9623679Y486690D01*
X-9579327Y466662D01*
X-9532256Y432257D01*
X-9471826Y376069D01*
X-9407723Y304869D01*
X-9376833Y265379D01*
X-9334015Y206739D01*
X-9274482Y125407D01*
X-9206598Y32801D01*
X-9147966Y-47083D01*
X-9061907Y-166824D01*
X-9001739Y-256772D01*
X-8965981Y-319427D01*
X-8953151Y-357290D01*
X-8956570Y-369958D01*
X-8984652Y-378561D01*
X-9047807Y-387827D01*
X-9138786Y-397336D01*
X-9250340Y-406668D01*
X-9375224Y-415403D01*
X-9506187Y-423121D01*
X-9635984Y-429401D01*
X-9757366Y-433824D01*
X-9863086Y-435969D01*
X-9945895Y-435417D01*
X-9998546Y-431746D01*
X-10004384Y-430696D01*
X-10034009Y-417823D01*
X-10054236Y-389677D01*
X-10066715Y-339551D01*
X-10073099Y-260736D01*
X-10075039Y-146524D01*
X-10075044Y-143739D01*
X-10069201Y47060D01*
X-10051350Y205474D01*
X-10021981Y328868D01*
X-9981583Y414607D01*
X-9968209Y431680D01*
X-9933975Y466486D01*
X-9900576Y486202D01*
X-9854639Y495080D01*
X-9782793Y497374D01*
X-9761534Y497417D01*
X-9679238Y495471D01*
X-9679238Y495471D01*
G37*
X-9679238Y495471D02*
X-9623679Y486690D01*
X-9579327Y466662D01*
X-9532256Y432257D01*
X-9471826Y376069D01*
X-9407723Y304869D01*
X-9376833Y265379D01*
X-9334015Y206739D01*
X-9274482Y125407D01*
X-9206598Y32801D01*
X-9147966Y-47083D01*
X-9061907Y-166824D01*
X-9001739Y-256772D01*
X-8965981Y-319427D01*
X-8953151Y-357290D01*
X-8956570Y-369958D01*
X-8984652Y-378561D01*
X-9047807Y-387827D01*
X-9138786Y-397336D01*
X-9250340Y-406668D01*
X-9375224Y-415403D01*
X-9506187Y-423121D01*
X-9635984Y-429401D01*
X-9757366Y-433824D01*
X-9863086Y-435969D01*
X-9945895Y-435417D01*
X-9998546Y-431746D01*
X-10004384Y-430696D01*
X-10034009Y-417823D01*
X-10054236Y-389677D01*
X-10066715Y-339551D01*
X-10073099Y-260736D01*
X-10075039Y-146524D01*
X-10075044Y-143739D01*
X-10069201Y47060D01*
X-10051350Y205474D01*
X-10021981Y328868D01*
X-9981583Y414607D01*
X-9968209Y431680D01*
X-9933975Y466486D01*
X-9900576Y486202D01*
X-9854639Y495080D01*
X-9782793Y497374D01*
X-9761534Y497417D01*
X-9679238Y495471D01*
G36*
X-7617175Y560917D02*
G01*
X-6981427Y560917D01*
X-6872935Y434895D01*
X-6886453Y116906D01*
X-6894778Y-41751D01*
X-6905289Y-163559D01*
X-6919107Y-253988D01*
X-6937355Y-318510D01*
X-6961151Y-362594D01*
X-6990532Y-390959D01*
X-7039336Y-408346D01*
X-7118490Y-418760D01*
X-7216598Y-422264D01*
X-7322267Y-418923D01*
X-7424101Y-408798D01*
X-7510705Y-391954D01*
X-7524507Y-387996D01*
X-7586726Y-363199D01*
X-7647531Y-324636D01*
X-7716923Y-265078D01*
X-7778678Y-204262D01*
X-7868121Y-107660D01*
X-7964175Y5304D01*
X-8059373Y124985D01*
X-8146251Y241740D01*
X-8217339Y345923D01*
X-8259431Y416741D01*
X-8279511Y455510D01*
X-8291754Y486621D01*
X-8292406Y510916D01*
X-8277714Y529238D01*
X-8243925Y542430D01*
X-8187285Y551333D01*
X-8104041Y556791D01*
X-7990439Y559646D01*
X-7842727Y560741D01*
X-7657149Y560918D01*
X-7617175Y560917D01*
X-7617175Y560917D01*
G37*
X-7617175Y560917D02*
X-6981427Y560917D01*
X-6872935Y434895D01*
X-6886453Y116906D01*
X-6894778Y-41751D01*
X-6905289Y-163559D01*
X-6919107Y-253988D01*
X-6937355Y-318510D01*
X-6961151Y-362594D01*
X-6990532Y-390959D01*
X-7039336Y-408346D01*
X-7118490Y-418760D01*
X-7216598Y-422264D01*
X-7322267Y-418923D01*
X-7424101Y-408798D01*
X-7510705Y-391954D01*
X-7524507Y-387996D01*
X-7586726Y-363199D01*
X-7647531Y-324636D01*
X-7716923Y-265078D01*
X-7778678Y-204262D01*
X-7868121Y-107660D01*
X-7964175Y5304D01*
X-8059373Y124985D01*
X-8146251Y241740D01*
X-8217339Y345923D01*
X-8259431Y416741D01*
X-8279511Y455510D01*
X-8291754Y486621D01*
X-8292406Y510916D01*
X-8277714Y529238D01*
X-8243925Y542430D01*
X-8187285Y551333D01*
X-8104041Y556791D01*
X-7990439Y559646D01*
X-7842727Y560741D01*
X-7657149Y560918D01*
X-7617175Y560917D01*
G36*
X37979222Y7826322D02*
G01*
X38084496Y7823760D01*
X38181705Y7820554D01*
X38273929Y7816121D01*
X38364251Y7809881D01*
X38455753Y7801252D01*
X38551517Y7789651D01*
X38654625Y7774499D01*
X38768160Y7755214D01*
X38895203Y7731213D01*
X39038836Y7701916D01*
X39202143Y7666742D01*
X39388204Y7625108D01*
X39600101Y7576433D01*
X39840918Y7520136D01*
X40113736Y7455635D01*
X40421637Y7382350D01*
X40756417Y7302395D01*
X41094761Y7221889D01*
X41397677Y7150760D01*
X41670759Y7087929D01*
X41919602Y7032317D01*
X42149799Y6982848D01*
X42366945Y6938442D01*
X42576634Y6898021D01*
X42784460Y6860507D01*
X42996017Y6824821D01*
X43216899Y6789886D01*
X43452700Y6754624D01*
X43709015Y6717955D01*
X43991438Y6678802D01*
X43992412Y6678668D01*
X44244809Y6646391D01*
X44482163Y6621359D01*
X44712904Y6603249D01*
X44945460Y6591736D01*
X45188261Y6586497D01*
X45449736Y6587206D01*
X45738314Y6593540D01*
X45984584Y6602058D01*
X46400462Y6620364D01*
X46801874Y6642233D01*
X47185486Y6667354D01*
X47547964Y6695415D01*
X47885972Y6726106D01*
X48196178Y6759115D01*
X48475246Y6794130D01*
X48719842Y6830841D01*
X48926633Y6868936D01*
X48990250Y6882717D01*
X49079077Y6902263D01*
X49155505Y6917954D01*
X49207773Y6927424D01*
X49220281Y6929025D01*
X49267212Y6911978D01*
X49313222Y6853400D01*
X49358366Y6753135D01*
X49402698Y6611032D01*
X49446273Y6426936D01*
X49489145Y6200694D01*
X49497363Y6152043D01*
X49536010Y5903669D01*
X49566693Y5668693D01*
X49590348Y5436207D01*
X49607909Y5195299D01*
X49620311Y4935059D01*
X49628489Y4644577D01*
X49629093Y4614334D01*
X49632182Y4376196D01*
X49630505Y4172770D01*
X49622626Y3996565D01*
X49607106Y3840090D01*
X49582507Y3695853D01*
X49547392Y3556365D01*
X49500323Y3414134D01*
X49439862Y3261669D01*
X49364572Y3091480D01*
X49317236Y2989557D01*
X49125787Y2616688D01*
X48918371Y2281001D01*
X48692392Y1979511D01*
X48445257Y1709233D01*
X48174371Y1467182D01*
X47877139Y1250376D01*
X47719145Y1151289D01*
X47633905Y1101745D01*
X47551892Y1057513D01*
X47467072Y1016106D01*
X47373408Y975035D01*
X47264866Y931809D01*
X47135410Y883941D01*
X46979007Y828942D01*
X46789619Y764322D01*
X46741321Y748026D01*
X46565901Y689133D01*
X46417388Y640519D01*
X46289104Y601141D01*
X46174373Y569958D01*
X46066517Y545929D01*
X45958860Y528013D01*
X45844725Y515166D01*
X45717434Y506349D01*
X45570311Y500519D01*
X45396679Y496634D01*
X45189860Y493655D01*
X45103718Y492574D01*
X44771199Y490098D01*
X44479339Y491441D01*
X44228375Y496593D01*
X44018545Y505541D01*
X43850086Y518275D01*
X43723236Y534783D01*
X43638232Y555055D01*
X43618354Y563064D01*
X43543922Y613650D01*
X43509765Y673945D01*
X43515381Y742282D01*
X43560268Y816993D01*
X43643924Y896413D01*
X43738541Y962290D01*
X43895198Y1078049D01*
X44057648Y1232681D01*
X44223860Y1423459D01*
X44391799Y1647652D01*
X44559433Y1902532D01*
X44724729Y2185370D01*
X44885652Y2493436D01*
X44898151Y2518834D01*
X45053101Y2854579D01*
X45178217Y3170021D01*
X45275857Y3472348D01*
X45348378Y3768751D01*
X45392898Y4027578D01*
X45406251Y4147910D01*
X45417726Y4299287D01*
X45427148Y4473262D01*
X45434347Y4661391D01*
X45439149Y4855228D01*
X45441382Y5046328D01*
X45440874Y5226246D01*
X45437453Y5386535D01*
X45430945Y5518751D01*
X45424746Y5587652D01*
X45404469Y5732495D01*
X45380315Y5839822D01*
X45349654Y5914434D01*
X45309858Y5961131D01*
X45258299Y5984711D01*
X45204320Y5990167D01*
X45165662Y5986708D01*
X45133507Y5973896D01*
X45107112Y5948074D01*
X45085728Y5905587D01*
X45068612Y5842782D01*
X45055018Y5756001D01*
X45044199Y5641592D01*
X45035409Y5495898D01*
X45027904Y5315264D01*
X45020937Y5096035D01*
X45020779Y5090584D01*
X45012514Y4827376D01*
X45003577Y4601168D01*
X44993196Y4406630D01*
X44980600Y4238429D01*
X44965016Y4091232D01*
X44945673Y3959707D01*
X44921798Y3838523D01*
X44892620Y3722347D01*
X44857366Y3605847D01*
X44815265Y3483690D01*
X44770882Y3364511D01*
X44631708Y3011733D01*
X44497458Y2697106D01*
X44366112Y2417018D01*
X44235649Y2167859D01*
X44104050Y1946020D01*
X43969294Y1747890D01*
X43829360Y1569859D01*
X43682229Y1408316D01*
X43668190Y1394085D01*
X43497797Y1233779D01*
X43325205Y1095974D01*
X43143491Y976947D01*
X42945735Y872975D01*
X42725015Y780334D01*
X42474410Y695300D01*
X42248667Y630494D01*
X42191735Y615877D01*
X42138560Y604551D01*
X42082771Y596116D01*
X42017998Y590174D01*
X41937873Y586327D01*
X41836026Y584176D01*
X41706086Y583322D01*
X41541686Y583366D01*
X41497250Y583464D01*
X41195055Y586922D01*
X40933148Y595921D01*
X40709813Y610741D01*
X40523335Y631659D01*
X40371996Y658954D01*
X40254080Y692905D01*
X40167872Y733791D01*
X40111654Y781890D01*
X40092941Y811426D01*
X40076806Y860109D01*
X40075894Y913341D01*
X40092266Y977679D01*
X40127983Y1059678D01*
X40185106Y1165894D01*
X40227135Y1238264D01*
X40391703Y1548691D01*
X40530216Y1879698D01*
X40643220Y2233728D01*
X40731261Y2613222D01*
X40794884Y3020623D01*
X40834635Y3458373D01*
X40851058Y3928912D01*
X40851595Y4034143D01*
X40833529Y4633154D01*
X40778620Y5216248D01*
X40686085Y5789683D01*
X40565027Y6321897D01*
X40508368Y6523244D01*
X40453173Y6683626D01*
X40398764Y6804358D01*
X40344468Y6886755D01*
X40289610Y6932129D01*
X40246239Y6942667D01*
X40193334Y6928048D01*
X40162424Y6906567D01*
X40144839Y6872974D01*
X40135750Y6814173D01*
X40135381Y6727854D01*
X40143955Y6611711D01*
X40161697Y6463436D01*
X40188832Y6280719D01*
X40225583Y6061255D01*
X40266881Y5831417D01*
X40307616Y5609727D01*
X40341353Y5423243D01*
X40368746Y5265534D01*
X40390446Y5130172D01*
X40407106Y5010724D01*
X40419376Y4900761D01*
X40427908Y4793852D01*
X40433356Y4683567D01*
X40436370Y4563475D01*
X40437603Y4427147D01*
X40437706Y4268151D01*
X40437474Y4148667D01*
X40435685Y3871687D01*
X40431032Y3630659D01*
X40422657Y3419247D01*
X40409704Y3231118D01*
X40391316Y3059938D01*
X40366635Y2899371D01*
X40334804Y2743084D01*
X40294966Y2584742D01*
X40246264Y2418011D01*
X40187840Y2236557D01*
X40172555Y2190937D01*
X40091184Y1955843D01*
X40014925Y1748146D01*
X39944942Y1570709D01*
X39882401Y1426394D01*
X39828466Y1318064D01*
X39794628Y1262530D01*
X39724070Y1174753D01*
X39629264Y1075206D01*
X39521717Y974788D01*
X39412934Y884396D01*
X39338250Y830266D01*
X39086823Y683584D01*
X38803895Y555858D01*
X38496551Y448636D01*
X38171878Y363464D01*
X37836964Y301892D01*
X37498894Y265465D01*
X37164756Y255733D01*
X36841635Y274243D01*
X36808864Y277861D01*
X36576606Y317801D01*
X36321493Y385049D01*
X36050259Y476637D01*
X35769638Y589599D01*
X35486364Y720967D01*
X35207173Y867776D01*
X34938798Y1027057D01*
X34687974Y1195845D01*
X34631594Y1237098D01*
X34478359Y1354073D01*
X34356365Y1454301D01*
X34260425Y1542597D01*
X34185350Y1623775D01*
X34125952Y1702650D01*
X34119651Y1712158D01*
X34075154Y1775233D01*
X34011337Y1859254D01*
X33936715Y1953271D01*
X33859802Y2046336D01*
X33859580Y2046599D01*
X33584972Y2383437D01*
X33343835Y2704927D01*
X33136791Y3010067D01*
X32964464Y3297855D01*
X32827475Y3567289D01*
X32726448Y3817369D01*
X32692735Y3923842D01*
X32634211Y4185846D01*
X32608737Y4443838D01*
X32615308Y4693719D01*
X32652924Y4931392D01*
X32720580Y5152757D01*
X32817276Y5353719D01*
X32942008Y5530177D01*
X33093774Y5678034D01*
X33128329Y5704584D01*
X33263479Y5788427D01*
X33403944Y5841470D01*
X33561592Y5867324D01*
X33676167Y5871273D01*
X33818418Y5860546D01*
X33945100Y5831422D01*
X34047259Y5786645D01*
X34107483Y5739040D01*
X34122496Y5711681D01*
X34149813Y5651709D01*
X34186708Y5565928D01*
X34230454Y5461140D01*
X34278324Y5344149D01*
X34327590Y5221756D01*
X34375527Y5100766D01*
X34419406Y4987980D01*
X34456501Y4890203D01*
X34484084Y4814236D01*
X34499429Y4766883D01*
X34501667Y4755712D01*
X34488370Y4732117D01*
X34452657Y4685340D01*
X34400797Y4623332D01*
X34367089Y4584977D01*
X34208811Y4398842D01*
X34081230Y4227035D01*
X33979352Y4061122D01*
X33898180Y3892668D01*
X33832719Y3713240D01*
X33814020Y3651250D01*
X33771656Y3488562D01*
X33748963Y3358020D01*
X33746351Y3254075D01*
X33764231Y3171174D01*
X33803014Y3103766D01*
X33858515Y3049869D01*
X33922783Y3012550D01*
X33977014Y3014446D01*
X34029124Y3056608D01*
X34043425Y3074459D01*
X34078785Y3126379D01*
X34111821Y3187520D01*
X34145737Y3265382D01*
X34183734Y3367465D01*
X34229015Y3501270D01*
X34239987Y3534834D01*
X34284794Y3660737D01*
X34338772Y3793925D01*
X34398004Y3926352D01*
X34458569Y4049974D01*
X34516550Y4156746D01*
X34568027Y4238625D01*
X34604752Y4283617D01*
X34649766Y4320925D01*
X34683029Y4329664D01*
X34708840Y4320406D01*
X34758882Y4282567D01*
X34826417Y4215622D01*
X34905990Y4126040D01*
X34992148Y4020290D01*
X35079438Y3904842D01*
X35162408Y3786165D01*
X35174490Y3767960D01*
X35287579Y3611433D01*
X35420378Y3452687D01*
X35565440Y3299000D01*
X35715318Y3157652D01*
X35862565Y3035922D01*
X35999734Y2941090D01*
X36049555Y2912614D01*
X36129721Y2885904D01*
X36199835Y2892300D01*
X36251098Y2930506D01*
X36259189Y2943454D01*
X36271842Y2985206D01*
X36265582Y3033751D01*
X36237897Y3093266D01*
X36186275Y3167932D01*
X36108205Y3261927D01*
X36001176Y3379430D01*
X35990084Y3391251D01*
X35891950Y3497562D01*
X35788847Y3612529D01*
X35690980Y3724567D01*
X35608557Y3822088D01*
X35583888Y3852334D01*
X35432798Y4049125D01*
X35279569Y4265175D01*
X35130321Y4490853D01*
X34991176Y4716522D01*
X34868256Y4932551D01*
X34767683Y5129304D01*
X34754272Y5157925D01*
X34703060Y5276827D01*
X34648800Y5416523D01*
X34594995Y5566586D01*
X34545150Y5716590D01*
X34502768Y5856106D01*
X34471353Y5974709D01*
X34457578Y6040796D01*
X34445279Y6173073D01*
X34457602Y6294412D01*
X34497231Y6410038D01*
X34566849Y6525173D01*
X34669140Y6645042D01*
X34806786Y6774867D01*
X34856592Y6817562D01*
X35196422Y7077290D01*
X35552741Y7298066D01*
X35926089Y7480151D01*
X36317007Y7623809D01*
X36726037Y7729301D01*
X36745334Y7733247D01*
X36951495Y7771150D01*
X37149195Y7798863D01*
X37349183Y7817197D01*
X37562207Y7826964D01*
X37799018Y7828974D01*
X37979222Y7826322D01*
X37979222Y7826322D01*
G37*
X37979222Y7826322D02*
X38084496Y7823760D01*
X38181705Y7820554D01*
X38273929Y7816121D01*
X38364251Y7809881D01*
X38455753Y7801252D01*
X38551517Y7789651D01*
X38654625Y7774499D01*
X38768160Y7755214D01*
X38895203Y7731213D01*
X39038836Y7701916D01*
X39202143Y7666742D01*
X39388204Y7625108D01*
X39600101Y7576433D01*
X39840918Y7520136D01*
X40113736Y7455635D01*
X40421637Y7382350D01*
X40756417Y7302395D01*
X41094761Y7221889D01*
X41397677Y7150760D01*
X41670759Y7087929D01*
X41919602Y7032317D01*
X42149799Y6982848D01*
X42366945Y6938442D01*
X42576634Y6898021D01*
X42784460Y6860507D01*
X42996017Y6824821D01*
X43216899Y6789886D01*
X43452700Y6754624D01*
X43709015Y6717955D01*
X43991438Y6678802D01*
X43992412Y6678668D01*
X44244809Y6646391D01*
X44482163Y6621359D01*
X44712904Y6603249D01*
X44945460Y6591736D01*
X45188261Y6586497D01*
X45449736Y6587206D01*
X45738314Y6593540D01*
X45984584Y6602058D01*
X46400462Y6620364D01*
X46801874Y6642233D01*
X47185486Y6667354D01*
X47547964Y6695415D01*
X47885972Y6726106D01*
X48196178Y6759115D01*
X48475246Y6794130D01*
X48719842Y6830841D01*
X48926633Y6868936D01*
X48990250Y6882717D01*
X49079077Y6902263D01*
X49155505Y6917954D01*
X49207773Y6927424D01*
X49220281Y6929025D01*
X49267212Y6911978D01*
X49313222Y6853400D01*
X49358366Y6753135D01*
X49402698Y6611032D01*
X49446273Y6426936D01*
X49489145Y6200694D01*
X49497363Y6152043D01*
X49536010Y5903669D01*
X49566693Y5668693D01*
X49590348Y5436207D01*
X49607909Y5195299D01*
X49620311Y4935059D01*
X49628489Y4644577D01*
X49629093Y4614334D01*
X49632182Y4376196D01*
X49630505Y4172770D01*
X49622626Y3996565D01*
X49607106Y3840090D01*
X49582507Y3695853D01*
X49547392Y3556365D01*
X49500323Y3414134D01*
X49439862Y3261669D01*
X49364572Y3091480D01*
X49317236Y2989557D01*
X49125787Y2616688D01*
X48918371Y2281001D01*
X48692392Y1979511D01*
X48445257Y1709233D01*
X48174371Y1467182D01*
X47877139Y1250376D01*
X47719145Y1151289D01*
X47633905Y1101745D01*
X47551892Y1057513D01*
X47467072Y1016106D01*
X47373408Y975035D01*
X47264866Y931809D01*
X47135410Y883941D01*
X46979007Y828942D01*
X46789619Y764322D01*
X46741321Y748026D01*
X46565901Y689133D01*
X46417388Y640519D01*
X46289104Y601141D01*
X46174373Y569958D01*
X46066517Y545929D01*
X45958860Y528013D01*
X45844725Y515166D01*
X45717434Y506349D01*
X45570311Y500519D01*
X45396679Y496634D01*
X45189860Y493655D01*
X45103718Y492574D01*
X44771199Y490098D01*
X44479339Y491441D01*
X44228375Y496593D01*
X44018545Y505541D01*
X43850086Y518275D01*
X43723236Y534783D01*
X43638232Y555055D01*
X43618354Y563064D01*
X43543922Y613650D01*
X43509765Y673945D01*
X43515381Y742282D01*
X43560268Y816993D01*
X43643924Y896413D01*
X43738541Y962290D01*
X43895198Y1078049D01*
X44057648Y1232681D01*
X44223860Y1423459D01*
X44391799Y1647652D01*
X44559433Y1902532D01*
X44724729Y2185370D01*
X44885652Y2493436D01*
X44898151Y2518834D01*
X45053101Y2854579D01*
X45178217Y3170021D01*
X45275857Y3472348D01*
X45348378Y3768751D01*
X45392898Y4027578D01*
X45406251Y4147910D01*
X45417726Y4299287D01*
X45427148Y4473262D01*
X45434347Y4661391D01*
X45439149Y4855228D01*
X45441382Y5046328D01*
X45440874Y5226246D01*
X45437453Y5386535D01*
X45430945Y5518751D01*
X45424746Y5587652D01*
X45404469Y5732495D01*
X45380315Y5839822D01*
X45349654Y5914434D01*
X45309858Y5961131D01*
X45258299Y5984711D01*
X45204320Y5990167D01*
X45165662Y5986708D01*
X45133507Y5973896D01*
X45107112Y5948074D01*
X45085728Y5905587D01*
X45068612Y5842782D01*
X45055018Y5756001D01*
X45044199Y5641592D01*
X45035409Y5495898D01*
X45027904Y5315264D01*
X45020937Y5096035D01*
X45020779Y5090584D01*
X45012514Y4827376D01*
X45003577Y4601168D01*
X44993196Y4406630D01*
X44980600Y4238429D01*
X44965016Y4091232D01*
X44945673Y3959707D01*
X44921798Y3838523D01*
X44892620Y3722347D01*
X44857366Y3605847D01*
X44815265Y3483690D01*
X44770882Y3364511D01*
X44631708Y3011733D01*
X44497458Y2697106D01*
X44366112Y2417018D01*
X44235649Y2167859D01*
X44104050Y1946020D01*
X43969294Y1747890D01*
X43829360Y1569859D01*
X43682229Y1408316D01*
X43668190Y1394085D01*
X43497797Y1233779D01*
X43325205Y1095974D01*
X43143491Y976947D01*
X42945735Y872975D01*
X42725015Y780334D01*
X42474410Y695300D01*
X42248667Y630494D01*
X42191735Y615877D01*
X42138560Y604551D01*
X42082771Y596116D01*
X42017998Y590174D01*
X41937873Y586327D01*
X41836026Y584176D01*
X41706086Y583322D01*
X41541686Y583366D01*
X41497250Y583464D01*
X41195055Y586922D01*
X40933148Y595921D01*
X40709813Y610741D01*
X40523335Y631659D01*
X40371996Y658954D01*
X40254080Y692905D01*
X40167872Y733791D01*
X40111654Y781890D01*
X40092941Y811426D01*
X40076806Y860109D01*
X40075894Y913341D01*
X40092266Y977679D01*
X40127983Y1059678D01*
X40185106Y1165894D01*
X40227135Y1238264D01*
X40391703Y1548691D01*
X40530216Y1879698D01*
X40643220Y2233728D01*
X40731261Y2613222D01*
X40794884Y3020623D01*
X40834635Y3458373D01*
X40851058Y3928912D01*
X40851595Y4034143D01*
X40833529Y4633154D01*
X40778620Y5216248D01*
X40686085Y5789683D01*
X40565027Y6321897D01*
X40508368Y6523244D01*
X40453173Y6683626D01*
X40398764Y6804358D01*
X40344468Y6886755D01*
X40289610Y6932129D01*
X40246239Y6942667D01*
X40193334Y6928048D01*
X40162424Y6906567D01*
X40144839Y6872974D01*
X40135750Y6814173D01*
X40135381Y6727854D01*
X40143955Y6611711D01*
X40161697Y6463436D01*
X40188832Y6280719D01*
X40225583Y6061255D01*
X40266881Y5831417D01*
X40307616Y5609727D01*
X40341353Y5423243D01*
X40368746Y5265534D01*
X40390446Y5130172D01*
X40407106Y5010724D01*
X40419376Y4900761D01*
X40427908Y4793852D01*
X40433356Y4683567D01*
X40436370Y4563475D01*
X40437603Y4427147D01*
X40437706Y4268151D01*
X40437474Y4148667D01*
X40435685Y3871687D01*
X40431032Y3630659D01*
X40422657Y3419247D01*
X40409704Y3231118D01*
X40391316Y3059938D01*
X40366635Y2899371D01*
X40334804Y2743084D01*
X40294966Y2584742D01*
X40246264Y2418011D01*
X40187840Y2236557D01*
X40172555Y2190937D01*
X40091184Y1955843D01*
X40014925Y1748146D01*
X39944942Y1570709D01*
X39882401Y1426394D01*
X39828466Y1318064D01*
X39794628Y1262530D01*
X39724070Y1174753D01*
X39629264Y1075206D01*
X39521717Y974788D01*
X39412934Y884396D01*
X39338250Y830266D01*
X39086823Y683584D01*
X38803895Y555858D01*
X38496551Y448636D01*
X38171878Y363464D01*
X37836964Y301892D01*
X37498894Y265465D01*
X37164756Y255733D01*
X36841635Y274243D01*
X36808864Y277861D01*
X36576606Y317801D01*
X36321493Y385049D01*
X36050259Y476637D01*
X35769638Y589599D01*
X35486364Y720967D01*
X35207173Y867776D01*
X34938798Y1027057D01*
X34687974Y1195845D01*
X34631594Y1237098D01*
X34478359Y1354073D01*
X34356365Y1454301D01*
X34260425Y1542597D01*
X34185350Y1623775D01*
X34125952Y1702650D01*
X34119651Y1712158D01*
X34075154Y1775233D01*
X34011337Y1859254D01*
X33936715Y1953271D01*
X33859802Y2046336D01*
X33859580Y2046599D01*
X33584972Y2383437D01*
X33343835Y2704927D01*
X33136791Y3010067D01*
X32964464Y3297855D01*
X32827475Y3567289D01*
X32726448Y3817369D01*
X32692735Y3923842D01*
X32634211Y4185846D01*
X32608737Y4443838D01*
X32615308Y4693719D01*
X32652924Y4931392D01*
X32720580Y5152757D01*
X32817276Y5353719D01*
X32942008Y5530177D01*
X33093774Y5678034D01*
X33128329Y5704584D01*
X33263479Y5788427D01*
X33403944Y5841470D01*
X33561592Y5867324D01*
X33676167Y5871273D01*
X33818418Y5860546D01*
X33945100Y5831422D01*
X34047259Y5786645D01*
X34107483Y5739040D01*
X34122496Y5711681D01*
X34149813Y5651709D01*
X34186708Y5565928D01*
X34230454Y5461140D01*
X34278324Y5344149D01*
X34327590Y5221756D01*
X34375527Y5100766D01*
X34419406Y4987980D01*
X34456501Y4890203D01*
X34484084Y4814236D01*
X34499429Y4766883D01*
X34501667Y4755712D01*
X34488370Y4732117D01*
X34452657Y4685340D01*
X34400797Y4623332D01*
X34367089Y4584977D01*
X34208811Y4398842D01*
X34081230Y4227035D01*
X33979352Y4061122D01*
X33898180Y3892668D01*
X33832719Y3713240D01*
X33814020Y3651250D01*
X33771656Y3488562D01*
X33748963Y3358020D01*
X33746351Y3254075D01*
X33764231Y3171174D01*
X33803014Y3103766D01*
X33858515Y3049869D01*
X33922783Y3012550D01*
X33977014Y3014446D01*
X34029124Y3056608D01*
X34043425Y3074459D01*
X34078785Y3126379D01*
X34111821Y3187520D01*
X34145737Y3265382D01*
X34183734Y3367465D01*
X34229015Y3501270D01*
X34239987Y3534834D01*
X34284794Y3660737D01*
X34338772Y3793925D01*
X34398004Y3926352D01*
X34458569Y4049974D01*
X34516550Y4156746D01*
X34568027Y4238625D01*
X34604752Y4283617D01*
X34649766Y4320925D01*
X34683029Y4329664D01*
X34708840Y4320406D01*
X34758882Y4282567D01*
X34826417Y4215622D01*
X34905990Y4126040D01*
X34992148Y4020290D01*
X35079438Y3904842D01*
X35162408Y3786165D01*
X35174490Y3767960D01*
X35287579Y3611433D01*
X35420378Y3452687D01*
X35565440Y3299000D01*
X35715318Y3157652D01*
X35862565Y3035922D01*
X35999734Y2941090D01*
X36049555Y2912614D01*
X36129721Y2885904D01*
X36199835Y2892300D01*
X36251098Y2930506D01*
X36259189Y2943454D01*
X36271842Y2985206D01*
X36265582Y3033751D01*
X36237897Y3093266D01*
X36186275Y3167932D01*
X36108205Y3261927D01*
X36001176Y3379430D01*
X35990084Y3391251D01*
X35891950Y3497562D01*
X35788847Y3612529D01*
X35690980Y3724567D01*
X35608557Y3822088D01*
X35583888Y3852334D01*
X35432798Y4049125D01*
X35279569Y4265175D01*
X35130321Y4490853D01*
X34991176Y4716522D01*
X34868256Y4932551D01*
X34767683Y5129304D01*
X34754272Y5157925D01*
X34703060Y5276827D01*
X34648800Y5416523D01*
X34594995Y5566586D01*
X34545150Y5716590D01*
X34502768Y5856106D01*
X34471353Y5974709D01*
X34457578Y6040796D01*
X34445279Y6173073D01*
X34457602Y6294412D01*
X34497231Y6410038D01*
X34566849Y6525173D01*
X34669140Y6645042D01*
X34806786Y6774867D01*
X34856592Y6817562D01*
X35196422Y7077290D01*
X35552741Y7298066D01*
X35926089Y7480151D01*
X36317007Y7623809D01*
X36726037Y7729301D01*
X36745334Y7733247D01*
X36951495Y7771150D01*
X37149195Y7798863D01*
X37349183Y7817197D01*
X37562207Y7826964D01*
X37799018Y7828974D01*
X37979222Y7826322D01*
G36*
X-33195675Y5795542D02*
G01*
X-32942594Y5771605D01*
X-32714788Y5747812D01*
X-32504573Y5722919D01*
X-32304266Y5695684D01*
X-32106183Y5664863D01*
X-31902640Y5629212D01*
X-31685952Y5587489D01*
X-31448436Y5538449D01*
X-31182408Y5480851D01*
X-30998583Y5440027D01*
X-30630397Y5357678D01*
X-30299988Y5283733D01*
X-30003831Y5217322D01*
X-29738399Y5157575D01*
X-29500165Y5103622D01*
X-29285602Y5054592D01*
X-29091183Y5009615D01*
X-28913382Y4967821D01*
X-28748672Y4928340D01*
X-28593527Y4890301D01*
X-28444419Y4852834D01*
X-28297821Y4815069D01*
X-28150208Y4776135D01*
X-27998053Y4735162D01*
X-27837828Y4691280D01*
X-27666007Y4643618D01*
X-27479063Y4591307D01*
X-27273470Y4533476D01*
X-27045701Y4469255D01*
X-26913416Y4431943D01*
X-26544262Y4327354D01*
X-26209868Y4231443D01*
X-25904031Y4142211D01*
X-25620545Y4057657D01*
X-25353208Y3975783D01*
X-25095815Y3894589D01*
X-24842163Y3812074D01*
X-24586046Y3726240D01*
X-24321261Y3635086D01*
X-24041604Y3536613D01*
X-23740871Y3428822D01*
X-23412857Y3309712D01*
X-23272750Y3258497D01*
X-22887330Y3116477D01*
X-22520100Y2979335D01*
X-22172771Y2847776D01*
X-21847054Y2722504D01*
X-21544660Y2604224D01*
X-21267301Y2493639D01*
X-21016687Y2391454D01*
X-20794530Y2298374D01*
X-20602541Y2215102D01*
X-20442432Y2142344D01*
X-20315912Y2080803D01*
X-20224694Y2031183D01*
X-20170489Y1994191D01*
X-20155173Y1975225D01*
X-20165957Y1947257D01*
X-20192679Y1926339D01*
X-20222406Y1915995D01*
X-20288175Y1896588D01*
X-20384988Y1869431D01*
X-20507844Y1835840D01*
X-20651745Y1797131D01*
X-20811692Y1754618D01*
X-20982686Y1709616D01*
X-21159727Y1663441D01*
X-21337817Y1617408D01*
X-21511956Y1572832D01*
X-21677145Y1531027D01*
X-21828386Y1493310D01*
X-21960679Y1460994D01*
X-21971000Y1458512D01*
X-22387587Y1362490D01*
X-22784699Y1279744D01*
X-23171328Y1208973D01*
X-23556465Y1148879D01*
X-23949103Y1098162D01*
X-24358233Y1055523D01*
X-24792848Y1019661D01*
X-25188333Y993579D01*
X-25266261Y990099D01*
X-25380209Y986632D01*
X-25525684Y983219D01*
X-25698194Y979897D01*
X-25893247Y976705D01*
X-26106349Y973682D01*
X-26333009Y970865D01*
X-26568734Y968293D01*
X-26809031Y966005D01*
X-27049409Y964039D01*
X-27285374Y962433D01*
X-27512435Y961227D01*
X-27726098Y960457D01*
X-27921872Y960164D01*
X-28095263Y960384D01*
X-28241780Y961158D01*
X-28356930Y962522D01*
X-28436221Y964516D01*
X-28458583Y965602D01*
X-28753005Y984501D01*
X-29052731Y1004492D01*
X-29353046Y1025216D01*
X-29649236Y1046314D01*
X-29936584Y1067430D01*
X-30210376Y1088203D01*
X-30465897Y1108277D01*
X-30698432Y1127292D01*
X-30903264Y1144891D01*
X-31075679Y1160715D01*
X-31210963Y1174406D01*
X-31220833Y1175486D01*
X-31387104Y1194981D01*
X-31549424Y1216668D01*
X-31712854Y1241543D01*
X-31882458Y1270599D01*
X-32063297Y1304829D01*
X-32260434Y1345228D01*
X-32478931Y1392790D01*
X-32723850Y1448507D01*
X-33000253Y1513374D01*
X-33265734Y1576930D01*
X-33670219Y1674436D01*
X-33799790Y1943659D01*
X-33968295Y2340906D01*
X-34099190Y2752575D01*
X-34190743Y3172540D01*
X-34230424Y3467457D01*
X-34240230Y3579067D01*
X-34244772Y3675588D01*
X-34243816Y3770395D01*
X-34237124Y3876865D01*
X-34224462Y4008372D01*
X-34220195Y4048020D01*
X-34184644Y4316711D01*
X-34138363Y4552368D01*
X-34077574Y4763718D01*
X-33998499Y4959484D01*
X-33897360Y5148393D01*
X-33770381Y5339170D01*
X-33613784Y5540539D01*
X-33531951Y5637746D01*
X-33381934Y5812499D01*
X-33195675Y5795542D01*
X-33195675Y5795542D01*
G37*
X-33195675Y5795542D02*
X-32942594Y5771605D01*
X-32714788Y5747812D01*
X-32504573Y5722919D01*
X-32304266Y5695684D01*
X-32106183Y5664863D01*
X-31902640Y5629212D01*
X-31685952Y5587489D01*
X-31448436Y5538449D01*
X-31182408Y5480851D01*
X-30998583Y5440027D01*
X-30630397Y5357678D01*
X-30299988Y5283733D01*
X-30003831Y5217322D01*
X-29738399Y5157575D01*
X-29500165Y5103622D01*
X-29285602Y5054592D01*
X-29091183Y5009615D01*
X-28913382Y4967821D01*
X-28748672Y4928340D01*
X-28593527Y4890301D01*
X-28444419Y4852834D01*
X-28297821Y4815069D01*
X-28150208Y4776135D01*
X-27998053Y4735162D01*
X-27837828Y4691280D01*
X-27666007Y4643618D01*
X-27479063Y4591307D01*
X-27273470Y4533476D01*
X-27045701Y4469255D01*
X-26913416Y4431943D01*
X-26544262Y4327354D01*
X-26209868Y4231443D01*
X-25904031Y4142211D01*
X-25620545Y4057657D01*
X-25353208Y3975783D01*
X-25095815Y3894589D01*
X-24842163Y3812074D01*
X-24586046Y3726240D01*
X-24321261Y3635086D01*
X-24041604Y3536613D01*
X-23740871Y3428822D01*
X-23412857Y3309712D01*
X-23272750Y3258497D01*
X-22887330Y3116477D01*
X-22520100Y2979335D01*
X-22172771Y2847776D01*
X-21847054Y2722504D01*
X-21544660Y2604224D01*
X-21267301Y2493639D01*
X-21016687Y2391454D01*
X-20794530Y2298374D01*
X-20602541Y2215102D01*
X-20442432Y2142344D01*
X-20315912Y2080803D01*
X-20224694Y2031183D01*
X-20170489Y1994191D01*
X-20155173Y1975225D01*
X-20165957Y1947257D01*
X-20192679Y1926339D01*
X-20222406Y1915995D01*
X-20288175Y1896588D01*
X-20384988Y1869431D01*
X-20507844Y1835840D01*
X-20651745Y1797131D01*
X-20811692Y1754618D01*
X-20982686Y1709616D01*
X-21159727Y1663441D01*
X-21337817Y1617408D01*
X-21511956Y1572832D01*
X-21677145Y1531027D01*
X-21828386Y1493310D01*
X-21960679Y1460994D01*
X-21971000Y1458512D01*
X-22387587Y1362490D01*
X-22784699Y1279744D01*
X-23171328Y1208973D01*
X-23556465Y1148879D01*
X-23949103Y1098162D01*
X-24358233Y1055523D01*
X-24792848Y1019661D01*
X-25188333Y993579D01*
X-25266261Y990099D01*
X-25380209Y986632D01*
X-25525684Y983219D01*
X-25698194Y979897D01*
X-25893247Y976705D01*
X-26106349Y973682D01*
X-26333009Y970865D01*
X-26568734Y968293D01*
X-26809031Y966005D01*
X-27049409Y964039D01*
X-27285374Y962433D01*
X-27512435Y961227D01*
X-27726098Y960457D01*
X-27921872Y960164D01*
X-28095263Y960384D01*
X-28241780Y961158D01*
X-28356930Y962522D01*
X-28436221Y964516D01*
X-28458583Y965602D01*
X-28753005Y984501D01*
X-29052731Y1004492D01*
X-29353046Y1025216D01*
X-29649236Y1046314D01*
X-29936584Y1067430D01*
X-30210376Y1088203D01*
X-30465897Y1108277D01*
X-30698432Y1127292D01*
X-30903264Y1144891D01*
X-31075679Y1160715D01*
X-31210963Y1174406D01*
X-31220833Y1175486D01*
X-31387104Y1194981D01*
X-31549424Y1216668D01*
X-31712854Y1241543D01*
X-31882458Y1270599D01*
X-32063297Y1304829D01*
X-32260434Y1345228D01*
X-32478931Y1392790D01*
X-32723850Y1448507D01*
X-33000253Y1513374D01*
X-33265734Y1576930D01*
X-33670219Y1674436D01*
X-33799790Y1943659D01*
X-33968295Y2340906D01*
X-34099190Y2752575D01*
X-34190743Y3172540D01*
X-34230424Y3467457D01*
X-34240230Y3579067D01*
X-34244772Y3675588D01*
X-34243816Y3770395D01*
X-34237124Y3876865D01*
X-34224462Y4008372D01*
X-34220195Y4048020D01*
X-34184644Y4316711D01*
X-34138363Y4552368D01*
X-34077574Y4763718D01*
X-33998499Y4959484D01*
X-33897360Y5148393D01*
X-33770381Y5339170D01*
X-33613784Y5540539D01*
X-33531951Y5637746D01*
X-33381934Y5812499D01*
X-33195675Y5795542D01*
G36*
X-40049310Y13661428D02*
G01*
X-40029923Y13600165D01*
X-40026166Y13534229D01*
X-40028839Y13481388D01*
X-40038987Y13433177D01*
X-40059812Y13386906D01*
X-40094512Y13339890D01*
X-40146285Y13289440D01*
X-40218331Y13232870D01*
X-40313850Y13167492D01*
X-40436039Y13090619D01*
X-40588098Y12999564D01*
X-40773226Y12891639D01*
X-40830500Y12858563D01*
X-41053322Y12729089D01*
X-41255390Y12609351D01*
X-41447562Y12492663D01*
X-41640695Y12372336D01*
X-41845648Y12241684D01*
X-42073277Y12094018D01*
X-42097629Y12078109D01*
X-42216365Y12001146D01*
X-42335276Y11925226D01*
X-42445041Y11856220D01*
X-42536340Y11799995D01*
X-42590101Y11767999D01*
X-42851273Y11605004D01*
X-43127655Y11410386D01*
X-43413558Y11189336D01*
X-43703293Y10947046D01*
X-43991174Y10688709D01*
X-44271511Y10419517D01*
X-44538616Y10144661D01*
X-44786800Y9869335D01*
X-45010375Y9598728D01*
X-45110913Y9467147D01*
X-45297248Y9196615D01*
X-45444002Y8940681D01*
X-45551252Y8699130D01*
X-45619076Y8471749D01*
X-45647549Y8258321D01*
X-45636748Y8058633D01*
X-45629390Y8017896D01*
X-45586769Y7852045D01*
X-45530827Y7719258D01*
X-45457190Y7616231D01*
X-45361487Y7539660D01*
X-45239345Y7486240D01*
X-45086391Y7452667D01*
X-44898253Y7435638D01*
X-44856638Y7433948D01*
X-44641406Y7436891D01*
X-44411630Y7460505D01*
X-44163648Y7505627D01*
X-43893801Y7573093D01*
X-43598428Y7663740D01*
X-43273867Y7778404D01*
X-43158833Y7822003D01*
X-42959594Y7899696D01*
X-42778505Y7972961D01*
X-42611102Y8044291D01*
X-42452917Y8116178D01*
X-42299484Y8191112D01*
X-42146337Y8271586D01*
X-41989009Y8360092D01*
X-41823033Y8459120D01*
X-41643944Y8571162D01*
X-41447274Y8698711D01*
X-41228558Y8844258D01*
X-40983328Y9010294D01*
X-40781910Y9147990D01*
X-40592446Y9276316D01*
X-40425732Y9386003D01*
X-40283626Y9475943D01*
X-40167989Y9545025D01*
X-40080678Y9592138D01*
X-40023553Y9616175D01*
X-39998472Y9616023D01*
X-39998350Y9615832D01*
X-39983433Y9579318D01*
X-39965676Y9512835D01*
X-39944560Y9413812D01*
X-39919564Y9279672D01*
X-39890168Y9107842D01*
X-39867554Y8969117D01*
X-39831460Y8754263D01*
X-39788870Y8517301D01*
X-39741648Y8267505D01*
X-39691658Y8014145D01*
X-39640762Y7766495D01*
X-39590823Y7533826D01*
X-39543704Y7325409D01*
X-39505320Y7166514D01*
X-39467422Y7029033D01*
X-39416185Y6862088D01*
X-39354945Y6675130D01*
X-39287032Y6477607D01*
X-39215781Y6278969D01*
X-39144524Y6088666D01*
X-39076595Y5916147D01*
X-39015326Y5770861D01*
X-39004548Y5746750D01*
X-38956722Y5643892D01*
X-38896732Y5519136D01*
X-38832151Y5388032D01*
X-38770553Y5266133D01*
X-38768997Y5263105D01*
X-38719027Y5163943D01*
X-38676951Y5076694D01*
X-38646278Y5008930D01*
X-38630516Y4968217D01*
X-38629166Y4961480D01*
X-38632349Y4944924D01*
X-38645514Y4936355D01*
X-38674091Y4936763D01*
X-38723508Y4947136D01*
X-38799192Y4968462D01*
X-38906573Y5001729D01*
X-38981685Y5025658D01*
X-39171721Y5085211D01*
X-39324928Y5130297D01*
X-39443998Y5161624D01*
X-39531621Y5179900D01*
X-39590483Y5185834D01*
X-39644799Y5174746D01*
X-39728723Y5141172D01*
X-39843137Y5084641D01*
X-39988926Y5004687D01*
X-40166973Y4900840D01*
X-40378163Y4772631D01*
X-40427672Y4742032D01*
X-40749650Y4546257D01*
X-41044425Y4375251D01*
X-41317070Y4226392D01*
X-41572664Y4097063D01*
X-41816282Y3984643D01*
X-42052999Y3886512D01*
X-42174583Y3840432D01*
X-42297829Y3794776D01*
X-42444303Y3739880D01*
X-42597780Y3681861D01*
X-42742038Y3626833D01*
X-42777833Y3613077D01*
X-43067605Y3504332D01*
X-43326242Y3413626D01*
X-43559985Y3339122D01*
X-43775080Y3278987D01*
X-43977769Y3231386D01*
X-44174295Y3194485D01*
X-44235044Y3184916D01*
X-44339987Y3172063D01*
X-44468832Y3160756D01*
X-44610708Y3151496D01*
X-44754741Y3144782D01*
X-44890061Y3141115D01*
X-45005794Y3140994D01*
X-45091070Y3144918D01*
X-45095583Y3145354D01*
X-45418456Y3193435D01*
X-45713876Y3269227D01*
X-45980002Y3372091D01*
X-46214994Y3501387D01*
X-46307472Y3566050D01*
X-46406996Y3647299D01*
X-46523167Y3752428D01*
X-46646477Y3872030D01*
X-46767419Y3996699D01*
X-46876483Y4117028D01*
X-46936037Y4187884D01*
X-47035899Y4334554D01*
X-47130767Y4520032D01*
X-47219323Y4740957D01*
X-47300248Y4993962D01*
X-47372225Y5275685D01*
X-47385175Y5334000D01*
X-47417872Y5525792D01*
X-47440409Y5744839D01*
X-47452334Y5977190D01*
X-47453195Y6208896D01*
X-47442537Y6426007D01*
X-47425580Y6578680D01*
X-47363242Y6906637D01*
X-47272446Y7232266D01*
X-47151858Y7558018D01*
X-47000148Y7886342D01*
X-46815982Y8219688D01*
X-46598028Y8560505D01*
X-46344955Y8911244D01*
X-46055430Y9274352D01*
X-45794433Y9577917D01*
X-45713432Y9670425D01*
X-45620136Y9778591D01*
X-45529170Y9885402D01*
X-45486434Y9936206D01*
X-45199305Y10262589D01*
X-44882184Y10592392D01*
X-44541285Y10920411D01*
X-44182822Y11241439D01*
X-43813008Y11550273D01*
X-43438056Y11841706D01*
X-43064180Y12110533D01*
X-42697593Y12351549D01*
X-42375666Y12542263D01*
X-42196435Y12641418D01*
X-42004599Y12745905D01*
X-41804063Y12853719D01*
X-41598736Y12962857D01*
X-41392524Y13071316D01*
X-41189333Y13177091D01*
X-40993070Y13278179D01*
X-40807642Y13372576D01*
X-40636955Y13458279D01*
X-40484916Y13533283D01*
X-40355431Y13595585D01*
X-40252408Y13643181D01*
X-40179753Y13674068D01*
X-40147600Y13685047D01*
X-40087632Y13688600D01*
X-40049310Y13661428D01*
X-40049310Y13661428D01*
G37*
X-40049310Y13661428D02*
X-40029923Y13600165D01*
X-40026166Y13534229D01*
X-40028839Y13481388D01*
X-40038987Y13433177D01*
X-40059812Y13386906D01*
X-40094512Y13339890D01*
X-40146285Y13289440D01*
X-40218331Y13232870D01*
X-40313850Y13167492D01*
X-40436039Y13090619D01*
X-40588098Y12999564D01*
X-40773226Y12891639D01*
X-40830500Y12858563D01*
X-41053322Y12729089D01*
X-41255390Y12609351D01*
X-41447562Y12492663D01*
X-41640695Y12372336D01*
X-41845648Y12241684D01*
X-42073277Y12094018D01*
X-42097629Y12078109D01*
X-42216365Y12001146D01*
X-42335276Y11925226D01*
X-42445041Y11856220D01*
X-42536340Y11799995D01*
X-42590101Y11767999D01*
X-42851273Y11605004D01*
X-43127655Y11410386D01*
X-43413558Y11189336D01*
X-43703293Y10947046D01*
X-43991174Y10688709D01*
X-44271511Y10419517D01*
X-44538616Y10144661D01*
X-44786800Y9869335D01*
X-45010375Y9598728D01*
X-45110913Y9467147D01*
X-45297248Y9196615D01*
X-45444002Y8940681D01*
X-45551252Y8699130D01*
X-45619076Y8471749D01*
X-45647549Y8258321D01*
X-45636748Y8058633D01*
X-45629390Y8017896D01*
X-45586769Y7852045D01*
X-45530827Y7719258D01*
X-45457190Y7616231D01*
X-45361487Y7539660D01*
X-45239345Y7486240D01*
X-45086391Y7452667D01*
X-44898253Y7435638D01*
X-44856638Y7433948D01*
X-44641406Y7436891D01*
X-44411630Y7460505D01*
X-44163648Y7505627D01*
X-43893801Y7573093D01*
X-43598428Y7663740D01*
X-43273867Y7778404D01*
X-43158833Y7822003D01*
X-42959594Y7899696D01*
X-42778505Y7972961D01*
X-42611102Y8044291D01*
X-42452917Y8116178D01*
X-42299484Y8191112D01*
X-42146337Y8271586D01*
X-41989009Y8360092D01*
X-41823033Y8459120D01*
X-41643944Y8571162D01*
X-41447274Y8698711D01*
X-41228558Y8844258D01*
X-40983328Y9010294D01*
X-40781910Y9147990D01*
X-40592446Y9276316D01*
X-40425732Y9386003D01*
X-40283626Y9475943D01*
X-40167989Y9545025D01*
X-40080678Y9592138D01*
X-40023553Y9616175D01*
X-39998472Y9616023D01*
X-39998350Y9615832D01*
X-39983433Y9579318D01*
X-39965676Y9512835D01*
X-39944560Y9413812D01*
X-39919564Y9279672D01*
X-39890168Y9107842D01*
X-39867554Y8969117D01*
X-39831460Y8754263D01*
X-39788870Y8517301D01*
X-39741648Y8267505D01*
X-39691658Y8014145D01*
X-39640762Y7766495D01*
X-39590823Y7533826D01*
X-39543704Y7325409D01*
X-39505320Y7166514D01*
X-39467422Y7029033D01*
X-39416185Y6862088D01*
X-39354945Y6675130D01*
X-39287032Y6477607D01*
X-39215781Y6278969D01*
X-39144524Y6088666D01*
X-39076595Y5916147D01*
X-39015326Y5770861D01*
X-39004548Y5746750D01*
X-38956722Y5643892D01*
X-38896732Y5519136D01*
X-38832151Y5388032D01*
X-38770553Y5266133D01*
X-38768997Y5263105D01*
X-38719027Y5163943D01*
X-38676951Y5076694D01*
X-38646278Y5008930D01*
X-38630516Y4968217D01*
X-38629166Y4961480D01*
X-38632349Y4944924D01*
X-38645514Y4936355D01*
X-38674091Y4936763D01*
X-38723508Y4947136D01*
X-38799192Y4968462D01*
X-38906573Y5001729D01*
X-38981685Y5025658D01*
X-39171721Y5085211D01*
X-39324928Y5130297D01*
X-39443998Y5161624D01*
X-39531621Y5179900D01*
X-39590483Y5185834D01*
X-39644799Y5174746D01*
X-39728723Y5141172D01*
X-39843137Y5084641D01*
X-39988926Y5004687D01*
X-40166973Y4900840D01*
X-40378163Y4772631D01*
X-40427672Y4742032D01*
X-40749650Y4546257D01*
X-41044425Y4375251D01*
X-41317070Y4226392D01*
X-41572664Y4097063D01*
X-41816282Y3984643D01*
X-42052999Y3886512D01*
X-42174583Y3840432D01*
X-42297829Y3794776D01*
X-42444303Y3739880D01*
X-42597780Y3681861D01*
X-42742038Y3626833D01*
X-42777833Y3613077D01*
X-43067605Y3504332D01*
X-43326242Y3413626D01*
X-43559985Y3339122D01*
X-43775080Y3278987D01*
X-43977769Y3231386D01*
X-44174295Y3194485D01*
X-44235044Y3184916D01*
X-44339987Y3172063D01*
X-44468832Y3160756D01*
X-44610708Y3151496D01*
X-44754741Y3144782D01*
X-44890061Y3141115D01*
X-45005794Y3140994D01*
X-45091070Y3144918D01*
X-45095583Y3145354D01*
X-45418456Y3193435D01*
X-45713876Y3269227D01*
X-45980002Y3372091D01*
X-46214994Y3501387D01*
X-46307472Y3566050D01*
X-46406996Y3647299D01*
X-46523167Y3752428D01*
X-46646477Y3872030D01*
X-46767419Y3996699D01*
X-46876483Y4117028D01*
X-46936037Y4187884D01*
X-47035899Y4334554D01*
X-47130767Y4520032D01*
X-47219323Y4740957D01*
X-47300248Y4993962D01*
X-47372225Y5275685D01*
X-47385175Y5334000D01*
X-47417872Y5525792D01*
X-47440409Y5744839D01*
X-47452334Y5977190D01*
X-47453195Y6208896D01*
X-47442537Y6426007D01*
X-47425580Y6578680D01*
X-47363242Y6906637D01*
X-47272446Y7232266D01*
X-47151858Y7558018D01*
X-47000148Y7886342D01*
X-46815982Y8219688D01*
X-46598028Y8560505D01*
X-46344955Y8911244D01*
X-46055430Y9274352D01*
X-45794433Y9577917D01*
X-45713432Y9670425D01*
X-45620136Y9778591D01*
X-45529170Y9885402D01*
X-45486434Y9936206D01*
X-45199305Y10262589D01*
X-44882184Y10592392D01*
X-44541285Y10920411D01*
X-44182822Y11241439D01*
X-43813008Y11550273D01*
X-43438056Y11841706D01*
X-43064180Y12110533D01*
X-42697593Y12351549D01*
X-42375666Y12542263D01*
X-42196435Y12641418D01*
X-42004599Y12745905D01*
X-41804063Y12853719D01*
X-41598736Y12962857D01*
X-41392524Y13071316D01*
X-41189333Y13177091D01*
X-40993070Y13278179D01*
X-40807642Y13372576D01*
X-40636955Y13458279D01*
X-40484916Y13533283D01*
X-40355431Y13595585D01*
X-40252408Y13643181D01*
X-40179753Y13674068D01*
X-40147600Y13685047D01*
X-40087632Y13688600D01*
X-40049310Y13661428D01*
G36*
X5083834Y16601553D02*
G01*
X5138799Y16567247D01*
X5214064Y16510588D01*
X5305165Y16435711D01*
X5407637Y16346751D01*
X5517014Y16247841D01*
X5628832Y16143117D01*
X5738626Y16036713D01*
X5841930Y15932763D01*
X5934280Y15835402D01*
X6011211Y15748765D01*
X6068257Y15676986D01*
X6082144Y15656983D01*
X6231580Y15402667D01*
X6369906Y15109264D01*
X6497297Y14776309D01*
X6613926Y14403335D01*
X6719968Y13989877D01*
X6739758Y13903018D01*
X6779894Y13714375D01*
X6807545Y13562306D01*
X6823106Y13443056D01*
X6826973Y13352874D01*
X6819543Y13288005D01*
X6807996Y13255967D01*
X6787008Y13224073D01*
X6751030Y13182226D01*
X6697691Y13128311D01*
X6624619Y13060210D01*
X6529443Y12975808D01*
X6409792Y12872988D01*
X6263294Y12749634D01*
X6087578Y12603630D01*
X5947834Y12488390D01*
X5761664Y12334836D01*
X5592043Y12193974D01*
X5432750Y12060485D01*
X5277567Y11929052D01*
X5120273Y11794358D01*
X4954652Y11651085D01*
X4774482Y11493916D01*
X4573544Y11317534D01*
X4413250Y11176301D01*
X4188841Y10979216D01*
X3989577Y10806471D01*
X3809630Y10653547D01*
X3643169Y10515926D01*
X3484367Y10389092D01*
X3327394Y10268525D01*
X3166422Y10149708D01*
X2995622Y10028122D01*
X2809165Y9899252D01*
X2601222Y9758577D01*
X2476500Y9675149D01*
X2017900Y9375794D01*
X1582592Y9105353D01*
X1165680Y8861154D01*
X762272Y8640526D01*
X367473Y8440796D01*
X-23611Y8259292D01*
X-415874Y8093342D01*
X-433916Y8086082D01*
X-582622Y8024726D01*
X-753960Y7951349D01*
X-932610Y7872677D01*
X-1103247Y7795435D01*
X-1217083Y7742330D01*
X-1456899Y7628639D01*
X-1662400Y7531441D01*
X-1837456Y7448962D01*
X-1985942Y7379426D01*
X-2111729Y7321058D01*
X-2218689Y7272082D01*
X-2310696Y7230723D01*
X-2391621Y7195206D01*
X-2465337Y7163755D01*
X-2535717Y7134595D01*
X-2595045Y7110590D01*
X-3120359Y6910933D01*
X-3684942Y6717577D01*
X-4289782Y6530197D01*
X-4772034Y6392944D01*
X-4942691Y6346622D01*
X-5076699Y6311670D01*
X-5177968Y6287325D01*
X-5250406Y6272825D01*
X-5297922Y6267406D01*
X-5324424Y6270303D01*
X-5333822Y6280755D01*
X-5334000Y6283181D01*
X-5320212Y6315863D01*
X-5280138Y6377598D01*
X-5215711Y6465885D01*
X-5128863Y6578221D01*
X-5021527Y6712103D01*
X-4895637Y6865029D01*
X-4759203Y7027334D01*
X-4558980Y7263976D01*
X-4381462Y7475216D01*
X-4221411Y7667451D01*
X-4073586Y7847077D01*
X-3932746Y8020490D01*
X-3793653Y8194086D01*
X-3651066Y8374263D01*
X-3545374Y8509000D01*
X-3420805Y8667759D01*
X-3306072Y8812659D01*
X-3196730Y8949063D01*
X-3088336Y9082332D01*
X-2976444Y9217828D01*
X-2856611Y9360913D01*
X-2724392Y9516950D01*
X-2575341Y9691300D01*
X-2405015Y9889325D01*
X-2308722Y10000934D01*
X-2113584Y10221830D01*
X-1892161Y10463545D01*
X-1649804Y10720758D01*
X-1391860Y10988143D01*
X-1123679Y11260378D01*
X-850611Y11532139D01*
X-578005Y11798102D01*
X-311209Y12052944D01*
X-55575Y12291341D01*
X183551Y12507969D01*
X400817Y12697506D01*
X401152Y12697792D01*
X674544Y12930946D01*
X916418Y13137929D01*
X1127809Y13319632D01*
X1309751Y13476947D01*
X1463279Y13610768D01*
X1589426Y13721985D01*
X1620898Y13750016D01*
X1712072Y13831425D01*
X1825206Y13932420D01*
X1950668Y14044405D01*
X2078828Y14158784D01*
X2200056Y14266962D01*
X2202981Y14269572D01*
X2643121Y14655385D01*
X3115713Y15056474D01*
X3503084Y15376726D01*
X3620858Y15472659D01*
X3752562Y15579297D01*
X3894441Y15693654D01*
X4042738Y15812744D01*
X4193699Y15933583D01*
X4343568Y16053184D01*
X4488590Y16168562D01*
X4625009Y16276732D01*
X4749071Y16374708D01*
X4857019Y16459506D01*
X4945098Y16528139D01*
X5009554Y16577622D01*
X5046630Y16604970D01*
X5053634Y16609372D01*
X5083834Y16601553D01*
X5083834Y16601553D01*
G37*
X5083834Y16601553D02*
X5138799Y16567247D01*
X5214064Y16510588D01*
X5305165Y16435711D01*
X5407637Y16346751D01*
X5517014Y16247841D01*
X5628832Y16143117D01*
X5738626Y16036713D01*
X5841930Y15932763D01*
X5934280Y15835402D01*
X6011211Y15748765D01*
X6068257Y15676986D01*
X6082144Y15656983D01*
X6231580Y15402667D01*
X6369906Y15109264D01*
X6497297Y14776309D01*
X6613926Y14403335D01*
X6719968Y13989877D01*
X6739758Y13903018D01*
X6779894Y13714375D01*
X6807545Y13562306D01*
X6823106Y13443056D01*
X6826973Y13352874D01*
X6819543Y13288005D01*
X6807996Y13255967D01*
X6787008Y13224073D01*
X6751030Y13182226D01*
X6697691Y13128311D01*
X6624619Y13060210D01*
X6529443Y12975808D01*
X6409792Y12872988D01*
X6263294Y12749634D01*
X6087578Y12603630D01*
X5947834Y12488390D01*
X5761664Y12334836D01*
X5592043Y12193974D01*
X5432750Y12060485D01*
X5277567Y11929052D01*
X5120273Y11794358D01*
X4954652Y11651085D01*
X4774482Y11493916D01*
X4573544Y11317534D01*
X4413250Y11176301D01*
X4188841Y10979216D01*
X3989577Y10806471D01*
X3809630Y10653547D01*
X3643169Y10515926D01*
X3484367Y10389092D01*
X3327394Y10268525D01*
X3166422Y10149708D01*
X2995622Y10028122D01*
X2809165Y9899252D01*
X2601222Y9758577D01*
X2476500Y9675149D01*
X2017900Y9375794D01*
X1582592Y9105353D01*
X1165680Y8861154D01*
X762272Y8640526D01*
X367473Y8440796D01*
X-23611Y8259292D01*
X-415874Y8093342D01*
X-433916Y8086082D01*
X-582622Y8024726D01*
X-753960Y7951349D01*
X-932610Y7872677D01*
X-1103247Y7795435D01*
X-1217083Y7742330D01*
X-1456899Y7628639D01*
X-1662400Y7531441D01*
X-1837456Y7448962D01*
X-1985942Y7379426D01*
X-2111729Y7321058D01*
X-2218689Y7272082D01*
X-2310696Y7230723D01*
X-2391621Y7195206D01*
X-2465337Y7163755D01*
X-2535717Y7134595D01*
X-2595045Y7110590D01*
X-3120359Y6910933D01*
X-3684942Y6717577D01*
X-4289782Y6530197D01*
X-4772034Y6392944D01*
X-4942691Y6346622D01*
X-5076699Y6311670D01*
X-5177968Y6287325D01*
X-5250406Y6272825D01*
X-5297922Y6267406D01*
X-5324424Y6270303D01*
X-5333822Y6280755D01*
X-5334000Y6283181D01*
X-5320212Y6315863D01*
X-5280138Y6377598D01*
X-5215711Y6465885D01*
X-5128863Y6578221D01*
X-5021527Y6712103D01*
X-4895637Y6865029D01*
X-4759203Y7027334D01*
X-4558980Y7263976D01*
X-4381462Y7475216D01*
X-4221411Y7667451D01*
X-4073586Y7847077D01*
X-3932746Y8020490D01*
X-3793653Y8194086D01*
X-3651066Y8374263D01*
X-3545374Y8509000D01*
X-3420805Y8667759D01*
X-3306072Y8812659D01*
X-3196730Y8949063D01*
X-3088336Y9082332D01*
X-2976444Y9217828D01*
X-2856611Y9360913D01*
X-2724392Y9516950D01*
X-2575341Y9691300D01*
X-2405015Y9889325D01*
X-2308722Y10000934D01*
X-2113584Y10221830D01*
X-1892161Y10463545D01*
X-1649804Y10720758D01*
X-1391860Y10988143D01*
X-1123679Y11260378D01*
X-850611Y11532139D01*
X-578005Y11798102D01*
X-311209Y12052944D01*
X-55575Y12291341D01*
X183551Y12507969D01*
X400817Y12697506D01*
X401152Y12697792D01*
X674544Y12930946D01*
X916418Y13137929D01*
X1127809Y13319632D01*
X1309751Y13476947D01*
X1463279Y13610768D01*
X1589426Y13721985D01*
X1620898Y13750016D01*
X1712072Y13831425D01*
X1825206Y13932420D01*
X1950668Y14044405D01*
X2078828Y14158784D01*
X2200056Y14266962D01*
X2202981Y14269572D01*
X2643121Y14655385D01*
X3115713Y15056474D01*
X3503084Y15376726D01*
X3620858Y15472659D01*
X3752562Y15579297D01*
X3894441Y15693654D01*
X4042738Y15812744D01*
X4193699Y15933583D01*
X4343568Y16053184D01*
X4488590Y16168562D01*
X4625009Y16276732D01*
X4749071Y16374708D01*
X4857019Y16459506D01*
X4945098Y16528139D01*
X5009554Y16577622D01*
X5046630Y16604970D01*
X5053634Y16609372D01*
X5083834Y16601553D01*
G36*
X-40015895Y12590793D02*
G01*
X-40012909Y12494801D01*
X-40010533Y12362947D01*
X-40008795Y12201699D01*
X-40007728Y12017525D01*
X-40007361Y11816893D01*
X-40007725Y11606269D01*
X-40008850Y11392122D01*
X-40009742Y11281834D01*
X-40012034Y11041778D01*
X-40014456Y10839930D01*
X-40017464Y10672165D01*
X-40021517Y10534357D01*
X-40027070Y10422382D01*
X-40034581Y10332114D01*
X-40044506Y10259431D01*
X-40057304Y10200205D01*
X-40073430Y10150313D01*
X-40093342Y10105630D01*
X-40117496Y10062031D01*
X-40146350Y10015392D01*
X-40150829Y10008325D01*
X-40187541Y9957259D01*
X-40236061Y9902932D01*
X-40299682Y9842751D01*
X-40381698Y9774122D01*
X-40485402Y9694453D01*
X-40614088Y9601148D01*
X-40771050Y9491616D01*
X-40959582Y9363261D01*
X-41031583Y9314789D01*
X-41300900Y9135638D01*
X-41542495Y8978845D01*
X-41762162Y8840904D01*
X-41965694Y8718312D01*
X-42158884Y8607563D01*
X-42347525Y8505151D01*
X-42499877Y8426455D01*
X-42820187Y8270846D01*
X-43132210Y8131679D01*
X-43433008Y8009798D01*
X-43719643Y7906048D01*
X-43989177Y7821275D01*
X-44238672Y7756324D01*
X-44465188Y7712041D01*
X-44665789Y7689269D01*
X-44837535Y7688854D01*
X-44977489Y7711642D01*
X-44981294Y7712730D01*
X-45091441Y7750095D01*
X-45193565Y7794476D01*
X-45277929Y7840896D01*
X-45334792Y7884381D01*
X-45347714Y7899927D01*
X-45381447Y7983290D01*
X-45395990Y8095242D01*
X-45391031Y8226480D01*
X-45366258Y8367703D01*
X-45363769Y8377741D01*
X-45291967Y8594177D01*
X-45182077Y8827137D01*
X-45034647Y9075838D01*
X-44850224Y9339500D01*
X-44629355Y9617339D01*
X-44372588Y9908574D01*
X-44080470Y10212422D01*
X-44079643Y10213249D01*
X-43840341Y10446816D01*
X-43600257Y10668630D01*
X-43355426Y10881573D01*
X-43101882Y11088528D01*
X-42835661Y11292378D01*
X-42552799Y11496004D01*
X-42249330Y11702289D01*
X-41921288Y11914116D01*
X-41564711Y12134367D01*
X-41175631Y12365924D01*
X-40893023Y12529843D01*
X-40698843Y12640383D01*
X-40536994Y12730020D01*
X-40404028Y12800479D01*
X-40296497Y12853484D01*
X-40210954Y12890760D01*
X-40143949Y12914033D01*
X-40107879Y12922619D01*
X-40030842Y12936668D01*
X-40015895Y12590793D01*
X-40015895Y12590793D01*
G37*
X-40015895Y12590793D02*
X-40012909Y12494801D01*
X-40010533Y12362947D01*
X-40008795Y12201699D01*
X-40007728Y12017525D01*
X-40007361Y11816893D01*
X-40007725Y11606269D01*
X-40008850Y11392122D01*
X-40009742Y11281834D01*
X-40012034Y11041778D01*
X-40014456Y10839930D01*
X-40017464Y10672165D01*
X-40021517Y10534357D01*
X-40027070Y10422382D01*
X-40034581Y10332114D01*
X-40044506Y10259431D01*
X-40057304Y10200205D01*
X-40073430Y10150313D01*
X-40093342Y10105630D01*
X-40117496Y10062031D01*
X-40146350Y10015392D01*
X-40150829Y10008325D01*
X-40187541Y9957259D01*
X-40236061Y9902932D01*
X-40299682Y9842751D01*
X-40381698Y9774122D01*
X-40485402Y9694453D01*
X-40614088Y9601148D01*
X-40771050Y9491616D01*
X-40959582Y9363261D01*
X-41031583Y9314789D01*
X-41300900Y9135638D01*
X-41542495Y8978845D01*
X-41762162Y8840904D01*
X-41965694Y8718312D01*
X-42158884Y8607563D01*
X-42347525Y8505151D01*
X-42499877Y8426455D01*
X-42820187Y8270846D01*
X-43132210Y8131679D01*
X-43433008Y8009798D01*
X-43719643Y7906048D01*
X-43989177Y7821275D01*
X-44238672Y7756324D01*
X-44465188Y7712041D01*
X-44665789Y7689269D01*
X-44837535Y7688854D01*
X-44977489Y7711642D01*
X-44981294Y7712730D01*
X-45091441Y7750095D01*
X-45193565Y7794476D01*
X-45277929Y7840896D01*
X-45334792Y7884381D01*
X-45347714Y7899927D01*
X-45381447Y7983290D01*
X-45395990Y8095242D01*
X-45391031Y8226480D01*
X-45366258Y8367703D01*
X-45363769Y8377741D01*
X-45291967Y8594177D01*
X-45182077Y8827137D01*
X-45034647Y9075838D01*
X-44850224Y9339500D01*
X-44629355Y9617339D01*
X-44372588Y9908574D01*
X-44080470Y10212422D01*
X-44079643Y10213249D01*
X-43840341Y10446816D01*
X-43600257Y10668630D01*
X-43355426Y10881573D01*
X-43101882Y11088528D01*
X-42835661Y11292378D01*
X-42552799Y11496004D01*
X-42249330Y11702289D01*
X-41921288Y11914116D01*
X-41564711Y12134367D01*
X-41175631Y12365924D01*
X-40893023Y12529843D01*
X-40698843Y12640383D01*
X-40536994Y12730020D01*
X-40404028Y12800479D01*
X-40296497Y12853484D01*
X-40210954Y12890760D01*
X-40143949Y12914033D01*
X-40107879Y12922619D01*
X-40030842Y12936668D01*
X-40015895Y12590793D01*
G36*
X32366853Y26235592D02*
G01*
X32402707Y26230961D01*
X32572877Y26195890D01*
X32775830Y26135757D01*
X33011776Y26050478D01*
X33280925Y25939974D01*
X33583487Y25804164D01*
X33898417Y25653420D01*
X34049413Y25578850D01*
X34186727Y25509936D01*
X34315514Y25443810D01*
X34440928Y25377604D01*
X34568123Y25308449D01*
X34702255Y25233476D01*
X34848478Y25149818D01*
X35011947Y25054605D01*
X35197815Y24944970D01*
X35411238Y24818043D01*
X35570584Y24722876D01*
X35745068Y24619253D01*
X35924455Y24514004D01*
X36101652Y24411202D01*
X36269565Y24314920D01*
X36421100Y24229230D01*
X36549165Y24158205D01*
X36629321Y24115012D01*
X36749155Y24050237D01*
X36900349Y23966092D01*
X37078189Y23865361D01*
X37277962Y23750830D01*
X37494952Y23625280D01*
X37724448Y23491497D01*
X37961733Y23352265D01*
X38202096Y23210368D01*
X38440821Y23068590D01*
X38673195Y22929715D01*
X38894505Y22796527D01*
X39100036Y22671810D01*
X39285074Y22558348D01*
X39444906Y22458926D01*
X39574817Y22376327D01*
X39591787Y22365329D01*
X39798846Y22228448D01*
X40027399Y22073373D01*
X40265749Y21908194D01*
X40502201Y21740997D01*
X40680959Y21612082D01*
X40767697Y21551232D01*
X40879805Y21476008D01*
X41006241Y21393636D01*
X41135964Y21311338D01*
X41220709Y21258928D01*
X41472150Y21102692D01*
X41707527Y20950410D01*
X41931321Y20798515D01*
X42148017Y20643442D01*
X42362098Y20481625D01*
X42578048Y20309497D01*
X42800351Y20123494D01*
X43033489Y19920048D01*
X43281948Y19695594D01*
X43550209Y19446565D01*
X43816844Y19194131D01*
X43984546Y19032320D01*
X44163696Y18856160D01*
X44348978Y18671105D01*
X44535080Y18482609D01*
X44716686Y18296129D01*
X44888483Y18117118D01*
X45045156Y17951033D01*
X45181391Y17803328D01*
X45287261Y17684750D01*
X45594054Y17314043D01*
X45860747Y16950594D01*
X46088527Y16592306D01*
X46278580Y16237081D01*
X46432093Y15882821D01*
X46550252Y15527429D01*
X46587522Y15385964D01*
X46624186Y15231341D01*
X46653806Y15093646D01*
X46677103Y14965478D01*
X46694798Y14839438D01*
X46707613Y14708128D01*
X46716268Y14564149D01*
X46721484Y14400101D01*
X46723983Y14208585D01*
X46724485Y13982203D01*
X46724483Y13980584D01*
X46723967Y13783470D01*
X46722662Y13621911D01*
X46720231Y13489133D01*
X46716342Y13378358D01*
X46710659Y13282812D01*
X46702849Y13195719D01*
X46692575Y13110304D01*
X46679504Y13019790D01*
X46675879Y12996334D01*
X46614470Y12646395D01*
X46544911Y12333981D01*
X46465987Y12054855D01*
X46376483Y11804783D01*
X46275185Y11579528D01*
X46262490Y11554566D01*
X46209411Y11447085D01*
X46157220Y11333813D01*
X46113161Y11230836D01*
X46091768Y11175523D01*
X45981187Y10915114D01*
X45848226Y10688265D01*
X45691009Y10493506D01*
X45507659Y10329372D01*
X45296298Y10194395D01*
X45055049Y10087107D01*
X44782034Y10006040D01*
X44534667Y9958337D01*
X44393044Y9938827D01*
X44251468Y9924331D01*
X44105411Y9914966D01*
X43950342Y9910852D01*
X43781732Y9912106D01*
X43595049Y9918847D01*
X43385765Y9931194D01*
X43149349Y9949264D01*
X42881271Y9973177D01*
X42577002Y10003050D01*
X42492084Y10011739D01*
X42249032Y10037150D01*
X42040832Y10059894D01*
X41860160Y10081000D01*
X41699696Y10101495D01*
X41552119Y10122407D01*
X41410108Y10144766D01*
X41266340Y10169598D01*
X41113495Y10197932D01*
X40974243Y10224895D01*
X40436266Y10337720D01*
X39925407Y10460394D01*
X39433993Y10595546D01*
X38954352Y10745808D01*
X38478812Y10913812D01*
X37999702Y11102188D01*
X37509349Y11313567D01*
X37000082Y11550581D01*
X36743225Y11675926D01*
X36538453Y11777789D01*
X36365354Y11865308D01*
X36217279Y11942128D01*
X36087578Y12011895D01*
X35969602Y12078255D01*
X35856704Y12144851D01*
X35742233Y12215329D01*
X35634084Y12283992D01*
X35456406Y12393983D01*
X35283902Y12493135D01*
X35124018Y12577481D01*
X34984205Y12643054D01*
X34891803Y12679332D01*
X34813524Y12703006D01*
X34757618Y12709926D01*
X34708318Y12701703D01*
X34699635Y12698972D01*
X34637047Y12663970D01*
X34613605Y12613556D01*
X34629232Y12548243D01*
X34683851Y12468548D01*
X34743337Y12406295D01*
X34794978Y12353790D01*
X34827632Y12308927D01*
X34838715Y12268017D01*
X34825644Y12227372D01*
X34785837Y12183305D01*
X34716710Y12132126D01*
X34615681Y12070147D01*
X34480166Y11993681D01*
X34438167Y11970532D01*
X34284853Y11881252D01*
X34105502Y11768258D01*
X33905954Y11635692D01*
X33692053Y11487693D01*
X33469638Y11328402D01*
X33244553Y11161959D01*
X33022638Y10992505D01*
X32809735Y10824180D01*
X32733988Y10762665D01*
X32315894Y10409369D01*
X31884555Y10023646D01*
X31445624Y9610949D01*
X31004759Y9176730D01*
X30567612Y8726443D01*
X30139841Y8265539D01*
X30110230Y8232838D01*
X30020032Y8134463D01*
X29937786Y8047396D01*
X29868202Y7976412D01*
X29815993Y7926290D01*
X29785868Y7901806D01*
X29782147Y7900212D01*
X29750048Y7909555D01*
X29696583Y7939360D01*
X29633128Y7983255D01*
X29630984Y7984879D01*
X29567286Y8036278D01*
X29484500Y8107351D01*
X29393882Y8188254D01*
X29315925Y8260399D01*
X29119632Y8445714D01*
X29134234Y8736649D01*
X29154440Y9018048D01*
X29186782Y9267137D01*
X29234094Y9492905D01*
X29299211Y9704341D01*
X29384968Y9910435D01*
X29494200Y10120175D01*
X29629742Y10342551D01*
X29651017Y10375262D01*
X29950957Y10799140D01*
X30288339Y11213938D01*
X30658598Y11615820D01*
X31057169Y12000946D01*
X31479488Y12365480D01*
X31920988Y12705583D01*
X32377105Y13017417D01*
X32843274Y13297145D01*
X33314930Y13540929D01*
X33536440Y13641667D01*
X33636827Y13684551D01*
X33709125Y13712398D01*
X33763768Y13727729D01*
X33811188Y13733065D01*
X33861816Y13730926D01*
X33892615Y13727726D01*
X33984928Y13722711D01*
X34039606Y13733039D01*
X34048217Y13738523D01*
X34071132Y13771760D01*
X34078669Y13823023D01*
X34069977Y13895129D01*
X34044205Y13990896D01*
X34000499Y14113142D01*
X33938009Y14264683D01*
X33855882Y14448337D01*
X33792466Y14584359D01*
X33713157Y14754410D01*
X33631176Y14933800D01*
X33549827Y15115012D01*
X33472415Y15290533D01*
X33402244Y15452846D01*
X33342618Y15594437D01*
X33296843Y15707791D01*
X33285454Y15737417D01*
X33258540Y15805164D01*
X33219190Y15899741D01*
X33172376Y16009389D01*
X33123068Y16122348D01*
X33115439Y16139584D01*
X32782289Y16940549D01*
X32484463Y17760545D01*
X32223859Y18593667D01*
X32002373Y19434010D01*
X31879749Y19983898D01*
X31850085Y20129430D01*
X31821890Y20272740D01*
X31794703Y20416933D01*
X31768065Y20565113D01*
X31741516Y20720385D01*
X31714597Y20885854D01*
X31697689Y20994780D01*
X35796049Y20994780D01*
X35806553Y20829329D01*
X35830790Y20665075D01*
X35834009Y20648950D01*
X35940248Y20216879D01*
X36082720Y19775932D01*
X36258377Y19333025D01*
X36464174Y18895073D01*
X36697064Y18468993D01*
X36954001Y18061698D01*
X37008903Y17981815D01*
X37170597Y17760263D01*
X37357376Y17522281D01*
X37561202Y17277805D01*
X37765820Y17045822D01*
X37855188Y16950405D01*
X37970258Y16832255D01*
X38105250Y16696943D01*
X38254385Y16550037D01*
X38411883Y16397106D01*
X38571964Y16243721D01*
X38728847Y16095450D01*
X38876754Y15957863D01*
X39009904Y15836529D01*
X39122518Y15737018D01*
X39137167Y15724416D01*
X39243688Y15634539D01*
X39371086Y15529296D01*
X39514723Y15412335D01*
X39669959Y15287304D01*
X39832157Y15157850D01*
X39996678Y15027623D01*
X40158885Y14900270D01*
X40314139Y14779440D01*
X40457802Y14668780D01*
X40585237Y14571939D01*
X40691804Y14492565D01*
X40772865Y14434305D01*
X40805545Y14412162D01*
X40905375Y14350248D01*
X41027720Y14279215D01*
X41163959Y14203602D01*
X41305475Y14127950D01*
X41443647Y14056797D01*
X41569856Y13994683D01*
X41675483Y13946147D01*
X41740667Y13919673D01*
X41864437Y13885653D01*
X42018290Y13863290D01*
X42205871Y13852226D01*
X42428584Y13852054D01*
X42561088Y13856120D01*
X42662154Y13862853D01*
X42742658Y13873607D01*
X42813476Y13889736D01*
X42869013Y13906931D01*
X43049578Y13987188D01*
X43199101Y14095711D01*
X43317835Y14232867D01*
X43406035Y14399024D01*
X43463955Y14594548D01*
X43491056Y14806084D01*
X43493298Y14937433D01*
X43482598Y15070631D01*
X43457389Y15213914D01*
X43416105Y15375521D01*
X43357179Y15563689D01*
X43334091Y15631584D01*
X43179936Y16028243D01*
X43001953Y16393049D01*
X42797753Y16730654D01*
X42692658Y16880417D01*
X42624578Y16975725D01*
X42556024Y17076085D01*
X42497121Y17166489D01*
X42471337Y17208500D01*
X42424699Y17283920D01*
X42371848Y17362142D01*
X42310069Y17446411D01*
X42236648Y17539971D01*
X42148869Y17646064D01*
X42044016Y17767934D01*
X41919376Y17908824D01*
X41772233Y18071979D01*
X41599872Y18260641D01*
X41496829Y18372667D01*
X41378174Y18501850D01*
X41240420Y18652515D01*
X41092717Y18814615D01*
X40944212Y18978099D01*
X40804054Y19132918D01*
X40726092Y19219334D01*
X40545599Y19418812D01*
X40390190Y19588470D01*
X40257508Y19730720D01*
X40145195Y19847976D01*
X40050891Y19942651D01*
X39972238Y20017158D01*
X39906879Y20073909D01*
X39852455Y20115319D01*
X39846250Y20119572D01*
X39794691Y20157528D01*
X39719187Y20217120D01*
X39627549Y20291993D01*
X39527589Y20375790D01*
X39454667Y20438238D01*
X39296769Y20573309D01*
X39165843Y20681931D01*
X39058262Y20766914D01*
X38970401Y20831066D01*
X38898634Y20877194D01*
X38861828Y20897368D01*
X38815652Y20924806D01*
X38745529Y20971330D01*
X38661149Y21030329D01*
X38576078Y21092308D01*
X38292917Y21285593D01*
X38010182Y21442353D01*
X37718541Y21567257D01*
X37458315Y21651403D01*
X37218324Y21708271D01*
X36985025Y21743429D01*
X36762284Y21757491D01*
X36553965Y21751074D01*
X36363932Y21724792D01*
X36196050Y21679260D01*
X36054183Y21615093D01*
X35942196Y21532907D01*
X35863953Y21433316D01*
X35845350Y21394692D01*
X35815605Y21287825D01*
X35799118Y21151067D01*
X35796049Y20994780D01*
X31697689Y20994780D01*
X31686847Y21064624D01*
X31657807Y21259800D01*
X31627018Y21474488D01*
X31594019Y21711791D01*
X31558352Y21974815D01*
X31519556Y22266664D01*
X31477172Y22590443D01*
X31430740Y22949257D01*
X31379800Y23346211D01*
X31366193Y23452667D01*
X31333281Y23711060D01*
X31305441Y23931964D01*
X31282247Y24119865D01*
X31263271Y24279248D01*
X31248088Y24414599D01*
X31236270Y24530404D01*
X31227391Y24631148D01*
X31221022Y24721317D01*
X31216739Y24805396D01*
X31214113Y24887871D01*
X31212719Y24973228D01*
X31212128Y25065953D01*
X31212109Y25071917D01*
X31212174Y25223258D01*
X31213754Y25339021D01*
X31217317Y25425948D01*
X31223332Y25490781D01*
X31232267Y25540262D01*
X31244591Y25581134D01*
X31248140Y25590500D01*
X31337718Y25762952D01*
X31459819Y25913693D01*
X31608977Y26039689D01*
X31779726Y26137910D01*
X31966599Y26205322D01*
X32164130Y26238894D01*
X32366853Y26235592D01*
X32366853Y26235592D01*
G37*
X32366853Y26235592D02*
X32402707Y26230961D01*
X32572877Y26195890D01*
X32775830Y26135757D01*
X33011776Y26050478D01*
X33280925Y25939974D01*
X33583487Y25804164D01*
X33898417Y25653420D01*
X34049413Y25578850D01*
X34186727Y25509936D01*
X34315514Y25443810D01*
X34440928Y25377604D01*
X34568123Y25308449D01*
X34702255Y25233476D01*
X34848478Y25149818D01*
X35011947Y25054605D01*
X35197815Y24944970D01*
X35411238Y24818043D01*
X35570584Y24722876D01*
X35745068Y24619253D01*
X35924455Y24514004D01*
X36101652Y24411202D01*
X36269565Y24314920D01*
X36421100Y24229230D01*
X36549165Y24158205D01*
X36629321Y24115012D01*
X36749155Y24050237D01*
X36900349Y23966092D01*
X37078189Y23865361D01*
X37277962Y23750830D01*
X37494952Y23625280D01*
X37724448Y23491497D01*
X37961733Y23352265D01*
X38202096Y23210368D01*
X38440821Y23068590D01*
X38673195Y22929715D01*
X38894505Y22796527D01*
X39100036Y22671810D01*
X39285074Y22558348D01*
X39444906Y22458926D01*
X39574817Y22376327D01*
X39591787Y22365329D01*
X39798846Y22228448D01*
X40027399Y22073373D01*
X40265749Y21908194D01*
X40502201Y21740997D01*
X40680959Y21612082D01*
X40767697Y21551232D01*
X40879805Y21476008D01*
X41006241Y21393636D01*
X41135964Y21311338D01*
X41220709Y21258928D01*
X41472150Y21102692D01*
X41707527Y20950410D01*
X41931321Y20798515D01*
X42148017Y20643442D01*
X42362098Y20481625D01*
X42578048Y20309497D01*
X42800351Y20123494D01*
X43033489Y19920048D01*
X43281948Y19695594D01*
X43550209Y19446565D01*
X43816844Y19194131D01*
X43984546Y19032320D01*
X44163696Y18856160D01*
X44348978Y18671105D01*
X44535080Y18482609D01*
X44716686Y18296129D01*
X44888483Y18117118D01*
X45045156Y17951033D01*
X45181391Y17803328D01*
X45287261Y17684750D01*
X45594054Y17314043D01*
X45860747Y16950594D01*
X46088527Y16592306D01*
X46278580Y16237081D01*
X46432093Y15882821D01*
X46550252Y15527429D01*
X46587522Y15385964D01*
X46624186Y15231341D01*
X46653806Y15093646D01*
X46677103Y14965478D01*
X46694798Y14839438D01*
X46707613Y14708128D01*
X46716268Y14564149D01*
X46721484Y14400101D01*
X46723983Y14208585D01*
X46724485Y13982203D01*
X46724483Y13980584D01*
X46723967Y13783470D01*
X46722662Y13621911D01*
X46720231Y13489133D01*
X46716342Y13378358D01*
X46710659Y13282812D01*
X46702849Y13195719D01*
X46692575Y13110304D01*
X46679504Y13019790D01*
X46675879Y12996334D01*
X46614470Y12646395D01*
X46544911Y12333981D01*
X46465987Y12054855D01*
X46376483Y11804783D01*
X46275185Y11579528D01*
X46262490Y11554566D01*
X46209411Y11447085D01*
X46157220Y11333813D01*
X46113161Y11230836D01*
X46091768Y11175523D01*
X45981187Y10915114D01*
X45848226Y10688265D01*
X45691009Y10493506D01*
X45507659Y10329372D01*
X45296298Y10194395D01*
X45055049Y10087107D01*
X44782034Y10006040D01*
X44534667Y9958337D01*
X44393044Y9938827D01*
X44251468Y9924331D01*
X44105411Y9914966D01*
X43950342Y9910852D01*
X43781732Y9912106D01*
X43595049Y9918847D01*
X43385765Y9931194D01*
X43149349Y9949264D01*
X42881271Y9973177D01*
X42577002Y10003050D01*
X42492084Y10011739D01*
X42249032Y10037150D01*
X42040832Y10059894D01*
X41860160Y10081000D01*
X41699696Y10101495D01*
X41552119Y10122407D01*
X41410108Y10144766D01*
X41266340Y10169598D01*
X41113495Y10197932D01*
X40974243Y10224895D01*
X40436266Y10337720D01*
X39925407Y10460394D01*
X39433993Y10595546D01*
X38954352Y10745808D01*
X38478812Y10913812D01*
X37999702Y11102188D01*
X37509349Y11313567D01*
X37000082Y11550581D01*
X36743225Y11675926D01*
X36538453Y11777789D01*
X36365354Y11865308D01*
X36217279Y11942128D01*
X36087578Y12011895D01*
X35969602Y12078255D01*
X35856704Y12144851D01*
X35742233Y12215329D01*
X35634084Y12283992D01*
X35456406Y12393983D01*
X35283902Y12493135D01*
X35124018Y12577481D01*
X34984205Y12643054D01*
X34891803Y12679332D01*
X34813524Y12703006D01*
X34757618Y12709926D01*
X34708318Y12701703D01*
X34699635Y12698972D01*
X34637047Y12663970D01*
X34613605Y12613556D01*
X34629232Y12548243D01*
X34683851Y12468548D01*
X34743337Y12406295D01*
X34794978Y12353790D01*
X34827632Y12308927D01*
X34838715Y12268017D01*
X34825644Y12227372D01*
X34785837Y12183305D01*
X34716710Y12132126D01*
X34615681Y12070147D01*
X34480166Y11993681D01*
X34438167Y11970532D01*
X34284853Y11881252D01*
X34105502Y11768258D01*
X33905954Y11635692D01*
X33692053Y11487693D01*
X33469638Y11328402D01*
X33244553Y11161959D01*
X33022638Y10992505D01*
X32809735Y10824180D01*
X32733988Y10762665D01*
X32315894Y10409369D01*
X31884555Y10023646D01*
X31445624Y9610949D01*
X31004759Y9176730D01*
X30567612Y8726443D01*
X30139841Y8265539D01*
X30110230Y8232838D01*
X30020032Y8134463D01*
X29937786Y8047396D01*
X29868202Y7976412D01*
X29815993Y7926290D01*
X29785868Y7901806D01*
X29782147Y7900212D01*
X29750048Y7909555D01*
X29696583Y7939360D01*
X29633128Y7983255D01*
X29630984Y7984879D01*
X29567286Y8036278D01*
X29484500Y8107351D01*
X29393882Y8188254D01*
X29315925Y8260399D01*
X29119632Y8445714D01*
X29134234Y8736649D01*
X29154440Y9018048D01*
X29186782Y9267137D01*
X29234094Y9492905D01*
X29299211Y9704341D01*
X29384968Y9910435D01*
X29494200Y10120175D01*
X29629742Y10342551D01*
X29651017Y10375262D01*
X29950957Y10799140D01*
X30288339Y11213938D01*
X30658598Y11615820D01*
X31057169Y12000946D01*
X31479488Y12365480D01*
X31920988Y12705583D01*
X32377105Y13017417D01*
X32843274Y13297145D01*
X33314930Y13540929D01*
X33536440Y13641667D01*
X33636827Y13684551D01*
X33709125Y13712398D01*
X33763768Y13727729D01*
X33811188Y13733065D01*
X33861816Y13730926D01*
X33892615Y13727726D01*
X33984928Y13722711D01*
X34039606Y13733039D01*
X34048217Y13738523D01*
X34071132Y13771760D01*
X34078669Y13823023D01*
X34069977Y13895129D01*
X34044205Y13990896D01*
X34000499Y14113142D01*
X33938009Y14264683D01*
X33855882Y14448337D01*
X33792466Y14584359D01*
X33713157Y14754410D01*
X33631176Y14933800D01*
X33549827Y15115012D01*
X33472415Y15290533D01*
X33402244Y15452846D01*
X33342618Y15594437D01*
X33296843Y15707791D01*
X33285454Y15737417D01*
X33258540Y15805164D01*
X33219190Y15899741D01*
X33172376Y16009389D01*
X33123068Y16122348D01*
X33115439Y16139584D01*
X32782289Y16940549D01*
X32484463Y17760545D01*
X32223859Y18593667D01*
X32002373Y19434010D01*
X31879749Y19983898D01*
X31850085Y20129430D01*
X31821890Y20272740D01*
X31794703Y20416933D01*
X31768065Y20565113D01*
X31741516Y20720385D01*
X31714597Y20885854D01*
X31697689Y20994780D01*
X35796049Y20994780D01*
X35806553Y20829329D01*
X35830790Y20665075D01*
X35834009Y20648950D01*
X35940248Y20216879D01*
X36082720Y19775932D01*
X36258377Y19333025D01*
X36464174Y18895073D01*
X36697064Y18468993D01*
X36954001Y18061698D01*
X37008903Y17981815D01*
X37170597Y17760263D01*
X37357376Y17522281D01*
X37561202Y17277805D01*
X37765820Y17045822D01*
X37855188Y16950405D01*
X37970258Y16832255D01*
X38105250Y16696943D01*
X38254385Y16550037D01*
X38411883Y16397106D01*
X38571964Y16243721D01*
X38728847Y16095450D01*
X38876754Y15957863D01*
X39009904Y15836529D01*
X39122518Y15737018D01*
X39137167Y15724416D01*
X39243688Y15634539D01*
X39371086Y15529296D01*
X39514723Y15412335D01*
X39669959Y15287304D01*
X39832157Y15157850D01*
X39996678Y15027623D01*
X40158885Y14900270D01*
X40314139Y14779440D01*
X40457802Y14668780D01*
X40585237Y14571939D01*
X40691804Y14492565D01*
X40772865Y14434305D01*
X40805545Y14412162D01*
X40905375Y14350248D01*
X41027720Y14279215D01*
X41163959Y14203602D01*
X41305475Y14127950D01*
X41443647Y14056797D01*
X41569856Y13994683D01*
X41675483Y13946147D01*
X41740667Y13919673D01*
X41864437Y13885653D01*
X42018290Y13863290D01*
X42205871Y13852226D01*
X42428584Y13852054D01*
X42561088Y13856120D01*
X42662154Y13862853D01*
X42742658Y13873607D01*
X42813476Y13889736D01*
X42869013Y13906931D01*
X43049578Y13987188D01*
X43199101Y14095711D01*
X43317835Y14232867D01*
X43406035Y14399024D01*
X43463955Y14594548D01*
X43491056Y14806084D01*
X43493298Y14937433D01*
X43482598Y15070631D01*
X43457389Y15213914D01*
X43416105Y15375521D01*
X43357179Y15563689D01*
X43334091Y15631584D01*
X43179936Y16028243D01*
X43001953Y16393049D01*
X42797753Y16730654D01*
X42692658Y16880417D01*
X42624578Y16975725D01*
X42556024Y17076085D01*
X42497121Y17166489D01*
X42471337Y17208500D01*
X42424699Y17283920D01*
X42371848Y17362142D01*
X42310069Y17446411D01*
X42236648Y17539971D01*
X42148869Y17646064D01*
X42044016Y17767934D01*
X41919376Y17908824D01*
X41772233Y18071979D01*
X41599872Y18260641D01*
X41496829Y18372667D01*
X41378174Y18501850D01*
X41240420Y18652515D01*
X41092717Y18814615D01*
X40944212Y18978099D01*
X40804054Y19132918D01*
X40726092Y19219334D01*
X40545599Y19418812D01*
X40390190Y19588470D01*
X40257508Y19730720D01*
X40145195Y19847976D01*
X40050891Y19942651D01*
X39972238Y20017158D01*
X39906879Y20073909D01*
X39852455Y20115319D01*
X39846250Y20119572D01*
X39794691Y20157528D01*
X39719187Y20217120D01*
X39627549Y20291993D01*
X39527589Y20375790D01*
X39454667Y20438238D01*
X39296769Y20573309D01*
X39165843Y20681931D01*
X39058262Y20766914D01*
X38970401Y20831066D01*
X38898634Y20877194D01*
X38861828Y20897368D01*
X38815652Y20924806D01*
X38745529Y20971330D01*
X38661149Y21030329D01*
X38576078Y21092308D01*
X38292917Y21285593D01*
X38010182Y21442353D01*
X37718541Y21567257D01*
X37458315Y21651403D01*
X37218324Y21708271D01*
X36985025Y21743429D01*
X36762284Y21757491D01*
X36553965Y21751074D01*
X36363932Y21724792D01*
X36196050Y21679260D01*
X36054183Y21615093D01*
X35942196Y21532907D01*
X35863953Y21433316D01*
X35845350Y21394692D01*
X35815605Y21287825D01*
X35799118Y21151067D01*
X35796049Y20994780D01*
X31697689Y20994780D01*
X31686847Y21064624D01*
X31657807Y21259800D01*
X31627018Y21474488D01*
X31594019Y21711791D01*
X31558352Y21974815D01*
X31519556Y22266664D01*
X31477172Y22590443D01*
X31430740Y22949257D01*
X31379800Y23346211D01*
X31366193Y23452667D01*
X31333281Y23711060D01*
X31305441Y23931964D01*
X31282247Y24119865D01*
X31263271Y24279248D01*
X31248088Y24414599D01*
X31236270Y24530404D01*
X31227391Y24631148D01*
X31221022Y24721317D01*
X31216739Y24805396D01*
X31214113Y24887871D01*
X31212719Y24973228D01*
X31212128Y25065953D01*
X31212109Y25071917D01*
X31212174Y25223258D01*
X31213754Y25339021D01*
X31217317Y25425948D01*
X31223332Y25490781D01*
X31232267Y25540262D01*
X31244591Y25581134D01*
X31248140Y25590500D01*
X31337718Y25762952D01*
X31459819Y25913693D01*
X31608977Y26039689D01*
X31779726Y26137910D01*
X31966599Y26205322D01*
X32164130Y26238894D01*
X32366853Y26235592D01*
G36*
X31416869Y20777942D02*
G01*
X31424474Y20776333D01*
X31451159Y20762039D01*
X31475025Y20730643D01*
X31497265Y20677920D01*
X31519071Y20599646D01*
X31541637Y20491596D01*
X31566155Y20349547D01*
X31591524Y20184780D01*
X31635029Y19903616D01*
X31678130Y19651486D01*
X31723264Y19415185D01*
X31772865Y19181508D01*
X31793006Y19092334D01*
X31850979Y18839801D01*
X31901086Y18623215D01*
X31944863Y18437250D01*
X31983844Y18276577D01*
X32019565Y18135867D01*
X32053560Y18009794D01*
X32087366Y17893027D01*
X32122518Y17780240D01*
X32160550Y17666104D01*
X32202998Y17545292D01*
X32251397Y17412475D01*
X32307283Y17262324D01*
X32363262Y17113250D01*
X32418912Y16964843D01*
X32470903Y16825358D01*
X32516984Y16700906D01*
X32554900Y16597599D01*
X32582400Y16521545D01*
X32597228Y16478855D01*
X32597382Y16478378D01*
X32616518Y16424967D01*
X32646579Y16350590D01*
X32688688Y16252754D01*
X32743973Y16128968D01*
X32813558Y15976738D01*
X32898568Y15793573D01*
X33000129Y15576980D01*
X33099236Y15367000D01*
X33223123Y15103779D01*
X33328061Y14877887D01*
X33414242Y14688893D01*
X33481857Y14536366D01*
X33531096Y14419876D01*
X33562150Y14338992D01*
X33575210Y14293282D01*
X33575355Y14292227D01*
X33571035Y14275670D01*
X33552405Y14252096D01*
X33516284Y14219057D01*
X33459489Y14174104D01*
X33378839Y14114787D01*
X33271150Y14038658D01*
X33133240Y13943268D01*
X33030584Y13872983D01*
X32609550Y13583176D01*
X32225095Y13313678D01*
X31876822Y13064184D01*
X31564334Y12834393D01*
X31287235Y12623998D01*
X31045125Y12432699D01*
X30837610Y12260189D01*
X30664291Y12106167D01*
X30524772Y11970328D01*
X30480000Y11922831D01*
X30183816Y11592774D01*
X29921039Y11285302D01*
X29690496Y10998581D01*
X29491010Y10730779D01*
X29321408Y10480063D01*
X29180516Y10244601D01*
X29067157Y10022560D01*
X28980159Y9812107D01*
X28918346Y9611409D01*
X28882118Y9429750D01*
X28860283Y9289667D01*
X28839839Y9184689D01*
X28818753Y9107728D01*
X28794993Y9051696D01*
X28766527Y9009504D01*
X28759203Y9001125D01*
X28717675Y8964563D01*
X28678716Y8957892D01*
X28630532Y8981808D01*
X28592499Y9010955D01*
X28488069Y9100340D01*
X28362965Y9214360D01*
X28220969Y9349050D01*
X28065862Y9500446D01*
X27901426Y9664583D01*
X27731443Y9837498D01*
X27559693Y10015226D01*
X27389958Y10193801D01*
X27226021Y10369260D01*
X27071661Y10537639D01*
X26930661Y10694972D01*
X26806802Y10837296D01*
X26703866Y10960645D01*
X26625635Y11061056D01*
X26593261Y11106934D01*
X26470882Y11311610D01*
X26365502Y11534112D01*
X26275689Y11778995D01*
X26200011Y12050815D01*
X26137036Y12354128D01*
X26085332Y12693491D01*
X26079135Y12742334D01*
X26051020Y12982484D01*
X26028589Y13207537D01*
X26011313Y13426953D01*
X25998662Y13650196D01*
X25990106Y13886728D01*
X25985115Y14146010D01*
X25983159Y14437505D01*
X25983126Y14456834D01*
X25983152Y14660168D01*
X25984036Y14826695D01*
X25986001Y14961938D01*
X25989272Y15071420D01*
X25994071Y15160662D01*
X26000621Y15235187D01*
X26009147Y15300517D01*
X26019724Y15361408D01*
X26063129Y15561951D01*
X26116407Y15759891D01*
X26182092Y15962225D01*
X26262716Y16175953D01*
X26360814Y16408072D01*
X26478919Y16665581D01*
X26532138Y16776862D01*
X26722570Y17153550D01*
X26916477Y17499780D01*
X27117828Y17820043D01*
X27330591Y18118828D01*
X27558738Y18400628D01*
X27806236Y18669931D01*
X28077055Y18931230D01*
X28375165Y19189015D01*
X28704535Y19447776D01*
X29069134Y19712004D01*
X29216812Y19814141D01*
X29321826Y19885977D01*
X29432174Y19961524D01*
X29533817Y20031168D01*
X29604227Y20079464D01*
X29722774Y20156211D01*
X29861190Y20238420D01*
X30008334Y20320087D01*
X30153066Y20395212D01*
X30284246Y20457792D01*
X30382677Y20498863D01*
X30465890Y20532146D01*
X30542426Y20566569D01*
X30594659Y20594081D01*
X30664799Y20627921D01*
X30763375Y20662857D01*
X30880832Y20696789D01*
X31007614Y20727619D01*
X31134164Y20753248D01*
X31250927Y20771577D01*
X31348347Y20780508D01*
X31416869Y20777942D01*
X31416869Y20777942D01*
G37*
X31416869Y20777942D02*
X31424474Y20776333D01*
X31451159Y20762039D01*
X31475025Y20730643D01*
X31497265Y20677920D01*
X31519071Y20599646D01*
X31541637Y20491596D01*
X31566155Y20349547D01*
X31591524Y20184780D01*
X31635029Y19903616D01*
X31678130Y19651486D01*
X31723264Y19415185D01*
X31772865Y19181508D01*
X31793006Y19092334D01*
X31850979Y18839801D01*
X31901086Y18623215D01*
X31944863Y18437250D01*
X31983844Y18276577D01*
X32019565Y18135867D01*
X32053560Y18009794D01*
X32087366Y17893027D01*
X32122518Y17780240D01*
X32160550Y17666104D01*
X32202998Y17545292D01*
X32251397Y17412475D01*
X32307283Y17262324D01*
X32363262Y17113250D01*
X32418912Y16964843D01*
X32470903Y16825358D01*
X32516984Y16700906D01*
X32554900Y16597599D01*
X32582400Y16521545D01*
X32597228Y16478855D01*
X32597382Y16478378D01*
X32616518Y16424967D01*
X32646579Y16350590D01*
X32688688Y16252754D01*
X32743973Y16128968D01*
X32813558Y15976738D01*
X32898568Y15793573D01*
X33000129Y15576980D01*
X33099236Y15367000D01*
X33223123Y15103779D01*
X33328061Y14877887D01*
X33414242Y14688893D01*
X33481857Y14536366D01*
X33531096Y14419876D01*
X33562150Y14338992D01*
X33575210Y14293282D01*
X33575355Y14292227D01*
X33571035Y14275670D01*
X33552405Y14252096D01*
X33516284Y14219057D01*
X33459489Y14174104D01*
X33378839Y14114787D01*
X33271150Y14038658D01*
X33133240Y13943268D01*
X33030584Y13872983D01*
X32609550Y13583176D01*
X32225095Y13313678D01*
X31876822Y13064184D01*
X31564334Y12834393D01*
X31287235Y12623998D01*
X31045125Y12432699D01*
X30837610Y12260189D01*
X30664291Y12106167D01*
X30524772Y11970328D01*
X30480000Y11922831D01*
X30183816Y11592774D01*
X29921039Y11285302D01*
X29690496Y10998581D01*
X29491010Y10730779D01*
X29321408Y10480063D01*
X29180516Y10244601D01*
X29067157Y10022560D01*
X28980159Y9812107D01*
X28918346Y9611409D01*
X28882118Y9429750D01*
X28860283Y9289667D01*
X28839839Y9184689D01*
X28818753Y9107728D01*
X28794993Y9051696D01*
X28766527Y9009504D01*
X28759203Y9001125D01*
X28717675Y8964563D01*
X28678716Y8957892D01*
X28630532Y8981808D01*
X28592499Y9010955D01*
X28488069Y9100340D01*
X28362965Y9214360D01*
X28220969Y9349050D01*
X28065862Y9500446D01*
X27901426Y9664583D01*
X27731443Y9837498D01*
X27559693Y10015226D01*
X27389958Y10193801D01*
X27226021Y10369260D01*
X27071661Y10537639D01*
X26930661Y10694972D01*
X26806802Y10837296D01*
X26703866Y10960645D01*
X26625635Y11061056D01*
X26593261Y11106934D01*
X26470882Y11311610D01*
X26365502Y11534112D01*
X26275689Y11778995D01*
X26200011Y12050815D01*
X26137036Y12354128D01*
X26085332Y12693491D01*
X26079135Y12742334D01*
X26051020Y12982484D01*
X26028589Y13207537D01*
X26011313Y13426953D01*
X25998662Y13650196D01*
X25990106Y13886728D01*
X25985115Y14146010D01*
X25983159Y14437505D01*
X25983126Y14456834D01*
X25983152Y14660168D01*
X25984036Y14826695D01*
X25986001Y14961938D01*
X25989272Y15071420D01*
X25994071Y15160662D01*
X26000621Y15235187D01*
X26009147Y15300517D01*
X26019724Y15361408D01*
X26063129Y15561951D01*
X26116407Y15759891D01*
X26182092Y15962225D01*
X26262716Y16175953D01*
X26360814Y16408072D01*
X26478919Y16665581D01*
X26532138Y16776862D01*
X26722570Y17153550D01*
X26916477Y17499780D01*
X27117828Y17820043D01*
X27330591Y18118828D01*
X27558738Y18400628D01*
X27806236Y18669931D01*
X28077055Y18931230D01*
X28375165Y19189015D01*
X28704535Y19447776D01*
X29069134Y19712004D01*
X29216812Y19814141D01*
X29321826Y19885977D01*
X29432174Y19961524D01*
X29533817Y20031168D01*
X29604227Y20079464D01*
X29722774Y20156211D01*
X29861190Y20238420D01*
X30008334Y20320087D01*
X30153066Y20395212D01*
X30284246Y20457792D01*
X30382677Y20498863D01*
X30465890Y20532146D01*
X30542426Y20566569D01*
X30594659Y20594081D01*
X30664799Y20627921D01*
X30763375Y20662857D01*
X30880832Y20696789D01*
X31007614Y20727619D01*
X31134164Y20753248D01*
X31250927Y20771577D01*
X31348347Y20780508D01*
X31416869Y20777942D01*
G36*
X31170409Y22327040D02*
G01*
X31196264Y22308621D01*
X31216773Y22265017D01*
X31228348Y22230292D01*
X31272737Y22061946D01*
X31308977Y21865911D01*
X31335052Y21656384D01*
X31348948Y21447563D01*
X31350637Y21368620D01*
X31351501Y21298150D01*
X31350514Y21240248D01*
X31343953Y21192380D01*
X31328092Y21152008D01*
X31299208Y21116597D01*
X31253577Y21083610D01*
X31187473Y21050511D01*
X31097173Y21014764D01*
X30978951Y20973833D01*
X30829085Y20925181D01*
X30643848Y20866274D01*
X30585834Y20847818D01*
X30227627Y20716390D01*
X29857094Y20546729D01*
X29476841Y20340219D01*
X29089472Y20098240D01*
X28818417Y19910608D01*
X28588832Y19737501D01*
X28346626Y19540608D01*
X28099539Y19327065D01*
X27855313Y19104009D01*
X27621688Y18878574D01*
X27406405Y18657898D01*
X27217205Y18449116D01*
X27159695Y18381510D01*
X26949011Y18109796D01*
X26740600Y17804123D01*
X26538997Y17472802D01*
X26348734Y17124147D01*
X26174347Y16766470D01*
X26020369Y16408084D01*
X25891335Y16057302D01*
X25890320Y16054262D01*
X25843435Y15908578D01*
X25806633Y15779656D01*
X25778248Y15657781D01*
X25756618Y15533238D01*
X25740078Y15396312D01*
X25726963Y15237286D01*
X25715611Y15046447D01*
X25714699Y15028924D01*
X25708511Y14858108D01*
X25705430Y14653609D01*
X25705270Y14423948D01*
X25707843Y14177645D01*
X25712962Y13923222D01*
X25720439Y13669201D01*
X25730085Y13424102D01*
X25741715Y13196447D01*
X25755140Y12994757D01*
X25761062Y12922210D01*
X25769572Y12804817D01*
X25775314Y12685783D01*
X25777668Y12580922D01*
X25776795Y12520044D01*
X25772772Y12442639D01*
X25766137Y12397912D01*
X25752512Y12376243D01*
X25727525Y12368013D01*
X25706571Y12365653D01*
X25654448Y12370656D01*
X25598448Y12400234D01*
X25553937Y12435388D01*
X25502490Y12487333D01*
X25435390Y12566291D01*
X25359267Y12663284D01*
X25280756Y12769333D01*
X25206488Y12875460D01*
X25143096Y12972686D01*
X25097212Y13052033D01*
X25094471Y13057388D01*
X25060691Y13131327D01*
X25017207Y13237101D01*
X24967164Y13366211D01*
X24913706Y13510156D01*
X24859977Y13660436D01*
X24809121Y13808550D01*
X24764282Y13945998D01*
X24755909Y13972762D01*
X24699608Y14163152D01*
X24653735Y14340590D01*
X24617347Y14512578D01*
X24589500Y14686616D01*
X24569250Y14870204D01*
X24555653Y15070842D01*
X24547765Y15296031D01*
X24544643Y15553271D01*
X24544502Y15652750D01*
X24549366Y16003392D01*
X24564418Y16319791D01*
X24591229Y16609155D01*
X24631371Y16878689D01*
X24686416Y17135599D01*
X24757935Y17387091D01*
X24847500Y17640370D01*
X24956684Y17902643D01*
X25087059Y18181115D01*
X25103191Y18213917D01*
X25325210Y18625314D01*
X25573971Y19016658D01*
X25815607Y19343509D01*
X26005282Y19563244D01*
X26230512Y19792047D01*
X26486462Y20026300D01*
X26768298Y20262388D01*
X27071187Y20496693D01*
X27390295Y20725599D01*
X27720787Y20945489D01*
X28057829Y21152746D01*
X28396588Y21343755D01*
X28691417Y21495109D01*
X28851601Y21572110D01*
X29000172Y21640464D01*
X29144223Y21702895D01*
X29290849Y21762132D01*
X29447145Y21820900D01*
X29620206Y21881925D01*
X29817126Y21947934D01*
X30045000Y22021654D01*
X30141334Y22052304D01*
X30361936Y22121992D01*
X30546064Y22179529D01*
X30697464Y22225972D01*
X30819883Y22262378D01*
X30917067Y22289803D01*
X30992762Y22309305D01*
X31050715Y22321939D01*
X31094671Y22328763D01*
X31128377Y22330834D01*
X31128749Y22330834D01*
X31170409Y22327040D01*
X31170409Y22327040D01*
G37*
X31170409Y22327040D02*
X31196264Y22308621D01*
X31216773Y22265017D01*
X31228348Y22230292D01*
X31272737Y22061946D01*
X31308977Y21865911D01*
X31335052Y21656384D01*
X31348948Y21447563D01*
X31350637Y21368620D01*
X31351501Y21298150D01*
X31350514Y21240248D01*
X31343953Y21192380D01*
X31328092Y21152008D01*
X31299208Y21116597D01*
X31253577Y21083610D01*
X31187473Y21050511D01*
X31097173Y21014764D01*
X30978951Y20973833D01*
X30829085Y20925181D01*
X30643848Y20866274D01*
X30585834Y20847818D01*
X30227627Y20716390D01*
X29857094Y20546729D01*
X29476841Y20340219D01*
X29089472Y20098240D01*
X28818417Y19910608D01*
X28588832Y19737501D01*
X28346626Y19540608D01*
X28099539Y19327065D01*
X27855313Y19104009D01*
X27621688Y18878574D01*
X27406405Y18657898D01*
X27217205Y18449116D01*
X27159695Y18381510D01*
X26949011Y18109796D01*
X26740600Y17804123D01*
X26538997Y17472802D01*
X26348734Y17124147D01*
X26174347Y16766470D01*
X26020369Y16408084D01*
X25891335Y16057302D01*
X25890320Y16054262D01*
X25843435Y15908578D01*
X25806633Y15779656D01*
X25778248Y15657781D01*
X25756618Y15533238D01*
X25740078Y15396312D01*
X25726963Y15237286D01*
X25715611Y15046447D01*
X25714699Y15028924D01*
X25708511Y14858108D01*
X25705430Y14653609D01*
X25705270Y14423948D01*
X25707843Y14177645D01*
X25712962Y13923222D01*
X25720439Y13669201D01*
X25730085Y13424102D01*
X25741715Y13196447D01*
X25755140Y12994757D01*
X25761062Y12922210D01*
X25769572Y12804817D01*
X25775314Y12685783D01*
X25777668Y12580922D01*
X25776795Y12520044D01*
X25772772Y12442639D01*
X25766137Y12397912D01*
X25752512Y12376243D01*
X25727525Y12368013D01*
X25706571Y12365653D01*
X25654448Y12370656D01*
X25598448Y12400234D01*
X25553937Y12435388D01*
X25502490Y12487333D01*
X25435390Y12566291D01*
X25359267Y12663284D01*
X25280756Y12769333D01*
X25206488Y12875460D01*
X25143096Y12972686D01*
X25097212Y13052033D01*
X25094471Y13057388D01*
X25060691Y13131327D01*
X25017207Y13237101D01*
X24967164Y13366211D01*
X24913706Y13510156D01*
X24859977Y13660436D01*
X24809121Y13808550D01*
X24764282Y13945998D01*
X24755909Y13972762D01*
X24699608Y14163152D01*
X24653735Y14340590D01*
X24617347Y14512578D01*
X24589500Y14686616D01*
X24569250Y14870204D01*
X24555653Y15070842D01*
X24547765Y15296031D01*
X24544643Y15553271D01*
X24544502Y15652750D01*
X24549366Y16003392D01*
X24564418Y16319791D01*
X24591229Y16609155D01*
X24631371Y16878689D01*
X24686416Y17135599D01*
X24757935Y17387091D01*
X24847500Y17640370D01*
X24956684Y17902643D01*
X25087059Y18181115D01*
X25103191Y18213917D01*
X25325210Y18625314D01*
X25573971Y19016658D01*
X25815607Y19343509D01*
X26005282Y19563244D01*
X26230512Y19792047D01*
X26486462Y20026300D01*
X26768298Y20262388D01*
X27071187Y20496693D01*
X27390295Y20725599D01*
X27720787Y20945489D01*
X28057829Y21152746D01*
X28396588Y21343755D01*
X28691417Y21495109D01*
X28851601Y21572110D01*
X29000172Y21640464D01*
X29144223Y21702895D01*
X29290849Y21762132D01*
X29447145Y21820900D01*
X29620206Y21881925D01*
X29817126Y21947934D01*
X30045000Y22021654D01*
X30141334Y22052304D01*
X30361936Y22121992D01*
X30546064Y22179529D01*
X30697464Y22225972D01*
X30819883Y22262378D01*
X30917067Y22289803D01*
X30992762Y22309305D01*
X31050715Y22321939D01*
X31094671Y22328763D01*
X31128377Y22330834D01*
X31128749Y22330834D01*
X31170409Y22327040D01*
G36*
X36984452Y21475358D02*
G01*
X37069911Y21464577D01*
X37322607Y21401829D01*
X37594427Y21305447D01*
X37881810Y21177539D01*
X38181196Y21020216D01*
X38489026Y20835586D01*
X38801740Y20625757D01*
X39115777Y20392840D01*
X39427578Y20138943D01*
X39672289Y19922804D01*
X39839063Y19765432D01*
X40027411Y19579481D01*
X40232945Y19369807D01*
X40451279Y19141271D01*
X40678025Y18898730D01*
X40908798Y18647044D01*
X41139209Y18391071D01*
X41364871Y18135669D01*
X41581398Y17885697D01*
X41784403Y17646013D01*
X41969499Y17421477D01*
X42132298Y17216947D01*
X42225577Y17095042D01*
X42379887Y16877939D01*
X42534553Y16639195D01*
X42683662Y16389156D01*
X42821300Y16138169D01*
X42941555Y15896581D01*
X43038513Y15674737D01*
X43041360Y15667587D01*
X43129600Y15416642D01*
X43189633Y15181497D01*
X43221671Y14964431D01*
X43225925Y14767720D01*
X43202606Y14593643D01*
X43151925Y14444475D01*
X43074094Y14322496D01*
X42969323Y14229981D01*
X42904834Y14194533D01*
X42864541Y14178280D01*
X42820285Y14166345D01*
X42764522Y14157941D01*
X42689710Y14152278D01*
X42588304Y14148568D01*
X42452763Y14146021D01*
X42439167Y14145829D01*
X42254965Y14145404D01*
X42109519Y14149904D01*
X41999521Y14159489D01*
X41940230Y14169667D01*
X41795656Y14212005D01*
X41625632Y14278695D01*
X41437106Y14366842D01*
X41317823Y14428922D01*
X41181836Y14504216D01*
X41061220Y14575919D01*
X40946601Y14650401D01*
X40828607Y14734034D01*
X40697866Y14833189D01*
X40545005Y14954238D01*
X40544750Y14954442D01*
X40428925Y15047130D01*
X40308701Y15142801D01*
X40194036Y15233567D01*
X40094889Y15311539D01*
X40036750Y15356840D01*
X39820942Y15530504D01*
X39584832Y15732343D01*
X39333929Y15956979D01*
X39073743Y16199033D01*
X38809783Y16453126D01*
X38547558Y16713880D01*
X38292578Y16975916D01*
X38050353Y17233856D01*
X37826391Y17482321D01*
X37652232Y17684750D01*
X37321560Y18095462D01*
X37030264Y18492059D01*
X36778013Y18875111D01*
X36564481Y19245192D01*
X36389338Y19602871D01*
X36252255Y19948722D01*
X36152904Y20283315D01*
X36149143Y20298834D01*
X36121180Y20448480D01*
X36102310Y20618495D01*
X36093224Y20794219D01*
X36094613Y20960993D01*
X36107169Y21104161D01*
X36110254Y21123861D01*
X36137812Y21238749D01*
X36180180Y21320946D01*
X36244826Y21379450D01*
X36339216Y21423262D01*
X36366143Y21432278D01*
X36460362Y21453643D01*
X36582953Y21469260D01*
X36720265Y21478503D01*
X36858648Y21480744D01*
X36984452Y21475358D01*
X36984452Y21475358D01*
G37*
X36984452Y21475358D02*
X37069911Y21464577D01*
X37322607Y21401829D01*
X37594427Y21305447D01*
X37881810Y21177539D01*
X38181196Y21020216D01*
X38489026Y20835586D01*
X38801740Y20625757D01*
X39115777Y20392840D01*
X39427578Y20138943D01*
X39672289Y19922804D01*
X39839063Y19765432D01*
X40027411Y19579481D01*
X40232945Y19369807D01*
X40451279Y19141271D01*
X40678025Y18898730D01*
X40908798Y18647044D01*
X41139209Y18391071D01*
X41364871Y18135669D01*
X41581398Y17885697D01*
X41784403Y17646013D01*
X41969499Y17421477D01*
X42132298Y17216947D01*
X42225577Y17095042D01*
X42379887Y16877939D01*
X42534553Y16639195D01*
X42683662Y16389156D01*
X42821300Y16138169D01*
X42941555Y15896581D01*
X43038513Y15674737D01*
X43041360Y15667587D01*
X43129600Y15416642D01*
X43189633Y15181497D01*
X43221671Y14964431D01*
X43225925Y14767720D01*
X43202606Y14593643D01*
X43151925Y14444475D01*
X43074094Y14322496D01*
X42969323Y14229981D01*
X42904834Y14194533D01*
X42864541Y14178280D01*
X42820285Y14166345D01*
X42764522Y14157941D01*
X42689710Y14152278D01*
X42588304Y14148568D01*
X42452763Y14146021D01*
X42439167Y14145829D01*
X42254965Y14145404D01*
X42109519Y14149904D01*
X41999521Y14159489D01*
X41940230Y14169667D01*
X41795656Y14212005D01*
X41625632Y14278695D01*
X41437106Y14366842D01*
X41317823Y14428922D01*
X41181836Y14504216D01*
X41061220Y14575919D01*
X40946601Y14650401D01*
X40828607Y14734034D01*
X40697866Y14833189D01*
X40545005Y14954238D01*
X40544750Y14954442D01*
X40428925Y15047130D01*
X40308701Y15142801D01*
X40194036Y15233567D01*
X40094889Y15311539D01*
X40036750Y15356840D01*
X39820942Y15530504D01*
X39584832Y15732343D01*
X39333929Y15956979D01*
X39073743Y16199033D01*
X38809783Y16453126D01*
X38547558Y16713880D01*
X38292578Y16975916D01*
X38050353Y17233856D01*
X37826391Y17482321D01*
X37652232Y17684750D01*
X37321560Y18095462D01*
X37030264Y18492059D01*
X36778013Y18875111D01*
X36564481Y19245192D01*
X36389338Y19602871D01*
X36252255Y19948722D01*
X36152904Y20283315D01*
X36149143Y20298834D01*
X36121180Y20448480D01*
X36102310Y20618495D01*
X36093224Y20794219D01*
X36094613Y20960993D01*
X36107169Y21104161D01*
X36110254Y21123861D01*
X36137812Y21238749D01*
X36180180Y21320946D01*
X36244826Y21379450D01*
X36339216Y21423262D01*
X36366143Y21432278D01*
X36460362Y21453643D01*
X36582953Y21469260D01*
X36720265Y21478503D01*
X36858648Y21480744D01*
X36984452Y21475358D01*
D11*
X26924000Y-32258000D03*
X29464000Y-32258000D03*
X29464000Y-34798000D03*
D12*
X26924000Y-34798000D03*
X24384000Y-32258000D03*
X24384000Y-34798000D03*
X-9652000Y-40640000D03*
X-9652000Y-38100000D03*
X-7112000Y-40640000D03*
D11*
X-4572000Y-40640000D03*
X-4572000Y-38100000D03*
X-7112000Y-38100000D03*
M02*
