G04 #@! TF.GenerationSoftware,KiCad,Pcbnew,(5.1.2)-1*
G04 #@! TF.CreationDate,2019-06-03T17:34:52+01:00*
G04 #@! TF.ProjectId,Lord Commander,4c6f7264-2043-46f6-9d6d-616e6465722e,rev?*
G04 #@! TF.SameCoordinates,Original*
G04 #@! TF.FileFunction,Copper,L1,Top*
G04 #@! TF.FilePolarity,Positive*
%FSLAX46Y46*%
G04 Gerber Fmt 4.6, Leading zero omitted, Abs format (unit mm)*
G04 Created by KiCad (PCBNEW (5.1.2)-1) date 2019-06-03 17:34:52*
%MOMM*%
%LPD*%
G04 APERTURE LIST*
%ADD10C,0.010000*%
%ADD11C,1.700000*%
%ADD12O,1.700000X1.700000*%
G04 APERTURE END LIST*
D10*
G36*
X-2116653Y-8531729D02*
G01*
X-2077812Y-8539049D01*
X-2043762Y-8556072D01*
X-2012293Y-8586745D01*
X-1981194Y-8635014D01*
X-1948256Y-8704826D01*
X-1911268Y-8800127D01*
X-1868019Y-8924863D01*
X-1816300Y-9082982D01*
X-1767685Y-9235078D01*
X-1565664Y-9876595D01*
X-1369203Y-10513610D01*
X-1179273Y-11142665D01*
X-996849Y-11760300D01*
X-822902Y-12363056D01*
X-658405Y-12947472D01*
X-504330Y-13510089D01*
X-361650Y-14047449D01*
X-231337Y-14556091D01*
X-114364Y-15032557D01*
X-11703Y-15473385D01*
X-2309Y-15515166D01*
X72089Y-15845191D01*
X139189Y-16138469D01*
X200122Y-16399738D01*
X256020Y-16633738D01*
X308013Y-16845207D01*
X357232Y-17038884D01*
X401859Y-17208500D01*
X445934Y-17375112D01*
X483498Y-17522454D01*
X516451Y-17659343D01*
X546691Y-17794594D01*
X576121Y-17937026D01*
X606639Y-18095454D01*
X640145Y-18278696D01*
X675547Y-18478500D01*
X721319Y-18737298D01*
X769395Y-19005374D01*
X818806Y-19277550D01*
X868578Y-19548647D01*
X917741Y-19813489D01*
X965324Y-20066895D01*
X1010354Y-20303690D01*
X1051861Y-20518694D01*
X1088873Y-20706729D01*
X1120419Y-20862618D01*
X1142123Y-20965583D01*
X1169657Y-21094420D01*
X1195318Y-21219038D01*
X1219849Y-21343895D01*
X1243994Y-21473447D01*
X1268495Y-21612150D01*
X1294096Y-21764462D01*
X1321539Y-21934839D01*
X1351568Y-22127738D01*
X1384925Y-22347615D01*
X1422353Y-22598928D01*
X1464596Y-22886133D01*
X1480893Y-22997583D01*
X1522458Y-23282528D01*
X1558599Y-23531322D01*
X1590092Y-23749691D01*
X1617712Y-23943361D01*
X1642236Y-24118058D01*
X1664438Y-24279506D01*
X1685095Y-24433434D01*
X1704982Y-24585565D01*
X1724875Y-24741627D01*
X1745549Y-24907344D01*
X1767781Y-25088444D01*
X1792345Y-25290651D01*
X1799173Y-25347083D01*
X1823721Y-25546939D01*
X1850530Y-25759716D01*
X1878235Y-25974949D01*
X1905472Y-26182173D01*
X1930877Y-26370925D01*
X1953084Y-26530738D01*
X1958029Y-26565310D01*
X2008565Y-26928401D01*
X2061219Y-27330319D01*
X2115626Y-27767628D01*
X2171420Y-28236895D01*
X2228235Y-28734686D01*
X2285707Y-29257566D01*
X2343470Y-29802101D01*
X2401159Y-30364857D01*
X2458408Y-30942399D01*
X2514853Y-31531294D01*
X2570126Y-32128106D01*
X2623865Y-32729403D01*
X2667230Y-33231666D01*
X2685646Y-33447752D01*
X2704065Y-33662500D01*
X2721958Y-33869835D01*
X2738798Y-34063686D01*
X2754053Y-34237979D01*
X2767196Y-34386642D01*
X2777699Y-34503600D01*
X2783365Y-34565166D01*
X2804890Y-34816368D01*
X2826112Y-35106376D01*
X2846825Y-35431667D01*
X2866823Y-35788714D01*
X2885901Y-36173990D01*
X2903854Y-36583971D01*
X2910331Y-36745333D01*
X2923170Y-37066372D01*
X2935217Y-37352098D01*
X2946849Y-37609514D01*
X2958440Y-37845624D01*
X2970364Y-38067431D01*
X2982996Y-38281939D01*
X2996710Y-38496152D01*
X3011882Y-38717073D01*
X3026950Y-38925500D01*
X3044103Y-39161802D01*
X3060574Y-39396536D01*
X3076706Y-39635163D01*
X3092841Y-39883148D01*
X3109321Y-40145951D01*
X3126489Y-40429037D01*
X3144687Y-40737868D01*
X3164257Y-41077907D01*
X3185543Y-41454616D01*
X3186153Y-41465500D01*
X3204924Y-41790379D01*
X3222611Y-42075293D01*
X3239413Y-42322593D01*
X3255526Y-42534627D01*
X3271145Y-42713746D01*
X3286469Y-42862297D01*
X3301692Y-42982632D01*
X3317013Y-43077100D01*
X3323823Y-43111019D01*
X3347677Y-43190473D01*
X3383681Y-43249400D01*
X3436985Y-43289710D01*
X3512740Y-43313316D01*
X3616096Y-43322131D01*
X3752204Y-43318065D01*
X3858784Y-43309595D01*
X3971560Y-43300127D01*
X4119109Y-43289275D01*
X4302581Y-43276967D01*
X4523123Y-43263133D01*
X4781887Y-43247702D01*
X5080021Y-43230602D01*
X5418675Y-43211763D01*
X5619750Y-43200790D01*
X5973651Y-43180289D01*
X6292558Y-43158840D01*
X6583811Y-43135687D01*
X6854749Y-43110075D01*
X7112711Y-43081246D01*
X7365036Y-43048445D01*
X7619064Y-43010916D01*
X7882135Y-42967902D01*
X7884584Y-42967485D01*
X8022987Y-42944249D01*
X8194361Y-42916053D01*
X8389826Y-42884327D01*
X8600505Y-42850496D01*
X8817518Y-42815990D01*
X9031986Y-42782234D01*
X9186334Y-42758190D01*
X10224335Y-42594229D01*
X11222445Y-42430146D01*
X12183105Y-42265382D01*
X13108754Y-42099382D01*
X14001834Y-41931586D01*
X14864784Y-41761439D01*
X15700045Y-41588382D01*
X16510057Y-41411858D01*
X17297261Y-41231310D01*
X18064096Y-41046180D01*
X18813003Y-40855912D01*
X19546422Y-40659947D01*
X20266794Y-40457728D01*
X20976559Y-40248697D01*
X21678157Y-40032299D01*
X22374029Y-39807974D01*
X22955250Y-39613237D01*
X23175878Y-39538306D01*
X23425596Y-39453929D01*
X23693265Y-39363841D01*
X23967747Y-39271779D01*
X24237904Y-39181479D01*
X24492597Y-39096679D01*
X24700080Y-39027922D01*
X25157922Y-38875606D01*
X25583247Y-38731841D01*
X25984284Y-38593682D01*
X26369257Y-38458185D01*
X26746395Y-38322406D01*
X27123923Y-38183401D01*
X27510069Y-38038227D01*
X27913060Y-37883939D01*
X28109334Y-37807939D01*
X28533254Y-37650557D01*
X28990143Y-37494577D01*
X29470670Y-37343061D01*
X29961417Y-37200212D01*
X30130621Y-37152672D01*
X30313076Y-37100908D01*
X30496187Y-37048527D01*
X30667361Y-36999137D01*
X30814001Y-36956343D01*
X30850417Y-36945601D01*
X31192893Y-36844846D01*
X31498513Y-36756319D01*
X31770689Y-36679180D01*
X32012831Y-36612589D01*
X32228350Y-36555705D01*
X32420656Y-36507690D01*
X32593160Y-36467703D01*
X32749273Y-36434904D01*
X32892406Y-36408454D01*
X33025968Y-36387513D01*
X33153372Y-36371241D01*
X33205867Y-36365596D01*
X33357208Y-36356715D01*
X33488598Y-36361972D01*
X33593809Y-36380592D01*
X33666615Y-36411800D01*
X33682739Y-36424998D01*
X33702552Y-36450456D01*
X33719348Y-36486815D01*
X33733852Y-36538739D01*
X33746789Y-36610894D01*
X33758886Y-36707944D01*
X33770866Y-36834554D01*
X33783457Y-36995391D01*
X33793438Y-37136916D01*
X33809856Y-37383070D01*
X33822700Y-37591250D01*
X33832051Y-37765655D01*
X33837988Y-37910486D01*
X33840593Y-38029945D01*
X33839947Y-38128231D01*
X33836130Y-38209545D01*
X33829224Y-38278088D01*
X33819308Y-38338059D01*
X33816763Y-38350364D01*
X33773781Y-38511507D01*
X33716498Y-38645189D01*
X33637126Y-38765776D01*
X33527880Y-38887637D01*
X33522850Y-38892669D01*
X33376887Y-39021462D01*
X33208375Y-39137460D01*
X33010297Y-39245036D01*
X32821038Y-39329968D01*
X32725314Y-39369943D01*
X32603369Y-39421097D01*
X32467955Y-39478068D01*
X32331820Y-39535497D01*
X32267295Y-39562781D01*
X32120425Y-39624023D01*
X31937694Y-39698695D01*
X31722868Y-39785338D01*
X31479714Y-39882492D01*
X31211999Y-39988695D01*
X30923490Y-40102490D01*
X30617953Y-40222414D01*
X30299155Y-40347008D01*
X29970863Y-40474812D01*
X29636843Y-40604365D01*
X29300862Y-40734208D01*
X28966686Y-40862881D01*
X28638084Y-40988922D01*
X28318820Y-41110873D01*
X28012662Y-41227272D01*
X27723376Y-41336661D01*
X27454730Y-41437578D01*
X27210489Y-41528563D01*
X26994422Y-41608157D01*
X26934584Y-41629986D01*
X26785772Y-41683189D01*
X26602720Y-41747096D01*
X26391561Y-41819668D01*
X26158422Y-41898864D01*
X25909436Y-41982646D01*
X25650731Y-42068973D01*
X25388439Y-42155805D01*
X25128690Y-42241102D01*
X24877614Y-42322826D01*
X24641342Y-42398935D01*
X24426003Y-42467390D01*
X24288750Y-42510363D01*
X23955129Y-42612332D01*
X23583622Y-42722847D01*
X23177608Y-42840981D01*
X22740460Y-42965808D01*
X22275554Y-43096402D01*
X21786267Y-43231834D01*
X21275973Y-43371180D01*
X20748048Y-43513512D01*
X20205867Y-43657904D01*
X19652808Y-43803429D01*
X19092244Y-43949161D01*
X18527551Y-44094173D01*
X18406672Y-44124978D01*
X18079143Y-44208222D01*
X17785700Y-44282509D01*
X17520282Y-44349281D01*
X17276828Y-44409983D01*
X17049279Y-44466059D01*
X16831573Y-44518952D01*
X16617650Y-44570107D01*
X16401448Y-44620968D01*
X16176908Y-44672979D01*
X15937969Y-44727583D01*
X15678569Y-44786224D01*
X15392649Y-44850347D01*
X15074148Y-44921395D01*
X14919019Y-44955913D01*
X14638739Y-45018081D01*
X14381386Y-45074730D01*
X14142903Y-45126614D01*
X13919232Y-45174491D01*
X13706316Y-45219114D01*
X13500098Y-45261241D01*
X13296520Y-45301625D01*
X13091526Y-45341024D01*
X12881057Y-45380192D01*
X12661056Y-45419885D01*
X12427467Y-45460858D01*
X12176232Y-45503868D01*
X11903293Y-45549669D01*
X11604593Y-45599017D01*
X11276075Y-45652668D01*
X10913681Y-45711377D01*
X10530417Y-45773155D01*
X9997799Y-45858481D01*
X9504719Y-45936660D01*
X9049043Y-46008003D01*
X8628636Y-46072820D01*
X8241365Y-46131423D01*
X7885096Y-46184122D01*
X7557696Y-46231229D01*
X7257030Y-46273054D01*
X6980965Y-46309909D01*
X6727367Y-46342105D01*
X6494101Y-46369952D01*
X6279036Y-46393762D01*
X6254750Y-46396320D01*
X6101281Y-46412620D01*
X5921105Y-46432109D01*
X5729569Y-46453107D01*
X5542020Y-46473931D01*
X5386917Y-46491407D01*
X4836101Y-46549075D01*
X4248009Y-46601172D01*
X3627375Y-46647341D01*
X2978934Y-46687224D01*
X2413000Y-46715754D01*
X2277567Y-46720813D01*
X2104669Y-46725499D01*
X1899171Y-46729788D01*
X1665939Y-46733654D01*
X1409840Y-46737076D01*
X1135739Y-46740027D01*
X848504Y-46742484D01*
X552999Y-46744422D01*
X254091Y-46745818D01*
X-43354Y-46746646D01*
X-334469Y-46746884D01*
X-614390Y-46746506D01*
X-878248Y-46745488D01*
X-1121180Y-46743806D01*
X-1338317Y-46741437D01*
X-1524795Y-46738355D01*
X-1629833Y-46735888D01*
X-2818367Y-46698487D01*
X-3969948Y-46651963D01*
X-5089024Y-46596039D01*
X-6180042Y-46530436D01*
X-7247447Y-46454877D01*
X-8295687Y-46369084D01*
X-9329209Y-46272780D01*
X-9779000Y-46227155D01*
X-10023198Y-46201086D01*
X-10279614Y-46172454D01*
X-10544901Y-46141717D01*
X-10815712Y-46109331D01*
X-11088701Y-46075753D01*
X-11360523Y-46041440D01*
X-11627830Y-46006848D01*
X-11887278Y-45972434D01*
X-12135518Y-45938654D01*
X-12369206Y-45905965D01*
X-12584995Y-45874824D01*
X-12779538Y-45845688D01*
X-12949490Y-45819013D01*
X-13091504Y-45795256D01*
X-13202234Y-45774873D01*
X-13278333Y-45758321D01*
X-13316457Y-45746058D01*
X-13319405Y-45743990D01*
X-13330299Y-45711086D01*
X-13337965Y-45640509D01*
X-13342451Y-45536791D01*
X-13343802Y-45404466D01*
X-13342065Y-45248068D01*
X-13337287Y-45072129D01*
X-13329514Y-44881183D01*
X-13318793Y-44679763D01*
X-13306593Y-44492333D01*
X-13294997Y-44319632D01*
X-13282590Y-44119234D01*
X-13270211Y-43905744D01*
X-13258697Y-43693765D01*
X-13248888Y-43497903D01*
X-13246167Y-43439291D01*
X-13220989Y-42883666D01*
X-13071620Y-42883976D01*
X-12974273Y-42886265D01*
X-12835954Y-42892761D01*
X-12657806Y-42903382D01*
X-12440971Y-42918047D01*
X-12186592Y-42936676D01*
X-11895813Y-42959185D01*
X-11569776Y-42985495D01*
X-11209625Y-43015525D01*
X-11149110Y-43020652D01*
X-10927010Y-43038348D01*
X-10665454Y-43057127D01*
X-10367304Y-43076834D01*
X-10035418Y-43097315D01*
X-9672657Y-43118413D01*
X-9281881Y-43139974D01*
X-8865950Y-43161843D01*
X-8427723Y-43183865D01*
X-7970062Y-43205884D01*
X-7495826Y-43227745D01*
X-7007874Y-43249294D01*
X-6667500Y-43263780D01*
X-6472875Y-43271365D01*
X-6249994Y-43279044D01*
X-6002416Y-43286753D01*
X-5733702Y-43294430D01*
X-5447412Y-43302009D01*
X-5147105Y-43309427D01*
X-4836341Y-43316620D01*
X-4518681Y-43323524D01*
X-4197685Y-43330075D01*
X-3876912Y-43336210D01*
X-3559922Y-43341864D01*
X-3250276Y-43346973D01*
X-2951533Y-43351474D01*
X-2667253Y-43355303D01*
X-2400997Y-43358396D01*
X-2156324Y-43360688D01*
X-1936794Y-43362116D01*
X-1745967Y-43362617D01*
X-1587404Y-43362125D01*
X-1464664Y-43360578D01*
X-1392955Y-43358464D01*
X-1262242Y-43352028D01*
X-1168261Y-43345341D01*
X-1105416Y-43337655D01*
X-1068109Y-43328221D01*
X-1050742Y-43316292D01*
X-1048709Y-43312451D01*
X-1039005Y-43265616D01*
X-1030043Y-43179862D01*
X-1021842Y-43058597D01*
X-1014422Y-42905229D01*
X-1007800Y-42723166D01*
X-1001995Y-42515817D01*
X-997028Y-42286589D01*
X-992915Y-42038890D01*
X-989677Y-41776129D01*
X-987333Y-41501714D01*
X-985900Y-41219053D01*
X-985399Y-40931553D01*
X-985847Y-40642624D01*
X-987263Y-40355673D01*
X-989668Y-40074108D01*
X-993079Y-39801337D01*
X-997515Y-39540768D01*
X-1002995Y-39295810D01*
X-1009538Y-39069871D01*
X-1017163Y-38866358D01*
X-1023367Y-38735000D01*
X-1031376Y-38580606D01*
X-1041118Y-38390754D01*
X-1052248Y-38172269D01*
X-1064420Y-37931973D01*
X-1077292Y-37676692D01*
X-1090517Y-37413250D01*
X-1103752Y-37148471D01*
X-1116652Y-36889178D01*
X-1122207Y-36777083D01*
X-1140899Y-36401752D01*
X-1157976Y-36064354D01*
X-1173701Y-35760527D01*
X-1188338Y-35485913D01*
X-1202153Y-35236152D01*
X-1215410Y-35006884D01*
X-1228373Y-34793749D01*
X-1241306Y-34592388D01*
X-1254474Y-34398441D01*
X-1268141Y-34207548D01*
X-1282571Y-34015350D01*
X-1298029Y-33817487D01*
X-1312805Y-33633833D01*
X-1330523Y-33414310D01*
X-1349952Y-33170524D01*
X-1370105Y-32915074D01*
X-1389993Y-32660561D01*
X-1408629Y-32419587D01*
X-1425025Y-32204751D01*
X-1428992Y-32152166D01*
X-1456662Y-31787369D01*
X-1482074Y-31460006D01*
X-1505722Y-31165270D01*
X-1528102Y-30898352D01*
X-1549709Y-30654444D01*
X-1571037Y-30428736D01*
X-1592581Y-30216419D01*
X-1614836Y-30012687D01*
X-1638296Y-29812729D01*
X-1663457Y-29611737D01*
X-1690813Y-29404902D01*
X-1720859Y-29187417D01*
X-1754090Y-28954472D01*
X-1767678Y-28860750D01*
X-1795470Y-28667758D01*
X-1822800Y-28474298D01*
X-1848672Y-28287682D01*
X-1872091Y-28115224D01*
X-1892061Y-27964236D01*
X-1907588Y-27842031D01*
X-1916055Y-27770666D01*
X-1932490Y-27633583D01*
X-1955372Y-27457349D01*
X-1984308Y-27244591D01*
X-2018909Y-26997935D01*
X-2058782Y-26720008D01*
X-2103537Y-26413436D01*
X-2152782Y-26080847D01*
X-2206128Y-25724867D01*
X-2263181Y-25348122D01*
X-2323552Y-24953239D01*
X-2386849Y-24542845D01*
X-2452682Y-24119566D01*
X-2520658Y-23686030D01*
X-2582607Y-23293916D01*
X-2642040Y-22919478D01*
X-2695477Y-22583831D01*
X-2743428Y-22283940D01*
X-2786408Y-22016765D01*
X-2824927Y-21779269D01*
X-2859499Y-21568415D01*
X-2890635Y-21381165D01*
X-2918849Y-21214481D01*
X-2944652Y-21065326D01*
X-2968556Y-20930661D01*
X-2991075Y-20807450D01*
X-3012721Y-20692655D01*
X-3034005Y-20583237D01*
X-3055440Y-20476160D01*
X-3069380Y-20407915D01*
X-3101769Y-20248951D01*
X-3139888Y-20059420D01*
X-3181553Y-19850337D01*
X-3224578Y-19632721D01*
X-3266778Y-19417590D01*
X-3305966Y-19215961D01*
X-3311446Y-19187583D01*
X-3393194Y-18763731D01*
X-3467551Y-18378277D01*
X-3535188Y-18028059D01*
X-3596779Y-17709917D01*
X-3652998Y-17420691D01*
X-3704518Y-17157219D01*
X-3752011Y-16916342D01*
X-3796151Y-16694898D01*
X-3837611Y-16489727D01*
X-3877065Y-16297669D01*
X-3915185Y-16115562D01*
X-3952645Y-15940246D01*
X-3990118Y-15768561D01*
X-4028277Y-15597345D01*
X-4067796Y-15423439D01*
X-4109347Y-15243681D01*
X-4153604Y-15054912D01*
X-4201239Y-14853969D01*
X-4252927Y-14637694D01*
X-4309340Y-14402924D01*
X-4371152Y-14146500D01*
X-4439035Y-13865261D01*
X-4490391Y-13652500D01*
X-4598088Y-13206996D01*
X-4696837Y-12800253D01*
X-4787279Y-12429798D01*
X-4870058Y-12093157D01*
X-4945816Y-11787859D01*
X-5015194Y-11511429D01*
X-5078835Y-11261397D01*
X-5137381Y-11035289D01*
X-5191475Y-10830633D01*
X-5241758Y-10644956D01*
X-5288873Y-10475785D01*
X-5333463Y-10320647D01*
X-5376168Y-10177071D01*
X-5417632Y-10042583D01*
X-5458497Y-9914711D01*
X-5471728Y-9874250D01*
X-5517373Y-9732411D01*
X-5548905Y-9624445D01*
X-5566761Y-9544472D01*
X-5571380Y-9486610D01*
X-5563198Y-9444978D01*
X-5542654Y-9413696D01*
X-5510185Y-9386883D01*
X-5508104Y-9385450D01*
X-5404039Y-9326383D01*
X-5262264Y-9264753D01*
X-5087213Y-9202014D01*
X-4883318Y-9139616D01*
X-4655012Y-9079013D01*
X-4406728Y-9021656D01*
X-4380524Y-9016060D01*
X-4252107Y-8987902D01*
X-4098340Y-8952727D01*
X-3934844Y-8914190D01*
X-3777234Y-8875945D01*
X-3706691Y-8858371D01*
X-3525033Y-8813525D01*
X-3335533Y-8768361D01*
X-3143481Y-8724002D01*
X-2954169Y-8681573D01*
X-2772886Y-8642198D01*
X-2604922Y-8607002D01*
X-2455568Y-8577108D01*
X-2330114Y-8553642D01*
X-2233849Y-8537727D01*
X-2172065Y-8530488D01*
X-2162496Y-8530166D01*
X-2116653Y-8531729D01*
X-2116653Y-8531729D01*
G37*
X-2116653Y-8531729D02*
X-2077812Y-8539049D01*
X-2043762Y-8556072D01*
X-2012293Y-8586745D01*
X-1981194Y-8635014D01*
X-1948256Y-8704826D01*
X-1911268Y-8800127D01*
X-1868019Y-8924863D01*
X-1816300Y-9082982D01*
X-1767685Y-9235078D01*
X-1565664Y-9876595D01*
X-1369203Y-10513610D01*
X-1179273Y-11142665D01*
X-996849Y-11760300D01*
X-822902Y-12363056D01*
X-658405Y-12947472D01*
X-504330Y-13510089D01*
X-361650Y-14047449D01*
X-231337Y-14556091D01*
X-114364Y-15032557D01*
X-11703Y-15473385D01*
X-2309Y-15515166D01*
X72089Y-15845191D01*
X139189Y-16138469D01*
X200122Y-16399738D01*
X256020Y-16633738D01*
X308013Y-16845207D01*
X357232Y-17038884D01*
X401859Y-17208500D01*
X445934Y-17375112D01*
X483498Y-17522454D01*
X516451Y-17659343D01*
X546691Y-17794594D01*
X576121Y-17937026D01*
X606639Y-18095454D01*
X640145Y-18278696D01*
X675547Y-18478500D01*
X721319Y-18737298D01*
X769395Y-19005374D01*
X818806Y-19277550D01*
X868578Y-19548647D01*
X917741Y-19813489D01*
X965324Y-20066895D01*
X1010354Y-20303690D01*
X1051861Y-20518694D01*
X1088873Y-20706729D01*
X1120419Y-20862618D01*
X1142123Y-20965583D01*
X1169657Y-21094420D01*
X1195318Y-21219038D01*
X1219849Y-21343895D01*
X1243994Y-21473447D01*
X1268495Y-21612150D01*
X1294096Y-21764462D01*
X1321539Y-21934839D01*
X1351568Y-22127738D01*
X1384925Y-22347615D01*
X1422353Y-22598928D01*
X1464596Y-22886133D01*
X1480893Y-22997583D01*
X1522458Y-23282528D01*
X1558599Y-23531322D01*
X1590092Y-23749691D01*
X1617712Y-23943361D01*
X1642236Y-24118058D01*
X1664438Y-24279506D01*
X1685095Y-24433434D01*
X1704982Y-24585565D01*
X1724875Y-24741627D01*
X1745549Y-24907344D01*
X1767781Y-25088444D01*
X1792345Y-25290651D01*
X1799173Y-25347083D01*
X1823721Y-25546939D01*
X1850530Y-25759716D01*
X1878235Y-25974949D01*
X1905472Y-26182173D01*
X1930877Y-26370925D01*
X1953084Y-26530738D01*
X1958029Y-26565310D01*
X2008565Y-26928401D01*
X2061219Y-27330319D01*
X2115626Y-27767628D01*
X2171420Y-28236895D01*
X2228235Y-28734686D01*
X2285707Y-29257566D01*
X2343470Y-29802101D01*
X2401159Y-30364857D01*
X2458408Y-30942399D01*
X2514853Y-31531294D01*
X2570126Y-32128106D01*
X2623865Y-32729403D01*
X2667230Y-33231666D01*
X2685646Y-33447752D01*
X2704065Y-33662500D01*
X2721958Y-33869835D01*
X2738798Y-34063686D01*
X2754053Y-34237979D01*
X2767196Y-34386642D01*
X2777699Y-34503600D01*
X2783365Y-34565166D01*
X2804890Y-34816368D01*
X2826112Y-35106376D01*
X2846825Y-35431667D01*
X2866823Y-35788714D01*
X2885901Y-36173990D01*
X2903854Y-36583971D01*
X2910331Y-36745333D01*
X2923170Y-37066372D01*
X2935217Y-37352098D01*
X2946849Y-37609514D01*
X2958440Y-37845624D01*
X2970364Y-38067431D01*
X2982996Y-38281939D01*
X2996710Y-38496152D01*
X3011882Y-38717073D01*
X3026950Y-38925500D01*
X3044103Y-39161802D01*
X3060574Y-39396536D01*
X3076706Y-39635163D01*
X3092841Y-39883148D01*
X3109321Y-40145951D01*
X3126489Y-40429037D01*
X3144687Y-40737868D01*
X3164257Y-41077907D01*
X3185543Y-41454616D01*
X3186153Y-41465500D01*
X3204924Y-41790379D01*
X3222611Y-42075293D01*
X3239413Y-42322593D01*
X3255526Y-42534627D01*
X3271145Y-42713746D01*
X3286469Y-42862297D01*
X3301692Y-42982632D01*
X3317013Y-43077100D01*
X3323823Y-43111019D01*
X3347677Y-43190473D01*
X3383681Y-43249400D01*
X3436985Y-43289710D01*
X3512740Y-43313316D01*
X3616096Y-43322131D01*
X3752204Y-43318065D01*
X3858784Y-43309595D01*
X3971560Y-43300127D01*
X4119109Y-43289275D01*
X4302581Y-43276967D01*
X4523123Y-43263133D01*
X4781887Y-43247702D01*
X5080021Y-43230602D01*
X5418675Y-43211763D01*
X5619750Y-43200790D01*
X5973651Y-43180289D01*
X6292558Y-43158840D01*
X6583811Y-43135687D01*
X6854749Y-43110075D01*
X7112711Y-43081246D01*
X7365036Y-43048445D01*
X7619064Y-43010916D01*
X7882135Y-42967902D01*
X7884584Y-42967485D01*
X8022987Y-42944249D01*
X8194361Y-42916053D01*
X8389826Y-42884327D01*
X8600505Y-42850496D01*
X8817518Y-42815990D01*
X9031986Y-42782234D01*
X9186334Y-42758190D01*
X10224335Y-42594229D01*
X11222445Y-42430146D01*
X12183105Y-42265382D01*
X13108754Y-42099382D01*
X14001834Y-41931586D01*
X14864784Y-41761439D01*
X15700045Y-41588382D01*
X16510057Y-41411858D01*
X17297261Y-41231310D01*
X18064096Y-41046180D01*
X18813003Y-40855912D01*
X19546422Y-40659947D01*
X20266794Y-40457728D01*
X20976559Y-40248697D01*
X21678157Y-40032299D01*
X22374029Y-39807974D01*
X22955250Y-39613237D01*
X23175878Y-39538306D01*
X23425596Y-39453929D01*
X23693265Y-39363841D01*
X23967747Y-39271779D01*
X24237904Y-39181479D01*
X24492597Y-39096679D01*
X24700080Y-39027922D01*
X25157922Y-38875606D01*
X25583247Y-38731841D01*
X25984284Y-38593682D01*
X26369257Y-38458185D01*
X26746395Y-38322406D01*
X27123923Y-38183401D01*
X27510069Y-38038227D01*
X27913060Y-37883939D01*
X28109334Y-37807939D01*
X28533254Y-37650557D01*
X28990143Y-37494577D01*
X29470670Y-37343061D01*
X29961417Y-37200212D01*
X30130621Y-37152672D01*
X30313076Y-37100908D01*
X30496187Y-37048527D01*
X30667361Y-36999137D01*
X30814001Y-36956343D01*
X30850417Y-36945601D01*
X31192893Y-36844846D01*
X31498513Y-36756319D01*
X31770689Y-36679180D01*
X32012831Y-36612589D01*
X32228350Y-36555705D01*
X32420656Y-36507690D01*
X32593160Y-36467703D01*
X32749273Y-36434904D01*
X32892406Y-36408454D01*
X33025968Y-36387513D01*
X33153372Y-36371241D01*
X33205867Y-36365596D01*
X33357208Y-36356715D01*
X33488598Y-36361972D01*
X33593809Y-36380592D01*
X33666615Y-36411800D01*
X33682739Y-36424998D01*
X33702552Y-36450456D01*
X33719348Y-36486815D01*
X33733852Y-36538739D01*
X33746789Y-36610894D01*
X33758886Y-36707944D01*
X33770866Y-36834554D01*
X33783457Y-36995391D01*
X33793438Y-37136916D01*
X33809856Y-37383070D01*
X33822700Y-37591250D01*
X33832051Y-37765655D01*
X33837988Y-37910486D01*
X33840593Y-38029945D01*
X33839947Y-38128231D01*
X33836130Y-38209545D01*
X33829224Y-38278088D01*
X33819308Y-38338059D01*
X33816763Y-38350364D01*
X33773781Y-38511507D01*
X33716498Y-38645189D01*
X33637126Y-38765776D01*
X33527880Y-38887637D01*
X33522850Y-38892669D01*
X33376887Y-39021462D01*
X33208375Y-39137460D01*
X33010297Y-39245036D01*
X32821038Y-39329968D01*
X32725314Y-39369943D01*
X32603369Y-39421097D01*
X32467955Y-39478068D01*
X32331820Y-39535497D01*
X32267295Y-39562781D01*
X32120425Y-39624023D01*
X31937694Y-39698695D01*
X31722868Y-39785338D01*
X31479714Y-39882492D01*
X31211999Y-39988695D01*
X30923490Y-40102490D01*
X30617953Y-40222414D01*
X30299155Y-40347008D01*
X29970863Y-40474812D01*
X29636843Y-40604365D01*
X29300862Y-40734208D01*
X28966686Y-40862881D01*
X28638084Y-40988922D01*
X28318820Y-41110873D01*
X28012662Y-41227272D01*
X27723376Y-41336661D01*
X27454730Y-41437578D01*
X27210489Y-41528563D01*
X26994422Y-41608157D01*
X26934584Y-41629986D01*
X26785772Y-41683189D01*
X26602720Y-41747096D01*
X26391561Y-41819668D01*
X26158422Y-41898864D01*
X25909436Y-41982646D01*
X25650731Y-42068973D01*
X25388439Y-42155805D01*
X25128690Y-42241102D01*
X24877614Y-42322826D01*
X24641342Y-42398935D01*
X24426003Y-42467390D01*
X24288750Y-42510363D01*
X23955129Y-42612332D01*
X23583622Y-42722847D01*
X23177608Y-42840981D01*
X22740460Y-42965808D01*
X22275554Y-43096402D01*
X21786267Y-43231834D01*
X21275973Y-43371180D01*
X20748048Y-43513512D01*
X20205867Y-43657904D01*
X19652808Y-43803429D01*
X19092244Y-43949161D01*
X18527551Y-44094173D01*
X18406672Y-44124978D01*
X18079143Y-44208222D01*
X17785700Y-44282509D01*
X17520282Y-44349281D01*
X17276828Y-44409983D01*
X17049279Y-44466059D01*
X16831573Y-44518952D01*
X16617650Y-44570107D01*
X16401448Y-44620968D01*
X16176908Y-44672979D01*
X15937969Y-44727583D01*
X15678569Y-44786224D01*
X15392649Y-44850347D01*
X15074148Y-44921395D01*
X14919019Y-44955913D01*
X14638739Y-45018081D01*
X14381386Y-45074730D01*
X14142903Y-45126614D01*
X13919232Y-45174491D01*
X13706316Y-45219114D01*
X13500098Y-45261241D01*
X13296520Y-45301625D01*
X13091526Y-45341024D01*
X12881057Y-45380192D01*
X12661056Y-45419885D01*
X12427467Y-45460858D01*
X12176232Y-45503868D01*
X11903293Y-45549669D01*
X11604593Y-45599017D01*
X11276075Y-45652668D01*
X10913681Y-45711377D01*
X10530417Y-45773155D01*
X9997799Y-45858481D01*
X9504719Y-45936660D01*
X9049043Y-46008003D01*
X8628636Y-46072820D01*
X8241365Y-46131423D01*
X7885096Y-46184122D01*
X7557696Y-46231229D01*
X7257030Y-46273054D01*
X6980965Y-46309909D01*
X6727367Y-46342105D01*
X6494101Y-46369952D01*
X6279036Y-46393762D01*
X6254750Y-46396320D01*
X6101281Y-46412620D01*
X5921105Y-46432109D01*
X5729569Y-46453107D01*
X5542020Y-46473931D01*
X5386917Y-46491407D01*
X4836101Y-46549075D01*
X4248009Y-46601172D01*
X3627375Y-46647341D01*
X2978934Y-46687224D01*
X2413000Y-46715754D01*
X2277567Y-46720813D01*
X2104669Y-46725499D01*
X1899171Y-46729788D01*
X1665939Y-46733654D01*
X1409840Y-46737076D01*
X1135739Y-46740027D01*
X848504Y-46742484D01*
X552999Y-46744422D01*
X254091Y-46745818D01*
X-43354Y-46746646D01*
X-334469Y-46746884D01*
X-614390Y-46746506D01*
X-878248Y-46745488D01*
X-1121180Y-46743806D01*
X-1338317Y-46741437D01*
X-1524795Y-46738355D01*
X-1629833Y-46735888D01*
X-2818367Y-46698487D01*
X-3969948Y-46651963D01*
X-5089024Y-46596039D01*
X-6180042Y-46530436D01*
X-7247447Y-46454877D01*
X-8295687Y-46369084D01*
X-9329209Y-46272780D01*
X-9779000Y-46227155D01*
X-10023198Y-46201086D01*
X-10279614Y-46172454D01*
X-10544901Y-46141717D01*
X-10815712Y-46109331D01*
X-11088701Y-46075753D01*
X-11360523Y-46041440D01*
X-11627830Y-46006848D01*
X-11887278Y-45972434D01*
X-12135518Y-45938654D01*
X-12369206Y-45905965D01*
X-12584995Y-45874824D01*
X-12779538Y-45845688D01*
X-12949490Y-45819013D01*
X-13091504Y-45795256D01*
X-13202234Y-45774873D01*
X-13278333Y-45758321D01*
X-13316457Y-45746058D01*
X-13319405Y-45743990D01*
X-13330299Y-45711086D01*
X-13337965Y-45640509D01*
X-13342451Y-45536791D01*
X-13343802Y-45404466D01*
X-13342065Y-45248068D01*
X-13337287Y-45072129D01*
X-13329514Y-44881183D01*
X-13318793Y-44679763D01*
X-13306593Y-44492333D01*
X-13294997Y-44319632D01*
X-13282590Y-44119234D01*
X-13270211Y-43905744D01*
X-13258697Y-43693765D01*
X-13248888Y-43497903D01*
X-13246167Y-43439291D01*
X-13220989Y-42883666D01*
X-13071620Y-42883976D01*
X-12974273Y-42886265D01*
X-12835954Y-42892761D01*
X-12657806Y-42903382D01*
X-12440971Y-42918047D01*
X-12186592Y-42936676D01*
X-11895813Y-42959185D01*
X-11569776Y-42985495D01*
X-11209625Y-43015525D01*
X-11149110Y-43020652D01*
X-10927010Y-43038348D01*
X-10665454Y-43057127D01*
X-10367304Y-43076834D01*
X-10035418Y-43097315D01*
X-9672657Y-43118413D01*
X-9281881Y-43139974D01*
X-8865950Y-43161843D01*
X-8427723Y-43183865D01*
X-7970062Y-43205884D01*
X-7495826Y-43227745D01*
X-7007874Y-43249294D01*
X-6667500Y-43263780D01*
X-6472875Y-43271365D01*
X-6249994Y-43279044D01*
X-6002416Y-43286753D01*
X-5733702Y-43294430D01*
X-5447412Y-43302009D01*
X-5147105Y-43309427D01*
X-4836341Y-43316620D01*
X-4518681Y-43323524D01*
X-4197685Y-43330075D01*
X-3876912Y-43336210D01*
X-3559922Y-43341864D01*
X-3250276Y-43346973D01*
X-2951533Y-43351474D01*
X-2667253Y-43355303D01*
X-2400997Y-43358396D01*
X-2156324Y-43360688D01*
X-1936794Y-43362116D01*
X-1745967Y-43362617D01*
X-1587404Y-43362125D01*
X-1464664Y-43360578D01*
X-1392955Y-43358464D01*
X-1262242Y-43352028D01*
X-1168261Y-43345341D01*
X-1105416Y-43337655D01*
X-1068109Y-43328221D01*
X-1050742Y-43316292D01*
X-1048709Y-43312451D01*
X-1039005Y-43265616D01*
X-1030043Y-43179862D01*
X-1021842Y-43058597D01*
X-1014422Y-42905229D01*
X-1007800Y-42723166D01*
X-1001995Y-42515817D01*
X-997028Y-42286589D01*
X-992915Y-42038890D01*
X-989677Y-41776129D01*
X-987333Y-41501714D01*
X-985900Y-41219053D01*
X-985399Y-40931553D01*
X-985847Y-40642624D01*
X-987263Y-40355673D01*
X-989668Y-40074108D01*
X-993079Y-39801337D01*
X-997515Y-39540768D01*
X-1002995Y-39295810D01*
X-1009538Y-39069871D01*
X-1017163Y-38866358D01*
X-1023367Y-38735000D01*
X-1031376Y-38580606D01*
X-1041118Y-38390754D01*
X-1052248Y-38172269D01*
X-1064420Y-37931973D01*
X-1077292Y-37676692D01*
X-1090517Y-37413250D01*
X-1103752Y-37148471D01*
X-1116652Y-36889178D01*
X-1122207Y-36777083D01*
X-1140899Y-36401752D01*
X-1157976Y-36064354D01*
X-1173701Y-35760527D01*
X-1188338Y-35485913D01*
X-1202153Y-35236152D01*
X-1215410Y-35006884D01*
X-1228373Y-34793749D01*
X-1241306Y-34592388D01*
X-1254474Y-34398441D01*
X-1268141Y-34207548D01*
X-1282571Y-34015350D01*
X-1298029Y-33817487D01*
X-1312805Y-33633833D01*
X-1330523Y-33414310D01*
X-1349952Y-33170524D01*
X-1370105Y-32915074D01*
X-1389993Y-32660561D01*
X-1408629Y-32419587D01*
X-1425025Y-32204751D01*
X-1428992Y-32152166D01*
X-1456662Y-31787369D01*
X-1482074Y-31460006D01*
X-1505722Y-31165270D01*
X-1528102Y-30898352D01*
X-1549709Y-30654444D01*
X-1571037Y-30428736D01*
X-1592581Y-30216419D01*
X-1614836Y-30012687D01*
X-1638296Y-29812729D01*
X-1663457Y-29611737D01*
X-1690813Y-29404902D01*
X-1720859Y-29187417D01*
X-1754090Y-28954472D01*
X-1767678Y-28860750D01*
X-1795470Y-28667758D01*
X-1822800Y-28474298D01*
X-1848672Y-28287682D01*
X-1872091Y-28115224D01*
X-1892061Y-27964236D01*
X-1907588Y-27842031D01*
X-1916055Y-27770666D01*
X-1932490Y-27633583D01*
X-1955372Y-27457349D01*
X-1984308Y-27244591D01*
X-2018909Y-26997935D01*
X-2058782Y-26720008D01*
X-2103537Y-26413436D01*
X-2152782Y-26080847D01*
X-2206128Y-25724867D01*
X-2263181Y-25348122D01*
X-2323552Y-24953239D01*
X-2386849Y-24542845D01*
X-2452682Y-24119566D01*
X-2520658Y-23686030D01*
X-2582607Y-23293916D01*
X-2642040Y-22919478D01*
X-2695477Y-22583831D01*
X-2743428Y-22283940D01*
X-2786408Y-22016765D01*
X-2824927Y-21779269D01*
X-2859499Y-21568415D01*
X-2890635Y-21381165D01*
X-2918849Y-21214481D01*
X-2944652Y-21065326D01*
X-2968556Y-20930661D01*
X-2991075Y-20807450D01*
X-3012721Y-20692655D01*
X-3034005Y-20583237D01*
X-3055440Y-20476160D01*
X-3069380Y-20407915D01*
X-3101769Y-20248951D01*
X-3139888Y-20059420D01*
X-3181553Y-19850337D01*
X-3224578Y-19632721D01*
X-3266778Y-19417590D01*
X-3305966Y-19215961D01*
X-3311446Y-19187583D01*
X-3393194Y-18763731D01*
X-3467551Y-18378277D01*
X-3535188Y-18028059D01*
X-3596779Y-17709917D01*
X-3652998Y-17420691D01*
X-3704518Y-17157219D01*
X-3752011Y-16916342D01*
X-3796151Y-16694898D01*
X-3837611Y-16489727D01*
X-3877065Y-16297669D01*
X-3915185Y-16115562D01*
X-3952645Y-15940246D01*
X-3990118Y-15768561D01*
X-4028277Y-15597345D01*
X-4067796Y-15423439D01*
X-4109347Y-15243681D01*
X-4153604Y-15054912D01*
X-4201239Y-14853969D01*
X-4252927Y-14637694D01*
X-4309340Y-14402924D01*
X-4371152Y-14146500D01*
X-4439035Y-13865261D01*
X-4490391Y-13652500D01*
X-4598088Y-13206996D01*
X-4696837Y-12800253D01*
X-4787279Y-12429798D01*
X-4870058Y-12093157D01*
X-4945816Y-11787859D01*
X-5015194Y-11511429D01*
X-5078835Y-11261397D01*
X-5137381Y-11035289D01*
X-5191475Y-10830633D01*
X-5241758Y-10644956D01*
X-5288873Y-10475785D01*
X-5333463Y-10320647D01*
X-5376168Y-10177071D01*
X-5417632Y-10042583D01*
X-5458497Y-9914711D01*
X-5471728Y-9874250D01*
X-5517373Y-9732411D01*
X-5548905Y-9624445D01*
X-5566761Y-9544472D01*
X-5571380Y-9486610D01*
X-5563198Y-9444978D01*
X-5542654Y-9413696D01*
X-5510185Y-9386883D01*
X-5508104Y-9385450D01*
X-5404039Y-9326383D01*
X-5262264Y-9264753D01*
X-5087213Y-9202014D01*
X-4883318Y-9139616D01*
X-4655012Y-9079013D01*
X-4406728Y-9021656D01*
X-4380524Y-9016060D01*
X-4252107Y-8987902D01*
X-4098340Y-8952727D01*
X-3934844Y-8914190D01*
X-3777234Y-8875945D01*
X-3706691Y-8858371D01*
X-3525033Y-8813525D01*
X-3335533Y-8768361D01*
X-3143481Y-8724002D01*
X-2954169Y-8681573D01*
X-2772886Y-8642198D01*
X-2604922Y-8607002D01*
X-2455568Y-8577108D01*
X-2330114Y-8553642D01*
X-2233849Y-8537727D01*
X-2172065Y-8530488D01*
X-2162496Y-8530166D01*
X-2116653Y-8531729D01*
G36*
X-4629057Y-6337428D02*
G01*
X-4542182Y-6401835D01*
X-4513753Y-6435129D01*
X-4482443Y-6481178D01*
X-4440877Y-6548930D01*
X-4403193Y-6614583D01*
X-4374569Y-6664700D01*
X-4327458Y-6745370D01*
X-4265232Y-6850892D01*
X-4191268Y-6975569D01*
X-4108941Y-7113701D01*
X-4021625Y-7259590D01*
X-3989517Y-7313083D01*
X-3897724Y-7466764D01*
X-3806796Y-7620597D01*
X-3720768Y-7767638D01*
X-3643675Y-7900945D01*
X-3579551Y-8013573D01*
X-3532430Y-8098579D01*
X-3524329Y-8113667D01*
X-3472488Y-8213077D01*
X-3439202Y-8283173D01*
X-3421844Y-8331293D01*
X-3417791Y-8364778D01*
X-3424418Y-8390967D01*
X-3424834Y-8391892D01*
X-3454783Y-8424953D01*
X-3510950Y-8464967D01*
X-3579796Y-8504345D01*
X-3647782Y-8535496D01*
X-3701368Y-8550832D01*
X-3709259Y-8551333D01*
X-3751221Y-8557133D01*
X-3827671Y-8573460D01*
X-3932540Y-8598704D01*
X-4059761Y-8631255D01*
X-4203266Y-8669501D01*
X-4356986Y-8711835D01*
X-4514853Y-8756644D01*
X-4670800Y-8802319D01*
X-4783666Y-8836426D01*
X-4993851Y-8900511D01*
X-5169527Y-8953026D01*
X-5316450Y-8995476D01*
X-5440375Y-9029364D01*
X-5547057Y-9056196D01*
X-5642252Y-9077476D01*
X-5731714Y-9094709D01*
X-5821200Y-9109400D01*
X-5836627Y-9111723D01*
X-5920553Y-9123100D01*
X-6029996Y-9136312D01*
X-6156368Y-9150493D01*
X-6291078Y-9164775D01*
X-6425538Y-9178292D01*
X-6551159Y-9190177D01*
X-6659349Y-9199564D01*
X-6741520Y-9205586D01*
X-6784997Y-9207414D01*
X-6814216Y-9196017D01*
X-6849304Y-9158299D01*
X-6894513Y-9089132D01*
X-6920943Y-9043458D01*
X-7119639Y-8720425D01*
X-7333685Y-8427263D01*
X-7387931Y-8360833D01*
X-7567212Y-8129945D01*
X-7733039Y-7884570D01*
X-7875284Y-7640019D01*
X-7912852Y-7567083D01*
X-7953994Y-7482263D01*
X-7997842Y-7388255D01*
X-8040641Y-7293575D01*
X-8078635Y-7206741D01*
X-8108070Y-7136268D01*
X-8125190Y-7090674D01*
X-8128000Y-7079113D01*
X-8108014Y-7069056D01*
X-8052292Y-7055581D01*
X-7967189Y-7039801D01*
X-7859059Y-7022829D01*
X-7734257Y-7005778D01*
X-7651750Y-6995708D01*
X-7439495Y-6969329D01*
X-7239592Y-6940671D01*
X-7044540Y-6908207D01*
X-6846840Y-6870411D01*
X-6638993Y-6825756D01*
X-6413498Y-6772717D01*
X-6162857Y-6709766D01*
X-5879569Y-6635378D01*
X-5873750Y-6633825D01*
X-5634816Y-6568734D01*
X-5432817Y-6510783D01*
X-5263225Y-6458574D01*
X-5121510Y-6410709D01*
X-5003145Y-6365791D01*
X-4996976Y-6363277D01*
X-4854444Y-6318448D01*
X-4732474Y-6309732D01*
X-4629057Y-6337428D01*
X-4629057Y-6337428D01*
G37*
X-4629057Y-6337428D02*
X-4542182Y-6401835D01*
X-4513753Y-6435129D01*
X-4482443Y-6481178D01*
X-4440877Y-6548930D01*
X-4403193Y-6614583D01*
X-4374569Y-6664700D01*
X-4327458Y-6745370D01*
X-4265232Y-6850892D01*
X-4191268Y-6975569D01*
X-4108941Y-7113701D01*
X-4021625Y-7259590D01*
X-3989517Y-7313083D01*
X-3897724Y-7466764D01*
X-3806796Y-7620597D01*
X-3720768Y-7767638D01*
X-3643675Y-7900945D01*
X-3579551Y-8013573D01*
X-3532430Y-8098579D01*
X-3524329Y-8113667D01*
X-3472488Y-8213077D01*
X-3439202Y-8283173D01*
X-3421844Y-8331293D01*
X-3417791Y-8364778D01*
X-3424418Y-8390967D01*
X-3424834Y-8391892D01*
X-3454783Y-8424953D01*
X-3510950Y-8464967D01*
X-3579796Y-8504345D01*
X-3647782Y-8535496D01*
X-3701368Y-8550832D01*
X-3709259Y-8551333D01*
X-3751221Y-8557133D01*
X-3827671Y-8573460D01*
X-3932540Y-8598704D01*
X-4059761Y-8631255D01*
X-4203266Y-8669501D01*
X-4356986Y-8711835D01*
X-4514853Y-8756644D01*
X-4670800Y-8802319D01*
X-4783666Y-8836426D01*
X-4993851Y-8900511D01*
X-5169527Y-8953026D01*
X-5316450Y-8995476D01*
X-5440375Y-9029364D01*
X-5547057Y-9056196D01*
X-5642252Y-9077476D01*
X-5731714Y-9094709D01*
X-5821200Y-9109400D01*
X-5836627Y-9111723D01*
X-5920553Y-9123100D01*
X-6029996Y-9136312D01*
X-6156368Y-9150493D01*
X-6291078Y-9164775D01*
X-6425538Y-9178292D01*
X-6551159Y-9190177D01*
X-6659349Y-9199564D01*
X-6741520Y-9205586D01*
X-6784997Y-9207414D01*
X-6814216Y-9196017D01*
X-6849304Y-9158299D01*
X-6894513Y-9089132D01*
X-6920943Y-9043458D01*
X-7119639Y-8720425D01*
X-7333685Y-8427263D01*
X-7387931Y-8360833D01*
X-7567212Y-8129945D01*
X-7733039Y-7884570D01*
X-7875284Y-7640019D01*
X-7912852Y-7567083D01*
X-7953994Y-7482263D01*
X-7997842Y-7388255D01*
X-8040641Y-7293575D01*
X-8078635Y-7206741D01*
X-8108070Y-7136268D01*
X-8125190Y-7090674D01*
X-8128000Y-7079113D01*
X-8108014Y-7069056D01*
X-8052292Y-7055581D01*
X-7967189Y-7039801D01*
X-7859059Y-7022829D01*
X-7734257Y-7005778D01*
X-7651750Y-6995708D01*
X-7439495Y-6969329D01*
X-7239592Y-6940671D01*
X-7044540Y-6908207D01*
X-6846840Y-6870411D01*
X-6638993Y-6825756D01*
X-6413498Y-6772717D01*
X-6162857Y-6709766D01*
X-5879569Y-6635378D01*
X-5873750Y-6633825D01*
X-5634816Y-6568734D01*
X-5432817Y-6510783D01*
X-5263225Y-6458574D01*
X-5121510Y-6410709D01*
X-5003145Y-6365791D01*
X-4996976Y-6363277D01*
X-4854444Y-6318448D01*
X-4732474Y-6309732D01*
X-4629057Y-6337428D01*
G36*
X-10380478Y-7368933D02*
G01*
X-10310553Y-7373696D01*
X-10300177Y-7375087D01*
X-10235405Y-7391636D01*
X-10175998Y-7423832D01*
X-10117191Y-7476564D01*
X-10054220Y-7554722D01*
X-9982322Y-7663192D01*
X-9922420Y-7762690D01*
X-9848538Y-7889829D01*
X-9794745Y-7985914D01*
X-9758940Y-8055941D01*
X-9739018Y-8104906D01*
X-9732879Y-8137806D01*
X-9738419Y-8159636D01*
X-9749928Y-8172555D01*
X-9787610Y-8186494D01*
X-9855472Y-8197116D01*
X-9941450Y-8203869D01*
X-10033480Y-8206204D01*
X-10119500Y-8203566D01*
X-10187445Y-8195407D01*
X-10197908Y-8193037D01*
X-10243074Y-8178155D01*
X-10284842Y-8154514D01*
X-10330007Y-8116148D01*
X-10385362Y-8057090D01*
X-10457698Y-7971373D01*
X-10476780Y-7948083D01*
X-10559169Y-7844067D01*
X-10637682Y-7739257D01*
X-10708536Y-7639338D01*
X-10767944Y-7549993D01*
X-10812122Y-7476905D01*
X-10837285Y-7425757D01*
X-10840053Y-7402586D01*
X-10809731Y-7392169D01*
X-10747290Y-7382981D01*
X-10662936Y-7375544D01*
X-10566878Y-7370377D01*
X-10469323Y-7368000D01*
X-10380478Y-7368933D01*
X-10380478Y-7368933D01*
G37*
X-10380478Y-7368933D02*
X-10310553Y-7373696D01*
X-10300177Y-7375087D01*
X-10235405Y-7391636D01*
X-10175998Y-7423832D01*
X-10117191Y-7476564D01*
X-10054220Y-7554722D01*
X-9982322Y-7663192D01*
X-9922420Y-7762690D01*
X-9848538Y-7889829D01*
X-9794745Y-7985914D01*
X-9758940Y-8055941D01*
X-9739018Y-8104906D01*
X-9732879Y-8137806D01*
X-9738419Y-8159636D01*
X-9749928Y-8172555D01*
X-9787610Y-8186494D01*
X-9855472Y-8197116D01*
X-9941450Y-8203869D01*
X-10033480Y-8206204D01*
X-10119500Y-8203566D01*
X-10187445Y-8195407D01*
X-10197908Y-8193037D01*
X-10243074Y-8178155D01*
X-10284842Y-8154514D01*
X-10330007Y-8116148D01*
X-10385362Y-8057090D01*
X-10457698Y-7971373D01*
X-10476780Y-7948083D01*
X-10559169Y-7844067D01*
X-10637682Y-7739257D01*
X-10708536Y-7639338D01*
X-10767944Y-7549993D01*
X-10812122Y-7476905D01*
X-10837285Y-7425757D01*
X-10840053Y-7402586D01*
X-10809731Y-7392169D01*
X-10747290Y-7382981D01*
X-10662936Y-7375544D01*
X-10566878Y-7370377D01*
X-10469323Y-7368000D01*
X-10380478Y-7368933D01*
G36*
X-8708550Y-7079851D02*
G01*
X-8663652Y-7102057D01*
X-8619931Y-7138339D01*
X-8569732Y-7189630D01*
X-8487372Y-7283910D01*
X-8397992Y-7398532D01*
X-8307630Y-7524490D01*
X-8222323Y-7652778D01*
X-8148109Y-7774391D01*
X-8091025Y-7880322D01*
X-8062002Y-7947020D01*
X-8045552Y-7999857D01*
X-8049230Y-8032506D01*
X-8077404Y-8064069D01*
X-8091592Y-8076446D01*
X-8146642Y-8115820D01*
X-8213003Y-8146328D01*
X-8296603Y-8169110D01*
X-8403368Y-8185305D01*
X-8539225Y-8196051D01*
X-8710100Y-8202486D01*
X-8752416Y-8203426D01*
X-8880334Y-8204933D01*
X-8998132Y-8204361D01*
X-9097402Y-8201902D01*
X-9169739Y-8197748D01*
X-9203282Y-8193153D01*
X-9247842Y-8181456D01*
X-9274249Y-8168605D01*
X-9294147Y-8143715D01*
X-9319183Y-8095905D01*
X-9329635Y-8075069D01*
X-9358674Y-8026603D01*
X-9407755Y-7954255D01*
X-9470436Y-7867170D01*
X-9540276Y-7774492D01*
X-9552653Y-7758508D01*
X-9662870Y-7613288D01*
X-9749218Y-7491967D01*
X-9810623Y-7396255D01*
X-9846016Y-7327863D01*
X-9854325Y-7288501D01*
X-9850998Y-7282228D01*
X-9818692Y-7266956D01*
X-9751541Y-7246210D01*
X-9656445Y-7221555D01*
X-9540304Y-7194557D01*
X-9410016Y-7166779D01*
X-9272482Y-7139787D01*
X-9134600Y-7115145D01*
X-9062226Y-7103335D01*
X-8931462Y-7083461D01*
X-8834339Y-7071975D01*
X-8762740Y-7070297D01*
X-8708550Y-7079851D01*
X-8708550Y-7079851D01*
G37*
X-8708550Y-7079851D02*
X-8663652Y-7102057D01*
X-8619931Y-7138339D01*
X-8569732Y-7189630D01*
X-8487372Y-7283910D01*
X-8397992Y-7398532D01*
X-8307630Y-7524490D01*
X-8222323Y-7652778D01*
X-8148109Y-7774391D01*
X-8091025Y-7880322D01*
X-8062002Y-7947020D01*
X-8045552Y-7999857D01*
X-8049230Y-8032506D01*
X-8077404Y-8064069D01*
X-8091592Y-8076446D01*
X-8146642Y-8115820D01*
X-8213003Y-8146328D01*
X-8296603Y-8169110D01*
X-8403368Y-8185305D01*
X-8539225Y-8196051D01*
X-8710100Y-8202486D01*
X-8752416Y-8203426D01*
X-8880334Y-8204933D01*
X-8998132Y-8204361D01*
X-9097402Y-8201902D01*
X-9169739Y-8197748D01*
X-9203282Y-8193153D01*
X-9247842Y-8181456D01*
X-9274249Y-8168605D01*
X-9294147Y-8143715D01*
X-9319183Y-8095905D01*
X-9329635Y-8075069D01*
X-9358674Y-8026603D01*
X-9407755Y-7954255D01*
X-9470436Y-7867170D01*
X-9540276Y-7774492D01*
X-9552653Y-7758508D01*
X-9662870Y-7613288D01*
X-9749218Y-7491967D01*
X-9810623Y-7396255D01*
X-9846016Y-7327863D01*
X-9854325Y-7288501D01*
X-9850998Y-7282228D01*
X-9818692Y-7266956D01*
X-9751541Y-7246210D01*
X-9656445Y-7221555D01*
X-9540304Y-7194557D01*
X-9410016Y-7166779D01*
X-9272482Y-7139787D01*
X-9134600Y-7115145D01*
X-9062226Y-7103335D01*
X-8931462Y-7083461D01*
X-8834339Y-7071975D01*
X-8762740Y-7070297D01*
X-8708550Y-7079851D01*
G36*
X-39550094Y4819525D02*
G01*
X-39481654Y4801581D01*
X-39387201Y4774392D01*
X-39273754Y4740179D01*
X-39148337Y4701166D01*
X-39017971Y4659575D01*
X-38889677Y4617630D01*
X-38770479Y4577552D01*
X-38667396Y4541565D01*
X-38587452Y4511892D01*
X-38565666Y4503174D01*
X-38467392Y4461421D01*
X-38388033Y4423078D01*
X-38320687Y4382425D01*
X-38258449Y4333742D01*
X-38194415Y4271308D01*
X-38121679Y4189403D01*
X-38033339Y4082308D01*
X-37984483Y4021667D01*
X-37832557Y3836900D01*
X-37654678Y3628294D01*
X-37455640Y3401108D01*
X-37240238Y3160600D01*
X-37013267Y2912029D01*
X-36779521Y2660654D01*
X-36543796Y2411733D01*
X-36310885Y2170526D01*
X-36120916Y1977714D01*
X-35975528Y1832616D01*
X-35854388Y1714140D01*
X-35752765Y1618048D01*
X-35665931Y1540100D01*
X-35589157Y1476056D01*
X-35517712Y1421677D01*
X-35446868Y1372724D01*
X-35443583Y1370557D01*
X-35358822Y1312261D01*
X-35250783Y1234192D01*
X-35128938Y1143407D01*
X-35002756Y1046962D01*
X-34882666Y952675D01*
X-34503655Y656524D01*
X-34096659Y349963D01*
X-33671964Y40676D01*
X-33464500Y-106737D01*
X-33269797Y-247341D01*
X-33110368Y-370102D01*
X-32984048Y-476941D01*
X-32888673Y-569780D01*
X-32822080Y-650539D01*
X-32788585Y-706672D01*
X-32763550Y-776333D01*
X-32742543Y-865537D01*
X-32732852Y-931333D01*
X-32728830Y-1029258D01*
X-32732091Y-1159909D01*
X-32741919Y-1314439D01*
X-32757593Y-1484005D01*
X-32778396Y-1659760D01*
X-32803609Y-1832861D01*
X-32808496Y-1862666D01*
X-32828810Y-1986514D01*
X-32852123Y-2132045D01*
X-32875226Y-2279064D01*
X-32891018Y-2381685D01*
X-32954050Y-2684132D01*
X-33052359Y-3000885D01*
X-33183603Y-3326833D01*
X-33345440Y-3656868D01*
X-33535529Y-3985878D01*
X-33751528Y-4308753D01*
X-33811872Y-4391374D01*
X-33980676Y-4607908D01*
X-34169306Y-4831559D01*
X-34371173Y-5055528D01*
X-34579686Y-5273018D01*
X-34788257Y-5477231D01*
X-34990295Y-5661369D01*
X-35179210Y-5818636D01*
X-35242729Y-5867357D01*
X-35405937Y-5986681D01*
X-35577298Y-6107251D01*
X-35749526Y-6224265D01*
X-35915335Y-6332922D01*
X-36067441Y-6428420D01*
X-36198558Y-6505956D01*
X-36273397Y-6546688D01*
X-36573197Y-6686888D01*
X-36904165Y-6815462D01*
X-37256017Y-6929383D01*
X-37618471Y-7025623D01*
X-37981244Y-7101158D01*
X-38332833Y-7152821D01*
X-38552061Y-7173430D01*
X-38804824Y-7189924D01*
X-39082505Y-7202136D01*
X-39376491Y-7209898D01*
X-39678167Y-7213041D01*
X-39978917Y-7211397D01*
X-40270128Y-7204796D01*
X-40502416Y-7195230D01*
X-40635579Y-7187378D01*
X-40773994Y-7177419D01*
X-40902674Y-7166538D01*
X-41006631Y-7155922D01*
X-41021000Y-7154200D01*
X-41213354Y-7123455D01*
X-41421189Y-7078039D01*
X-41634792Y-7020981D01*
X-41844451Y-6955309D01*
X-42040453Y-6884051D01*
X-42213086Y-6810237D01*
X-42345271Y-6741288D01*
X-42442806Y-6674696D01*
X-42533111Y-6596877D01*
X-42608239Y-6516146D01*
X-42660243Y-6440818D01*
X-42679579Y-6391478D01*
X-42690952Y-6298254D01*
X-42692494Y-6192690D01*
X-42685350Y-6085888D01*
X-42670666Y-5988948D01*
X-42649587Y-5912971D01*
X-42625920Y-5871515D01*
X-42597771Y-5859521D01*
X-42533274Y-5840839D01*
X-42437661Y-5816727D01*
X-42316166Y-5788443D01*
X-42174021Y-5757244D01*
X-42016458Y-5724388D01*
X-41999519Y-5720951D01*
X-41814477Y-5683615D01*
X-41664552Y-5654587D01*
X-41543317Y-5634036D01*
X-41444347Y-5622129D01*
X-41361214Y-5619037D01*
X-41287492Y-5624928D01*
X-41216754Y-5639971D01*
X-41142575Y-5664334D01*
X-41058526Y-5698186D01*
X-40958183Y-5741696D01*
X-40942114Y-5748723D01*
X-40702661Y-5847667D01*
X-40483417Y-5925445D01*
X-40270935Y-5986575D01*
X-40146693Y-6015919D01*
X-40070829Y-6031520D01*
X-39999550Y-6043307D01*
X-39925082Y-6051793D01*
X-39839651Y-6057492D01*
X-39735481Y-6060918D01*
X-39604799Y-6062582D01*
X-39439830Y-6062999D01*
X-39433500Y-6062998D01*
X-39230907Y-6061587D01*
X-39054918Y-6056369D01*
X-38898706Y-6045650D01*
X-38755448Y-6027735D01*
X-38618318Y-6000933D01*
X-38480491Y-5963549D01*
X-38335142Y-5913890D01*
X-38175445Y-5850263D01*
X-37994575Y-5770974D01*
X-37785708Y-5674330D01*
X-37695777Y-5631849D01*
X-37444155Y-5510209D01*
X-37226791Y-5399057D01*
X-37038248Y-5294168D01*
X-36873089Y-5191318D01*
X-36725878Y-5086282D01*
X-36591177Y-4974837D01*
X-36463550Y-4852758D01*
X-36337559Y-4715821D01*
X-36207767Y-4559802D01*
X-36068739Y-4380478D01*
X-36045581Y-4349750D01*
X-35830659Y-4050075D01*
X-35649952Y-3767817D01*
X-35501301Y-3498734D01*
X-35382546Y-3238585D01*
X-35291530Y-2983128D01*
X-35230355Y-2748229D01*
X-35201333Y-2569218D01*
X-35185750Y-2371210D01*
X-35182975Y-2162846D01*
X-35192378Y-1952769D01*
X-35213327Y-1749622D01*
X-35245193Y-1562047D01*
X-35287344Y-1398686D01*
X-35338231Y-1270000D01*
X-35426094Y-1123514D01*
X-35543259Y-969620D01*
X-35680487Y-818417D01*
X-35828537Y-680005D01*
X-35978168Y-564485D01*
X-35992577Y-554771D01*
X-36110619Y-487054D01*
X-36250421Y-423759D01*
X-36345011Y-388958D01*
X-36475752Y-342752D01*
X-36590473Y-294688D01*
X-36697777Y-239715D01*
X-36806269Y-172786D01*
X-36924552Y-88850D01*
X-37061232Y17143D01*
X-37126333Y69565D01*
X-37374707Y258894D01*
X-37634885Y434572D01*
X-37898842Y591976D01*
X-38158554Y726482D01*
X-38405993Y833465D01*
X-38526999Y876636D01*
X-38717218Y934660D01*
X-38899271Y980315D01*
X-39081806Y1014753D01*
X-39273471Y1039125D01*
X-39482913Y1054583D01*
X-39718780Y1062279D01*
X-39930916Y1063624D01*
X-40098647Y1062576D01*
X-40248210Y1059746D01*
X-40385052Y1054289D01*
X-40514617Y1045362D01*
X-40642348Y1032123D01*
X-40773691Y1013728D01*
X-40914089Y989333D01*
X-41068988Y958095D01*
X-41243831Y919171D01*
X-41444064Y871717D01*
X-41675130Y814891D01*
X-41899416Y758696D01*
X-42202728Y682531D01*
X-42469955Y615955D01*
X-42705978Y557869D01*
X-42915673Y507173D01*
X-43103919Y462768D01*
X-43275594Y423554D01*
X-43435577Y388430D01*
X-43588745Y356298D01*
X-43739976Y326058D01*
X-43894148Y296609D01*
X-44056141Y266852D01*
X-44177405Y245143D01*
X-44666200Y164991D01*
X-45127460Y103519D01*
X-45571159Y59788D01*
X-46007276Y32859D01*
X-46445787Y21793D01*
X-46555023Y21394D01*
X-46777428Y23543D01*
X-46989360Y30281D01*
X-47197155Y42342D01*
X-47407147Y60457D01*
X-47625671Y85359D01*
X-47859061Y117781D01*
X-48113651Y158454D01*
X-48395777Y208111D01*
X-48711773Y267485D01*
X-48754155Y275663D01*
X-48898902Y308453D01*
X-49005643Y345408D01*
X-49078705Y390262D01*
X-49122415Y446749D01*
X-49141097Y518605D01*
X-49139234Y608105D01*
X-49120893Y709729D01*
X-49085238Y821031D01*
X-49030323Y945668D01*
X-48954207Y1087296D01*
X-48854944Y1249572D01*
X-48730593Y1436152D01*
X-48601806Y1619250D01*
X-48424259Y1860378D01*
X-48242933Y2094253D01*
X-48060275Y2318409D01*
X-47878735Y2530378D01*
X-47700761Y2727693D01*
X-47528803Y2907888D01*
X-47365309Y3068495D01*
X-47212727Y3207047D01*
X-47073506Y3321076D01*
X-46950096Y3408117D01*
X-46844944Y3465701D01*
X-46760500Y3491362D01*
X-46742523Y3492500D01*
X-46677844Y3483083D01*
X-46607080Y3452434D01*
X-46524256Y3396960D01*
X-46423397Y3313065D01*
X-46381925Y3275583D01*
X-46240120Y3155397D01*
X-46101043Y3060840D01*
X-45954705Y2987292D01*
X-45791114Y2930132D01*
X-45600280Y2884740D01*
X-45495664Y2865707D01*
X-45381687Y2851517D01*
X-45235242Y2840774D01*
X-45066058Y2833559D01*
X-44883866Y2829955D01*
X-44698397Y2830045D01*
X-44519380Y2833909D01*
X-44356547Y2841631D01*
X-44219627Y2853293D01*
X-44206583Y2854818D01*
X-43762944Y2924207D01*
X-43313246Y3026275D01*
X-42855570Y3161770D01*
X-42387998Y3331438D01*
X-41908611Y3536027D01*
X-41415491Y3776282D01*
X-40906718Y4052951D01*
X-40481250Y4304607D01*
X-40282147Y4426319D01*
X-40115951Y4527672D01*
X-39979514Y4610498D01*
X-39869692Y4676627D01*
X-39783338Y4727892D01*
X-39717306Y4766123D01*
X-39668451Y4793151D01*
X-39633626Y4810807D01*
X-39609686Y4820923D01*
X-39593485Y4825330D01*
X-39585496Y4826000D01*
X-39550094Y4819525D01*
X-39550094Y4819525D01*
G37*
X-39550094Y4819525D02*
X-39481654Y4801581D01*
X-39387201Y4774392D01*
X-39273754Y4740179D01*
X-39148337Y4701166D01*
X-39017971Y4659575D01*
X-38889677Y4617630D01*
X-38770479Y4577552D01*
X-38667396Y4541565D01*
X-38587452Y4511892D01*
X-38565666Y4503174D01*
X-38467392Y4461421D01*
X-38388033Y4423078D01*
X-38320687Y4382425D01*
X-38258449Y4333742D01*
X-38194415Y4271308D01*
X-38121679Y4189403D01*
X-38033339Y4082308D01*
X-37984483Y4021667D01*
X-37832557Y3836900D01*
X-37654678Y3628294D01*
X-37455640Y3401108D01*
X-37240238Y3160600D01*
X-37013267Y2912029D01*
X-36779521Y2660654D01*
X-36543796Y2411733D01*
X-36310885Y2170526D01*
X-36120916Y1977714D01*
X-35975528Y1832616D01*
X-35854388Y1714140D01*
X-35752765Y1618048D01*
X-35665931Y1540100D01*
X-35589157Y1476056D01*
X-35517712Y1421677D01*
X-35446868Y1372724D01*
X-35443583Y1370557D01*
X-35358822Y1312261D01*
X-35250783Y1234192D01*
X-35128938Y1143407D01*
X-35002756Y1046962D01*
X-34882666Y952675D01*
X-34503655Y656524D01*
X-34096659Y349963D01*
X-33671964Y40676D01*
X-33464500Y-106737D01*
X-33269797Y-247341D01*
X-33110368Y-370102D01*
X-32984048Y-476941D01*
X-32888673Y-569780D01*
X-32822080Y-650539D01*
X-32788585Y-706672D01*
X-32763550Y-776333D01*
X-32742543Y-865537D01*
X-32732852Y-931333D01*
X-32728830Y-1029258D01*
X-32732091Y-1159909D01*
X-32741919Y-1314439D01*
X-32757593Y-1484005D01*
X-32778396Y-1659760D01*
X-32803609Y-1832861D01*
X-32808496Y-1862666D01*
X-32828810Y-1986514D01*
X-32852123Y-2132045D01*
X-32875226Y-2279064D01*
X-32891018Y-2381685D01*
X-32954050Y-2684132D01*
X-33052359Y-3000885D01*
X-33183603Y-3326833D01*
X-33345440Y-3656868D01*
X-33535529Y-3985878D01*
X-33751528Y-4308753D01*
X-33811872Y-4391374D01*
X-33980676Y-4607908D01*
X-34169306Y-4831559D01*
X-34371173Y-5055528D01*
X-34579686Y-5273018D01*
X-34788257Y-5477231D01*
X-34990295Y-5661369D01*
X-35179210Y-5818636D01*
X-35242729Y-5867357D01*
X-35405937Y-5986681D01*
X-35577298Y-6107251D01*
X-35749526Y-6224265D01*
X-35915335Y-6332922D01*
X-36067441Y-6428420D01*
X-36198558Y-6505956D01*
X-36273397Y-6546688D01*
X-36573197Y-6686888D01*
X-36904165Y-6815462D01*
X-37256017Y-6929383D01*
X-37618471Y-7025623D01*
X-37981244Y-7101158D01*
X-38332833Y-7152821D01*
X-38552061Y-7173430D01*
X-38804824Y-7189924D01*
X-39082505Y-7202136D01*
X-39376491Y-7209898D01*
X-39678167Y-7213041D01*
X-39978917Y-7211397D01*
X-40270128Y-7204796D01*
X-40502416Y-7195230D01*
X-40635579Y-7187378D01*
X-40773994Y-7177419D01*
X-40902674Y-7166538D01*
X-41006631Y-7155922D01*
X-41021000Y-7154200D01*
X-41213354Y-7123455D01*
X-41421189Y-7078039D01*
X-41634792Y-7020981D01*
X-41844451Y-6955309D01*
X-42040453Y-6884051D01*
X-42213086Y-6810237D01*
X-42345271Y-6741288D01*
X-42442806Y-6674696D01*
X-42533111Y-6596877D01*
X-42608239Y-6516146D01*
X-42660243Y-6440818D01*
X-42679579Y-6391478D01*
X-42690952Y-6298254D01*
X-42692494Y-6192690D01*
X-42685350Y-6085888D01*
X-42670666Y-5988948D01*
X-42649587Y-5912971D01*
X-42625920Y-5871515D01*
X-42597771Y-5859521D01*
X-42533274Y-5840839D01*
X-42437661Y-5816727D01*
X-42316166Y-5788443D01*
X-42174021Y-5757244D01*
X-42016458Y-5724388D01*
X-41999519Y-5720951D01*
X-41814477Y-5683615D01*
X-41664552Y-5654587D01*
X-41543317Y-5634036D01*
X-41444347Y-5622129D01*
X-41361214Y-5619037D01*
X-41287492Y-5624928D01*
X-41216754Y-5639971D01*
X-41142575Y-5664334D01*
X-41058526Y-5698186D01*
X-40958183Y-5741696D01*
X-40942114Y-5748723D01*
X-40702661Y-5847667D01*
X-40483417Y-5925445D01*
X-40270935Y-5986575D01*
X-40146693Y-6015919D01*
X-40070829Y-6031520D01*
X-39999550Y-6043307D01*
X-39925082Y-6051793D01*
X-39839651Y-6057492D01*
X-39735481Y-6060918D01*
X-39604799Y-6062582D01*
X-39439830Y-6062999D01*
X-39433500Y-6062998D01*
X-39230907Y-6061587D01*
X-39054918Y-6056369D01*
X-38898706Y-6045650D01*
X-38755448Y-6027735D01*
X-38618318Y-6000933D01*
X-38480491Y-5963549D01*
X-38335142Y-5913890D01*
X-38175445Y-5850263D01*
X-37994575Y-5770974D01*
X-37785708Y-5674330D01*
X-37695777Y-5631849D01*
X-37444155Y-5510209D01*
X-37226791Y-5399057D01*
X-37038248Y-5294168D01*
X-36873089Y-5191318D01*
X-36725878Y-5086282D01*
X-36591177Y-4974837D01*
X-36463550Y-4852758D01*
X-36337559Y-4715821D01*
X-36207767Y-4559802D01*
X-36068739Y-4380478D01*
X-36045581Y-4349750D01*
X-35830659Y-4050075D01*
X-35649952Y-3767817D01*
X-35501301Y-3498734D01*
X-35382546Y-3238585D01*
X-35291530Y-2983128D01*
X-35230355Y-2748229D01*
X-35201333Y-2569218D01*
X-35185750Y-2371210D01*
X-35182975Y-2162846D01*
X-35192378Y-1952769D01*
X-35213327Y-1749622D01*
X-35245193Y-1562047D01*
X-35287344Y-1398686D01*
X-35338231Y-1270000D01*
X-35426094Y-1123514D01*
X-35543259Y-969620D01*
X-35680487Y-818417D01*
X-35828537Y-680005D01*
X-35978168Y-564485D01*
X-35992577Y-554771D01*
X-36110619Y-487054D01*
X-36250421Y-423759D01*
X-36345011Y-388958D01*
X-36475752Y-342752D01*
X-36590473Y-294688D01*
X-36697777Y-239715D01*
X-36806269Y-172786D01*
X-36924552Y-88850D01*
X-37061232Y17143D01*
X-37126333Y69565D01*
X-37374707Y258894D01*
X-37634885Y434572D01*
X-37898842Y591976D01*
X-38158554Y726482D01*
X-38405993Y833465D01*
X-38526999Y876636D01*
X-38717218Y934660D01*
X-38899271Y980315D01*
X-39081806Y1014753D01*
X-39273471Y1039125D01*
X-39482913Y1054583D01*
X-39718780Y1062279D01*
X-39930916Y1063624D01*
X-40098647Y1062576D01*
X-40248210Y1059746D01*
X-40385052Y1054289D01*
X-40514617Y1045362D01*
X-40642348Y1032123D01*
X-40773691Y1013728D01*
X-40914089Y989333D01*
X-41068988Y958095D01*
X-41243831Y919171D01*
X-41444064Y871717D01*
X-41675130Y814891D01*
X-41899416Y758696D01*
X-42202728Y682531D01*
X-42469955Y615955D01*
X-42705978Y557869D01*
X-42915673Y507173D01*
X-43103919Y462768D01*
X-43275594Y423554D01*
X-43435577Y388430D01*
X-43588745Y356298D01*
X-43739976Y326058D01*
X-43894148Y296609D01*
X-44056141Y266852D01*
X-44177405Y245143D01*
X-44666200Y164991D01*
X-45127460Y103519D01*
X-45571159Y59788D01*
X-46007276Y32859D01*
X-46445787Y21793D01*
X-46555023Y21394D01*
X-46777428Y23543D01*
X-46989360Y30281D01*
X-47197155Y42342D01*
X-47407147Y60457D01*
X-47625671Y85359D01*
X-47859061Y117781D01*
X-48113651Y158454D01*
X-48395777Y208111D01*
X-48711773Y267485D01*
X-48754155Y275663D01*
X-48898902Y308453D01*
X-49005643Y345408D01*
X-49078705Y390262D01*
X-49122415Y446749D01*
X-49141097Y518605D01*
X-49139234Y608105D01*
X-49120893Y709729D01*
X-49085238Y821031D01*
X-49030323Y945668D01*
X-48954207Y1087296D01*
X-48854944Y1249572D01*
X-48730593Y1436152D01*
X-48601806Y1619250D01*
X-48424259Y1860378D01*
X-48242933Y2094253D01*
X-48060275Y2318409D01*
X-47878735Y2530378D01*
X-47700761Y2727693D01*
X-47528803Y2907888D01*
X-47365309Y3068495D01*
X-47212727Y3207047D01*
X-47073506Y3321076D01*
X-46950096Y3408117D01*
X-46844944Y3465701D01*
X-46760500Y3491362D01*
X-46742523Y3492500D01*
X-46677844Y3483083D01*
X-46607080Y3452434D01*
X-46524256Y3396960D01*
X-46423397Y3313065D01*
X-46381925Y3275583D01*
X-46240120Y3155397D01*
X-46101043Y3060840D01*
X-45954705Y2987292D01*
X-45791114Y2930132D01*
X-45600280Y2884740D01*
X-45495664Y2865707D01*
X-45381687Y2851517D01*
X-45235242Y2840774D01*
X-45066058Y2833559D01*
X-44883866Y2829955D01*
X-44698397Y2830045D01*
X-44519380Y2833909D01*
X-44356547Y2841631D01*
X-44219627Y2853293D01*
X-44206583Y2854818D01*
X-43762944Y2924207D01*
X-43313246Y3026275D01*
X-42855570Y3161770D01*
X-42387998Y3331438D01*
X-41908611Y3536027D01*
X-41415491Y3776282D01*
X-40906718Y4052951D01*
X-40481250Y4304607D01*
X-40282147Y4426319D01*
X-40115951Y4527672D01*
X-39979514Y4610498D01*
X-39869692Y4676627D01*
X-39783338Y4727892D01*
X-39717306Y4766123D01*
X-39668451Y4793151D01*
X-39633626Y4810807D01*
X-39609686Y4820923D01*
X-39593485Y4825330D01*
X-39585496Y4826000D01*
X-39550094Y4819525D01*
G36*
X2290643Y46766770D02*
G01*
X2394208Y46762635D01*
X2499227Y46755589D01*
X2610560Y46745540D01*
X2733065Y46732399D01*
X2871603Y46716076D01*
X3031033Y46696481D01*
X3216214Y46673522D01*
X3312584Y46661661D01*
X3472941Y46642043D01*
X3666070Y46618481D01*
X3882709Y46592098D01*
X4113602Y46564022D01*
X4349490Y46535378D01*
X4581114Y46507292D01*
X4786897Y46482380D01*
X5668543Y46375746D01*
X7263397Y45891653D01*
X8858250Y45407561D01*
X11313584Y43950885D01*
X12435417Y43034460D01*
X13557250Y42118036D01*
X14364338Y41240902D01*
X15171426Y40363767D01*
X15770876Y39470671D01*
X16370326Y38577576D01*
X16777488Y37682762D01*
X17184651Y36787948D01*
X17702719Y35216182D01*
X18220787Y33644417D01*
X18585382Y31496000D01*
X18949978Y29347584D01*
X18903947Y28067000D01*
X18887276Y27562224D01*
X18874694Y27084035D01*
X18865925Y26616911D01*
X18860693Y26145332D01*
X18858722Y25653776D01*
X18858709Y25522781D01*
X18859500Y24259144D01*
X18499850Y21118828D01*
X18160679Y19469802D01*
X18098517Y19167770D01*
X18043782Y18902674D01*
X17995402Y18669977D01*
X17952306Y18465142D01*
X17913424Y18283633D01*
X17877684Y18120913D01*
X17844018Y17972445D01*
X17811352Y17833694D01*
X17778618Y17700122D01*
X17744744Y17567193D01*
X17708659Y17430371D01*
X17669293Y17285118D01*
X17625575Y17126899D01*
X17576434Y16951176D01*
X17520799Y16753413D01*
X17513127Y16726180D01*
X17456848Y16528626D01*
X17389645Y16296482D01*
X17313251Y16035554D01*
X17229401Y15751648D01*
X17139829Y15450572D01*
X17046268Y15138131D01*
X16950452Y14820131D01*
X16854116Y14502380D01*
X16758993Y14190683D01*
X16666817Y13890847D01*
X16655308Y13853584D01*
X16105869Y12075584D01*
X15653210Y10996084D01*
X15548049Y10744756D01*
X15431159Y10464457D01*
X15306783Y10165418D01*
X15179165Y9857873D01*
X15052548Y9552054D01*
X14931175Y9258194D01*
X14819289Y8986526D01*
X14755541Y8831274D01*
X14310530Y7745963D01*
X13612345Y6587402D01*
X12914159Y5428840D01*
X12050371Y4582016D01*
X11854260Y4390889D01*
X11634477Y4178667D01*
X11398728Y3952671D01*
X11154718Y3720223D01*
X10910153Y3488645D01*
X10672739Y3265259D01*
X10450182Y3057387D01*
X10279647Y2899471D01*
X9372711Y2063750D01*
X8025397Y1225068D01*
X6678084Y386385D01*
X5921375Y-284431D01*
X5746960Y-439141D01*
X5601621Y-568442D01*
X5482708Y-674955D01*
X5387572Y-761302D01*
X5313564Y-830103D01*
X5258035Y-883979D01*
X5218335Y-925553D01*
X5191817Y-957443D01*
X5175830Y-982273D01*
X5167725Y-1002662D01*
X5164854Y-1021231D01*
X5164539Y-1033248D01*
X5163336Y-1072398D01*
X5159976Y-1148340D01*
X5154739Y-1255600D01*
X5147903Y-1388707D01*
X5139750Y-1542188D01*
X5130560Y-1710572D01*
X5122662Y-1852083D01*
X5080912Y-2592916D01*
X4714236Y-3551294D01*
X4097638Y-3743420D01*
X3481039Y-3935546D01*
X1703917Y-3960684D01*
X149189Y-3791737D01*
X-1405540Y-3622790D01*
X-4335286Y-4405218D01*
X-4739968Y-4513275D01*
X-5105893Y-4610921D01*
X-5435197Y-4698690D01*
X-5730016Y-4777119D01*
X-5992487Y-4846743D01*
X-6224745Y-4908096D01*
X-6428928Y-4961715D01*
X-6607170Y-5008135D01*
X-6761610Y-5047891D01*
X-6894382Y-5081519D01*
X-7007623Y-5109553D01*
X-7103469Y-5132530D01*
X-7184057Y-5150985D01*
X-7251523Y-5165453D01*
X-7308003Y-5176469D01*
X-7355633Y-5184570D01*
X-7396549Y-5190289D01*
X-7432889Y-5194163D01*
X-7466787Y-5196728D01*
X-7500381Y-5198517D01*
X-7500725Y-5198533D01*
X-7551170Y-5200448D01*
X-7641145Y-5203392D01*
X-7767862Y-5207287D01*
X-7928531Y-5212054D01*
X-8120363Y-5217615D01*
X-8340569Y-5223892D01*
X-8586362Y-5230805D01*
X-8854951Y-5238278D01*
X-9143548Y-5246230D01*
X-9449364Y-5254585D01*
X-9769610Y-5263262D01*
X-10101497Y-5272185D01*
X-10442237Y-5281275D01*
X-10466916Y-5281930D01*
X-13197416Y-5354441D01*
X-17443780Y-5312507D01*
X-17854785Y-5652618D01*
X-18265791Y-5992729D01*
X-18838612Y-6245448D01*
X-19411433Y-6498166D01*
X-20203583Y-6496452D01*
X-20732750Y-6177596D01*
X-21261916Y-5858741D01*
X-21558250Y-5277746D01*
X-21632507Y-5132908D01*
X-21701320Y-5000120D01*
X-21762173Y-4884126D01*
X-21812547Y-4789675D01*
X-21849925Y-4721511D01*
X-21871789Y-4684382D01*
X-21875750Y-4679176D01*
X-21900708Y-4670531D01*
X-21962116Y-4653873D01*
X-22055100Y-4630390D01*
X-22174789Y-4601271D01*
X-22316310Y-4567705D01*
X-22474791Y-4530878D01*
X-22616583Y-4498493D01*
X-22768991Y-4463570D01*
X-22956343Y-4420012D01*
X-23172472Y-4369285D01*
X-23411212Y-4312855D01*
X-23666397Y-4252187D01*
X-23931860Y-4188746D01*
X-24201434Y-4124000D01*
X-24468953Y-4059413D01*
X-24712083Y-4000389D01*
X-26087916Y-3665393D01*
X-27146250Y-3273358D01*
X-27329026Y-3205599D01*
X-27492379Y-3144787D01*
X-27640115Y-3089303D01*
X-27776036Y-3037527D01*
X-27903949Y-2987839D01*
X-28027658Y-2938619D01*
X-28150967Y-2888249D01*
X-28277681Y-2835108D01*
X-28411604Y-2777577D01*
X-28556542Y-2714036D01*
X-28716299Y-2642865D01*
X-28894679Y-2562445D01*
X-29095487Y-2471156D01*
X-29322528Y-2367379D01*
X-29579606Y-2249494D01*
X-29870526Y-2115881D01*
X-29937365Y-2085172D01*
X-31670146Y-1289021D01*
X-32752531Y-459824D01*
X-32970872Y-293452D01*
X-33203708Y-117655D01*
X-33444691Y62873D01*
X-33687474Y243436D01*
X-33925708Y419341D01*
X-34153046Y585891D01*
X-34363139Y738392D01*
X-34549640Y872150D01*
X-34639250Y935596D01*
X-35443583Y1501819D01*
X-36455578Y2565952D01*
X-37467573Y3630084D01*
X-37512547Y3699688D01*
X-34245061Y3699688D01*
X-34241916Y3604891D01*
X-34233446Y3498456D01*
X-34230424Y3467457D01*
X-34167369Y3045330D01*
X-34063765Y2627222D01*
X-33921341Y2219260D01*
X-33799790Y1943659D01*
X-33670219Y1674436D01*
X-33265734Y1576930D01*
X-32958354Y1503440D01*
X-32686792Y1439950D01*
X-32445986Y1385468D01*
X-32230874Y1338998D01*
X-32036394Y1299548D01*
X-31857483Y1266123D01*
X-31689079Y1237730D01*
X-31526121Y1213375D01*
X-31363544Y1192064D01*
X-31220833Y1175486D01*
X-31089008Y1161998D01*
X-30919639Y1146345D01*
X-30717443Y1128887D01*
X-30487134Y1109980D01*
X-30233428Y1089985D01*
X-29961040Y1069258D01*
X-29674685Y1048158D01*
X-29379078Y1027044D01*
X-29078934Y1006273D01*
X-28778969Y986204D01*
X-28483898Y967196D01*
X-28458583Y965602D01*
X-28396487Y963319D01*
X-28296555Y961683D01*
X-28163280Y960654D01*
X-28001155Y960195D01*
X-27814672Y960267D01*
X-27608324Y960832D01*
X-27386602Y961851D01*
X-27154000Y963286D01*
X-26915010Y965098D01*
X-26674123Y967249D01*
X-26435834Y969701D01*
X-26204634Y972415D01*
X-25985015Y975352D01*
X-25781471Y978475D01*
X-25598493Y981745D01*
X-25440574Y985122D01*
X-25312206Y988570D01*
X-25217882Y992049D01*
X-25188333Y993579D01*
X-24725041Y1024708D01*
X-24294863Y1061512D01*
X-23888807Y1105291D01*
X-23497883Y1157345D01*
X-23113098Y1218972D01*
X-22725459Y1291473D01*
X-22325976Y1376146D01*
X-21971000Y1458512D01*
X-21840568Y1490302D01*
X-21690760Y1527607D01*
X-21526572Y1569112D01*
X-21353006Y1613502D01*
X-21175059Y1659462D01*
X-20997732Y1705676D01*
X-20826022Y1750830D01*
X-20664930Y1793609D01*
X-20519453Y1832697D01*
X-20394592Y1866779D01*
X-20295346Y1894540D01*
X-20226713Y1914665D01*
X-20193692Y1925839D01*
X-20192679Y1926339D01*
X-20160911Y1953834D01*
X-20155173Y1975225D01*
X-20180244Y2001428D01*
X-20242713Y2040468D01*
X-20339974Y2091343D01*
X-20469419Y2153048D01*
X-20628441Y2224579D01*
X-20814432Y2304933D01*
X-21024785Y2393105D01*
X-21256892Y2488092D01*
X-21508147Y2588889D01*
X-21775941Y2694492D01*
X-22057668Y2803898D01*
X-22350719Y2916103D01*
X-22652488Y3030103D01*
X-22960367Y3144893D01*
X-23271749Y3259470D01*
X-23584026Y3372830D01*
X-23894591Y3483969D01*
X-24200837Y3591882D01*
X-24500156Y3695567D01*
X-24789940Y3794019D01*
X-25067583Y3886233D01*
X-25330476Y3971207D01*
X-25378833Y3986542D01*
X-25469128Y4014319D01*
X-25595309Y4052016D01*
X-25752470Y4098237D01*
X-25935706Y4151590D01*
X-26140110Y4210677D01*
X-26360775Y4274104D01*
X-26592796Y4340477D01*
X-26831265Y4408400D01*
X-27071277Y4476478D01*
X-27307926Y4543316D01*
X-27536304Y4607519D01*
X-27751506Y4667693D01*
X-27948625Y4722441D01*
X-28122756Y4770369D01*
X-28268991Y4810083D01*
X-28366282Y4835968D01*
X-28466386Y4861319D01*
X-28602295Y4894378D01*
X-28769472Y4934125D01*
X-28963381Y4979540D01*
X-29179485Y5029604D01*
X-29413249Y5083299D01*
X-29660135Y5139605D01*
X-29915607Y5197503D01*
X-30175129Y5255974D01*
X-30434164Y5313999D01*
X-30688175Y5370557D01*
X-30932627Y5424631D01*
X-31162983Y5475202D01*
X-31374707Y5521248D01*
X-31563261Y5561753D01*
X-31724110Y5595696D01*
X-31852718Y5622059D01*
X-31943204Y5639576D01*
X-32093439Y5664662D01*
X-32277291Y5691425D01*
X-32486130Y5718791D01*
X-32711329Y5745687D01*
X-32944260Y5771037D01*
X-33176294Y5793768D01*
X-33195675Y5795542D01*
X-33381934Y5812499D01*
X-33531951Y5637746D01*
X-33648152Y5499886D01*
X-33740789Y5383385D01*
X-33816013Y5279449D01*
X-33879971Y5179284D01*
X-33938813Y5074095D01*
X-33973719Y5005917D01*
X-34047665Y4840308D01*
X-34107609Y4665342D01*
X-34155745Y4472479D01*
X-34194273Y4253183D01*
X-34220195Y4048020D01*
X-34234436Y3907877D01*
X-34242647Y3796225D01*
X-34245061Y3699688D01*
X-37512547Y3699688D01*
X-38493325Y5217584D01*
X-38926541Y6283181D01*
X-5334000Y6283181D01*
X-5327077Y6271543D01*
X-5303701Y6267332D01*
X-5259964Y6271310D01*
X-5191958Y6284241D01*
X-5095773Y6306889D01*
X-4967501Y6340018D01*
X-4803234Y6384389D01*
X-4772034Y6392944D01*
X-4136253Y6576043D01*
X-3541471Y6764873D01*
X-2986700Y6959758D01*
X-2595045Y7110590D01*
X-2524477Y7139197D01*
X-2453822Y7168606D01*
X-2379209Y7200590D01*
X-2296765Y7236926D01*
X-2202618Y7279389D01*
X-2092894Y7329754D01*
X-1963722Y7389796D01*
X-1811230Y7461292D01*
X-1631544Y7546015D01*
X-1420793Y7645742D01*
X-1217083Y7742330D01*
X-1062575Y7814062D01*
X-888527Y7892285D01*
X-710260Y7970272D01*
X-543099Y8041299D01*
X-433916Y8086082D01*
X-41483Y8251385D01*
X349548Y8432120D01*
X744071Y8630958D01*
X1146979Y8850573D01*
X1563166Y9093636D01*
X1997527Y9362818D01*
X2454955Y9660794D01*
X2476500Y9675149D01*
X2698638Y9824177D01*
X2896107Y9958935D01*
X3074735Y10083939D01*
X3240352Y10203708D01*
X3398786Y10322759D01*
X3555867Y10445611D01*
X3717422Y10576781D01*
X3889282Y10720787D01*
X4077275Y10882148D01*
X4287229Y11065380D01*
X4413250Y11176301D01*
X4632902Y11369730D01*
X4827329Y11540133D01*
X5002749Y11692828D01*
X5165381Y11833132D01*
X5321446Y11966363D01*
X5477162Y12097839D01*
X5638748Y12232876D01*
X5812423Y12376792D01*
X5947834Y12488390D01*
X6145127Y12651283D01*
X6311564Y12790064D01*
X6449514Y12906848D01*
X6561350Y13003751D01*
X6649444Y13082891D01*
X6716166Y13146384D01*
X6763888Y13196345D01*
X6794982Y13234890D01*
X6807996Y13255967D01*
X6823012Y13305516D01*
X6827005Y13377783D01*
X6819577Y13476520D01*
X6800334Y13605480D01*
X6768879Y13768416D01*
X6739758Y13903018D01*
X6635795Y14324561D01*
X6521280Y14705527D01*
X6396038Y15046383D01*
X6259895Y15347594D01*
X6112676Y15609625D01*
X6082144Y15656983D01*
X6032757Y15722859D01*
X5961991Y15804980D01*
X5874309Y15899208D01*
X5774177Y16001411D01*
X5666060Y16107454D01*
X5554423Y16213201D01*
X5443731Y16314519D01*
X5338448Y16407273D01*
X5243040Y16487329D01*
X5161973Y16550551D01*
X5099710Y16592806D01*
X5060716Y16609959D01*
X5053634Y16609372D01*
X5031199Y16593843D01*
X4979561Y16554729D01*
X4902477Y16495017D01*
X4803702Y16417691D01*
X4686992Y16325737D01*
X4556101Y16222142D01*
X4414785Y16109889D01*
X4266799Y15991964D01*
X4115899Y15871353D01*
X3965840Y15751042D01*
X3820377Y15634015D01*
X3683267Y15523258D01*
X3558263Y15421757D01*
X3503084Y15376726D01*
X3008726Y14966730D01*
X2542869Y14568646D01*
X2202981Y14269572D01*
X2082057Y14161666D01*
X1953954Y14047338D01*
X1828303Y13935184D01*
X1714734Y13833801D01*
X1622878Y13751784D01*
X1620898Y13750016D01*
X1502463Y13645158D01*
X1356946Y13517954D01*
X1183314Y13367513D01*
X980531Y13192943D01*
X747564Y12993350D01*
X483377Y12767843D01*
X401152Y12697792D01*
X183927Y12508304D01*
X-55167Y12291716D01*
X-310779Y12053350D01*
X-577560Y11798531D01*
X-850162Y11532582D01*
X-1123233Y11260826D01*
X-1391426Y10988588D01*
X-1649391Y10721190D01*
X-1891779Y10463956D01*
X-2113240Y10222211D01*
X-2308426Y10001277D01*
X-2308722Y10000934D01*
X-2491584Y9788799D01*
X-2650908Y9603068D01*
X-2791139Y9438380D01*
X-2916721Y9289373D01*
X-3032100Y9150684D01*
X-3141719Y9016951D01*
X-3250023Y8882813D01*
X-3361456Y8742908D01*
X-3480463Y8591873D01*
X-3545374Y8509000D01*
X-3693588Y8320320D01*
X-3834607Y8142737D01*
X-3973669Y7969858D01*
X-4116015Y7795284D01*
X-4266886Y7612621D01*
X-4431520Y7415471D01*
X-4615159Y7197438D01*
X-4759203Y7027334D01*
X-4901079Y6858488D01*
X-5026255Y6706285D01*
X-5132797Y6573228D01*
X-5218773Y6461820D01*
X-5282251Y6374561D01*
X-5321296Y6313955D01*
X-5334000Y6283181D01*
X-38926541Y6283181D01*
X-38992430Y6445250D01*
X-39491535Y7672917D01*
X-39688497Y8665734D01*
X-39885458Y9658552D01*
X-39850496Y11353901D01*
X-39843988Y11652952D01*
X-39836557Y11965628D01*
X-39828392Y12285453D01*
X-39819683Y12605955D01*
X-39810620Y12920661D01*
X-39801393Y13223097D01*
X-39792191Y13506790D01*
X-39783206Y13765267D01*
X-39774625Y13992053D01*
X-39769409Y14118167D01*
X-39723285Y15187084D01*
X-39474732Y15917334D01*
X-39428297Y16051478D01*
X-39368478Y16220611D01*
X-39296950Y16420158D01*
X-39215389Y16645545D01*
X-39125471Y16892195D01*
X-39028871Y17155535D01*
X-38927265Y17430988D01*
X-38822329Y17713981D01*
X-38715737Y17999938D01*
X-38609166Y18284284D01*
X-38559964Y18415000D01*
X-37893748Y20182417D01*
X-36915017Y22140334D01*
X-35936285Y24098250D01*
X-34848807Y25638360D01*
X-33761330Y27178469D01*
X-32454040Y28738100D01*
X-31146750Y30297730D01*
X-29807563Y31555267D01*
X-28468375Y32812805D01*
X-27486908Y33503778D01*
X-26505441Y34194750D01*
X-25614107Y35649690D01*
X-22235583Y38544342D01*
X-20986750Y39325012D01*
X-20543920Y39599428D01*
X-20068967Y39889091D01*
X-19560696Y40194717D01*
X-19017911Y40517020D01*
X-18439419Y40856714D01*
X-17896416Y41172593D01*
X-16054916Y42239503D01*
X-14636750Y42897869D01*
X-13218583Y43556234D01*
X-10960564Y44448335D01*
X-8702546Y45340436D01*
X-7161148Y45647410D01*
X-5619750Y45954385D01*
X-4254500Y46036439D01*
X-4003823Y46051339D01*
X-3754604Y46065839D01*
X-3511929Y46079662D01*
X-3280883Y46092533D01*
X-3066552Y46104175D01*
X-2874023Y46114312D01*
X-2708381Y46122668D01*
X-2574713Y46128967D01*
X-2478103Y46132933D01*
X-2476500Y46132989D01*
X-2063750Y46147485D01*
X-1227666Y46387563D01*
X-391583Y46627640D01*
X931334Y46705846D01*
X1198207Y46721759D01*
X1427659Y46735482D01*
X1624548Y46746924D01*
X1793735Y46755995D01*
X1940078Y46762606D01*
X2068438Y46766665D01*
X2183673Y46768083D01*
X2290643Y46766770D01*
X2290643Y46766770D01*
G37*
X2290643Y46766770D02*
X2394208Y46762635D01*
X2499227Y46755589D01*
X2610560Y46745540D01*
X2733065Y46732399D01*
X2871603Y46716076D01*
X3031033Y46696481D01*
X3216214Y46673522D01*
X3312584Y46661661D01*
X3472941Y46642043D01*
X3666070Y46618481D01*
X3882709Y46592098D01*
X4113602Y46564022D01*
X4349490Y46535378D01*
X4581114Y46507292D01*
X4786897Y46482380D01*
X5668543Y46375746D01*
X7263397Y45891653D01*
X8858250Y45407561D01*
X11313584Y43950885D01*
X12435417Y43034460D01*
X13557250Y42118036D01*
X14364338Y41240902D01*
X15171426Y40363767D01*
X15770876Y39470671D01*
X16370326Y38577576D01*
X16777488Y37682762D01*
X17184651Y36787948D01*
X17702719Y35216182D01*
X18220787Y33644417D01*
X18585382Y31496000D01*
X18949978Y29347584D01*
X18903947Y28067000D01*
X18887276Y27562224D01*
X18874694Y27084035D01*
X18865925Y26616911D01*
X18860693Y26145332D01*
X18858722Y25653776D01*
X18858709Y25522781D01*
X18859500Y24259144D01*
X18499850Y21118828D01*
X18160679Y19469802D01*
X18098517Y19167770D01*
X18043782Y18902674D01*
X17995402Y18669977D01*
X17952306Y18465142D01*
X17913424Y18283633D01*
X17877684Y18120913D01*
X17844018Y17972445D01*
X17811352Y17833694D01*
X17778618Y17700122D01*
X17744744Y17567193D01*
X17708659Y17430371D01*
X17669293Y17285118D01*
X17625575Y17126899D01*
X17576434Y16951176D01*
X17520799Y16753413D01*
X17513127Y16726180D01*
X17456848Y16528626D01*
X17389645Y16296482D01*
X17313251Y16035554D01*
X17229401Y15751648D01*
X17139829Y15450572D01*
X17046268Y15138131D01*
X16950452Y14820131D01*
X16854116Y14502380D01*
X16758993Y14190683D01*
X16666817Y13890847D01*
X16655308Y13853584D01*
X16105869Y12075584D01*
X15653210Y10996084D01*
X15548049Y10744756D01*
X15431159Y10464457D01*
X15306783Y10165418D01*
X15179165Y9857873D01*
X15052548Y9552054D01*
X14931175Y9258194D01*
X14819289Y8986526D01*
X14755541Y8831274D01*
X14310530Y7745963D01*
X13612345Y6587402D01*
X12914159Y5428840D01*
X12050371Y4582016D01*
X11854260Y4390889D01*
X11634477Y4178667D01*
X11398728Y3952671D01*
X11154718Y3720223D01*
X10910153Y3488645D01*
X10672739Y3265259D01*
X10450182Y3057387D01*
X10279647Y2899471D01*
X9372711Y2063750D01*
X8025397Y1225068D01*
X6678084Y386385D01*
X5921375Y-284431D01*
X5746960Y-439141D01*
X5601621Y-568442D01*
X5482708Y-674955D01*
X5387572Y-761302D01*
X5313564Y-830103D01*
X5258035Y-883979D01*
X5218335Y-925553D01*
X5191817Y-957443D01*
X5175830Y-982273D01*
X5167725Y-1002662D01*
X5164854Y-1021231D01*
X5164539Y-1033248D01*
X5163336Y-1072398D01*
X5159976Y-1148340D01*
X5154739Y-1255600D01*
X5147903Y-1388707D01*
X5139750Y-1542188D01*
X5130560Y-1710572D01*
X5122662Y-1852083D01*
X5080912Y-2592916D01*
X4714236Y-3551294D01*
X4097638Y-3743420D01*
X3481039Y-3935546D01*
X1703917Y-3960684D01*
X149189Y-3791737D01*
X-1405540Y-3622790D01*
X-4335286Y-4405218D01*
X-4739968Y-4513275D01*
X-5105893Y-4610921D01*
X-5435197Y-4698690D01*
X-5730016Y-4777119D01*
X-5992487Y-4846743D01*
X-6224745Y-4908096D01*
X-6428928Y-4961715D01*
X-6607170Y-5008135D01*
X-6761610Y-5047891D01*
X-6894382Y-5081519D01*
X-7007623Y-5109553D01*
X-7103469Y-5132530D01*
X-7184057Y-5150985D01*
X-7251523Y-5165453D01*
X-7308003Y-5176469D01*
X-7355633Y-5184570D01*
X-7396549Y-5190289D01*
X-7432889Y-5194163D01*
X-7466787Y-5196728D01*
X-7500381Y-5198517D01*
X-7500725Y-5198533D01*
X-7551170Y-5200448D01*
X-7641145Y-5203392D01*
X-7767862Y-5207287D01*
X-7928531Y-5212054D01*
X-8120363Y-5217615D01*
X-8340569Y-5223892D01*
X-8586362Y-5230805D01*
X-8854951Y-5238278D01*
X-9143548Y-5246230D01*
X-9449364Y-5254585D01*
X-9769610Y-5263262D01*
X-10101497Y-5272185D01*
X-10442237Y-5281275D01*
X-10466916Y-5281930D01*
X-13197416Y-5354441D01*
X-17443780Y-5312507D01*
X-17854785Y-5652618D01*
X-18265791Y-5992729D01*
X-18838612Y-6245448D01*
X-19411433Y-6498166D01*
X-20203583Y-6496452D01*
X-20732750Y-6177596D01*
X-21261916Y-5858741D01*
X-21558250Y-5277746D01*
X-21632507Y-5132908D01*
X-21701320Y-5000120D01*
X-21762173Y-4884126D01*
X-21812547Y-4789675D01*
X-21849925Y-4721511D01*
X-21871789Y-4684382D01*
X-21875750Y-4679176D01*
X-21900708Y-4670531D01*
X-21962116Y-4653873D01*
X-22055100Y-4630390D01*
X-22174789Y-4601271D01*
X-22316310Y-4567705D01*
X-22474791Y-4530878D01*
X-22616583Y-4498493D01*
X-22768991Y-4463570D01*
X-22956343Y-4420012D01*
X-23172472Y-4369285D01*
X-23411212Y-4312855D01*
X-23666397Y-4252187D01*
X-23931860Y-4188746D01*
X-24201434Y-4124000D01*
X-24468953Y-4059413D01*
X-24712083Y-4000389D01*
X-26087916Y-3665393D01*
X-27146250Y-3273358D01*
X-27329026Y-3205599D01*
X-27492379Y-3144787D01*
X-27640115Y-3089303D01*
X-27776036Y-3037527D01*
X-27903949Y-2987839D01*
X-28027658Y-2938619D01*
X-28150967Y-2888249D01*
X-28277681Y-2835108D01*
X-28411604Y-2777577D01*
X-28556542Y-2714036D01*
X-28716299Y-2642865D01*
X-28894679Y-2562445D01*
X-29095487Y-2471156D01*
X-29322528Y-2367379D01*
X-29579606Y-2249494D01*
X-29870526Y-2115881D01*
X-29937365Y-2085172D01*
X-31670146Y-1289021D01*
X-32752531Y-459824D01*
X-32970872Y-293452D01*
X-33203708Y-117655D01*
X-33444691Y62873D01*
X-33687474Y243436D01*
X-33925708Y419341D01*
X-34153046Y585891D01*
X-34363139Y738392D01*
X-34549640Y872150D01*
X-34639250Y935596D01*
X-35443583Y1501819D01*
X-36455578Y2565952D01*
X-37467573Y3630084D01*
X-37512547Y3699688D01*
X-34245061Y3699688D01*
X-34241916Y3604891D01*
X-34233446Y3498456D01*
X-34230424Y3467457D01*
X-34167369Y3045330D01*
X-34063765Y2627222D01*
X-33921341Y2219260D01*
X-33799790Y1943659D01*
X-33670219Y1674436D01*
X-33265734Y1576930D01*
X-32958354Y1503440D01*
X-32686792Y1439950D01*
X-32445986Y1385468D01*
X-32230874Y1338998D01*
X-32036394Y1299548D01*
X-31857483Y1266123D01*
X-31689079Y1237730D01*
X-31526121Y1213375D01*
X-31363544Y1192064D01*
X-31220833Y1175486D01*
X-31089008Y1161998D01*
X-30919639Y1146345D01*
X-30717443Y1128887D01*
X-30487134Y1109980D01*
X-30233428Y1089985D01*
X-29961040Y1069258D01*
X-29674685Y1048158D01*
X-29379078Y1027044D01*
X-29078934Y1006273D01*
X-28778969Y986204D01*
X-28483898Y967196D01*
X-28458583Y965602D01*
X-28396487Y963319D01*
X-28296555Y961683D01*
X-28163280Y960654D01*
X-28001155Y960195D01*
X-27814672Y960267D01*
X-27608324Y960832D01*
X-27386602Y961851D01*
X-27154000Y963286D01*
X-26915010Y965098D01*
X-26674123Y967249D01*
X-26435834Y969701D01*
X-26204634Y972415D01*
X-25985015Y975352D01*
X-25781471Y978475D01*
X-25598493Y981745D01*
X-25440574Y985122D01*
X-25312206Y988570D01*
X-25217882Y992049D01*
X-25188333Y993579D01*
X-24725041Y1024708D01*
X-24294863Y1061512D01*
X-23888807Y1105291D01*
X-23497883Y1157345D01*
X-23113098Y1218972D01*
X-22725459Y1291473D01*
X-22325976Y1376146D01*
X-21971000Y1458512D01*
X-21840568Y1490302D01*
X-21690760Y1527607D01*
X-21526572Y1569112D01*
X-21353006Y1613502D01*
X-21175059Y1659462D01*
X-20997732Y1705676D01*
X-20826022Y1750830D01*
X-20664930Y1793609D01*
X-20519453Y1832697D01*
X-20394592Y1866779D01*
X-20295346Y1894540D01*
X-20226713Y1914665D01*
X-20193692Y1925839D01*
X-20192679Y1926339D01*
X-20160911Y1953834D01*
X-20155173Y1975225D01*
X-20180244Y2001428D01*
X-20242713Y2040468D01*
X-20339974Y2091343D01*
X-20469419Y2153048D01*
X-20628441Y2224579D01*
X-20814432Y2304933D01*
X-21024785Y2393105D01*
X-21256892Y2488092D01*
X-21508147Y2588889D01*
X-21775941Y2694492D01*
X-22057668Y2803898D01*
X-22350719Y2916103D01*
X-22652488Y3030103D01*
X-22960367Y3144893D01*
X-23271749Y3259470D01*
X-23584026Y3372830D01*
X-23894591Y3483969D01*
X-24200837Y3591882D01*
X-24500156Y3695567D01*
X-24789940Y3794019D01*
X-25067583Y3886233D01*
X-25330476Y3971207D01*
X-25378833Y3986542D01*
X-25469128Y4014319D01*
X-25595309Y4052016D01*
X-25752470Y4098237D01*
X-25935706Y4151590D01*
X-26140110Y4210677D01*
X-26360775Y4274104D01*
X-26592796Y4340477D01*
X-26831265Y4408400D01*
X-27071277Y4476478D01*
X-27307926Y4543316D01*
X-27536304Y4607519D01*
X-27751506Y4667693D01*
X-27948625Y4722441D01*
X-28122756Y4770369D01*
X-28268991Y4810083D01*
X-28366282Y4835968D01*
X-28466386Y4861319D01*
X-28602295Y4894378D01*
X-28769472Y4934125D01*
X-28963381Y4979540D01*
X-29179485Y5029604D01*
X-29413249Y5083299D01*
X-29660135Y5139605D01*
X-29915607Y5197503D01*
X-30175129Y5255974D01*
X-30434164Y5313999D01*
X-30688175Y5370557D01*
X-30932627Y5424631D01*
X-31162983Y5475202D01*
X-31374707Y5521248D01*
X-31563261Y5561753D01*
X-31724110Y5595696D01*
X-31852718Y5622059D01*
X-31943204Y5639576D01*
X-32093439Y5664662D01*
X-32277291Y5691425D01*
X-32486130Y5718791D01*
X-32711329Y5745687D01*
X-32944260Y5771037D01*
X-33176294Y5793768D01*
X-33195675Y5795542D01*
X-33381934Y5812499D01*
X-33531951Y5637746D01*
X-33648152Y5499886D01*
X-33740789Y5383385D01*
X-33816013Y5279449D01*
X-33879971Y5179284D01*
X-33938813Y5074095D01*
X-33973719Y5005917D01*
X-34047665Y4840308D01*
X-34107609Y4665342D01*
X-34155745Y4472479D01*
X-34194273Y4253183D01*
X-34220195Y4048020D01*
X-34234436Y3907877D01*
X-34242647Y3796225D01*
X-34245061Y3699688D01*
X-37512547Y3699688D01*
X-38493325Y5217584D01*
X-38926541Y6283181D01*
X-5334000Y6283181D01*
X-5327077Y6271543D01*
X-5303701Y6267332D01*
X-5259964Y6271310D01*
X-5191958Y6284241D01*
X-5095773Y6306889D01*
X-4967501Y6340018D01*
X-4803234Y6384389D01*
X-4772034Y6392944D01*
X-4136253Y6576043D01*
X-3541471Y6764873D01*
X-2986700Y6959758D01*
X-2595045Y7110590D01*
X-2524477Y7139197D01*
X-2453822Y7168606D01*
X-2379209Y7200590D01*
X-2296765Y7236926D01*
X-2202618Y7279389D01*
X-2092894Y7329754D01*
X-1963722Y7389796D01*
X-1811230Y7461292D01*
X-1631544Y7546015D01*
X-1420793Y7645742D01*
X-1217083Y7742330D01*
X-1062575Y7814062D01*
X-888527Y7892285D01*
X-710260Y7970272D01*
X-543099Y8041299D01*
X-433916Y8086082D01*
X-41483Y8251385D01*
X349548Y8432120D01*
X744071Y8630958D01*
X1146979Y8850573D01*
X1563166Y9093636D01*
X1997527Y9362818D01*
X2454955Y9660794D01*
X2476500Y9675149D01*
X2698638Y9824177D01*
X2896107Y9958935D01*
X3074735Y10083939D01*
X3240352Y10203708D01*
X3398786Y10322759D01*
X3555867Y10445611D01*
X3717422Y10576781D01*
X3889282Y10720787D01*
X4077275Y10882148D01*
X4287229Y11065380D01*
X4413250Y11176301D01*
X4632902Y11369730D01*
X4827329Y11540133D01*
X5002749Y11692828D01*
X5165381Y11833132D01*
X5321446Y11966363D01*
X5477162Y12097839D01*
X5638748Y12232876D01*
X5812423Y12376792D01*
X5947834Y12488390D01*
X6145127Y12651283D01*
X6311564Y12790064D01*
X6449514Y12906848D01*
X6561350Y13003751D01*
X6649444Y13082891D01*
X6716166Y13146384D01*
X6763888Y13196345D01*
X6794982Y13234890D01*
X6807996Y13255967D01*
X6823012Y13305516D01*
X6827005Y13377783D01*
X6819577Y13476520D01*
X6800334Y13605480D01*
X6768879Y13768416D01*
X6739758Y13903018D01*
X6635795Y14324561D01*
X6521280Y14705527D01*
X6396038Y15046383D01*
X6259895Y15347594D01*
X6112676Y15609625D01*
X6082144Y15656983D01*
X6032757Y15722859D01*
X5961991Y15804980D01*
X5874309Y15899208D01*
X5774177Y16001411D01*
X5666060Y16107454D01*
X5554423Y16213201D01*
X5443731Y16314519D01*
X5338448Y16407273D01*
X5243040Y16487329D01*
X5161973Y16550551D01*
X5099710Y16592806D01*
X5060716Y16609959D01*
X5053634Y16609372D01*
X5031199Y16593843D01*
X4979561Y16554729D01*
X4902477Y16495017D01*
X4803702Y16417691D01*
X4686992Y16325737D01*
X4556101Y16222142D01*
X4414785Y16109889D01*
X4266799Y15991964D01*
X4115899Y15871353D01*
X3965840Y15751042D01*
X3820377Y15634015D01*
X3683267Y15523258D01*
X3558263Y15421757D01*
X3503084Y15376726D01*
X3008726Y14966730D01*
X2542869Y14568646D01*
X2202981Y14269572D01*
X2082057Y14161666D01*
X1953954Y14047338D01*
X1828303Y13935184D01*
X1714734Y13833801D01*
X1622878Y13751784D01*
X1620898Y13750016D01*
X1502463Y13645158D01*
X1356946Y13517954D01*
X1183314Y13367513D01*
X980531Y13192943D01*
X747564Y12993350D01*
X483377Y12767843D01*
X401152Y12697792D01*
X183927Y12508304D01*
X-55167Y12291716D01*
X-310779Y12053350D01*
X-577560Y11798531D01*
X-850162Y11532582D01*
X-1123233Y11260826D01*
X-1391426Y10988588D01*
X-1649391Y10721190D01*
X-1891779Y10463956D01*
X-2113240Y10222211D01*
X-2308426Y10001277D01*
X-2308722Y10000934D01*
X-2491584Y9788799D01*
X-2650908Y9603068D01*
X-2791139Y9438380D01*
X-2916721Y9289373D01*
X-3032100Y9150684D01*
X-3141719Y9016951D01*
X-3250023Y8882813D01*
X-3361456Y8742908D01*
X-3480463Y8591873D01*
X-3545374Y8509000D01*
X-3693588Y8320320D01*
X-3834607Y8142737D01*
X-3973669Y7969858D01*
X-4116015Y7795284D01*
X-4266886Y7612621D01*
X-4431520Y7415471D01*
X-4615159Y7197438D01*
X-4759203Y7027334D01*
X-4901079Y6858488D01*
X-5026255Y6706285D01*
X-5132797Y6573228D01*
X-5218773Y6461820D01*
X-5282251Y6374561D01*
X-5321296Y6313955D01*
X-5334000Y6283181D01*
X-38926541Y6283181D01*
X-38992430Y6445250D01*
X-39491535Y7672917D01*
X-39688497Y8665734D01*
X-39885458Y9658552D01*
X-39850496Y11353901D01*
X-39843988Y11652952D01*
X-39836557Y11965628D01*
X-39828392Y12285453D01*
X-39819683Y12605955D01*
X-39810620Y12920661D01*
X-39801393Y13223097D01*
X-39792191Y13506790D01*
X-39783206Y13765267D01*
X-39774625Y13992053D01*
X-39769409Y14118167D01*
X-39723285Y15187084D01*
X-39474732Y15917334D01*
X-39428297Y16051478D01*
X-39368478Y16220611D01*
X-39296950Y16420158D01*
X-39215389Y16645545D01*
X-39125471Y16892195D01*
X-39028871Y17155535D01*
X-38927265Y17430988D01*
X-38822329Y17713981D01*
X-38715737Y17999938D01*
X-38609166Y18284284D01*
X-38559964Y18415000D01*
X-37893748Y20182417D01*
X-36915017Y22140334D01*
X-35936285Y24098250D01*
X-34848807Y25638360D01*
X-33761330Y27178469D01*
X-32454040Y28738100D01*
X-31146750Y30297730D01*
X-29807563Y31555267D01*
X-28468375Y32812805D01*
X-27486908Y33503778D01*
X-26505441Y34194750D01*
X-25614107Y35649690D01*
X-22235583Y38544342D01*
X-20986750Y39325012D01*
X-20543920Y39599428D01*
X-20068967Y39889091D01*
X-19560696Y40194717D01*
X-19017911Y40517020D01*
X-18439419Y40856714D01*
X-17896416Y41172593D01*
X-16054916Y42239503D01*
X-14636750Y42897869D01*
X-13218583Y43556234D01*
X-10960564Y44448335D01*
X-8702546Y45340436D01*
X-7161148Y45647410D01*
X-5619750Y45954385D01*
X-4254500Y46036439D01*
X-4003823Y46051339D01*
X-3754604Y46065839D01*
X-3511929Y46079662D01*
X-3280883Y46092533D01*
X-3066552Y46104175D01*
X-2874023Y46114312D01*
X-2708381Y46122668D01*
X-2574713Y46128967D01*
X-2478103Y46132933D01*
X-2476500Y46132989D01*
X-2063750Y46147485D01*
X-1227666Y46387563D01*
X-391583Y46627640D01*
X931334Y46705846D01*
X1198207Y46721759D01*
X1427659Y46735482D01*
X1624548Y46746924D01*
X1793735Y46755995D01*
X1940078Y46762606D01*
X2068438Y46766665D01*
X2183673Y46768083D01*
X2290643Y46766770D01*
G36*
X-39664837Y686581D02*
G01*
X-39527521Y684667D01*
X-39414910Y680704D01*
X-39318194Y674137D01*
X-39228564Y664410D01*
X-39137211Y650967D01*
X-39063083Y638258D01*
X-38705933Y557809D01*
X-38367177Y446205D01*
X-38041590Y300979D01*
X-37723945Y119665D01*
X-37409014Y-100205D01*
X-37275008Y-205688D01*
X-37149040Y-317937D01*
X-37059942Y-423902D01*
X-37004913Y-531878D01*
X-36981151Y-650161D01*
X-36985853Y-787046D01*
X-37016216Y-950826D01*
X-37019127Y-963083D01*
X-37082528Y-1191010D01*
X-37163019Y-1413840D01*
X-37263092Y-1635836D01*
X-37385238Y-1861257D01*
X-37531951Y-2094364D01*
X-37705723Y-2339419D01*
X-37909047Y-2600682D01*
X-38136375Y-2873055D01*
X-38269194Y-3030529D01*
X-38374162Y-3161353D01*
X-38453498Y-3268676D01*
X-38509423Y-3355643D01*
X-38544157Y-3425403D01*
X-38558193Y-3471005D01*
X-38556741Y-3537610D01*
X-38525667Y-3581085D01*
X-38471554Y-3600238D01*
X-38400985Y-3593875D01*
X-38320543Y-3560805D01*
X-38265565Y-3524021D01*
X-38218333Y-3482211D01*
X-38145548Y-3410886D01*
X-38049475Y-3312441D01*
X-37932379Y-3189269D01*
X-37796529Y-3043765D01*
X-37644188Y-2878324D01*
X-37477624Y-2695338D01*
X-37401500Y-2611089D01*
X-37263916Y-2458493D01*
X-37133431Y-2590316D01*
X-37071805Y-2656538D01*
X-37024786Y-2719346D01*
X-36988966Y-2787305D01*
X-36960935Y-2868978D01*
X-36937286Y-2972929D01*
X-36914610Y-3107722D01*
X-36906893Y-3159517D01*
X-36882041Y-3296632D01*
X-36852882Y-3392900D01*
X-36818270Y-3449690D01*
X-36777061Y-3468369D01*
X-36728107Y-3450306D01*
X-36690290Y-3418214D01*
X-36622579Y-3321757D01*
X-36582156Y-3199061D01*
X-36570006Y-3057053D01*
X-36587112Y-2902665D01*
X-36606134Y-2825750D01*
X-36643203Y-2717464D01*
X-36691428Y-2603090D01*
X-36745666Y-2492624D01*
X-36800775Y-2396061D01*
X-36851611Y-2323397D01*
X-36879837Y-2293792D01*
X-36925964Y-2246836D01*
X-36956113Y-2200968D01*
X-36959271Y-2192388D01*
X-36964780Y-2127422D01*
X-36956004Y-2030302D01*
X-36934259Y-1908231D01*
X-36900860Y-1768409D01*
X-36857122Y-1618037D01*
X-36850743Y-1598083D01*
X-36809992Y-1468573D01*
X-36765806Y-1322707D01*
X-36724529Y-1181659D01*
X-36701733Y-1100666D01*
X-36661237Y-959249D01*
X-36625723Y-854271D01*
X-36591080Y-780823D01*
X-36553201Y-733999D01*
X-36507976Y-708890D01*
X-36451297Y-700590D01*
X-36379055Y-704190D01*
X-36370502Y-705048D01*
X-36215503Y-741391D01*
X-36072774Y-817362D01*
X-35941918Y-933302D01*
X-35822535Y-1089555D01*
X-35728405Y-1257113D01*
X-35642133Y-1452139D01*
X-35582042Y-1639129D01*
X-35544150Y-1833794D01*
X-35524477Y-2051847D01*
X-35523859Y-2064512D01*
X-35519950Y-2271253D01*
X-35529972Y-2461751D01*
X-35555967Y-2642817D01*
X-35599981Y-2821261D01*
X-35664056Y-3003892D01*
X-35750234Y-3197520D01*
X-35860560Y-3408954D01*
X-35997077Y-3645004D01*
X-35999116Y-3648402D01*
X-36139421Y-3870118D01*
X-36280287Y-4065719D01*
X-36433225Y-4249985D01*
X-36609743Y-4437695D01*
X-36628558Y-4456646D01*
X-36911173Y-4720422D01*
X-37208708Y-4961077D01*
X-37516600Y-5175984D01*
X-37830281Y-5362516D01*
X-38145189Y-5518047D01*
X-38456756Y-5639948D01*
X-38760418Y-5725593D01*
X-38872583Y-5748049D01*
X-39030150Y-5770094D01*
X-39202210Y-5784448D01*
X-39376587Y-5790830D01*
X-39541103Y-5788957D01*
X-39683580Y-5778550D01*
X-39752105Y-5768344D01*
X-39871399Y-5741826D01*
X-40016970Y-5703583D01*
X-40175756Y-5657525D01*
X-40334696Y-5607563D01*
X-40480727Y-5557610D01*
X-40576500Y-5521475D01*
X-40845993Y-5392627D01*
X-41086709Y-5232909D01*
X-41298677Y-5042271D01*
X-41481925Y-4820665D01*
X-41636484Y-4568042D01*
X-41762382Y-4284354D01*
X-41859649Y-3969552D01*
X-41928313Y-3623588D01*
X-41968404Y-3246412D01*
X-41971447Y-3196373D01*
X-41979523Y-2995714D01*
X-41980798Y-2794816D01*
X-41974798Y-2588355D01*
X-41961047Y-2371007D01*
X-41939071Y-2137448D01*
X-41908395Y-1882355D01*
X-41868544Y-1600402D01*
X-41819044Y-1286267D01*
X-41780791Y-1058333D01*
X-41752746Y-890640D01*
X-41726647Y-727263D01*
X-41703562Y-575449D01*
X-41684557Y-442449D01*
X-41670696Y-335512D01*
X-41663048Y-261887D01*
X-41662492Y-254000D01*
X-41657923Y-163528D01*
X-41659181Y-103834D01*
X-41667865Y-63572D01*
X-41685574Y-31397D01*
X-41695750Y-17990D01*
X-41748131Y29509D01*
X-41805569Y60818D01*
X-41855734Y72480D01*
X-41892600Y58859D01*
X-41920429Y33829D01*
X-41951154Y-8243D01*
X-41981897Y-74317D01*
X-42013277Y-166946D01*
X-42045911Y-288684D01*
X-42080418Y-442085D01*
X-42117416Y-629704D01*
X-42157525Y-854094D01*
X-42201362Y-1117808D01*
X-42205421Y-1143000D01*
X-42241488Y-1376870D01*
X-42277997Y-1631043D01*
X-42313363Y-1893349D01*
X-42346000Y-2151617D01*
X-42374324Y-2393674D01*
X-42396748Y-2607350D01*
X-42398413Y-2624666D01*
X-42414455Y-3009014D01*
X-42390953Y-3402936D01*
X-42328634Y-3802949D01*
X-42228223Y-4205568D01*
X-42090446Y-4607312D01*
X-41916029Y-5004695D01*
X-41892795Y-5051675D01*
X-41842394Y-5153615D01*
X-41810190Y-5224840D01*
X-41795045Y-5272296D01*
X-41795819Y-5302929D01*
X-41811377Y-5323684D01*
X-41840578Y-5341507D01*
X-41844933Y-5343773D01*
X-41891833Y-5362642D01*
X-41968234Y-5387604D01*
X-42062440Y-5415012D01*
X-42137052Y-5434805D01*
X-42213128Y-5453563D01*
X-42279191Y-5467771D01*
X-42343009Y-5478058D01*
X-42412354Y-5485054D01*
X-42494994Y-5489388D01*
X-42598700Y-5491690D01*
X-42731243Y-5492590D01*
X-42851916Y-5492723D01*
X-43107271Y-5489575D01*
X-43327346Y-5478711D01*
X-43518818Y-5458045D01*
X-43688367Y-5425491D01*
X-43842669Y-5378964D01*
X-43988402Y-5316378D01*
X-44132243Y-5235648D01*
X-44280871Y-5134687D01*
X-44440963Y-5011410D01*
X-44471166Y-4986971D01*
X-44764393Y-4722533D01*
X-45029460Y-4430738D01*
X-45263641Y-4115649D01*
X-45464211Y-3781328D01*
X-45628443Y-3431835D01*
X-45751246Y-3079439D01*
X-45779511Y-2979171D01*
X-45803097Y-2887235D01*
X-45822515Y-2798348D01*
X-45838275Y-2707228D01*
X-45850887Y-2608594D01*
X-45860863Y-2497164D01*
X-45868711Y-2367655D01*
X-45874943Y-2214786D01*
X-45880068Y-2033275D01*
X-45884598Y-1817840D01*
X-45887206Y-1672166D01*
X-45891357Y-1444466D01*
X-45895530Y-1255595D01*
X-45900109Y-1102052D01*
X-45905478Y-980335D01*
X-45912019Y-886943D01*
X-45920117Y-818372D01*
X-45930156Y-771121D01*
X-45942519Y-741689D01*
X-45957589Y-726573D01*
X-45975752Y-722271D01*
X-45991100Y-723932D01*
X-46021526Y-748028D01*
X-46059829Y-805749D01*
X-46102666Y-889900D01*
X-46146693Y-993284D01*
X-46188566Y-1108708D01*
X-46223750Y-1224583D01*
X-46241977Y-1293729D01*
X-46255734Y-1354714D01*
X-46265647Y-1415173D01*
X-46272341Y-1482743D01*
X-46276442Y-1565062D01*
X-46278574Y-1669767D01*
X-46279363Y-1804495D01*
X-46279452Y-1905000D01*
X-46279107Y-2064132D01*
X-46277610Y-2189607D01*
X-46274278Y-2290101D01*
X-46268428Y-2374286D01*
X-46259375Y-2450838D01*
X-46246437Y-2528429D01*
X-46228931Y-2615735D01*
X-46220261Y-2656416D01*
X-46137533Y-2983766D01*
X-46030395Y-3316379D01*
X-45903003Y-3644171D01*
X-45759514Y-3957056D01*
X-45604082Y-4244949D01*
X-45491849Y-4424043D01*
X-45416297Y-4531024D01*
X-45324050Y-4653008D01*
X-45227393Y-4774139D01*
X-45147654Y-4868333D01*
X-45018654Y-5018000D01*
X-44915026Y-5144583D01*
X-44837936Y-5246525D01*
X-44788552Y-5322267D01*
X-44768037Y-5370254D01*
X-44767500Y-5376070D01*
X-44776671Y-5414639D01*
X-44806242Y-5446813D01*
X-44859294Y-5473191D01*
X-44938912Y-5494375D01*
X-45048178Y-5510964D01*
X-45190176Y-5523559D01*
X-45367988Y-5532759D01*
X-45584699Y-5539165D01*
X-45607815Y-5539658D01*
X-45935491Y-5541729D01*
X-46230203Y-5532856D01*
X-46500150Y-5511981D01*
X-46753531Y-5478044D01*
X-46998545Y-5429985D01*
X-47243391Y-5366744D01*
X-47455666Y-5300871D01*
X-47767069Y-5185562D01*
X-48042931Y-5056304D01*
X-48288911Y-4908882D01*
X-48510667Y-4739084D01*
X-48713859Y-4542694D01*
X-48904143Y-4315500D01*
X-49045426Y-4116916D01*
X-49179397Y-3895793D01*
X-49308215Y-3644229D01*
X-49426867Y-3374118D01*
X-49530337Y-3097352D01*
X-49613613Y-2825825D01*
X-49647832Y-2688166D01*
X-49660145Y-2610545D01*
X-49670935Y-2497701D01*
X-49680068Y-2356724D01*
X-49687407Y-2194702D01*
X-49692817Y-2018723D01*
X-49696162Y-1835877D01*
X-49697306Y-1653251D01*
X-49696113Y-1477935D01*
X-49692448Y-1317017D01*
X-49686173Y-1177585D01*
X-49678636Y-1080738D01*
X-49644675Y-818837D01*
X-49599617Y-594936D01*
X-49543707Y-409560D01*
X-49477193Y-263237D01*
X-49400321Y-156496D01*
X-49313337Y-89864D01*
X-49216490Y-63867D01*
X-49202821Y-63500D01*
X-49168245Y-67168D01*
X-49098013Y-77516D01*
X-48998105Y-93559D01*
X-48874497Y-114312D01*
X-48733168Y-138788D01*
X-48580097Y-166004D01*
X-48572062Y-167452D01*
X-48226462Y-226321D01*
X-47906803Y-272920D01*
X-47601108Y-308308D01*
X-47297402Y-333549D01*
X-46983708Y-349704D01*
X-46648051Y-357834D01*
X-46407916Y-359321D01*
X-46069474Y-355694D01*
X-45739980Y-344162D01*
X-45414624Y-324013D01*
X-45088596Y-294533D01*
X-44757085Y-255010D01*
X-44415282Y-204730D01*
X-44058377Y-142981D01*
X-43681558Y-69049D01*
X-43280017Y17778D01*
X-42848943Y118214D01*
X-42383525Y232970D01*
X-42343354Y243122D01*
X-42083456Y308789D01*
X-41859744Y364962D01*
X-41667418Y412744D01*
X-41501680Y453239D01*
X-41357729Y487549D01*
X-41230766Y516777D01*
X-41115991Y542027D01*
X-41008605Y564400D01*
X-40903808Y584999D01*
X-40796801Y604929D01*
X-40682783Y625290D01*
X-40671750Y627228D01*
X-40556168Y646862D01*
X-40457032Y661671D01*
X-40364911Y672330D01*
X-40270378Y679514D01*
X-40164002Y683897D01*
X-40036355Y686151D01*
X-39878007Y686953D01*
X-39835666Y687003D01*
X-39664837Y686581D01*
X-39664837Y686581D01*
G37*
X-39664837Y686581D02*
X-39527521Y684667D01*
X-39414910Y680704D01*
X-39318194Y674137D01*
X-39228564Y664410D01*
X-39137211Y650967D01*
X-39063083Y638258D01*
X-38705933Y557809D01*
X-38367177Y446205D01*
X-38041590Y300979D01*
X-37723945Y119665D01*
X-37409014Y-100205D01*
X-37275008Y-205688D01*
X-37149040Y-317937D01*
X-37059942Y-423902D01*
X-37004913Y-531878D01*
X-36981151Y-650161D01*
X-36985853Y-787046D01*
X-37016216Y-950826D01*
X-37019127Y-963083D01*
X-37082528Y-1191010D01*
X-37163019Y-1413840D01*
X-37263092Y-1635836D01*
X-37385238Y-1861257D01*
X-37531951Y-2094364D01*
X-37705723Y-2339419D01*
X-37909047Y-2600682D01*
X-38136375Y-2873055D01*
X-38269194Y-3030529D01*
X-38374162Y-3161353D01*
X-38453498Y-3268676D01*
X-38509423Y-3355643D01*
X-38544157Y-3425403D01*
X-38558193Y-3471005D01*
X-38556741Y-3537610D01*
X-38525667Y-3581085D01*
X-38471554Y-3600238D01*
X-38400985Y-3593875D01*
X-38320543Y-3560805D01*
X-38265565Y-3524021D01*
X-38218333Y-3482211D01*
X-38145548Y-3410886D01*
X-38049475Y-3312441D01*
X-37932379Y-3189269D01*
X-37796529Y-3043765D01*
X-37644188Y-2878324D01*
X-37477624Y-2695338D01*
X-37401500Y-2611089D01*
X-37263916Y-2458493D01*
X-37133431Y-2590316D01*
X-37071805Y-2656538D01*
X-37024786Y-2719346D01*
X-36988966Y-2787305D01*
X-36960935Y-2868978D01*
X-36937286Y-2972929D01*
X-36914610Y-3107722D01*
X-36906893Y-3159517D01*
X-36882041Y-3296632D01*
X-36852882Y-3392900D01*
X-36818270Y-3449690D01*
X-36777061Y-3468369D01*
X-36728107Y-3450306D01*
X-36690290Y-3418214D01*
X-36622579Y-3321757D01*
X-36582156Y-3199061D01*
X-36570006Y-3057053D01*
X-36587112Y-2902665D01*
X-36606134Y-2825750D01*
X-36643203Y-2717464D01*
X-36691428Y-2603090D01*
X-36745666Y-2492624D01*
X-36800775Y-2396061D01*
X-36851611Y-2323397D01*
X-36879837Y-2293792D01*
X-36925964Y-2246836D01*
X-36956113Y-2200968D01*
X-36959271Y-2192388D01*
X-36964780Y-2127422D01*
X-36956004Y-2030302D01*
X-36934259Y-1908231D01*
X-36900860Y-1768409D01*
X-36857122Y-1618037D01*
X-36850743Y-1598083D01*
X-36809992Y-1468573D01*
X-36765806Y-1322707D01*
X-36724529Y-1181659D01*
X-36701733Y-1100666D01*
X-36661237Y-959249D01*
X-36625723Y-854271D01*
X-36591080Y-780823D01*
X-36553201Y-733999D01*
X-36507976Y-708890D01*
X-36451297Y-700590D01*
X-36379055Y-704190D01*
X-36370502Y-705048D01*
X-36215503Y-741391D01*
X-36072774Y-817362D01*
X-35941918Y-933302D01*
X-35822535Y-1089555D01*
X-35728405Y-1257113D01*
X-35642133Y-1452139D01*
X-35582042Y-1639129D01*
X-35544150Y-1833794D01*
X-35524477Y-2051847D01*
X-35523859Y-2064512D01*
X-35519950Y-2271253D01*
X-35529972Y-2461751D01*
X-35555967Y-2642817D01*
X-35599981Y-2821261D01*
X-35664056Y-3003892D01*
X-35750234Y-3197520D01*
X-35860560Y-3408954D01*
X-35997077Y-3645004D01*
X-35999116Y-3648402D01*
X-36139421Y-3870118D01*
X-36280287Y-4065719D01*
X-36433225Y-4249985D01*
X-36609743Y-4437695D01*
X-36628558Y-4456646D01*
X-36911173Y-4720422D01*
X-37208708Y-4961077D01*
X-37516600Y-5175984D01*
X-37830281Y-5362516D01*
X-38145189Y-5518047D01*
X-38456756Y-5639948D01*
X-38760418Y-5725593D01*
X-38872583Y-5748049D01*
X-39030150Y-5770094D01*
X-39202210Y-5784448D01*
X-39376587Y-5790830D01*
X-39541103Y-5788957D01*
X-39683580Y-5778550D01*
X-39752105Y-5768344D01*
X-39871399Y-5741826D01*
X-40016970Y-5703583D01*
X-40175756Y-5657525D01*
X-40334696Y-5607563D01*
X-40480727Y-5557610D01*
X-40576500Y-5521475D01*
X-40845993Y-5392627D01*
X-41086709Y-5232909D01*
X-41298677Y-5042271D01*
X-41481925Y-4820665D01*
X-41636484Y-4568042D01*
X-41762382Y-4284354D01*
X-41859649Y-3969552D01*
X-41928313Y-3623588D01*
X-41968404Y-3246412D01*
X-41971447Y-3196373D01*
X-41979523Y-2995714D01*
X-41980798Y-2794816D01*
X-41974798Y-2588355D01*
X-41961047Y-2371007D01*
X-41939071Y-2137448D01*
X-41908395Y-1882355D01*
X-41868544Y-1600402D01*
X-41819044Y-1286267D01*
X-41780791Y-1058333D01*
X-41752746Y-890640D01*
X-41726647Y-727263D01*
X-41703562Y-575449D01*
X-41684557Y-442449D01*
X-41670696Y-335512D01*
X-41663048Y-261887D01*
X-41662492Y-254000D01*
X-41657923Y-163528D01*
X-41659181Y-103834D01*
X-41667865Y-63572D01*
X-41685574Y-31397D01*
X-41695750Y-17990D01*
X-41748131Y29509D01*
X-41805569Y60818D01*
X-41855734Y72480D01*
X-41892600Y58859D01*
X-41920429Y33829D01*
X-41951154Y-8243D01*
X-41981897Y-74317D01*
X-42013277Y-166946D01*
X-42045911Y-288684D01*
X-42080418Y-442085D01*
X-42117416Y-629704D01*
X-42157525Y-854094D01*
X-42201362Y-1117808D01*
X-42205421Y-1143000D01*
X-42241488Y-1376870D01*
X-42277997Y-1631043D01*
X-42313363Y-1893349D01*
X-42346000Y-2151617D01*
X-42374324Y-2393674D01*
X-42396748Y-2607350D01*
X-42398413Y-2624666D01*
X-42414455Y-3009014D01*
X-42390953Y-3402936D01*
X-42328634Y-3802949D01*
X-42228223Y-4205568D01*
X-42090446Y-4607312D01*
X-41916029Y-5004695D01*
X-41892795Y-5051675D01*
X-41842394Y-5153615D01*
X-41810190Y-5224840D01*
X-41795045Y-5272296D01*
X-41795819Y-5302929D01*
X-41811377Y-5323684D01*
X-41840578Y-5341507D01*
X-41844933Y-5343773D01*
X-41891833Y-5362642D01*
X-41968234Y-5387604D01*
X-42062440Y-5415012D01*
X-42137052Y-5434805D01*
X-42213128Y-5453563D01*
X-42279191Y-5467771D01*
X-42343009Y-5478058D01*
X-42412354Y-5485054D01*
X-42494994Y-5489388D01*
X-42598700Y-5491690D01*
X-42731243Y-5492590D01*
X-42851916Y-5492723D01*
X-43107271Y-5489575D01*
X-43327346Y-5478711D01*
X-43518818Y-5458045D01*
X-43688367Y-5425491D01*
X-43842669Y-5378964D01*
X-43988402Y-5316378D01*
X-44132243Y-5235648D01*
X-44280871Y-5134687D01*
X-44440963Y-5011410D01*
X-44471166Y-4986971D01*
X-44764393Y-4722533D01*
X-45029460Y-4430738D01*
X-45263641Y-4115649D01*
X-45464211Y-3781328D01*
X-45628443Y-3431835D01*
X-45751246Y-3079439D01*
X-45779511Y-2979171D01*
X-45803097Y-2887235D01*
X-45822515Y-2798348D01*
X-45838275Y-2707228D01*
X-45850887Y-2608594D01*
X-45860863Y-2497164D01*
X-45868711Y-2367655D01*
X-45874943Y-2214786D01*
X-45880068Y-2033275D01*
X-45884598Y-1817840D01*
X-45887206Y-1672166D01*
X-45891357Y-1444466D01*
X-45895530Y-1255595D01*
X-45900109Y-1102052D01*
X-45905478Y-980335D01*
X-45912019Y-886943D01*
X-45920117Y-818372D01*
X-45930156Y-771121D01*
X-45942519Y-741689D01*
X-45957589Y-726573D01*
X-45975752Y-722271D01*
X-45991100Y-723932D01*
X-46021526Y-748028D01*
X-46059829Y-805749D01*
X-46102666Y-889900D01*
X-46146693Y-993284D01*
X-46188566Y-1108708D01*
X-46223750Y-1224583D01*
X-46241977Y-1293729D01*
X-46255734Y-1354714D01*
X-46265647Y-1415173D01*
X-46272341Y-1482743D01*
X-46276442Y-1565062D01*
X-46278574Y-1669767D01*
X-46279363Y-1804495D01*
X-46279452Y-1905000D01*
X-46279107Y-2064132D01*
X-46277610Y-2189607D01*
X-46274278Y-2290101D01*
X-46268428Y-2374286D01*
X-46259375Y-2450838D01*
X-46246437Y-2528429D01*
X-46228931Y-2615735D01*
X-46220261Y-2656416D01*
X-46137533Y-2983766D01*
X-46030395Y-3316379D01*
X-45903003Y-3644171D01*
X-45759514Y-3957056D01*
X-45604082Y-4244949D01*
X-45491849Y-4424043D01*
X-45416297Y-4531024D01*
X-45324050Y-4653008D01*
X-45227393Y-4774139D01*
X-45147654Y-4868333D01*
X-45018654Y-5018000D01*
X-44915026Y-5144583D01*
X-44837936Y-5246525D01*
X-44788552Y-5322267D01*
X-44768037Y-5370254D01*
X-44767500Y-5376070D01*
X-44776671Y-5414639D01*
X-44806242Y-5446813D01*
X-44859294Y-5473191D01*
X-44938912Y-5494375D01*
X-45048178Y-5510964D01*
X-45190176Y-5523559D01*
X-45367988Y-5532759D01*
X-45584699Y-5539165D01*
X-45607815Y-5539658D01*
X-45935491Y-5541729D01*
X-46230203Y-5532856D01*
X-46500150Y-5511981D01*
X-46753531Y-5478044D01*
X-46998545Y-5429985D01*
X-47243391Y-5366744D01*
X-47455666Y-5300871D01*
X-47767069Y-5185562D01*
X-48042931Y-5056304D01*
X-48288911Y-4908882D01*
X-48510667Y-4739084D01*
X-48713859Y-4542694D01*
X-48904143Y-4315500D01*
X-49045426Y-4116916D01*
X-49179397Y-3895793D01*
X-49308215Y-3644229D01*
X-49426867Y-3374118D01*
X-49530337Y-3097352D01*
X-49613613Y-2825825D01*
X-49647832Y-2688166D01*
X-49660145Y-2610545D01*
X-49670935Y-2497701D01*
X-49680068Y-2356724D01*
X-49687407Y-2194702D01*
X-49692817Y-2018723D01*
X-49696162Y-1835877D01*
X-49697306Y-1653251D01*
X-49696113Y-1477935D01*
X-49692448Y-1317017D01*
X-49686173Y-1177585D01*
X-49678636Y-1080738D01*
X-49644675Y-818837D01*
X-49599617Y-594936D01*
X-49543707Y-409560D01*
X-49477193Y-263237D01*
X-49400321Y-156496D01*
X-49313337Y-89864D01*
X-49216490Y-63867D01*
X-49202821Y-63500D01*
X-49168245Y-67168D01*
X-49098013Y-77516D01*
X-48998105Y-93559D01*
X-48874497Y-114312D01*
X-48733168Y-138788D01*
X-48580097Y-166004D01*
X-48572062Y-167452D01*
X-48226462Y-226321D01*
X-47906803Y-272920D01*
X-47601108Y-308308D01*
X-47297402Y-333549D01*
X-46983708Y-349704D01*
X-46648051Y-357834D01*
X-46407916Y-359321D01*
X-46069474Y-355694D01*
X-45739980Y-344162D01*
X-45414624Y-324013D01*
X-45088596Y-294533D01*
X-44757085Y-255010D01*
X-44415282Y-204730D01*
X-44058377Y-142981D01*
X-43681558Y-69049D01*
X-43280017Y17778D01*
X-42848943Y118214D01*
X-42383525Y232970D01*
X-42343354Y243122D01*
X-42083456Y308789D01*
X-41859744Y364962D01*
X-41667418Y412744D01*
X-41501680Y453239D01*
X-41357729Y487549D01*
X-41230766Y516777D01*
X-41115991Y542027D01*
X-41008605Y564400D01*
X-40903808Y584999D01*
X-40796801Y604929D01*
X-40682783Y625290D01*
X-40671750Y627228D01*
X-40556168Y646862D01*
X-40457032Y661671D01*
X-40364911Y672330D01*
X-40270378Y679514D01*
X-40164002Y683897D01*
X-40036355Y686151D01*
X-39878007Y686953D01*
X-39835666Y687003D01*
X-39664837Y686581D01*
G36*
X35502805Y11907545D02*
G01*
X35596617Y11886952D01*
X35704322Y11852989D01*
X35830144Y11804592D01*
X35978307Y11740693D01*
X36153034Y11660229D01*
X36358548Y11562133D01*
X36504240Y11491524D01*
X36934848Y11285145D01*
X37335678Y11099728D01*
X37712413Y10933120D01*
X38070740Y10783166D01*
X38416344Y10647714D01*
X38754910Y10524608D01*
X39092124Y10411696D01*
X39433670Y10306822D01*
X39785236Y10207835D01*
X40127871Y10118742D01*
X40448272Y10039694D01*
X40735303Y9972138D01*
X40996031Y9915038D01*
X41237525Y9867357D01*
X41466851Y9828059D01*
X41691078Y9796109D01*
X41917272Y9770470D01*
X42152501Y9750106D01*
X42403832Y9733980D01*
X42678333Y9721057D01*
X42894250Y9713155D01*
X43176613Y9705235D01*
X43449823Y9700415D01*
X43709685Y9698621D01*
X43952005Y9699781D01*
X44172587Y9703820D01*
X44367237Y9710666D01*
X44531760Y9720244D01*
X44661962Y9732481D01*
X44745729Y9745582D01*
X44998715Y9810034D01*
X45227698Y9894391D01*
X45441202Y10003259D01*
X45647755Y10141245D01*
X45855884Y10312952D01*
X45939982Y10390679D01*
X46076338Y10517986D01*
X46200033Y10629123D01*
X46307247Y10720863D01*
X46394163Y10789976D01*
X46456960Y10833235D01*
X46474599Y10842635D01*
X46504492Y10849573D01*
X46540063Y10842926D01*
X46584701Y10820022D01*
X46641795Y10778193D01*
X46714735Y10714770D01*
X46806910Y10627082D01*
X46921710Y10512462D01*
X47015662Y10416503D01*
X47208963Y10214119D01*
X47406040Y10000816D01*
X47602588Y9781673D01*
X47794301Y9561769D01*
X47976876Y9346183D01*
X48146007Y9139994D01*
X48297390Y8948281D01*
X48426718Y8776124D01*
X48524775Y8636000D01*
X48604138Y8510808D01*
X48686352Y8370285D01*
X48768728Y8220106D01*
X48848581Y8065947D01*
X48923224Y7913481D01*
X48989969Y7768385D01*
X49046130Y7636332D01*
X49089020Y7522997D01*
X49115952Y7434056D01*
X49124239Y7375182D01*
X49123882Y7370656D01*
X49114655Y7336844D01*
X49089953Y7311298D01*
X49040271Y7286780D01*
X48988191Y7267292D01*
X48850419Y7224523D01*
X48676467Y7180551D01*
X48472428Y7136394D01*
X48244398Y7093069D01*
X47998471Y7051595D01*
X47740742Y7012988D01*
X47477304Y6978267D01*
X47214252Y6948449D01*
X46957682Y6924553D01*
X46915917Y6921213D01*
X46517197Y6897629D01*
X46091131Y6886125D01*
X45650895Y6886525D01*
X45209664Y6898656D01*
X44780614Y6922346D01*
X44407667Y6954231D01*
X44154768Y6982561D01*
X43870234Y7018752D01*
X43563714Y7061310D01*
X43244861Y7108737D01*
X42923323Y7159539D01*
X42608753Y7212219D01*
X42310800Y7265281D01*
X42039116Y7317230D01*
X41952334Y7334808D01*
X41870033Y7351825D01*
X41792605Y7368029D01*
X41716274Y7384283D01*
X41637267Y7401452D01*
X41551812Y7420402D01*
X41456133Y7441998D01*
X41346458Y7467104D01*
X41219013Y7496585D01*
X41070025Y7531306D01*
X40895719Y7572131D01*
X40692323Y7619927D01*
X40456063Y7675557D01*
X40183165Y7739887D01*
X40121417Y7754449D01*
X39811934Y7827145D01*
X39539662Y7890374D01*
X39300731Y7944881D01*
X39091268Y7991412D01*
X38907403Y8030713D01*
X38745264Y8063529D01*
X38600979Y8090605D01*
X38470678Y8112687D01*
X38350488Y8130522D01*
X38236539Y8144853D01*
X38124959Y8156427D01*
X38011877Y8165989D01*
X37967309Y8169279D01*
X37753530Y8177598D01*
X37512318Y8175183D01*
X37254795Y8162970D01*
X36992083Y8141895D01*
X36735304Y8112895D01*
X36495580Y8076906D01*
X36284033Y8034865D01*
X36237334Y8023639D01*
X36051830Y7966827D01*
X35842908Y7884904D01*
X35617841Y7781913D01*
X35383904Y7661899D01*
X35148371Y7528904D01*
X34918517Y7386974D01*
X34701616Y7240150D01*
X34504943Y7092479D01*
X34389982Y6996716D01*
X34258840Y6877831D01*
X34159071Y6775854D01*
X34086775Y6684290D01*
X34038049Y6596641D01*
X34008991Y6506413D01*
X33995701Y6407108D01*
X33993667Y6336877D01*
X33993667Y6174227D01*
X33708541Y6188536D01*
X33559307Y6193139D01*
X33424113Y6191800D01*
X33314566Y6184743D01*
X33279916Y6180274D01*
X33097688Y6134093D01*
X32930323Y6054079D01*
X32774800Y5938048D01*
X32628097Y5783818D01*
X32510072Y5624043D01*
X32395333Y5443780D01*
X32308061Y5284534D01*
X32245258Y5137934D01*
X32203924Y4995606D01*
X32181058Y4849177D01*
X32173661Y4690274D01*
X32173646Y4684987D01*
X32182861Y4488315D01*
X32212343Y4290651D01*
X32263890Y4085913D01*
X32339300Y3868015D01*
X32440370Y3630873D01*
X32554100Y3397250D01*
X32822173Y2906533D01*
X33110619Y2446763D01*
X33425382Y2009092D01*
X33766835Y1591092D01*
X33964912Y1384578D01*
X34199004Y1178535D01*
X34462919Y976756D01*
X34750470Y783037D01*
X35055466Y601173D01*
X35371720Y434959D01*
X35693041Y288191D01*
X36013240Y164662D01*
X36184417Y108677D01*
X36323098Y67419D01*
X36442783Y35073D01*
X36551861Y10585D01*
X36658717Y-7096D01*
X36771741Y-19024D01*
X36899320Y-26249D01*
X37049843Y-29825D01*
X37231696Y-30804D01*
X37295667Y-30745D01*
X37556764Y-27288D01*
X37786135Y-16819D01*
X37994057Y2374D01*
X38190804Y32003D01*
X38386651Y73779D01*
X38591874Y129415D01*
X38816747Y200623D01*
X38942916Y243697D01*
X39121213Y304128D01*
X39268660Y349933D01*
X39393427Y382910D01*
X39503682Y404853D01*
X39607594Y417560D01*
X39713333Y422824D01*
X39759678Y423249D01*
X39902539Y419053D01*
X40052069Y405802D01*
X40215979Y382334D01*
X40401975Y347485D01*
X40617768Y300092D01*
X40692917Y282434D01*
X40869487Y238354D01*
X41006603Y199327D01*
X41106720Y164422D01*
X41172294Y132703D01*
X41205777Y103240D01*
X41211500Y85342D01*
X41200626Y50570D01*
X41171928Y-7523D01*
X41131293Y-77187D01*
X41125316Y-86676D01*
X41076922Y-152048D01*
X41002490Y-239200D01*
X40908000Y-342216D01*
X40799429Y-455182D01*
X40682758Y-572183D01*
X40563965Y-687304D01*
X40449031Y-794631D01*
X40343934Y-888248D01*
X40254654Y-962241D01*
X40198740Y-1003262D01*
X40045337Y-1092588D01*
X39869124Y-1170873D01*
X39666762Y-1239000D01*
X39434911Y-1297851D01*
X39170231Y-1348309D01*
X38869383Y-1391255D01*
X38629167Y-1417954D01*
X38543677Y-1424410D01*
X38423715Y-1430539D01*
X38277145Y-1436189D01*
X38111828Y-1441207D01*
X37935626Y-1445438D01*
X37756401Y-1448730D01*
X37582016Y-1450930D01*
X37420331Y-1451885D01*
X37279210Y-1451442D01*
X37166514Y-1449446D01*
X37115750Y-1447437D01*
X36658184Y-1416355D01*
X36214908Y-1373015D01*
X35789949Y-1318132D01*
X35387333Y-1252424D01*
X35011087Y-1176607D01*
X34665237Y-1091399D01*
X34353810Y-997515D01*
X34131250Y-916280D01*
X33882872Y-807871D01*
X33611502Y-672908D01*
X33323452Y-515389D01*
X33025030Y-339311D01*
X32722549Y-148675D01*
X32422319Y52523D01*
X32130651Y260284D01*
X31853854Y470609D01*
X31598240Y679500D01*
X31557585Y714375D01*
X31418540Y841463D01*
X31265619Y993315D01*
X31103603Y1164233D01*
X30937275Y1348518D01*
X30771417Y1540469D01*
X30610809Y1734388D01*
X30460233Y1924575D01*
X30324472Y2105331D01*
X30208307Y2270957D01*
X30116520Y2415752D01*
X30088052Y2465917D01*
X30002869Y2633666D01*
X29912084Y2831983D01*
X29819843Y3050243D01*
X29730289Y3277817D01*
X29647565Y3504079D01*
X29575817Y3718402D01*
X29519187Y3910157D01*
X29507516Y3954748D01*
X29459522Y4171568D01*
X29425243Y4393158D01*
X29403548Y4630021D01*
X29393308Y4892660D01*
X29392132Y5027084D01*
X29410630Y5506468D01*
X29467349Y5971303D01*
X29563181Y6425390D01*
X29699020Y6872531D01*
X29875757Y7316529D01*
X29983375Y7545917D01*
X30059062Y7694767D01*
X30129789Y7821642D01*
X30202081Y7935864D01*
X30282468Y8046753D01*
X30377475Y8163631D01*
X30493630Y8295819D01*
X30558180Y8366755D01*
X30635706Y8448900D01*
X30739503Y8555289D01*
X30864848Y8681332D01*
X31007014Y8822441D01*
X31161277Y8974026D01*
X31322911Y9131499D01*
X31487192Y9290272D01*
X31649394Y9445755D01*
X31804792Y9593359D01*
X31948661Y9728496D01*
X32076275Y9846577D01*
X32162750Y9925017D01*
X32566804Y10277000D01*
X32953938Y10593242D01*
X33326853Y10875513D01*
X33688251Y11125585D01*
X34040831Y11345228D01*
X34387295Y11536213D01*
X34730343Y11700311D01*
X35072676Y11839294D01*
X35094334Y11847269D01*
X35182028Y11877537D01*
X35262499Y11899765D01*
X35339969Y11912886D01*
X35418664Y11915835D01*
X35502805Y11907545D01*
X35502805Y11907545D01*
G37*
X35502805Y11907545D02*
X35596617Y11886952D01*
X35704322Y11852989D01*
X35830144Y11804592D01*
X35978307Y11740693D01*
X36153034Y11660229D01*
X36358548Y11562133D01*
X36504240Y11491524D01*
X36934848Y11285145D01*
X37335678Y11099728D01*
X37712413Y10933120D01*
X38070740Y10783166D01*
X38416344Y10647714D01*
X38754910Y10524608D01*
X39092124Y10411696D01*
X39433670Y10306822D01*
X39785236Y10207835D01*
X40127871Y10118742D01*
X40448272Y10039694D01*
X40735303Y9972138D01*
X40996031Y9915038D01*
X41237525Y9867357D01*
X41466851Y9828059D01*
X41691078Y9796109D01*
X41917272Y9770470D01*
X42152501Y9750106D01*
X42403832Y9733980D01*
X42678333Y9721057D01*
X42894250Y9713155D01*
X43176613Y9705235D01*
X43449823Y9700415D01*
X43709685Y9698621D01*
X43952005Y9699781D01*
X44172587Y9703820D01*
X44367237Y9710666D01*
X44531760Y9720244D01*
X44661962Y9732481D01*
X44745729Y9745582D01*
X44998715Y9810034D01*
X45227698Y9894391D01*
X45441202Y10003259D01*
X45647755Y10141245D01*
X45855884Y10312952D01*
X45939982Y10390679D01*
X46076338Y10517986D01*
X46200033Y10629123D01*
X46307247Y10720863D01*
X46394163Y10789976D01*
X46456960Y10833235D01*
X46474599Y10842635D01*
X46504492Y10849573D01*
X46540063Y10842926D01*
X46584701Y10820022D01*
X46641795Y10778193D01*
X46714735Y10714770D01*
X46806910Y10627082D01*
X46921710Y10512462D01*
X47015662Y10416503D01*
X47208963Y10214119D01*
X47406040Y10000816D01*
X47602588Y9781673D01*
X47794301Y9561769D01*
X47976876Y9346183D01*
X48146007Y9139994D01*
X48297390Y8948281D01*
X48426718Y8776124D01*
X48524775Y8636000D01*
X48604138Y8510808D01*
X48686352Y8370285D01*
X48768728Y8220106D01*
X48848581Y8065947D01*
X48923224Y7913481D01*
X48989969Y7768385D01*
X49046130Y7636332D01*
X49089020Y7522997D01*
X49115952Y7434056D01*
X49124239Y7375182D01*
X49123882Y7370656D01*
X49114655Y7336844D01*
X49089953Y7311298D01*
X49040271Y7286780D01*
X48988191Y7267292D01*
X48850419Y7224523D01*
X48676467Y7180551D01*
X48472428Y7136394D01*
X48244398Y7093069D01*
X47998471Y7051595D01*
X47740742Y7012988D01*
X47477304Y6978267D01*
X47214252Y6948449D01*
X46957682Y6924553D01*
X46915917Y6921213D01*
X46517197Y6897629D01*
X46091131Y6886125D01*
X45650895Y6886525D01*
X45209664Y6898656D01*
X44780614Y6922346D01*
X44407667Y6954231D01*
X44154768Y6982561D01*
X43870234Y7018752D01*
X43563714Y7061310D01*
X43244861Y7108737D01*
X42923323Y7159539D01*
X42608753Y7212219D01*
X42310800Y7265281D01*
X42039116Y7317230D01*
X41952334Y7334808D01*
X41870033Y7351825D01*
X41792605Y7368029D01*
X41716274Y7384283D01*
X41637267Y7401452D01*
X41551812Y7420402D01*
X41456133Y7441998D01*
X41346458Y7467104D01*
X41219013Y7496585D01*
X41070025Y7531306D01*
X40895719Y7572131D01*
X40692323Y7619927D01*
X40456063Y7675557D01*
X40183165Y7739887D01*
X40121417Y7754449D01*
X39811934Y7827145D01*
X39539662Y7890374D01*
X39300731Y7944881D01*
X39091268Y7991412D01*
X38907403Y8030713D01*
X38745264Y8063529D01*
X38600979Y8090605D01*
X38470678Y8112687D01*
X38350488Y8130522D01*
X38236539Y8144853D01*
X38124959Y8156427D01*
X38011877Y8165989D01*
X37967309Y8169279D01*
X37753530Y8177598D01*
X37512318Y8175183D01*
X37254795Y8162970D01*
X36992083Y8141895D01*
X36735304Y8112895D01*
X36495580Y8076906D01*
X36284033Y8034865D01*
X36237334Y8023639D01*
X36051830Y7966827D01*
X35842908Y7884904D01*
X35617841Y7781913D01*
X35383904Y7661899D01*
X35148371Y7528904D01*
X34918517Y7386974D01*
X34701616Y7240150D01*
X34504943Y7092479D01*
X34389982Y6996716D01*
X34258840Y6877831D01*
X34159071Y6775854D01*
X34086775Y6684290D01*
X34038049Y6596641D01*
X34008991Y6506413D01*
X33995701Y6407108D01*
X33993667Y6336877D01*
X33993667Y6174227D01*
X33708541Y6188536D01*
X33559307Y6193139D01*
X33424113Y6191800D01*
X33314566Y6184743D01*
X33279916Y6180274D01*
X33097688Y6134093D01*
X32930323Y6054079D01*
X32774800Y5938048D01*
X32628097Y5783818D01*
X32510072Y5624043D01*
X32395333Y5443780D01*
X32308061Y5284534D01*
X32245258Y5137934D01*
X32203924Y4995606D01*
X32181058Y4849177D01*
X32173661Y4690274D01*
X32173646Y4684987D01*
X32182861Y4488315D01*
X32212343Y4290651D01*
X32263890Y4085913D01*
X32339300Y3868015D01*
X32440370Y3630873D01*
X32554100Y3397250D01*
X32822173Y2906533D01*
X33110619Y2446763D01*
X33425382Y2009092D01*
X33766835Y1591092D01*
X33964912Y1384578D01*
X34199004Y1178535D01*
X34462919Y976756D01*
X34750470Y783037D01*
X35055466Y601173D01*
X35371720Y434959D01*
X35693041Y288191D01*
X36013240Y164662D01*
X36184417Y108677D01*
X36323098Y67419D01*
X36442783Y35073D01*
X36551861Y10585D01*
X36658717Y-7096D01*
X36771741Y-19024D01*
X36899320Y-26249D01*
X37049843Y-29825D01*
X37231696Y-30804D01*
X37295667Y-30745D01*
X37556764Y-27288D01*
X37786135Y-16819D01*
X37994057Y2374D01*
X38190804Y32003D01*
X38386651Y73779D01*
X38591874Y129415D01*
X38816747Y200623D01*
X38942916Y243697D01*
X39121213Y304128D01*
X39268660Y349933D01*
X39393427Y382910D01*
X39503682Y404853D01*
X39607594Y417560D01*
X39713333Y422824D01*
X39759678Y423249D01*
X39902539Y419053D01*
X40052069Y405802D01*
X40215979Y382334D01*
X40401975Y347485D01*
X40617768Y300092D01*
X40692917Y282434D01*
X40869487Y238354D01*
X41006603Y199327D01*
X41106720Y164422D01*
X41172294Y132703D01*
X41205777Y103240D01*
X41211500Y85342D01*
X41200626Y50570D01*
X41171928Y-7523D01*
X41131293Y-77187D01*
X41125316Y-86676D01*
X41076922Y-152048D01*
X41002490Y-239200D01*
X40908000Y-342216D01*
X40799429Y-455182D01*
X40682758Y-572183D01*
X40563965Y-687304D01*
X40449031Y-794631D01*
X40343934Y-888248D01*
X40254654Y-962241D01*
X40198740Y-1003262D01*
X40045337Y-1092588D01*
X39869124Y-1170873D01*
X39666762Y-1239000D01*
X39434911Y-1297851D01*
X39170231Y-1348309D01*
X38869383Y-1391255D01*
X38629167Y-1417954D01*
X38543677Y-1424410D01*
X38423715Y-1430539D01*
X38277145Y-1436189D01*
X38111828Y-1441207D01*
X37935626Y-1445438D01*
X37756401Y-1448730D01*
X37582016Y-1450930D01*
X37420331Y-1451885D01*
X37279210Y-1451442D01*
X37166514Y-1449446D01*
X37115750Y-1447437D01*
X36658184Y-1416355D01*
X36214908Y-1373015D01*
X35789949Y-1318132D01*
X35387333Y-1252424D01*
X35011087Y-1176607D01*
X34665237Y-1091399D01*
X34353810Y-997515D01*
X34131250Y-916280D01*
X33882872Y-807871D01*
X33611502Y-672908D01*
X33323452Y-515389D01*
X33025030Y-339311D01*
X32722549Y-148675D01*
X32422319Y52523D01*
X32130651Y260284D01*
X31853854Y470609D01*
X31598240Y679500D01*
X31557585Y714375D01*
X31418540Y841463D01*
X31265619Y993315D01*
X31103603Y1164233D01*
X30937275Y1348518D01*
X30771417Y1540469D01*
X30610809Y1734388D01*
X30460233Y1924575D01*
X30324472Y2105331D01*
X30208307Y2270957D01*
X30116520Y2415752D01*
X30088052Y2465917D01*
X30002869Y2633666D01*
X29912084Y2831983D01*
X29819843Y3050243D01*
X29730289Y3277817D01*
X29647565Y3504079D01*
X29575817Y3718402D01*
X29519187Y3910157D01*
X29507516Y3954748D01*
X29459522Y4171568D01*
X29425243Y4393158D01*
X29403548Y4630021D01*
X29393308Y4892660D01*
X29392132Y5027084D01*
X29410630Y5506468D01*
X29467349Y5971303D01*
X29563181Y6425390D01*
X29699020Y6872531D01*
X29875757Y7316529D01*
X29983375Y7545917D01*
X30059062Y7694767D01*
X30129789Y7821642D01*
X30202081Y7935864D01*
X30282468Y8046753D01*
X30377475Y8163631D01*
X30493630Y8295819D01*
X30558180Y8366755D01*
X30635706Y8448900D01*
X30739503Y8555289D01*
X30864848Y8681332D01*
X31007014Y8822441D01*
X31161277Y8974026D01*
X31322911Y9131499D01*
X31487192Y9290272D01*
X31649394Y9445755D01*
X31804792Y9593359D01*
X31948661Y9728496D01*
X32076275Y9846577D01*
X32162750Y9925017D01*
X32566804Y10277000D01*
X32953938Y10593242D01*
X33326853Y10875513D01*
X33688251Y11125585D01*
X34040831Y11345228D01*
X34387295Y11536213D01*
X34730343Y11700311D01*
X35072676Y11839294D01*
X35094334Y11847269D01*
X35182028Y11877537D01*
X35262499Y11899765D01*
X35339969Y11912886D01*
X35418664Y11915835D01*
X35502805Y11907545D01*
G36*
X37979222Y7826322D02*
G01*
X38084496Y7823760D01*
X38181705Y7820554D01*
X38273929Y7816121D01*
X38364251Y7809881D01*
X38455753Y7801252D01*
X38551517Y7789651D01*
X38654625Y7774499D01*
X38768160Y7755214D01*
X38895203Y7731213D01*
X39038836Y7701916D01*
X39202143Y7666742D01*
X39388204Y7625108D01*
X39600101Y7576433D01*
X39840918Y7520136D01*
X40113736Y7455635D01*
X40421637Y7382350D01*
X40756417Y7302395D01*
X41094761Y7221889D01*
X41397677Y7150760D01*
X41670759Y7087929D01*
X41919602Y7032317D01*
X42149799Y6982848D01*
X42366945Y6938442D01*
X42576634Y6898021D01*
X42784460Y6860507D01*
X42996017Y6824821D01*
X43216899Y6789886D01*
X43452700Y6754624D01*
X43709015Y6717955D01*
X43991438Y6678802D01*
X43992412Y6678668D01*
X44244809Y6646391D01*
X44482163Y6621359D01*
X44712904Y6603249D01*
X44945460Y6591736D01*
X45188261Y6586497D01*
X45449736Y6587206D01*
X45738314Y6593540D01*
X45984584Y6602058D01*
X46400462Y6620364D01*
X46801874Y6642233D01*
X47185486Y6667354D01*
X47547964Y6695415D01*
X47885972Y6726106D01*
X48196178Y6759115D01*
X48475246Y6794130D01*
X48719842Y6830841D01*
X48926633Y6868936D01*
X48990250Y6882717D01*
X49079077Y6902263D01*
X49155505Y6917954D01*
X49207773Y6927424D01*
X49220281Y6929025D01*
X49267212Y6911978D01*
X49313222Y6853400D01*
X49358366Y6753135D01*
X49402698Y6611032D01*
X49446273Y6426936D01*
X49489145Y6200694D01*
X49497363Y6152043D01*
X49536010Y5903669D01*
X49566693Y5668693D01*
X49590348Y5436207D01*
X49607909Y5195299D01*
X49620311Y4935059D01*
X49628489Y4644577D01*
X49629093Y4614334D01*
X49632182Y4376196D01*
X49630505Y4172770D01*
X49622626Y3996565D01*
X49607106Y3840090D01*
X49582507Y3695853D01*
X49547392Y3556365D01*
X49500323Y3414134D01*
X49439862Y3261669D01*
X49364572Y3091480D01*
X49317236Y2989557D01*
X49125787Y2616688D01*
X48918371Y2281001D01*
X48692392Y1979511D01*
X48445257Y1709233D01*
X48174371Y1467182D01*
X47877139Y1250376D01*
X47719145Y1151289D01*
X47633905Y1101745D01*
X47551892Y1057513D01*
X47467072Y1016106D01*
X47373408Y975035D01*
X47264866Y931809D01*
X47135410Y883941D01*
X46979007Y828942D01*
X46789619Y764322D01*
X46741321Y748026D01*
X46565901Y689133D01*
X46417388Y640519D01*
X46289104Y601141D01*
X46174373Y569958D01*
X46066517Y545929D01*
X45958860Y528013D01*
X45844725Y515166D01*
X45717434Y506349D01*
X45570311Y500519D01*
X45396679Y496634D01*
X45189860Y493655D01*
X45103718Y492574D01*
X44771199Y490098D01*
X44479339Y491441D01*
X44228375Y496593D01*
X44018545Y505541D01*
X43850086Y518275D01*
X43723236Y534783D01*
X43638232Y555055D01*
X43618354Y563064D01*
X43543922Y613650D01*
X43509765Y673945D01*
X43515381Y742282D01*
X43560268Y816993D01*
X43643924Y896413D01*
X43738541Y962290D01*
X43895198Y1078049D01*
X44057648Y1232681D01*
X44223860Y1423459D01*
X44391799Y1647652D01*
X44559433Y1902532D01*
X44724729Y2185370D01*
X44885652Y2493436D01*
X44898151Y2518834D01*
X45053101Y2854579D01*
X45178217Y3170021D01*
X45275857Y3472348D01*
X45348378Y3768751D01*
X45392898Y4027578D01*
X45406251Y4147910D01*
X45417726Y4299287D01*
X45427148Y4473262D01*
X45434347Y4661391D01*
X45439149Y4855228D01*
X45441382Y5046328D01*
X45440874Y5226246D01*
X45437453Y5386535D01*
X45430945Y5518751D01*
X45424746Y5587652D01*
X45404469Y5732495D01*
X45380315Y5839822D01*
X45349654Y5914434D01*
X45309858Y5961131D01*
X45258299Y5984711D01*
X45204320Y5990167D01*
X45165662Y5986708D01*
X45133507Y5973896D01*
X45107112Y5948074D01*
X45085728Y5905587D01*
X45068612Y5842782D01*
X45055018Y5756001D01*
X45044199Y5641592D01*
X45035409Y5495898D01*
X45027904Y5315264D01*
X45020937Y5096035D01*
X45020779Y5090584D01*
X45012514Y4827376D01*
X45003577Y4601168D01*
X44993196Y4406630D01*
X44980600Y4238429D01*
X44965016Y4091232D01*
X44945673Y3959707D01*
X44921798Y3838523D01*
X44892620Y3722347D01*
X44857366Y3605847D01*
X44815265Y3483690D01*
X44770882Y3364511D01*
X44631708Y3011733D01*
X44497458Y2697106D01*
X44366112Y2417018D01*
X44235649Y2167859D01*
X44104050Y1946020D01*
X43969294Y1747890D01*
X43829360Y1569859D01*
X43682229Y1408316D01*
X43668190Y1394085D01*
X43497797Y1233779D01*
X43325205Y1095974D01*
X43143491Y976947D01*
X42945735Y872975D01*
X42725015Y780334D01*
X42474410Y695300D01*
X42248667Y630494D01*
X42191735Y615877D01*
X42138560Y604551D01*
X42082771Y596116D01*
X42017998Y590174D01*
X41937873Y586327D01*
X41836026Y584176D01*
X41706086Y583322D01*
X41541686Y583366D01*
X41497250Y583464D01*
X41195055Y586922D01*
X40933148Y595921D01*
X40709813Y610741D01*
X40523335Y631659D01*
X40371996Y658954D01*
X40254080Y692905D01*
X40167872Y733791D01*
X40111654Y781890D01*
X40092941Y811426D01*
X40076806Y860109D01*
X40075894Y913341D01*
X40092266Y977679D01*
X40127983Y1059678D01*
X40185106Y1165894D01*
X40227135Y1238264D01*
X40391703Y1548691D01*
X40530216Y1879698D01*
X40643220Y2233728D01*
X40731261Y2613222D01*
X40794884Y3020623D01*
X40834635Y3458373D01*
X40851058Y3928912D01*
X40851595Y4034143D01*
X40833529Y4633154D01*
X40778620Y5216248D01*
X40686085Y5789683D01*
X40565027Y6321897D01*
X40508368Y6523244D01*
X40453173Y6683626D01*
X40398764Y6804358D01*
X40344468Y6886755D01*
X40289610Y6932129D01*
X40246239Y6942667D01*
X40193334Y6928048D01*
X40162424Y6906567D01*
X40144839Y6872974D01*
X40135750Y6814173D01*
X40135381Y6727854D01*
X40143955Y6611711D01*
X40161697Y6463436D01*
X40188832Y6280719D01*
X40225583Y6061255D01*
X40266881Y5831417D01*
X40307616Y5609727D01*
X40341353Y5423243D01*
X40368746Y5265534D01*
X40390446Y5130172D01*
X40407106Y5010724D01*
X40419376Y4900761D01*
X40427908Y4793852D01*
X40433356Y4683567D01*
X40436370Y4563475D01*
X40437603Y4427147D01*
X40437706Y4268151D01*
X40437474Y4148667D01*
X40435685Y3871687D01*
X40431032Y3630659D01*
X40422657Y3419247D01*
X40409704Y3231118D01*
X40391316Y3059938D01*
X40366635Y2899371D01*
X40334804Y2743084D01*
X40294966Y2584742D01*
X40246264Y2418011D01*
X40187840Y2236557D01*
X40172555Y2190937D01*
X40091184Y1955843D01*
X40014925Y1748146D01*
X39944942Y1570709D01*
X39882401Y1426394D01*
X39828466Y1318064D01*
X39794628Y1262530D01*
X39724070Y1174753D01*
X39629264Y1075206D01*
X39521717Y974788D01*
X39412934Y884396D01*
X39338250Y830266D01*
X39086823Y683584D01*
X38803895Y555858D01*
X38496551Y448636D01*
X38171878Y363464D01*
X37836964Y301892D01*
X37498894Y265465D01*
X37164756Y255733D01*
X36841635Y274243D01*
X36808864Y277861D01*
X36576606Y317801D01*
X36321493Y385049D01*
X36050259Y476637D01*
X35769638Y589599D01*
X35486364Y720967D01*
X35207173Y867776D01*
X34938798Y1027057D01*
X34687974Y1195845D01*
X34631594Y1237098D01*
X34478359Y1354073D01*
X34356365Y1454301D01*
X34260425Y1542597D01*
X34185350Y1623775D01*
X34125952Y1702650D01*
X34119651Y1712158D01*
X34075154Y1775233D01*
X34011337Y1859254D01*
X33936715Y1953271D01*
X33859802Y2046336D01*
X33859580Y2046599D01*
X33584972Y2383437D01*
X33343835Y2704927D01*
X33136791Y3010067D01*
X32964464Y3297855D01*
X32827475Y3567289D01*
X32726448Y3817369D01*
X32692735Y3923842D01*
X32634211Y4185846D01*
X32608737Y4443838D01*
X32615308Y4693719D01*
X32652924Y4931392D01*
X32720580Y5152757D01*
X32817276Y5353719D01*
X32942008Y5530177D01*
X33093774Y5678034D01*
X33128329Y5704584D01*
X33263479Y5788427D01*
X33403944Y5841470D01*
X33561592Y5867324D01*
X33676167Y5871273D01*
X33818418Y5860546D01*
X33945100Y5831422D01*
X34047259Y5786645D01*
X34107483Y5739040D01*
X34122496Y5711681D01*
X34149813Y5651709D01*
X34186708Y5565928D01*
X34230454Y5461140D01*
X34278324Y5344149D01*
X34327590Y5221756D01*
X34375527Y5100766D01*
X34419406Y4987980D01*
X34456501Y4890203D01*
X34484084Y4814236D01*
X34499429Y4766883D01*
X34501667Y4755712D01*
X34488370Y4732117D01*
X34452657Y4685340D01*
X34400797Y4623332D01*
X34367089Y4584977D01*
X34208811Y4398842D01*
X34081230Y4227035D01*
X33979352Y4061122D01*
X33898180Y3892668D01*
X33832719Y3713240D01*
X33814020Y3651250D01*
X33771656Y3488562D01*
X33748963Y3358020D01*
X33746351Y3254075D01*
X33764231Y3171174D01*
X33803014Y3103766D01*
X33858515Y3049869D01*
X33922783Y3012550D01*
X33977014Y3014446D01*
X34029124Y3056608D01*
X34043425Y3074459D01*
X34078785Y3126379D01*
X34111821Y3187520D01*
X34145737Y3265382D01*
X34183734Y3367465D01*
X34229015Y3501270D01*
X34239987Y3534834D01*
X34284794Y3660737D01*
X34338772Y3793925D01*
X34398004Y3926352D01*
X34458569Y4049974D01*
X34516550Y4156746D01*
X34568027Y4238625D01*
X34604752Y4283617D01*
X34649766Y4320925D01*
X34683029Y4329664D01*
X34708840Y4320406D01*
X34758882Y4282567D01*
X34826417Y4215622D01*
X34905990Y4126040D01*
X34992148Y4020290D01*
X35079438Y3904842D01*
X35162408Y3786165D01*
X35174490Y3767960D01*
X35287579Y3611433D01*
X35420378Y3452687D01*
X35565440Y3299000D01*
X35715318Y3157652D01*
X35862565Y3035922D01*
X35999734Y2941090D01*
X36049555Y2912614D01*
X36129721Y2885904D01*
X36199835Y2892300D01*
X36251098Y2930506D01*
X36259189Y2943454D01*
X36271842Y2985206D01*
X36265582Y3033751D01*
X36237897Y3093266D01*
X36186275Y3167932D01*
X36108205Y3261927D01*
X36001176Y3379430D01*
X35990084Y3391251D01*
X35891950Y3497562D01*
X35788847Y3612529D01*
X35690980Y3724567D01*
X35608557Y3822088D01*
X35583888Y3852334D01*
X35432798Y4049125D01*
X35279569Y4265175D01*
X35130321Y4490853D01*
X34991176Y4716522D01*
X34868256Y4932551D01*
X34767683Y5129304D01*
X34754272Y5157925D01*
X34703060Y5276827D01*
X34648800Y5416523D01*
X34594995Y5566586D01*
X34545150Y5716590D01*
X34502768Y5856106D01*
X34471353Y5974709D01*
X34457578Y6040796D01*
X34445279Y6173073D01*
X34457602Y6294412D01*
X34497231Y6410038D01*
X34566849Y6525173D01*
X34669140Y6645042D01*
X34806786Y6774867D01*
X34856592Y6817562D01*
X35196422Y7077290D01*
X35552741Y7298066D01*
X35926089Y7480151D01*
X36317007Y7623809D01*
X36726037Y7729301D01*
X36745334Y7733247D01*
X36951495Y7771150D01*
X37149195Y7798863D01*
X37349183Y7817197D01*
X37562207Y7826964D01*
X37799018Y7828974D01*
X37979222Y7826322D01*
X37979222Y7826322D01*
G37*
X37979222Y7826322D02*
X38084496Y7823760D01*
X38181705Y7820554D01*
X38273929Y7816121D01*
X38364251Y7809881D01*
X38455753Y7801252D01*
X38551517Y7789651D01*
X38654625Y7774499D01*
X38768160Y7755214D01*
X38895203Y7731213D01*
X39038836Y7701916D01*
X39202143Y7666742D01*
X39388204Y7625108D01*
X39600101Y7576433D01*
X39840918Y7520136D01*
X40113736Y7455635D01*
X40421637Y7382350D01*
X40756417Y7302395D01*
X41094761Y7221889D01*
X41397677Y7150760D01*
X41670759Y7087929D01*
X41919602Y7032317D01*
X42149799Y6982848D01*
X42366945Y6938442D01*
X42576634Y6898021D01*
X42784460Y6860507D01*
X42996017Y6824821D01*
X43216899Y6789886D01*
X43452700Y6754624D01*
X43709015Y6717955D01*
X43991438Y6678802D01*
X43992412Y6678668D01*
X44244809Y6646391D01*
X44482163Y6621359D01*
X44712904Y6603249D01*
X44945460Y6591736D01*
X45188261Y6586497D01*
X45449736Y6587206D01*
X45738314Y6593540D01*
X45984584Y6602058D01*
X46400462Y6620364D01*
X46801874Y6642233D01*
X47185486Y6667354D01*
X47547964Y6695415D01*
X47885972Y6726106D01*
X48196178Y6759115D01*
X48475246Y6794130D01*
X48719842Y6830841D01*
X48926633Y6868936D01*
X48990250Y6882717D01*
X49079077Y6902263D01*
X49155505Y6917954D01*
X49207773Y6927424D01*
X49220281Y6929025D01*
X49267212Y6911978D01*
X49313222Y6853400D01*
X49358366Y6753135D01*
X49402698Y6611032D01*
X49446273Y6426936D01*
X49489145Y6200694D01*
X49497363Y6152043D01*
X49536010Y5903669D01*
X49566693Y5668693D01*
X49590348Y5436207D01*
X49607909Y5195299D01*
X49620311Y4935059D01*
X49628489Y4644577D01*
X49629093Y4614334D01*
X49632182Y4376196D01*
X49630505Y4172770D01*
X49622626Y3996565D01*
X49607106Y3840090D01*
X49582507Y3695853D01*
X49547392Y3556365D01*
X49500323Y3414134D01*
X49439862Y3261669D01*
X49364572Y3091480D01*
X49317236Y2989557D01*
X49125787Y2616688D01*
X48918371Y2281001D01*
X48692392Y1979511D01*
X48445257Y1709233D01*
X48174371Y1467182D01*
X47877139Y1250376D01*
X47719145Y1151289D01*
X47633905Y1101745D01*
X47551892Y1057513D01*
X47467072Y1016106D01*
X47373408Y975035D01*
X47264866Y931809D01*
X47135410Y883941D01*
X46979007Y828942D01*
X46789619Y764322D01*
X46741321Y748026D01*
X46565901Y689133D01*
X46417388Y640519D01*
X46289104Y601141D01*
X46174373Y569958D01*
X46066517Y545929D01*
X45958860Y528013D01*
X45844725Y515166D01*
X45717434Y506349D01*
X45570311Y500519D01*
X45396679Y496634D01*
X45189860Y493655D01*
X45103718Y492574D01*
X44771199Y490098D01*
X44479339Y491441D01*
X44228375Y496593D01*
X44018545Y505541D01*
X43850086Y518275D01*
X43723236Y534783D01*
X43638232Y555055D01*
X43618354Y563064D01*
X43543922Y613650D01*
X43509765Y673945D01*
X43515381Y742282D01*
X43560268Y816993D01*
X43643924Y896413D01*
X43738541Y962290D01*
X43895198Y1078049D01*
X44057648Y1232681D01*
X44223860Y1423459D01*
X44391799Y1647652D01*
X44559433Y1902532D01*
X44724729Y2185370D01*
X44885652Y2493436D01*
X44898151Y2518834D01*
X45053101Y2854579D01*
X45178217Y3170021D01*
X45275857Y3472348D01*
X45348378Y3768751D01*
X45392898Y4027578D01*
X45406251Y4147910D01*
X45417726Y4299287D01*
X45427148Y4473262D01*
X45434347Y4661391D01*
X45439149Y4855228D01*
X45441382Y5046328D01*
X45440874Y5226246D01*
X45437453Y5386535D01*
X45430945Y5518751D01*
X45424746Y5587652D01*
X45404469Y5732495D01*
X45380315Y5839822D01*
X45349654Y5914434D01*
X45309858Y5961131D01*
X45258299Y5984711D01*
X45204320Y5990167D01*
X45165662Y5986708D01*
X45133507Y5973896D01*
X45107112Y5948074D01*
X45085728Y5905587D01*
X45068612Y5842782D01*
X45055018Y5756001D01*
X45044199Y5641592D01*
X45035409Y5495898D01*
X45027904Y5315264D01*
X45020937Y5096035D01*
X45020779Y5090584D01*
X45012514Y4827376D01*
X45003577Y4601168D01*
X44993196Y4406630D01*
X44980600Y4238429D01*
X44965016Y4091232D01*
X44945673Y3959707D01*
X44921798Y3838523D01*
X44892620Y3722347D01*
X44857366Y3605847D01*
X44815265Y3483690D01*
X44770882Y3364511D01*
X44631708Y3011733D01*
X44497458Y2697106D01*
X44366112Y2417018D01*
X44235649Y2167859D01*
X44104050Y1946020D01*
X43969294Y1747890D01*
X43829360Y1569859D01*
X43682229Y1408316D01*
X43668190Y1394085D01*
X43497797Y1233779D01*
X43325205Y1095974D01*
X43143491Y976947D01*
X42945735Y872975D01*
X42725015Y780334D01*
X42474410Y695300D01*
X42248667Y630494D01*
X42191735Y615877D01*
X42138560Y604551D01*
X42082771Y596116D01*
X42017998Y590174D01*
X41937873Y586327D01*
X41836026Y584176D01*
X41706086Y583322D01*
X41541686Y583366D01*
X41497250Y583464D01*
X41195055Y586922D01*
X40933148Y595921D01*
X40709813Y610741D01*
X40523335Y631659D01*
X40371996Y658954D01*
X40254080Y692905D01*
X40167872Y733791D01*
X40111654Y781890D01*
X40092941Y811426D01*
X40076806Y860109D01*
X40075894Y913341D01*
X40092266Y977679D01*
X40127983Y1059678D01*
X40185106Y1165894D01*
X40227135Y1238264D01*
X40391703Y1548691D01*
X40530216Y1879698D01*
X40643220Y2233728D01*
X40731261Y2613222D01*
X40794884Y3020623D01*
X40834635Y3458373D01*
X40851058Y3928912D01*
X40851595Y4034143D01*
X40833529Y4633154D01*
X40778620Y5216248D01*
X40686085Y5789683D01*
X40565027Y6321897D01*
X40508368Y6523244D01*
X40453173Y6683626D01*
X40398764Y6804358D01*
X40344468Y6886755D01*
X40289610Y6932129D01*
X40246239Y6942667D01*
X40193334Y6928048D01*
X40162424Y6906567D01*
X40144839Y6872974D01*
X40135750Y6814173D01*
X40135381Y6727854D01*
X40143955Y6611711D01*
X40161697Y6463436D01*
X40188832Y6280719D01*
X40225583Y6061255D01*
X40266881Y5831417D01*
X40307616Y5609727D01*
X40341353Y5423243D01*
X40368746Y5265534D01*
X40390446Y5130172D01*
X40407106Y5010724D01*
X40419376Y4900761D01*
X40427908Y4793852D01*
X40433356Y4683567D01*
X40436370Y4563475D01*
X40437603Y4427147D01*
X40437706Y4268151D01*
X40437474Y4148667D01*
X40435685Y3871687D01*
X40431032Y3630659D01*
X40422657Y3419247D01*
X40409704Y3231118D01*
X40391316Y3059938D01*
X40366635Y2899371D01*
X40334804Y2743084D01*
X40294966Y2584742D01*
X40246264Y2418011D01*
X40187840Y2236557D01*
X40172555Y2190937D01*
X40091184Y1955843D01*
X40014925Y1748146D01*
X39944942Y1570709D01*
X39882401Y1426394D01*
X39828466Y1318064D01*
X39794628Y1262530D01*
X39724070Y1174753D01*
X39629264Y1075206D01*
X39521717Y974788D01*
X39412934Y884396D01*
X39338250Y830266D01*
X39086823Y683584D01*
X38803895Y555858D01*
X38496551Y448636D01*
X38171878Y363464D01*
X37836964Y301892D01*
X37498894Y265465D01*
X37164756Y255733D01*
X36841635Y274243D01*
X36808864Y277861D01*
X36576606Y317801D01*
X36321493Y385049D01*
X36050259Y476637D01*
X35769638Y589599D01*
X35486364Y720967D01*
X35207173Y867776D01*
X34938798Y1027057D01*
X34687974Y1195845D01*
X34631594Y1237098D01*
X34478359Y1354073D01*
X34356365Y1454301D01*
X34260425Y1542597D01*
X34185350Y1623775D01*
X34125952Y1702650D01*
X34119651Y1712158D01*
X34075154Y1775233D01*
X34011337Y1859254D01*
X33936715Y1953271D01*
X33859802Y2046336D01*
X33859580Y2046599D01*
X33584972Y2383437D01*
X33343835Y2704927D01*
X33136791Y3010067D01*
X32964464Y3297855D01*
X32827475Y3567289D01*
X32726448Y3817369D01*
X32692735Y3923842D01*
X32634211Y4185846D01*
X32608737Y4443838D01*
X32615308Y4693719D01*
X32652924Y4931392D01*
X32720580Y5152757D01*
X32817276Y5353719D01*
X32942008Y5530177D01*
X33093774Y5678034D01*
X33128329Y5704584D01*
X33263479Y5788427D01*
X33403944Y5841470D01*
X33561592Y5867324D01*
X33676167Y5871273D01*
X33818418Y5860546D01*
X33945100Y5831422D01*
X34047259Y5786645D01*
X34107483Y5739040D01*
X34122496Y5711681D01*
X34149813Y5651709D01*
X34186708Y5565928D01*
X34230454Y5461140D01*
X34278324Y5344149D01*
X34327590Y5221756D01*
X34375527Y5100766D01*
X34419406Y4987980D01*
X34456501Y4890203D01*
X34484084Y4814236D01*
X34499429Y4766883D01*
X34501667Y4755712D01*
X34488370Y4732117D01*
X34452657Y4685340D01*
X34400797Y4623332D01*
X34367089Y4584977D01*
X34208811Y4398842D01*
X34081230Y4227035D01*
X33979352Y4061122D01*
X33898180Y3892668D01*
X33832719Y3713240D01*
X33814020Y3651250D01*
X33771656Y3488562D01*
X33748963Y3358020D01*
X33746351Y3254075D01*
X33764231Y3171174D01*
X33803014Y3103766D01*
X33858515Y3049869D01*
X33922783Y3012550D01*
X33977014Y3014446D01*
X34029124Y3056608D01*
X34043425Y3074459D01*
X34078785Y3126379D01*
X34111821Y3187520D01*
X34145737Y3265382D01*
X34183734Y3367465D01*
X34229015Y3501270D01*
X34239987Y3534834D01*
X34284794Y3660737D01*
X34338772Y3793925D01*
X34398004Y3926352D01*
X34458569Y4049974D01*
X34516550Y4156746D01*
X34568027Y4238625D01*
X34604752Y4283617D01*
X34649766Y4320925D01*
X34683029Y4329664D01*
X34708840Y4320406D01*
X34758882Y4282567D01*
X34826417Y4215622D01*
X34905990Y4126040D01*
X34992148Y4020290D01*
X35079438Y3904842D01*
X35162408Y3786165D01*
X35174490Y3767960D01*
X35287579Y3611433D01*
X35420378Y3452687D01*
X35565440Y3299000D01*
X35715318Y3157652D01*
X35862565Y3035922D01*
X35999734Y2941090D01*
X36049555Y2912614D01*
X36129721Y2885904D01*
X36199835Y2892300D01*
X36251098Y2930506D01*
X36259189Y2943454D01*
X36271842Y2985206D01*
X36265582Y3033751D01*
X36237897Y3093266D01*
X36186275Y3167932D01*
X36108205Y3261927D01*
X36001176Y3379430D01*
X35990084Y3391251D01*
X35891950Y3497562D01*
X35788847Y3612529D01*
X35690980Y3724567D01*
X35608557Y3822088D01*
X35583888Y3852334D01*
X35432798Y4049125D01*
X35279569Y4265175D01*
X35130321Y4490853D01*
X34991176Y4716522D01*
X34868256Y4932551D01*
X34767683Y5129304D01*
X34754272Y5157925D01*
X34703060Y5276827D01*
X34648800Y5416523D01*
X34594995Y5566586D01*
X34545150Y5716590D01*
X34502768Y5856106D01*
X34471353Y5974709D01*
X34457578Y6040796D01*
X34445279Y6173073D01*
X34457602Y6294412D01*
X34497231Y6410038D01*
X34566849Y6525173D01*
X34669140Y6645042D01*
X34806786Y6774867D01*
X34856592Y6817562D01*
X35196422Y7077290D01*
X35552741Y7298066D01*
X35926089Y7480151D01*
X36317007Y7623809D01*
X36726037Y7729301D01*
X36745334Y7733247D01*
X36951495Y7771150D01*
X37149195Y7798863D01*
X37349183Y7817197D01*
X37562207Y7826964D01*
X37799018Y7828974D01*
X37979222Y7826322D01*
G36*
X-40049310Y13661428D02*
G01*
X-40029923Y13600165D01*
X-40026166Y13534229D01*
X-40028839Y13481388D01*
X-40038987Y13433177D01*
X-40059812Y13386906D01*
X-40094512Y13339890D01*
X-40146285Y13289440D01*
X-40218331Y13232870D01*
X-40313850Y13167492D01*
X-40436039Y13090619D01*
X-40588098Y12999564D01*
X-40773226Y12891639D01*
X-40830500Y12858563D01*
X-41053322Y12729089D01*
X-41255390Y12609351D01*
X-41447562Y12492663D01*
X-41640695Y12372336D01*
X-41845648Y12241684D01*
X-42073277Y12094018D01*
X-42097629Y12078109D01*
X-42216365Y12001146D01*
X-42335276Y11925226D01*
X-42445041Y11856220D01*
X-42536340Y11799995D01*
X-42590101Y11767999D01*
X-42851273Y11605004D01*
X-43127655Y11410386D01*
X-43413558Y11189336D01*
X-43703293Y10947046D01*
X-43991174Y10688709D01*
X-44271511Y10419517D01*
X-44538616Y10144661D01*
X-44786800Y9869335D01*
X-45010375Y9598728D01*
X-45110913Y9467147D01*
X-45297248Y9196615D01*
X-45444002Y8940681D01*
X-45551252Y8699130D01*
X-45619076Y8471749D01*
X-45647549Y8258321D01*
X-45636748Y8058633D01*
X-45629390Y8017896D01*
X-45586769Y7852045D01*
X-45530827Y7719258D01*
X-45457190Y7616231D01*
X-45361487Y7539660D01*
X-45239345Y7486240D01*
X-45086391Y7452667D01*
X-44898253Y7435638D01*
X-44856638Y7433948D01*
X-44641406Y7436891D01*
X-44411630Y7460505D01*
X-44163648Y7505627D01*
X-43893801Y7573093D01*
X-43598428Y7663740D01*
X-43273867Y7778404D01*
X-43158833Y7822003D01*
X-42959594Y7899696D01*
X-42778505Y7972961D01*
X-42611102Y8044291D01*
X-42452917Y8116178D01*
X-42299484Y8191112D01*
X-42146337Y8271586D01*
X-41989009Y8360092D01*
X-41823033Y8459120D01*
X-41643944Y8571162D01*
X-41447274Y8698711D01*
X-41228558Y8844258D01*
X-40983328Y9010294D01*
X-40781910Y9147990D01*
X-40592446Y9276316D01*
X-40425732Y9386003D01*
X-40283626Y9475943D01*
X-40167989Y9545025D01*
X-40080678Y9592138D01*
X-40023553Y9616175D01*
X-39998472Y9616023D01*
X-39998350Y9615832D01*
X-39983433Y9579318D01*
X-39965676Y9512835D01*
X-39944560Y9413812D01*
X-39919564Y9279672D01*
X-39890168Y9107842D01*
X-39867554Y8969117D01*
X-39831460Y8754263D01*
X-39788870Y8517301D01*
X-39741648Y8267505D01*
X-39691658Y8014145D01*
X-39640762Y7766495D01*
X-39590823Y7533826D01*
X-39543704Y7325409D01*
X-39505320Y7166514D01*
X-39467422Y7029033D01*
X-39416185Y6862088D01*
X-39354945Y6675130D01*
X-39287032Y6477607D01*
X-39215781Y6278969D01*
X-39144524Y6088666D01*
X-39076595Y5916147D01*
X-39015326Y5770861D01*
X-39004548Y5746750D01*
X-38956722Y5643892D01*
X-38896732Y5519136D01*
X-38832151Y5388032D01*
X-38770553Y5266133D01*
X-38768997Y5263105D01*
X-38719027Y5163943D01*
X-38676951Y5076694D01*
X-38646278Y5008930D01*
X-38630516Y4968217D01*
X-38629166Y4961480D01*
X-38632349Y4944924D01*
X-38645514Y4936355D01*
X-38674091Y4936763D01*
X-38723508Y4947136D01*
X-38799192Y4968462D01*
X-38906573Y5001729D01*
X-38981685Y5025658D01*
X-39171721Y5085211D01*
X-39324928Y5130297D01*
X-39443998Y5161624D01*
X-39531621Y5179900D01*
X-39590483Y5185834D01*
X-39644799Y5174746D01*
X-39728723Y5141172D01*
X-39843137Y5084641D01*
X-39988926Y5004687D01*
X-40166973Y4900840D01*
X-40378163Y4772631D01*
X-40427672Y4742032D01*
X-40749650Y4546257D01*
X-41044425Y4375251D01*
X-41317070Y4226392D01*
X-41572664Y4097063D01*
X-41816282Y3984643D01*
X-42052999Y3886512D01*
X-42174583Y3840432D01*
X-42297829Y3794776D01*
X-42444303Y3739880D01*
X-42597780Y3681861D01*
X-42742038Y3626833D01*
X-42777833Y3613077D01*
X-43067605Y3504332D01*
X-43326242Y3413626D01*
X-43559985Y3339122D01*
X-43775080Y3278987D01*
X-43977769Y3231386D01*
X-44174295Y3194485D01*
X-44235044Y3184916D01*
X-44339987Y3172063D01*
X-44468832Y3160756D01*
X-44610708Y3151496D01*
X-44754741Y3144782D01*
X-44890061Y3141115D01*
X-45005794Y3140994D01*
X-45091070Y3144918D01*
X-45095583Y3145354D01*
X-45418456Y3193435D01*
X-45713876Y3269227D01*
X-45980002Y3372091D01*
X-46214994Y3501387D01*
X-46307472Y3566050D01*
X-46406996Y3647299D01*
X-46523167Y3752428D01*
X-46646477Y3872030D01*
X-46767419Y3996699D01*
X-46876483Y4117028D01*
X-46936037Y4187884D01*
X-47035899Y4334554D01*
X-47130767Y4520032D01*
X-47219323Y4740957D01*
X-47300248Y4993962D01*
X-47372225Y5275685D01*
X-47385175Y5334000D01*
X-47417872Y5525792D01*
X-47440409Y5744839D01*
X-47452334Y5977190D01*
X-47453195Y6208896D01*
X-47442537Y6426007D01*
X-47425580Y6578680D01*
X-47363242Y6906637D01*
X-47272446Y7232266D01*
X-47151858Y7558018D01*
X-47000148Y7886342D01*
X-46815982Y8219688D01*
X-46598028Y8560505D01*
X-46344955Y8911244D01*
X-46055430Y9274352D01*
X-45794433Y9577917D01*
X-45713432Y9670425D01*
X-45620136Y9778591D01*
X-45529170Y9885402D01*
X-45486434Y9936206D01*
X-45199305Y10262589D01*
X-44882184Y10592392D01*
X-44541285Y10920411D01*
X-44182822Y11241439D01*
X-43813008Y11550273D01*
X-43438056Y11841706D01*
X-43064180Y12110533D01*
X-42697593Y12351549D01*
X-42375666Y12542263D01*
X-42196435Y12641418D01*
X-42004599Y12745905D01*
X-41804063Y12853719D01*
X-41598736Y12962857D01*
X-41392524Y13071316D01*
X-41189333Y13177091D01*
X-40993070Y13278179D01*
X-40807642Y13372576D01*
X-40636955Y13458279D01*
X-40484916Y13533283D01*
X-40355431Y13595585D01*
X-40252408Y13643181D01*
X-40179753Y13674068D01*
X-40147600Y13685047D01*
X-40087632Y13688600D01*
X-40049310Y13661428D01*
X-40049310Y13661428D01*
G37*
X-40049310Y13661428D02*
X-40029923Y13600165D01*
X-40026166Y13534229D01*
X-40028839Y13481388D01*
X-40038987Y13433177D01*
X-40059812Y13386906D01*
X-40094512Y13339890D01*
X-40146285Y13289440D01*
X-40218331Y13232870D01*
X-40313850Y13167492D01*
X-40436039Y13090619D01*
X-40588098Y12999564D01*
X-40773226Y12891639D01*
X-40830500Y12858563D01*
X-41053322Y12729089D01*
X-41255390Y12609351D01*
X-41447562Y12492663D01*
X-41640695Y12372336D01*
X-41845648Y12241684D01*
X-42073277Y12094018D01*
X-42097629Y12078109D01*
X-42216365Y12001146D01*
X-42335276Y11925226D01*
X-42445041Y11856220D01*
X-42536340Y11799995D01*
X-42590101Y11767999D01*
X-42851273Y11605004D01*
X-43127655Y11410386D01*
X-43413558Y11189336D01*
X-43703293Y10947046D01*
X-43991174Y10688709D01*
X-44271511Y10419517D01*
X-44538616Y10144661D01*
X-44786800Y9869335D01*
X-45010375Y9598728D01*
X-45110913Y9467147D01*
X-45297248Y9196615D01*
X-45444002Y8940681D01*
X-45551252Y8699130D01*
X-45619076Y8471749D01*
X-45647549Y8258321D01*
X-45636748Y8058633D01*
X-45629390Y8017896D01*
X-45586769Y7852045D01*
X-45530827Y7719258D01*
X-45457190Y7616231D01*
X-45361487Y7539660D01*
X-45239345Y7486240D01*
X-45086391Y7452667D01*
X-44898253Y7435638D01*
X-44856638Y7433948D01*
X-44641406Y7436891D01*
X-44411630Y7460505D01*
X-44163648Y7505627D01*
X-43893801Y7573093D01*
X-43598428Y7663740D01*
X-43273867Y7778404D01*
X-43158833Y7822003D01*
X-42959594Y7899696D01*
X-42778505Y7972961D01*
X-42611102Y8044291D01*
X-42452917Y8116178D01*
X-42299484Y8191112D01*
X-42146337Y8271586D01*
X-41989009Y8360092D01*
X-41823033Y8459120D01*
X-41643944Y8571162D01*
X-41447274Y8698711D01*
X-41228558Y8844258D01*
X-40983328Y9010294D01*
X-40781910Y9147990D01*
X-40592446Y9276316D01*
X-40425732Y9386003D01*
X-40283626Y9475943D01*
X-40167989Y9545025D01*
X-40080678Y9592138D01*
X-40023553Y9616175D01*
X-39998472Y9616023D01*
X-39998350Y9615832D01*
X-39983433Y9579318D01*
X-39965676Y9512835D01*
X-39944560Y9413812D01*
X-39919564Y9279672D01*
X-39890168Y9107842D01*
X-39867554Y8969117D01*
X-39831460Y8754263D01*
X-39788870Y8517301D01*
X-39741648Y8267505D01*
X-39691658Y8014145D01*
X-39640762Y7766495D01*
X-39590823Y7533826D01*
X-39543704Y7325409D01*
X-39505320Y7166514D01*
X-39467422Y7029033D01*
X-39416185Y6862088D01*
X-39354945Y6675130D01*
X-39287032Y6477607D01*
X-39215781Y6278969D01*
X-39144524Y6088666D01*
X-39076595Y5916147D01*
X-39015326Y5770861D01*
X-39004548Y5746750D01*
X-38956722Y5643892D01*
X-38896732Y5519136D01*
X-38832151Y5388032D01*
X-38770553Y5266133D01*
X-38768997Y5263105D01*
X-38719027Y5163943D01*
X-38676951Y5076694D01*
X-38646278Y5008930D01*
X-38630516Y4968217D01*
X-38629166Y4961480D01*
X-38632349Y4944924D01*
X-38645514Y4936355D01*
X-38674091Y4936763D01*
X-38723508Y4947136D01*
X-38799192Y4968462D01*
X-38906573Y5001729D01*
X-38981685Y5025658D01*
X-39171721Y5085211D01*
X-39324928Y5130297D01*
X-39443998Y5161624D01*
X-39531621Y5179900D01*
X-39590483Y5185834D01*
X-39644799Y5174746D01*
X-39728723Y5141172D01*
X-39843137Y5084641D01*
X-39988926Y5004687D01*
X-40166973Y4900840D01*
X-40378163Y4772631D01*
X-40427672Y4742032D01*
X-40749650Y4546257D01*
X-41044425Y4375251D01*
X-41317070Y4226392D01*
X-41572664Y4097063D01*
X-41816282Y3984643D01*
X-42052999Y3886512D01*
X-42174583Y3840432D01*
X-42297829Y3794776D01*
X-42444303Y3739880D01*
X-42597780Y3681861D01*
X-42742038Y3626833D01*
X-42777833Y3613077D01*
X-43067605Y3504332D01*
X-43326242Y3413626D01*
X-43559985Y3339122D01*
X-43775080Y3278987D01*
X-43977769Y3231386D01*
X-44174295Y3194485D01*
X-44235044Y3184916D01*
X-44339987Y3172063D01*
X-44468832Y3160756D01*
X-44610708Y3151496D01*
X-44754741Y3144782D01*
X-44890061Y3141115D01*
X-45005794Y3140994D01*
X-45091070Y3144918D01*
X-45095583Y3145354D01*
X-45418456Y3193435D01*
X-45713876Y3269227D01*
X-45980002Y3372091D01*
X-46214994Y3501387D01*
X-46307472Y3566050D01*
X-46406996Y3647299D01*
X-46523167Y3752428D01*
X-46646477Y3872030D01*
X-46767419Y3996699D01*
X-46876483Y4117028D01*
X-46936037Y4187884D01*
X-47035899Y4334554D01*
X-47130767Y4520032D01*
X-47219323Y4740957D01*
X-47300248Y4993962D01*
X-47372225Y5275685D01*
X-47385175Y5334000D01*
X-47417872Y5525792D01*
X-47440409Y5744839D01*
X-47452334Y5977190D01*
X-47453195Y6208896D01*
X-47442537Y6426007D01*
X-47425580Y6578680D01*
X-47363242Y6906637D01*
X-47272446Y7232266D01*
X-47151858Y7558018D01*
X-47000148Y7886342D01*
X-46815982Y8219688D01*
X-46598028Y8560505D01*
X-46344955Y8911244D01*
X-46055430Y9274352D01*
X-45794433Y9577917D01*
X-45713432Y9670425D01*
X-45620136Y9778591D01*
X-45529170Y9885402D01*
X-45486434Y9936206D01*
X-45199305Y10262589D01*
X-44882184Y10592392D01*
X-44541285Y10920411D01*
X-44182822Y11241439D01*
X-43813008Y11550273D01*
X-43438056Y11841706D01*
X-43064180Y12110533D01*
X-42697593Y12351549D01*
X-42375666Y12542263D01*
X-42196435Y12641418D01*
X-42004599Y12745905D01*
X-41804063Y12853719D01*
X-41598736Y12962857D01*
X-41392524Y13071316D01*
X-41189333Y13177091D01*
X-40993070Y13278179D01*
X-40807642Y13372576D01*
X-40636955Y13458279D01*
X-40484916Y13533283D01*
X-40355431Y13595585D01*
X-40252408Y13643181D01*
X-40179753Y13674068D01*
X-40147600Y13685047D01*
X-40087632Y13688600D01*
X-40049310Y13661428D01*
G36*
X32366853Y26235592D02*
G01*
X32402707Y26230961D01*
X32572877Y26195890D01*
X32775830Y26135757D01*
X33011776Y26050478D01*
X33280925Y25939974D01*
X33583487Y25804164D01*
X33898417Y25653420D01*
X34049413Y25578850D01*
X34186727Y25509936D01*
X34315514Y25443810D01*
X34440928Y25377604D01*
X34568123Y25308449D01*
X34702255Y25233476D01*
X34848478Y25149818D01*
X35011947Y25054605D01*
X35197815Y24944970D01*
X35411238Y24818043D01*
X35570584Y24722876D01*
X35745068Y24619253D01*
X35924455Y24514004D01*
X36101652Y24411202D01*
X36269565Y24314920D01*
X36421100Y24229230D01*
X36549165Y24158205D01*
X36629321Y24115012D01*
X36749155Y24050237D01*
X36900349Y23966092D01*
X37078189Y23865361D01*
X37277962Y23750830D01*
X37494952Y23625280D01*
X37724448Y23491497D01*
X37961733Y23352265D01*
X38202096Y23210368D01*
X38440821Y23068590D01*
X38673195Y22929715D01*
X38894505Y22796527D01*
X39100036Y22671810D01*
X39285074Y22558348D01*
X39444906Y22458926D01*
X39574817Y22376327D01*
X39591787Y22365329D01*
X39798846Y22228448D01*
X40027399Y22073373D01*
X40265749Y21908194D01*
X40502201Y21740997D01*
X40680959Y21612082D01*
X40767697Y21551232D01*
X40879805Y21476008D01*
X41006241Y21393636D01*
X41135964Y21311338D01*
X41220709Y21258928D01*
X41472150Y21102692D01*
X41707527Y20950410D01*
X41931321Y20798515D01*
X42148017Y20643442D01*
X42362098Y20481625D01*
X42578048Y20309497D01*
X42800351Y20123494D01*
X43033489Y19920048D01*
X43281948Y19695594D01*
X43550209Y19446565D01*
X43816844Y19194131D01*
X43984546Y19032320D01*
X44163696Y18856160D01*
X44348978Y18671105D01*
X44535080Y18482609D01*
X44716686Y18296129D01*
X44888483Y18117118D01*
X45045156Y17951033D01*
X45181391Y17803328D01*
X45287261Y17684750D01*
X45594054Y17314043D01*
X45860747Y16950594D01*
X46088527Y16592306D01*
X46278580Y16237081D01*
X46432093Y15882821D01*
X46550252Y15527429D01*
X46587522Y15385964D01*
X46624186Y15231341D01*
X46653806Y15093646D01*
X46677103Y14965478D01*
X46694798Y14839438D01*
X46707613Y14708128D01*
X46716268Y14564149D01*
X46721484Y14400101D01*
X46723983Y14208585D01*
X46724485Y13982203D01*
X46724483Y13980584D01*
X46723967Y13783470D01*
X46722662Y13621911D01*
X46720231Y13489133D01*
X46716342Y13378358D01*
X46710659Y13282812D01*
X46702849Y13195719D01*
X46692575Y13110304D01*
X46679504Y13019790D01*
X46675879Y12996334D01*
X46614470Y12646395D01*
X46544911Y12333981D01*
X46465987Y12054855D01*
X46376483Y11804783D01*
X46275185Y11579528D01*
X46262490Y11554566D01*
X46209411Y11447085D01*
X46157220Y11333813D01*
X46113161Y11230836D01*
X46091768Y11175523D01*
X45981187Y10915114D01*
X45848226Y10688265D01*
X45691009Y10493506D01*
X45507659Y10329372D01*
X45296298Y10194395D01*
X45055049Y10087107D01*
X44782034Y10006040D01*
X44534667Y9958337D01*
X44393044Y9938827D01*
X44251468Y9924331D01*
X44105411Y9914966D01*
X43950342Y9910852D01*
X43781732Y9912106D01*
X43595049Y9918847D01*
X43385765Y9931194D01*
X43149349Y9949264D01*
X42881271Y9973177D01*
X42577002Y10003050D01*
X42492084Y10011739D01*
X42249032Y10037150D01*
X42040832Y10059894D01*
X41860160Y10081000D01*
X41699696Y10101495D01*
X41552119Y10122407D01*
X41410108Y10144766D01*
X41266340Y10169598D01*
X41113495Y10197932D01*
X40974243Y10224895D01*
X40436266Y10337720D01*
X39925407Y10460394D01*
X39433993Y10595546D01*
X38954352Y10745808D01*
X38478812Y10913812D01*
X37999702Y11102188D01*
X37509349Y11313567D01*
X37000082Y11550581D01*
X36743225Y11675926D01*
X36538453Y11777789D01*
X36365354Y11865308D01*
X36217279Y11942128D01*
X36087578Y12011895D01*
X35969602Y12078255D01*
X35856704Y12144851D01*
X35742233Y12215329D01*
X35634084Y12283992D01*
X35456406Y12393983D01*
X35283902Y12493135D01*
X35124018Y12577481D01*
X34984205Y12643054D01*
X34891803Y12679332D01*
X34813524Y12703006D01*
X34757618Y12709926D01*
X34708318Y12701703D01*
X34699635Y12698972D01*
X34637047Y12663970D01*
X34613605Y12613556D01*
X34629232Y12548243D01*
X34683851Y12468548D01*
X34743337Y12406295D01*
X34794978Y12353790D01*
X34827632Y12308927D01*
X34838715Y12268017D01*
X34825644Y12227372D01*
X34785837Y12183305D01*
X34716710Y12132126D01*
X34615681Y12070147D01*
X34480166Y11993681D01*
X34438167Y11970532D01*
X34284853Y11881252D01*
X34105502Y11768258D01*
X33905954Y11635692D01*
X33692053Y11487693D01*
X33469638Y11328402D01*
X33244553Y11161959D01*
X33022638Y10992505D01*
X32809735Y10824180D01*
X32733988Y10762665D01*
X32315894Y10409369D01*
X31884555Y10023646D01*
X31445624Y9610949D01*
X31004759Y9176730D01*
X30567612Y8726443D01*
X30139841Y8265539D01*
X30110230Y8232838D01*
X30020032Y8134463D01*
X29937786Y8047396D01*
X29868202Y7976412D01*
X29815993Y7926290D01*
X29785868Y7901806D01*
X29782147Y7900212D01*
X29750048Y7909555D01*
X29696583Y7939360D01*
X29633128Y7983255D01*
X29630984Y7984879D01*
X29567286Y8036278D01*
X29484500Y8107351D01*
X29393882Y8188254D01*
X29315925Y8260399D01*
X29119632Y8445714D01*
X29134234Y8736649D01*
X29154440Y9018048D01*
X29186782Y9267137D01*
X29234094Y9492905D01*
X29299211Y9704341D01*
X29384968Y9910435D01*
X29494200Y10120175D01*
X29629742Y10342551D01*
X29651017Y10375262D01*
X29950957Y10799140D01*
X30288339Y11213938D01*
X30658598Y11615820D01*
X31057169Y12000946D01*
X31479488Y12365480D01*
X31920988Y12705583D01*
X32377105Y13017417D01*
X32843274Y13297145D01*
X33314930Y13540929D01*
X33536440Y13641667D01*
X33636827Y13684551D01*
X33709125Y13712398D01*
X33763768Y13727729D01*
X33811188Y13733065D01*
X33861816Y13730926D01*
X33892615Y13727726D01*
X33984928Y13722711D01*
X34039606Y13733039D01*
X34048217Y13738523D01*
X34071132Y13771760D01*
X34078669Y13823023D01*
X34069977Y13895129D01*
X34044205Y13990896D01*
X34000499Y14113142D01*
X33938009Y14264683D01*
X33855882Y14448337D01*
X33792466Y14584359D01*
X33713157Y14754410D01*
X33631176Y14933800D01*
X33549827Y15115012D01*
X33472415Y15290533D01*
X33402244Y15452846D01*
X33342618Y15594437D01*
X33296843Y15707791D01*
X33285454Y15737417D01*
X33258540Y15805164D01*
X33219190Y15899741D01*
X33172376Y16009389D01*
X33123068Y16122348D01*
X33115439Y16139584D01*
X32782289Y16940549D01*
X32484463Y17760545D01*
X32223859Y18593667D01*
X32002373Y19434010D01*
X31879749Y19983898D01*
X31850085Y20129430D01*
X31821890Y20272740D01*
X31794703Y20416933D01*
X31768065Y20565113D01*
X31741516Y20720385D01*
X31714597Y20885854D01*
X31697689Y20994780D01*
X35796049Y20994780D01*
X35806553Y20829329D01*
X35830790Y20665075D01*
X35834009Y20648950D01*
X35940248Y20216879D01*
X36082720Y19775932D01*
X36258377Y19333025D01*
X36464174Y18895073D01*
X36697064Y18468993D01*
X36954001Y18061698D01*
X37008903Y17981815D01*
X37170597Y17760263D01*
X37357376Y17522281D01*
X37561202Y17277805D01*
X37765820Y17045822D01*
X37855188Y16950405D01*
X37970258Y16832255D01*
X38105250Y16696943D01*
X38254385Y16550037D01*
X38411883Y16397106D01*
X38571964Y16243721D01*
X38728847Y16095450D01*
X38876754Y15957863D01*
X39009904Y15836529D01*
X39122518Y15737018D01*
X39137167Y15724416D01*
X39243688Y15634539D01*
X39371086Y15529296D01*
X39514723Y15412335D01*
X39669959Y15287304D01*
X39832157Y15157850D01*
X39996678Y15027623D01*
X40158885Y14900270D01*
X40314139Y14779440D01*
X40457802Y14668780D01*
X40585237Y14571939D01*
X40691804Y14492565D01*
X40772865Y14434305D01*
X40805545Y14412162D01*
X40905375Y14350248D01*
X41027720Y14279215D01*
X41163959Y14203602D01*
X41305475Y14127950D01*
X41443647Y14056797D01*
X41569856Y13994683D01*
X41675483Y13946147D01*
X41740667Y13919673D01*
X41864437Y13885653D01*
X42018290Y13863290D01*
X42205871Y13852226D01*
X42428584Y13852054D01*
X42561088Y13856120D01*
X42662154Y13862853D01*
X42742658Y13873607D01*
X42813476Y13889736D01*
X42869013Y13906931D01*
X43049578Y13987188D01*
X43199101Y14095711D01*
X43317835Y14232867D01*
X43406035Y14399024D01*
X43463955Y14594548D01*
X43491056Y14806084D01*
X43493298Y14937433D01*
X43482598Y15070631D01*
X43457389Y15213914D01*
X43416105Y15375521D01*
X43357179Y15563689D01*
X43334091Y15631584D01*
X43179936Y16028243D01*
X43001953Y16393049D01*
X42797753Y16730654D01*
X42692658Y16880417D01*
X42624578Y16975725D01*
X42556024Y17076085D01*
X42497121Y17166489D01*
X42471337Y17208500D01*
X42424699Y17283920D01*
X42371848Y17362142D01*
X42310069Y17446411D01*
X42236648Y17539971D01*
X42148869Y17646064D01*
X42044016Y17767934D01*
X41919376Y17908824D01*
X41772233Y18071979D01*
X41599872Y18260641D01*
X41496829Y18372667D01*
X41378174Y18501850D01*
X41240420Y18652515D01*
X41092717Y18814615D01*
X40944212Y18978099D01*
X40804054Y19132918D01*
X40726092Y19219334D01*
X40545599Y19418812D01*
X40390190Y19588470D01*
X40257508Y19730720D01*
X40145195Y19847976D01*
X40050891Y19942651D01*
X39972238Y20017158D01*
X39906879Y20073909D01*
X39852455Y20115319D01*
X39846250Y20119572D01*
X39794691Y20157528D01*
X39719187Y20217120D01*
X39627549Y20291993D01*
X39527589Y20375790D01*
X39454667Y20438238D01*
X39296769Y20573309D01*
X39165843Y20681931D01*
X39058262Y20766914D01*
X38970401Y20831066D01*
X38898634Y20877194D01*
X38861828Y20897368D01*
X38815652Y20924806D01*
X38745529Y20971330D01*
X38661149Y21030329D01*
X38576078Y21092308D01*
X38292917Y21285593D01*
X38010182Y21442353D01*
X37718541Y21567257D01*
X37458315Y21651403D01*
X37218324Y21708271D01*
X36985025Y21743429D01*
X36762284Y21757491D01*
X36553965Y21751074D01*
X36363932Y21724792D01*
X36196050Y21679260D01*
X36054183Y21615093D01*
X35942196Y21532907D01*
X35863953Y21433316D01*
X35845350Y21394692D01*
X35815605Y21287825D01*
X35799118Y21151067D01*
X35796049Y20994780D01*
X31697689Y20994780D01*
X31686847Y21064624D01*
X31657807Y21259800D01*
X31627018Y21474488D01*
X31594019Y21711791D01*
X31558352Y21974815D01*
X31519556Y22266664D01*
X31477172Y22590443D01*
X31430740Y22949257D01*
X31379800Y23346211D01*
X31366193Y23452667D01*
X31333281Y23711060D01*
X31305441Y23931964D01*
X31282247Y24119865D01*
X31263271Y24279248D01*
X31248088Y24414599D01*
X31236270Y24530404D01*
X31227391Y24631148D01*
X31221022Y24721317D01*
X31216739Y24805396D01*
X31214113Y24887871D01*
X31212719Y24973228D01*
X31212128Y25065953D01*
X31212109Y25071917D01*
X31212174Y25223258D01*
X31213754Y25339021D01*
X31217317Y25425948D01*
X31223332Y25490781D01*
X31232267Y25540262D01*
X31244591Y25581134D01*
X31248140Y25590500D01*
X31337718Y25762952D01*
X31459819Y25913693D01*
X31608977Y26039689D01*
X31779726Y26137910D01*
X31966599Y26205322D01*
X32164130Y26238894D01*
X32366853Y26235592D01*
X32366853Y26235592D01*
G37*
X32366853Y26235592D02*
X32402707Y26230961D01*
X32572877Y26195890D01*
X32775830Y26135757D01*
X33011776Y26050478D01*
X33280925Y25939974D01*
X33583487Y25804164D01*
X33898417Y25653420D01*
X34049413Y25578850D01*
X34186727Y25509936D01*
X34315514Y25443810D01*
X34440928Y25377604D01*
X34568123Y25308449D01*
X34702255Y25233476D01*
X34848478Y25149818D01*
X35011947Y25054605D01*
X35197815Y24944970D01*
X35411238Y24818043D01*
X35570584Y24722876D01*
X35745068Y24619253D01*
X35924455Y24514004D01*
X36101652Y24411202D01*
X36269565Y24314920D01*
X36421100Y24229230D01*
X36549165Y24158205D01*
X36629321Y24115012D01*
X36749155Y24050237D01*
X36900349Y23966092D01*
X37078189Y23865361D01*
X37277962Y23750830D01*
X37494952Y23625280D01*
X37724448Y23491497D01*
X37961733Y23352265D01*
X38202096Y23210368D01*
X38440821Y23068590D01*
X38673195Y22929715D01*
X38894505Y22796527D01*
X39100036Y22671810D01*
X39285074Y22558348D01*
X39444906Y22458926D01*
X39574817Y22376327D01*
X39591787Y22365329D01*
X39798846Y22228448D01*
X40027399Y22073373D01*
X40265749Y21908194D01*
X40502201Y21740997D01*
X40680959Y21612082D01*
X40767697Y21551232D01*
X40879805Y21476008D01*
X41006241Y21393636D01*
X41135964Y21311338D01*
X41220709Y21258928D01*
X41472150Y21102692D01*
X41707527Y20950410D01*
X41931321Y20798515D01*
X42148017Y20643442D01*
X42362098Y20481625D01*
X42578048Y20309497D01*
X42800351Y20123494D01*
X43033489Y19920048D01*
X43281948Y19695594D01*
X43550209Y19446565D01*
X43816844Y19194131D01*
X43984546Y19032320D01*
X44163696Y18856160D01*
X44348978Y18671105D01*
X44535080Y18482609D01*
X44716686Y18296129D01*
X44888483Y18117118D01*
X45045156Y17951033D01*
X45181391Y17803328D01*
X45287261Y17684750D01*
X45594054Y17314043D01*
X45860747Y16950594D01*
X46088527Y16592306D01*
X46278580Y16237081D01*
X46432093Y15882821D01*
X46550252Y15527429D01*
X46587522Y15385964D01*
X46624186Y15231341D01*
X46653806Y15093646D01*
X46677103Y14965478D01*
X46694798Y14839438D01*
X46707613Y14708128D01*
X46716268Y14564149D01*
X46721484Y14400101D01*
X46723983Y14208585D01*
X46724485Y13982203D01*
X46724483Y13980584D01*
X46723967Y13783470D01*
X46722662Y13621911D01*
X46720231Y13489133D01*
X46716342Y13378358D01*
X46710659Y13282812D01*
X46702849Y13195719D01*
X46692575Y13110304D01*
X46679504Y13019790D01*
X46675879Y12996334D01*
X46614470Y12646395D01*
X46544911Y12333981D01*
X46465987Y12054855D01*
X46376483Y11804783D01*
X46275185Y11579528D01*
X46262490Y11554566D01*
X46209411Y11447085D01*
X46157220Y11333813D01*
X46113161Y11230836D01*
X46091768Y11175523D01*
X45981187Y10915114D01*
X45848226Y10688265D01*
X45691009Y10493506D01*
X45507659Y10329372D01*
X45296298Y10194395D01*
X45055049Y10087107D01*
X44782034Y10006040D01*
X44534667Y9958337D01*
X44393044Y9938827D01*
X44251468Y9924331D01*
X44105411Y9914966D01*
X43950342Y9910852D01*
X43781732Y9912106D01*
X43595049Y9918847D01*
X43385765Y9931194D01*
X43149349Y9949264D01*
X42881271Y9973177D01*
X42577002Y10003050D01*
X42492084Y10011739D01*
X42249032Y10037150D01*
X42040832Y10059894D01*
X41860160Y10081000D01*
X41699696Y10101495D01*
X41552119Y10122407D01*
X41410108Y10144766D01*
X41266340Y10169598D01*
X41113495Y10197932D01*
X40974243Y10224895D01*
X40436266Y10337720D01*
X39925407Y10460394D01*
X39433993Y10595546D01*
X38954352Y10745808D01*
X38478812Y10913812D01*
X37999702Y11102188D01*
X37509349Y11313567D01*
X37000082Y11550581D01*
X36743225Y11675926D01*
X36538453Y11777789D01*
X36365354Y11865308D01*
X36217279Y11942128D01*
X36087578Y12011895D01*
X35969602Y12078255D01*
X35856704Y12144851D01*
X35742233Y12215329D01*
X35634084Y12283992D01*
X35456406Y12393983D01*
X35283902Y12493135D01*
X35124018Y12577481D01*
X34984205Y12643054D01*
X34891803Y12679332D01*
X34813524Y12703006D01*
X34757618Y12709926D01*
X34708318Y12701703D01*
X34699635Y12698972D01*
X34637047Y12663970D01*
X34613605Y12613556D01*
X34629232Y12548243D01*
X34683851Y12468548D01*
X34743337Y12406295D01*
X34794978Y12353790D01*
X34827632Y12308927D01*
X34838715Y12268017D01*
X34825644Y12227372D01*
X34785837Y12183305D01*
X34716710Y12132126D01*
X34615681Y12070147D01*
X34480166Y11993681D01*
X34438167Y11970532D01*
X34284853Y11881252D01*
X34105502Y11768258D01*
X33905954Y11635692D01*
X33692053Y11487693D01*
X33469638Y11328402D01*
X33244553Y11161959D01*
X33022638Y10992505D01*
X32809735Y10824180D01*
X32733988Y10762665D01*
X32315894Y10409369D01*
X31884555Y10023646D01*
X31445624Y9610949D01*
X31004759Y9176730D01*
X30567612Y8726443D01*
X30139841Y8265539D01*
X30110230Y8232838D01*
X30020032Y8134463D01*
X29937786Y8047396D01*
X29868202Y7976412D01*
X29815993Y7926290D01*
X29785868Y7901806D01*
X29782147Y7900212D01*
X29750048Y7909555D01*
X29696583Y7939360D01*
X29633128Y7983255D01*
X29630984Y7984879D01*
X29567286Y8036278D01*
X29484500Y8107351D01*
X29393882Y8188254D01*
X29315925Y8260399D01*
X29119632Y8445714D01*
X29134234Y8736649D01*
X29154440Y9018048D01*
X29186782Y9267137D01*
X29234094Y9492905D01*
X29299211Y9704341D01*
X29384968Y9910435D01*
X29494200Y10120175D01*
X29629742Y10342551D01*
X29651017Y10375262D01*
X29950957Y10799140D01*
X30288339Y11213938D01*
X30658598Y11615820D01*
X31057169Y12000946D01*
X31479488Y12365480D01*
X31920988Y12705583D01*
X32377105Y13017417D01*
X32843274Y13297145D01*
X33314930Y13540929D01*
X33536440Y13641667D01*
X33636827Y13684551D01*
X33709125Y13712398D01*
X33763768Y13727729D01*
X33811188Y13733065D01*
X33861816Y13730926D01*
X33892615Y13727726D01*
X33984928Y13722711D01*
X34039606Y13733039D01*
X34048217Y13738523D01*
X34071132Y13771760D01*
X34078669Y13823023D01*
X34069977Y13895129D01*
X34044205Y13990896D01*
X34000499Y14113142D01*
X33938009Y14264683D01*
X33855882Y14448337D01*
X33792466Y14584359D01*
X33713157Y14754410D01*
X33631176Y14933800D01*
X33549827Y15115012D01*
X33472415Y15290533D01*
X33402244Y15452846D01*
X33342618Y15594437D01*
X33296843Y15707791D01*
X33285454Y15737417D01*
X33258540Y15805164D01*
X33219190Y15899741D01*
X33172376Y16009389D01*
X33123068Y16122348D01*
X33115439Y16139584D01*
X32782289Y16940549D01*
X32484463Y17760545D01*
X32223859Y18593667D01*
X32002373Y19434010D01*
X31879749Y19983898D01*
X31850085Y20129430D01*
X31821890Y20272740D01*
X31794703Y20416933D01*
X31768065Y20565113D01*
X31741516Y20720385D01*
X31714597Y20885854D01*
X31697689Y20994780D01*
X35796049Y20994780D01*
X35806553Y20829329D01*
X35830790Y20665075D01*
X35834009Y20648950D01*
X35940248Y20216879D01*
X36082720Y19775932D01*
X36258377Y19333025D01*
X36464174Y18895073D01*
X36697064Y18468993D01*
X36954001Y18061698D01*
X37008903Y17981815D01*
X37170597Y17760263D01*
X37357376Y17522281D01*
X37561202Y17277805D01*
X37765820Y17045822D01*
X37855188Y16950405D01*
X37970258Y16832255D01*
X38105250Y16696943D01*
X38254385Y16550037D01*
X38411883Y16397106D01*
X38571964Y16243721D01*
X38728847Y16095450D01*
X38876754Y15957863D01*
X39009904Y15836529D01*
X39122518Y15737018D01*
X39137167Y15724416D01*
X39243688Y15634539D01*
X39371086Y15529296D01*
X39514723Y15412335D01*
X39669959Y15287304D01*
X39832157Y15157850D01*
X39996678Y15027623D01*
X40158885Y14900270D01*
X40314139Y14779440D01*
X40457802Y14668780D01*
X40585237Y14571939D01*
X40691804Y14492565D01*
X40772865Y14434305D01*
X40805545Y14412162D01*
X40905375Y14350248D01*
X41027720Y14279215D01*
X41163959Y14203602D01*
X41305475Y14127950D01*
X41443647Y14056797D01*
X41569856Y13994683D01*
X41675483Y13946147D01*
X41740667Y13919673D01*
X41864437Y13885653D01*
X42018290Y13863290D01*
X42205871Y13852226D01*
X42428584Y13852054D01*
X42561088Y13856120D01*
X42662154Y13862853D01*
X42742658Y13873607D01*
X42813476Y13889736D01*
X42869013Y13906931D01*
X43049578Y13987188D01*
X43199101Y14095711D01*
X43317835Y14232867D01*
X43406035Y14399024D01*
X43463955Y14594548D01*
X43491056Y14806084D01*
X43493298Y14937433D01*
X43482598Y15070631D01*
X43457389Y15213914D01*
X43416105Y15375521D01*
X43357179Y15563689D01*
X43334091Y15631584D01*
X43179936Y16028243D01*
X43001953Y16393049D01*
X42797753Y16730654D01*
X42692658Y16880417D01*
X42624578Y16975725D01*
X42556024Y17076085D01*
X42497121Y17166489D01*
X42471337Y17208500D01*
X42424699Y17283920D01*
X42371848Y17362142D01*
X42310069Y17446411D01*
X42236648Y17539971D01*
X42148869Y17646064D01*
X42044016Y17767934D01*
X41919376Y17908824D01*
X41772233Y18071979D01*
X41599872Y18260641D01*
X41496829Y18372667D01*
X41378174Y18501850D01*
X41240420Y18652515D01*
X41092717Y18814615D01*
X40944212Y18978099D01*
X40804054Y19132918D01*
X40726092Y19219334D01*
X40545599Y19418812D01*
X40390190Y19588470D01*
X40257508Y19730720D01*
X40145195Y19847976D01*
X40050891Y19942651D01*
X39972238Y20017158D01*
X39906879Y20073909D01*
X39852455Y20115319D01*
X39846250Y20119572D01*
X39794691Y20157528D01*
X39719187Y20217120D01*
X39627549Y20291993D01*
X39527589Y20375790D01*
X39454667Y20438238D01*
X39296769Y20573309D01*
X39165843Y20681931D01*
X39058262Y20766914D01*
X38970401Y20831066D01*
X38898634Y20877194D01*
X38861828Y20897368D01*
X38815652Y20924806D01*
X38745529Y20971330D01*
X38661149Y21030329D01*
X38576078Y21092308D01*
X38292917Y21285593D01*
X38010182Y21442353D01*
X37718541Y21567257D01*
X37458315Y21651403D01*
X37218324Y21708271D01*
X36985025Y21743429D01*
X36762284Y21757491D01*
X36553965Y21751074D01*
X36363932Y21724792D01*
X36196050Y21679260D01*
X36054183Y21615093D01*
X35942196Y21532907D01*
X35863953Y21433316D01*
X35845350Y21394692D01*
X35815605Y21287825D01*
X35799118Y21151067D01*
X35796049Y20994780D01*
X31697689Y20994780D01*
X31686847Y21064624D01*
X31657807Y21259800D01*
X31627018Y21474488D01*
X31594019Y21711791D01*
X31558352Y21974815D01*
X31519556Y22266664D01*
X31477172Y22590443D01*
X31430740Y22949257D01*
X31379800Y23346211D01*
X31366193Y23452667D01*
X31333281Y23711060D01*
X31305441Y23931964D01*
X31282247Y24119865D01*
X31263271Y24279248D01*
X31248088Y24414599D01*
X31236270Y24530404D01*
X31227391Y24631148D01*
X31221022Y24721317D01*
X31216739Y24805396D01*
X31214113Y24887871D01*
X31212719Y24973228D01*
X31212128Y25065953D01*
X31212109Y25071917D01*
X31212174Y25223258D01*
X31213754Y25339021D01*
X31217317Y25425948D01*
X31223332Y25490781D01*
X31232267Y25540262D01*
X31244591Y25581134D01*
X31248140Y25590500D01*
X31337718Y25762952D01*
X31459819Y25913693D01*
X31608977Y26039689D01*
X31779726Y26137910D01*
X31966599Y26205322D01*
X32164130Y26238894D01*
X32366853Y26235592D01*
G36*
X31416869Y20777942D02*
G01*
X31424474Y20776333D01*
X31451159Y20762039D01*
X31475025Y20730643D01*
X31497265Y20677920D01*
X31519071Y20599646D01*
X31541637Y20491596D01*
X31566155Y20349547D01*
X31591524Y20184780D01*
X31635029Y19903616D01*
X31678130Y19651486D01*
X31723264Y19415185D01*
X31772865Y19181508D01*
X31793006Y19092334D01*
X31850979Y18839801D01*
X31901086Y18623215D01*
X31944863Y18437250D01*
X31983844Y18276577D01*
X32019565Y18135867D01*
X32053560Y18009794D01*
X32087366Y17893027D01*
X32122518Y17780240D01*
X32160550Y17666104D01*
X32202998Y17545292D01*
X32251397Y17412475D01*
X32307283Y17262324D01*
X32363262Y17113250D01*
X32418912Y16964843D01*
X32470903Y16825358D01*
X32516984Y16700906D01*
X32554900Y16597599D01*
X32582400Y16521545D01*
X32597228Y16478855D01*
X32597382Y16478378D01*
X32616518Y16424967D01*
X32646579Y16350590D01*
X32688688Y16252754D01*
X32743973Y16128968D01*
X32813558Y15976738D01*
X32898568Y15793573D01*
X33000129Y15576980D01*
X33099236Y15367000D01*
X33223123Y15103779D01*
X33328061Y14877887D01*
X33414242Y14688893D01*
X33481857Y14536366D01*
X33531096Y14419876D01*
X33562150Y14338992D01*
X33575210Y14293282D01*
X33575355Y14292227D01*
X33571035Y14275670D01*
X33552405Y14252096D01*
X33516284Y14219057D01*
X33459489Y14174104D01*
X33378839Y14114787D01*
X33271150Y14038658D01*
X33133240Y13943268D01*
X33030584Y13872983D01*
X32609550Y13583176D01*
X32225095Y13313678D01*
X31876822Y13064184D01*
X31564334Y12834393D01*
X31287235Y12623998D01*
X31045125Y12432699D01*
X30837610Y12260189D01*
X30664291Y12106167D01*
X30524772Y11970328D01*
X30480000Y11922831D01*
X30183816Y11592774D01*
X29921039Y11285302D01*
X29690496Y10998581D01*
X29491010Y10730779D01*
X29321408Y10480063D01*
X29180516Y10244601D01*
X29067157Y10022560D01*
X28980159Y9812107D01*
X28918346Y9611409D01*
X28882118Y9429750D01*
X28860283Y9289667D01*
X28839839Y9184689D01*
X28818753Y9107728D01*
X28794993Y9051696D01*
X28766527Y9009504D01*
X28759203Y9001125D01*
X28717675Y8964563D01*
X28678716Y8957892D01*
X28630532Y8981808D01*
X28592499Y9010955D01*
X28488069Y9100340D01*
X28362965Y9214360D01*
X28220969Y9349050D01*
X28065862Y9500446D01*
X27901426Y9664583D01*
X27731443Y9837498D01*
X27559693Y10015226D01*
X27389958Y10193801D01*
X27226021Y10369260D01*
X27071661Y10537639D01*
X26930661Y10694972D01*
X26806802Y10837296D01*
X26703866Y10960645D01*
X26625635Y11061056D01*
X26593261Y11106934D01*
X26470882Y11311610D01*
X26365502Y11534112D01*
X26275689Y11778995D01*
X26200011Y12050815D01*
X26137036Y12354128D01*
X26085332Y12693491D01*
X26079135Y12742334D01*
X26051020Y12982484D01*
X26028589Y13207537D01*
X26011313Y13426953D01*
X25998662Y13650196D01*
X25990106Y13886728D01*
X25985115Y14146010D01*
X25983159Y14437505D01*
X25983126Y14456834D01*
X25983152Y14660168D01*
X25984036Y14826695D01*
X25986001Y14961938D01*
X25989272Y15071420D01*
X25994071Y15160662D01*
X26000621Y15235187D01*
X26009147Y15300517D01*
X26019724Y15361408D01*
X26063129Y15561951D01*
X26116407Y15759891D01*
X26182092Y15962225D01*
X26262716Y16175953D01*
X26360814Y16408072D01*
X26478919Y16665581D01*
X26532138Y16776862D01*
X26722570Y17153550D01*
X26916477Y17499780D01*
X27117828Y17820043D01*
X27330591Y18118828D01*
X27558738Y18400628D01*
X27806236Y18669931D01*
X28077055Y18931230D01*
X28375165Y19189015D01*
X28704535Y19447776D01*
X29069134Y19712004D01*
X29216812Y19814141D01*
X29321826Y19885977D01*
X29432174Y19961524D01*
X29533817Y20031168D01*
X29604227Y20079464D01*
X29722774Y20156211D01*
X29861190Y20238420D01*
X30008334Y20320087D01*
X30153066Y20395212D01*
X30284246Y20457792D01*
X30382677Y20498863D01*
X30465890Y20532146D01*
X30542426Y20566569D01*
X30594659Y20594081D01*
X30664799Y20627921D01*
X30763375Y20662857D01*
X30880832Y20696789D01*
X31007614Y20727619D01*
X31134164Y20753248D01*
X31250927Y20771577D01*
X31348347Y20780508D01*
X31416869Y20777942D01*
X31416869Y20777942D01*
G37*
X31416869Y20777942D02*
X31424474Y20776333D01*
X31451159Y20762039D01*
X31475025Y20730643D01*
X31497265Y20677920D01*
X31519071Y20599646D01*
X31541637Y20491596D01*
X31566155Y20349547D01*
X31591524Y20184780D01*
X31635029Y19903616D01*
X31678130Y19651486D01*
X31723264Y19415185D01*
X31772865Y19181508D01*
X31793006Y19092334D01*
X31850979Y18839801D01*
X31901086Y18623215D01*
X31944863Y18437250D01*
X31983844Y18276577D01*
X32019565Y18135867D01*
X32053560Y18009794D01*
X32087366Y17893027D01*
X32122518Y17780240D01*
X32160550Y17666104D01*
X32202998Y17545292D01*
X32251397Y17412475D01*
X32307283Y17262324D01*
X32363262Y17113250D01*
X32418912Y16964843D01*
X32470903Y16825358D01*
X32516984Y16700906D01*
X32554900Y16597599D01*
X32582400Y16521545D01*
X32597228Y16478855D01*
X32597382Y16478378D01*
X32616518Y16424967D01*
X32646579Y16350590D01*
X32688688Y16252754D01*
X32743973Y16128968D01*
X32813558Y15976738D01*
X32898568Y15793573D01*
X33000129Y15576980D01*
X33099236Y15367000D01*
X33223123Y15103779D01*
X33328061Y14877887D01*
X33414242Y14688893D01*
X33481857Y14536366D01*
X33531096Y14419876D01*
X33562150Y14338992D01*
X33575210Y14293282D01*
X33575355Y14292227D01*
X33571035Y14275670D01*
X33552405Y14252096D01*
X33516284Y14219057D01*
X33459489Y14174104D01*
X33378839Y14114787D01*
X33271150Y14038658D01*
X33133240Y13943268D01*
X33030584Y13872983D01*
X32609550Y13583176D01*
X32225095Y13313678D01*
X31876822Y13064184D01*
X31564334Y12834393D01*
X31287235Y12623998D01*
X31045125Y12432699D01*
X30837610Y12260189D01*
X30664291Y12106167D01*
X30524772Y11970328D01*
X30480000Y11922831D01*
X30183816Y11592774D01*
X29921039Y11285302D01*
X29690496Y10998581D01*
X29491010Y10730779D01*
X29321408Y10480063D01*
X29180516Y10244601D01*
X29067157Y10022560D01*
X28980159Y9812107D01*
X28918346Y9611409D01*
X28882118Y9429750D01*
X28860283Y9289667D01*
X28839839Y9184689D01*
X28818753Y9107728D01*
X28794993Y9051696D01*
X28766527Y9009504D01*
X28759203Y9001125D01*
X28717675Y8964563D01*
X28678716Y8957892D01*
X28630532Y8981808D01*
X28592499Y9010955D01*
X28488069Y9100340D01*
X28362965Y9214360D01*
X28220969Y9349050D01*
X28065862Y9500446D01*
X27901426Y9664583D01*
X27731443Y9837498D01*
X27559693Y10015226D01*
X27389958Y10193801D01*
X27226021Y10369260D01*
X27071661Y10537639D01*
X26930661Y10694972D01*
X26806802Y10837296D01*
X26703866Y10960645D01*
X26625635Y11061056D01*
X26593261Y11106934D01*
X26470882Y11311610D01*
X26365502Y11534112D01*
X26275689Y11778995D01*
X26200011Y12050815D01*
X26137036Y12354128D01*
X26085332Y12693491D01*
X26079135Y12742334D01*
X26051020Y12982484D01*
X26028589Y13207537D01*
X26011313Y13426953D01*
X25998662Y13650196D01*
X25990106Y13886728D01*
X25985115Y14146010D01*
X25983159Y14437505D01*
X25983126Y14456834D01*
X25983152Y14660168D01*
X25984036Y14826695D01*
X25986001Y14961938D01*
X25989272Y15071420D01*
X25994071Y15160662D01*
X26000621Y15235187D01*
X26009147Y15300517D01*
X26019724Y15361408D01*
X26063129Y15561951D01*
X26116407Y15759891D01*
X26182092Y15962225D01*
X26262716Y16175953D01*
X26360814Y16408072D01*
X26478919Y16665581D01*
X26532138Y16776862D01*
X26722570Y17153550D01*
X26916477Y17499780D01*
X27117828Y17820043D01*
X27330591Y18118828D01*
X27558738Y18400628D01*
X27806236Y18669931D01*
X28077055Y18931230D01*
X28375165Y19189015D01*
X28704535Y19447776D01*
X29069134Y19712004D01*
X29216812Y19814141D01*
X29321826Y19885977D01*
X29432174Y19961524D01*
X29533817Y20031168D01*
X29604227Y20079464D01*
X29722774Y20156211D01*
X29861190Y20238420D01*
X30008334Y20320087D01*
X30153066Y20395212D01*
X30284246Y20457792D01*
X30382677Y20498863D01*
X30465890Y20532146D01*
X30542426Y20566569D01*
X30594659Y20594081D01*
X30664799Y20627921D01*
X30763375Y20662857D01*
X30880832Y20696789D01*
X31007614Y20727619D01*
X31134164Y20753248D01*
X31250927Y20771577D01*
X31348347Y20780508D01*
X31416869Y20777942D01*
G36*
X31170409Y22327040D02*
G01*
X31196264Y22308621D01*
X31216773Y22265017D01*
X31228348Y22230292D01*
X31272737Y22061946D01*
X31308977Y21865911D01*
X31335052Y21656384D01*
X31348948Y21447563D01*
X31350637Y21368620D01*
X31351501Y21298150D01*
X31350514Y21240248D01*
X31343953Y21192380D01*
X31328092Y21152008D01*
X31299208Y21116597D01*
X31253577Y21083610D01*
X31187473Y21050511D01*
X31097173Y21014764D01*
X30978951Y20973833D01*
X30829085Y20925181D01*
X30643848Y20866274D01*
X30585834Y20847818D01*
X30227627Y20716390D01*
X29857094Y20546729D01*
X29476841Y20340219D01*
X29089472Y20098240D01*
X28818417Y19910608D01*
X28588832Y19737501D01*
X28346626Y19540608D01*
X28099539Y19327065D01*
X27855313Y19104009D01*
X27621688Y18878574D01*
X27406405Y18657898D01*
X27217205Y18449116D01*
X27159695Y18381510D01*
X26949011Y18109796D01*
X26740600Y17804123D01*
X26538997Y17472802D01*
X26348734Y17124147D01*
X26174347Y16766470D01*
X26020369Y16408084D01*
X25891335Y16057302D01*
X25890320Y16054262D01*
X25843435Y15908578D01*
X25806633Y15779656D01*
X25778248Y15657781D01*
X25756618Y15533238D01*
X25740078Y15396312D01*
X25726963Y15237286D01*
X25715611Y15046447D01*
X25714699Y15028924D01*
X25708511Y14858108D01*
X25705430Y14653609D01*
X25705270Y14423948D01*
X25707843Y14177645D01*
X25712962Y13923222D01*
X25720439Y13669201D01*
X25730085Y13424102D01*
X25741715Y13196447D01*
X25755140Y12994757D01*
X25761062Y12922210D01*
X25769572Y12804817D01*
X25775314Y12685783D01*
X25777668Y12580922D01*
X25776795Y12520044D01*
X25772772Y12442639D01*
X25766137Y12397912D01*
X25752512Y12376243D01*
X25727525Y12368013D01*
X25706571Y12365653D01*
X25654448Y12370656D01*
X25598448Y12400234D01*
X25553937Y12435388D01*
X25502490Y12487333D01*
X25435390Y12566291D01*
X25359267Y12663284D01*
X25280756Y12769333D01*
X25206488Y12875460D01*
X25143096Y12972686D01*
X25097212Y13052033D01*
X25094471Y13057388D01*
X25060691Y13131327D01*
X25017207Y13237101D01*
X24967164Y13366211D01*
X24913706Y13510156D01*
X24859977Y13660436D01*
X24809121Y13808550D01*
X24764282Y13945998D01*
X24755909Y13972762D01*
X24699608Y14163152D01*
X24653735Y14340590D01*
X24617347Y14512578D01*
X24589500Y14686616D01*
X24569250Y14870204D01*
X24555653Y15070842D01*
X24547765Y15296031D01*
X24544643Y15553271D01*
X24544502Y15652750D01*
X24549366Y16003392D01*
X24564418Y16319791D01*
X24591229Y16609155D01*
X24631371Y16878689D01*
X24686416Y17135599D01*
X24757935Y17387091D01*
X24847500Y17640370D01*
X24956684Y17902643D01*
X25087059Y18181115D01*
X25103191Y18213917D01*
X25325210Y18625314D01*
X25573971Y19016658D01*
X25815607Y19343509D01*
X26005282Y19563244D01*
X26230512Y19792047D01*
X26486462Y20026300D01*
X26768298Y20262388D01*
X27071187Y20496693D01*
X27390295Y20725599D01*
X27720787Y20945489D01*
X28057829Y21152746D01*
X28396588Y21343755D01*
X28691417Y21495109D01*
X28851601Y21572110D01*
X29000172Y21640464D01*
X29144223Y21702895D01*
X29290849Y21762132D01*
X29447145Y21820900D01*
X29620206Y21881925D01*
X29817126Y21947934D01*
X30045000Y22021654D01*
X30141334Y22052304D01*
X30361936Y22121992D01*
X30546064Y22179529D01*
X30697464Y22225972D01*
X30819883Y22262378D01*
X30917067Y22289803D01*
X30992762Y22309305D01*
X31050715Y22321939D01*
X31094671Y22328763D01*
X31128377Y22330834D01*
X31128749Y22330834D01*
X31170409Y22327040D01*
X31170409Y22327040D01*
G37*
X31170409Y22327040D02*
X31196264Y22308621D01*
X31216773Y22265017D01*
X31228348Y22230292D01*
X31272737Y22061946D01*
X31308977Y21865911D01*
X31335052Y21656384D01*
X31348948Y21447563D01*
X31350637Y21368620D01*
X31351501Y21298150D01*
X31350514Y21240248D01*
X31343953Y21192380D01*
X31328092Y21152008D01*
X31299208Y21116597D01*
X31253577Y21083610D01*
X31187473Y21050511D01*
X31097173Y21014764D01*
X30978951Y20973833D01*
X30829085Y20925181D01*
X30643848Y20866274D01*
X30585834Y20847818D01*
X30227627Y20716390D01*
X29857094Y20546729D01*
X29476841Y20340219D01*
X29089472Y20098240D01*
X28818417Y19910608D01*
X28588832Y19737501D01*
X28346626Y19540608D01*
X28099539Y19327065D01*
X27855313Y19104009D01*
X27621688Y18878574D01*
X27406405Y18657898D01*
X27217205Y18449116D01*
X27159695Y18381510D01*
X26949011Y18109796D01*
X26740600Y17804123D01*
X26538997Y17472802D01*
X26348734Y17124147D01*
X26174347Y16766470D01*
X26020369Y16408084D01*
X25891335Y16057302D01*
X25890320Y16054262D01*
X25843435Y15908578D01*
X25806633Y15779656D01*
X25778248Y15657781D01*
X25756618Y15533238D01*
X25740078Y15396312D01*
X25726963Y15237286D01*
X25715611Y15046447D01*
X25714699Y15028924D01*
X25708511Y14858108D01*
X25705430Y14653609D01*
X25705270Y14423948D01*
X25707843Y14177645D01*
X25712962Y13923222D01*
X25720439Y13669201D01*
X25730085Y13424102D01*
X25741715Y13196447D01*
X25755140Y12994757D01*
X25761062Y12922210D01*
X25769572Y12804817D01*
X25775314Y12685783D01*
X25777668Y12580922D01*
X25776795Y12520044D01*
X25772772Y12442639D01*
X25766137Y12397912D01*
X25752512Y12376243D01*
X25727525Y12368013D01*
X25706571Y12365653D01*
X25654448Y12370656D01*
X25598448Y12400234D01*
X25553937Y12435388D01*
X25502490Y12487333D01*
X25435390Y12566291D01*
X25359267Y12663284D01*
X25280756Y12769333D01*
X25206488Y12875460D01*
X25143096Y12972686D01*
X25097212Y13052033D01*
X25094471Y13057388D01*
X25060691Y13131327D01*
X25017207Y13237101D01*
X24967164Y13366211D01*
X24913706Y13510156D01*
X24859977Y13660436D01*
X24809121Y13808550D01*
X24764282Y13945998D01*
X24755909Y13972762D01*
X24699608Y14163152D01*
X24653735Y14340590D01*
X24617347Y14512578D01*
X24589500Y14686616D01*
X24569250Y14870204D01*
X24555653Y15070842D01*
X24547765Y15296031D01*
X24544643Y15553271D01*
X24544502Y15652750D01*
X24549366Y16003392D01*
X24564418Y16319791D01*
X24591229Y16609155D01*
X24631371Y16878689D01*
X24686416Y17135599D01*
X24757935Y17387091D01*
X24847500Y17640370D01*
X24956684Y17902643D01*
X25087059Y18181115D01*
X25103191Y18213917D01*
X25325210Y18625314D01*
X25573971Y19016658D01*
X25815607Y19343509D01*
X26005282Y19563244D01*
X26230512Y19792047D01*
X26486462Y20026300D01*
X26768298Y20262388D01*
X27071187Y20496693D01*
X27390295Y20725599D01*
X27720787Y20945489D01*
X28057829Y21152746D01*
X28396588Y21343755D01*
X28691417Y21495109D01*
X28851601Y21572110D01*
X29000172Y21640464D01*
X29144223Y21702895D01*
X29290849Y21762132D01*
X29447145Y21820900D01*
X29620206Y21881925D01*
X29817126Y21947934D01*
X30045000Y22021654D01*
X30141334Y22052304D01*
X30361936Y22121992D01*
X30546064Y22179529D01*
X30697464Y22225972D01*
X30819883Y22262378D01*
X30917067Y22289803D01*
X30992762Y22309305D01*
X31050715Y22321939D01*
X31094671Y22328763D01*
X31128377Y22330834D01*
X31128749Y22330834D01*
X31170409Y22327040D01*
D11*
X26924000Y-32258000D03*
X29464000Y-32258000D03*
X29464000Y-34798000D03*
D12*
X26924000Y-34798000D03*
X24384000Y-32258000D03*
X24384000Y-34798000D03*
X-9652000Y-40640000D03*
X-9652000Y-38100000D03*
X-7112000Y-40640000D03*
D11*
X-4572000Y-40640000D03*
X-4572000Y-38100000D03*
X-7112000Y-38100000D03*
M02*
